<?xml version="1.0" encoding="utf-8"?>
<!-- Generator: Adobe Illustrator 15.1.0, SVG Export Plug-In . SVG Version: 6.00 Build 0)  -->
<!DOCTYPE svg PUBLIC "-//W3C//DTD SVG 1.1//EN" "http://www.w3.org/Graphics/SVG/1.1/DTD/svg11.dtd" [
	<!ENTITY ns_flows "http://ns.adobe.com/Flows/1.0/">
	<!ENTITY ns_extend "http://ns.adobe.com/Extensibility/1.0/">
	<!ENTITY ns_ai "http://ns.adobe.com/AdobeIllustrator/10.0/">
	<!ENTITY ns_graphs "http://ns.adobe.com/Graphs/1.0/">
]>
<svg version="1.1" id="レイヤー_1" xmlns:x="&ns_extend;" xmlns:i="&ns_ai;" xmlns:graph="&ns_graphs;"
	 xmlns="http://www.w3.org/2000/svg" xmlns:xlink="http://www.w3.org/1999/xlink" xmlns:a="http://ns.adobe.com/AdobeSVGViewerExtensions/3.0/"
	 x="0px" y="0px" width="400px" height="157.6px" viewBox="0 0 400 157.6" style="enable-background:new 0 0 400 157.6;"
	 xml:space="preserve">
<g>
	<g>
		<g>
			<path style="fill:none;" d="M123.9,97.7c-2.6-3.4-4.5-7.2-5.5-11.4c-1-4.2-1.2-8.7-0.4-13.2c0.8-4.5,2.4-8.9,4.8-13
				c2.4-4,5.6-7.6,9.4-10.6c3.8-3,8-5.3,12.5-6.7c4.5-1.4,9.2-2.1,13.7-1.8c4.5,0.3,8.9,1.5,12.8,3.4s7.1,4.7,9.9,8
				c2.6,3.3,4.6,7.2,5.6,11.4c1,4.1,1.2,8.7,0.4,13.2c-0.7,4.5-2.4,8.9-4.8,13c-2.4,4-5.6,7.6-9.4,10.7c-3.8,3-8,5.3-12.5,6.8
				c-4.5,1.4-9.2,2-13.7,1.8c-4.5-0.3-8.9-1.5-12.8-3.4s-7.2-4.6-9.9-8l-32.2,25.8c6.4,7.9,14.5,14.5,23.5,19
				c9,4.6,18.9,7.1,28.7,7.7c9.9,0.6,19.7-0.7,29-3.8c9.3-3,17.9-7.8,25.4-13.7c7.5-5.9,14.1-13.4,19-21.8c5-8.4,8.5-17.7,10.1-27.5
				c1.6-9.7,1.3-19.9-1.2-29.8C224,44,219.3,34.6,213,26.7c-6.3-8-14.5-14.5-23.4-19.1c-9-4.6-18.9-7.2-28.7-7.8
				c-9.9-0.6-19.7,0.6-29,3.7c-9.3,3-17.9,7.7-25.5,13.6C98.9,23,92.3,30.4,87.3,38.8s-8.6,17.6-10.2,27.4c-1.6,9.7-1.4,19.9,1,29.8
				c2.4,9.9,7,19.3,13.2,27.2L123.9,97.7z"/>
			<path style="fill:#D3CDC5;" d="M109.7,116.3c0,0.4,0.2,0.7,0.7,0.8C110,116.9,110.1,116.4,109.7,116.3z"/>
			<path style="fill:#D3CDC5;" d="M110.9,116.4c0.3,0.2,0.1,0.7,0.7,0.8C111.3,116.9,111.5,116.4,110.9,116.4z"/>
			<path style="fill:#D3CDC5;" d="M111.7,119.3c0.1,0.4,0.3,0.2,0.7,0.4c0-0.3-0.1-0.4-0.2-0.6C112,119.1,111.9,119.4,111.7,119.3z"
				/>
			<path style="fill:#D3CDC5;" d="M115.5,131.6l0.2,0.6c0.4-0.1,0.5,0.2,0.8,0.1C116.4,131.9,116.1,131.6,115.5,131.6z"/>
			<path style="fill:#D3CDC5;" d="M112.1,117.7c-0.3,0,0.1,0.8,0.3,0.7c0.2-0.2-0.1-0.3,0-0.7C112.3,117.8,112.2,117.9,112.1,117.7z
				"/>
			<path style="fill:#D3CDC5;" d="M117,132.7c0.4,0.3,0.2,0.5,0.4,0.8c0.3-0.1,0.4-0.4,0.2-0.8L117,132.7z"/>
			<path style="fill:#D3CDC5;" d="M115.6,123.7c-0.3,0.1,0.3,0.8,0.7,0.5C116.3,123.9,115.7,124.2,115.6,123.7z"/>
			<path style="fill:#D3CDC5;" d="M120.8,135.7c0.1,0.1,0.5,0.2,0.3,0.3c0.1,0.3,0.6,0,0.8,0c0,0.4,0.3,0.7,0.8,1
				c0.3-0.6,1.1-0.2,1.8-0.1c-0.3-0.2-0.7-0.2-1-0.7c-0.2,0.4-0.3,0.1-0.9,0.2c0-0.1,0.1-0.2,0-0.4c-0.4,0-0.7-0.2-0.9-0.4
				C121.3,135.5,120.9,135.6,120.8,135.7z"/>
			<path style="fill:#D3CDC5;" d="M116.7,124.8l0.1,0.5c0.1-0.1,0.3-0.2,0.4,0C117.5,125.3,117.1,124.7,116.7,124.8z"/>
			<path style="fill:#D3CDC5;" d="M119.2,123.6c0.2,0.3,0.5,0.4,0.9,0.3C119.9,123.8,119.4,123.3,119.2,123.6z"/>
			<path style="fill:#D3CDC5;" d="M130.1,141.5c0.3,0.4,0.9,0.4,1.1,0.1C130.9,141.6,130.6,141.4,130.1,141.5z"/>
			<path style="fill:#D3CDC5;" d="M121.9,125.6c0.3,0.2,0.4,0.8,0.9,0.5C122.6,125.9,122.3,125.6,121.9,125.6z"/>
			<path style="fill:#D3CDC5;" d="M130.4,135.6c0.4,0.3,0.5,0,1.2-0.1c-0.1-0.1-0.3-0.2-0.4-0.3
				C130.8,135.7,130.4,135.1,130.4,135.6z"/>
			<path style="fill:#D3CDC5;" d="M125.6,126.4c0.3-0.2-0.4-0.6-0.5-1C124.8,125.6,125.5,126.1,125.6,126.4z"/>
			<path style="fill:#D3CDC5;" d="M128.9,128.5c0.3,0.1,0.6,0.4,1.1,0.2c-0.3-0.3-0.7-0.4-1.1-0.8
				C128.5,127.9,129.3,128.5,128.9,128.5z"/>
			<path style="fill:#D3CDC5;" d="M138.7,141.3c-0.3,0.5,0.7,0.2,0.9,0.3C139.9,141.2,139,141.4,138.7,141.3z"/>
			<path style="fill:#D3CDC5;" d="M140,139.7c-0.2-0.4-0.6,0-0.8-0.4c-0.3,0.2-0.3,0.4-0.2,0.7C139.5,139.7,139.9,140.1,140,139.7z"
				/>
			<path style="fill:#D3CDC5;" d="M146.6,145.5c0.4,0.3,0.9,0.4,1.4,0.2C147.6,145.5,147.1,145.3,146.6,145.5z"/>
			<path style="fill:#D3CDC5;" d="M128.6,123.1c0,0.4,0.3,0.3,0.3,0.6c0.4,0,0.3-0.3,0.2-0.7L128.6,123.1z"/>
			<path style="fill:#D3CDC5;" d="M130.1,126.1c0.1,0.4,0.4,0.5,0.6,0.7C131,126.5,130.5,125.9,130.1,126.1z"/>
			<path style="fill:#D3CDC5;" d="M130.4,124.2c0,0.1,0.1,0.1,0.2,0.1c0.5,0.7,1.4,0.6,2.1,1.2c0.5-0.1,0.4-0.4,0.7-0.6
				c-0.3-0.4-0.4,0.1-0.7,0c-0.2-0.4,0.1-0.4-0.3-0.6c-0.2,0.4-0.7,0.1-1.1,0.2c-0.1-0.4-0.3-0.4-0.4-0.7
				C130.3,123.8,130.8,124.1,130.4,124.2z"/>
			<path style="fill:#D3CDC5;" d="M145.8,141.1c-0.2-0.1,0.5-0.2,0.7-0.2c0.3-0.4-0.5,0-0.6-0.3c-0.5,0.1-0.3,0.4-0.5,0.5
				c0.3,0.2,0.6,0.3,0.9,0.4C146.7,141.4,146.1,141.2,145.8,141.1z"/>
			<path style="fill:#D3CDC5;" d="M128.2,114.5c0.1,0.3,0.2,0.8,0.6,0.6C128.6,114.9,128.5,114.5,128.2,114.5z"/>
			<path style="fill:#D3CDC5;" d="M128.5,113.9c-0.3,0.2,0.2,0.5,0.4,0.4C129,113.7,128.6,114.2,128.5,113.9z"/>
			<path style="fill:#D3CDC5;" d="M129.1,115.1c0.3,0,0.3-0.3,0.5-0.4c-0.1-0.1-0.2-0.1-0.3-0.3C129.1,114.5,129,114.8,129.1,115.1z
				"/>
			<path style="fill:#D3CDC5;" d="M147.3,141.1c-0.1,0.5,1,0.2,1.3,0.5C149,141,147.7,141.1,147.3,141.1z"/>
			<path style="fill:#D3CDC5;" d="M129.5,108.9c0.1,0.2,0.5,0.2,1.1,0C130.3,108.8,130,108.7,129.5,108.9z"/>
			<path style="fill:#D3CDC5;" d="M152.1,141.7c0-0.3-0.6-0.7-1-0.3C151.1,141.7,151.7,142.1,152.1,141.7z"/>
			<path style="fill:#D3CDC5;" d="M132.8,119.6c0.1,0.4,1.2,0.5,0.9-0.1C133.2,119.9,133.1,119.6,132.8,119.6z"/>
			<path style="fill:#D3CDC5;" d="M137.2,126.9c-0.1,0.5,0.9,0.7,1.3,0.3c-0.2-0.2,0-0.2,0.1-0.3
				C138.4,126.4,137.6,127.3,137.2,126.9z"/>
			<path style="fill:#D3CDC5;" d="M131.6,113.3c0,0.5,0.3,0.7,0.7,0.5C132.1,113.8,132,113.1,131.6,113.3z"/>
			<path style="fill:#D3CDC5;" d="M154.5,141.9c0.2,0,0.4,0.1,0.2,0.2c0.8-0.5,1.6,0.1,2.4-0.5C155.9,141.8,155.3,140.9,154.5,141.9
				z"/>
			<path style="fill:#D3CDC5;" d="M136.3,121.3c0.1,0.4,0.4,0,0.7,0c-0.1-0.1-0.2-0.1-0.3-0.3C136.7,121.1,136.5,121.2,136.3,121.3z
				"/>
			<path style="fill:#D3CDC5;" d="M157.4,141.6c-0.3,0.3,0.4,0.1,0.5,0.3c-0.2-0.5,0.4-0.1,0.9-0.6c-0.3-0.4-0.6,0.4-0.9,0
				C157.7,141.5,157.5,141.7,157.4,141.6z"/>
			<path style="fill:#D3CDC5;" d="M158.9,141.6c0.8,0,1.1,0.7,1.7,0.2c-0.8-0.1,0.2-0.6-0.6-0.8C160,141.6,159.3,141.3,158.9,141.6z
				"/>
			<path style="fill:#D3CDC5;" d="M137.7,117.9c0.3,0.2,0.9,0.1,0.8-0.4C138.1,117.7,138,117.6,137.7,117.9z"/>
			<path style="fill:#D3CDC5;" d="M163.2,141c0.5,0.3,1-0.1,1.5-0.1c0.3,0.2,0,0.4-0.3,0.6c0.9,0,0.7-0.8,1.9-0.9
				c-0.3-0.3-0.3-0.2-0.8-0.3c-0.5,0.4,0.2,0.1,0.4,0.4C165.1,140.9,164,140.5,163.2,141z"/>
			<path style="fill:#D3CDC5;" d="M150.8,130.3c0.4,0.3,1-0.2,1.2-0.4C151.4,129.8,150.9,129.8,150.8,130.3z"/>
			<path style="fill:#D3CDC5;" d="M144.8,123.9c0.3,0.1,0.1,0.1,0.3,0.4c0.2-0.2,0.1-0.4,0.2-0.6C145.2,123.6,145,123.8,144.8,123.9
				z"/>
			<path style="fill:#D3CDC5;" d="M153.5,125.2c0.4,0.1,0.8,0,1.3-0.3C154.3,125.1,153.6,124.8,153.5,125.2z"/>
			<path style="fill:#D3CDC5;" d="M148.2,115.3c0.1,0.3,0.3,0.2,0.5,0.3c0.3-0.1-0.4-0.4-0.1-0.5C148.5,115,148.3,115.2,148.2,115.3
				z"/>
			<path style="fill:#D3CDC5;" d="M145,110.3c0.2,0.3,0.5,0.1,0.9-0.2C145.5,110.1,145,109.9,145,110.3z"/>
			<path style="fill:#D3CDC5;" d="M163.9,126.4l0.4,0.3c0-0.1,0-0.3,0.2-0.2C164.7,126.1,164,126,163.9,126.4z"/>
			<path style="fill:#D3CDC5;" d="M150.1,113.5c0.3,0.3,0.6,0,0.9,0.4c0.1-0.2,0-0.4,0-0.6c0.2-0.1,0.5,0.2,0.5-0.2
				c-0.2-0.1-0.4,0.2-0.5-0.1C150.8,113.6,150.4,113.1,150.1,113.5z"/>
			<path style="fill:#D3CDC5;" d="M165.4,124c0.2,0,0.4,0.1,0.5,0c0.3-0.3-0.1-0.6-0.4-0.5C165.1,123.7,165.8,123.8,165.4,124z"/>
			<path style="fill:#D3CDC5;" d="M154.4,113.1c0,0.4,1,0.4,1-0.1C155.1,113.1,154.7,113.3,154.4,113.1z"/>
			<path style="fill:#D3CDC5;" d="M153.5,110.1c0.2,0.3,0.5,0.2,0.7-0.2C154,110,153.7,109.9,153.5,110.1z"/>
			<path style="fill:#D3CDC5;" d="M158.4,114c0.3,0,0.6,0.2,0.8-0.2C158.8,113.7,158.5,113.7,158.4,114z"/>
			<path style="fill:#D3CDC5;" d="M161.3,114.1c0.2,0.1,0.4-0.1,0.6,0c0.1-0.2-0.2-0.3-0.3-0.4L161.3,114.1z"/>
			<path style="fill:#D3CDC5;" d="M162.3,113.5c0.3,0.3,0.4-0.1,0.7,0C163,113.2,162.4,113.1,162.3,113.5z"/>
			<path style="fill:#D3CDC5;" d="M178.8,119.3c0.1-0.1,0-0.1-0.1-0.2c0.1-0.1,0.3,0,0.4,0c0.2-0.2-0.1-0.6,0.3-0.6
				c0.2-0.4-0.5,0.1-0.3-0.2C178.8,118.4,178.2,119.2,178.8,119.3z"/>
			<path style="fill:#D3CDC5;" d="M179.5,118.2c0.2,0.1,0.3,0,0.4-0.2c0.2,0,0.4,0.1,0.3,0.2c0.2,0,0.2-0.3,0.3-0.5l-0.6-0.2
				C179.8,118,179.5,117.9,179.5,118.2z"/>
			<path style="fill:#D3CDC5;" d="M182.3,118.4c0.3,0,0.5-0.3,0.6-0.5C182.5,117.7,182.4,118,182.3,118.4z"/>
			<path style="fill:#D3CDC5;" d="M166.9,113.2c0.4,0,0.2-0.6,0-0.7C166.4,112.6,166.8,113,166.9,113.2z"/>
			<path style="fill:#D3CDC5;" d="M166,112.4c0.4,0,1.1,0,1.1-0.7C166.6,112.1,166.1,111.7,166,112.4z"/>
			<path style="fill:#D3CDC5;" d="M167.4,112.9c0.2-0.2,0.5-0.1,0.7-0.4c-0.3,0-0.5,0.2-0.8,0.2
				C167.2,112.7,167.5,112.7,167.4,112.9z"/>
			<path style="fill:#D3CDC5;" d="M169.3,113.7c0.6-0.4,0.9-0.3,0-0.9C169.1,113.2,169.2,113.4,169.3,113.7z"/>
			<path style="fill:#D3CDC5;" d="M184.8,116.5c0.4,0,0.7-0.2,0.9-0.6C185.3,116.1,184.9,116.1,184.8,116.5z"/>
			<path style="fill:#D3CDC5;" d="M189.2,114c0.4-1,1.3-1.3,1.2-2.2c-0.6,0.5-1,1.1-1.5,1.8c-0.1,0,0-0.2,0-0.4
				C188.2,113.5,188.6,113.9,189.2,114z"/>
			<path style="fill:#D3CDC5;" d="M173.4,110.8c0.5,0-0.1-0.7,0.2-0.6C173.3,109.7,173.2,110.6,173.4,110.8z"/>
			<path style="fill:#D3CDC5;" d="M173.6,110.3c0.3,0,0.5-0.1,0.6-0.6C173.9,109.8,173.7,110,173.6,110.3z"/>
			<path style="fill:#D3CDC5;" d="M192.3,110.3l0.5,0c0.1-0.2-0.1-0.3,0-0.5C192.6,109.9,192.2,109.9,192.3,110.3z"/>
			<path style="fill:#D3CDC5;" d="M179.6,109.1c0-0.2-0.3-0.3-0.1-0.6C179.1,108.6,179.1,109.4,179.6,109.1z"/>
			<path style="fill:#D3CDC5;" d="M182.6,95.9c0.6,0.1,0.4-0.5,0.1-0.8C182.6,95.3,182.6,95.6,182.6,95.9z"/>
			<path style="fill:#D3CDC5;" d="M187.2,89.9c0.4-0.1-0.2-0.5,0.3-0.6c0.4,0,0,0.4,0.1,0.5c0.3-0.1,0.3-0.5-0.1-0.8
				c-0.1,0.2-0.2,0.2-0.4,0.1c-0.2-0.5,0.5-0.4,0.2-0.9c-0.1,0.1-0.1,0.3-0.5,0.3c0.1,0.6-0.1,0.8-0.5,0.9
				C186.7,89.5,187.2,89.4,187.2,89.9z"/>
			<path style="fill:#D3CDC5;" d="M188.4,87.3l0.4-0.1c-0.1-0.4,0-0.3-0.2-0.6c-0.4,0.1,0.1,0.8-0.4,0.3
				C188,87,188.4,87.3,188.4,87.3z"/>
			<path style="fill:#D3CDC5;" d="M189.3,86.4c-0.2-0.1-0.3-0.4-0.4-0.7l-0.3,0.1c0.1,0.1,0,0.2,0,0.2c0.3,0.2,0.2,0,0.3,0.4
				C189.1,86.4,189.1,86.5,189.3,86.4z"/>
			<path style="fill:#D3CDC5;" d="M190.1,85.5c-0.2-0.4,0.2-0.5-0.1-0.8c-0.3,0.2-0.1,0.7-0.6,0.8C189.8,85.8,189.7,85.5,190.1,85.5
				z"/>
			<path style="fill:#D3CDC5;" d="M189.8,84.1c0.1,0.3,0.2,0.4,0.5,0.3c0-0.1,0-0.2,0-0.3C190.1,84,190,84,189.8,84.1z"/>
			<path style="fill:#D3CDC5;" d="M190.1,84c0.2-0.1,0.3,0.1,0.5,0c-0.1-0.2-0.3-0.2-0.1-0.3c-0.1-0.1-0.3,0-0.5,0L190.1,84z"/>
			<path style="fill:#D3CDC5;" d="M189.7,83.3c0.1,0.1,0.9-0.3,0.6-0.5C190,82.9,189.6,83,189.7,83.3z"/>
			<path style="fill:#D3CDC5;" d="M191.8,79.4c-0.2-0.3-0.1-0.4-0.2-0.6c-0.4,0.1,0,0.4-0.4,0.4C191.3,79.5,191.5,79.7,191.8,79.4z"
				/>
			<path style="fill:#D3CDC5;" d="M192,77.1c0.2-0.1,0.3-0.3,0.2-0.6l-0.4,0.2L192,77.1z"/>
			<path style="fill:#D3CDC5;" d="M192.3,75.7c0.2-0.3,0.2-0.6,0.3-0.8c-0.1-0.3-0.5,0.4-0.6,0.1c-0.1,0.2,0.1,0.2,0.2,0.3
				C192.3,75.4,192,75.5,192.3,75.7z"/>
			<path style="fill:#D3CDC5;" d="M191.6,74.6c0.2-0.1-0.2-0.4,0-0.5c-0.3,0-0.4,0.2-0.5,0.4C191.3,74.7,191.4,74.3,191.6,74.6z"/>
			<path style="fill:#D3CDC5;" d="M193.1,73c-0.4-0.5,0-0.9,0.1-1.3c-0.5-0.3-0.7,0.5-1.1,0.7c0.5,0.1,0.5,0,0.6,0.5
				c-0.4,0.3-0.7,0.2-0.7,0.6C192.6,73.6,192.7,73.5,193.1,73z"/>
			<path style="fill:#D3CDC5;" d="M191.9,72.9c0.2-0.3,0-0.6,0.1-0.9C191.9,71.9,191.5,72.5,191.9,72.9z"/>
			<path style="fill:#D3CDC5;" d="M191.6,71.3c0.2-0.1,0.1-0.2,0.3-0.3c-0.2-0.2-0.5,0.1-0.8,0c-0.1,0.1,0,0.3,0.1,0.4
				C191.6,71,191.4,71,191.6,71.3z"/>
			<path style="fill:#D3CDC5;" d="M191.6,69.2c0.2-0.1,0.2-0.2,0.3-0.4c-0.2,0.1-0.4-0.1-0.6,0C191.6,68.9,191.4,69,191.6,69.2z"/>
			<path style="fill:#D3CDC5;" d="M184.3,45.2c0-0.5-0.4-0.6-0.9-0.6c0.1,0.3,0.2,0.8,0.4,1C183.9,45.5,184.1,45.3,184.3,45.2z"/>
			<path style="fill:#D3CDC5;" d="M177.8,41.4c0.1-0.4-0.3-0.2-0.3-0.4C177.3,41.2,177.5,41.6,177.8,41.4z"/>
			<path style="fill:#D3CDC5;" d="M171.5,37.2c0.2-0.3-0.4-0.6-0.8-0.3C170.9,37,171.2,37,171.5,37.2z"/>
			<path style="fill:#D3CDC5;" d="M168,35.6c-0.4,0.1-1.1-0.1-1.3,0.2C167,35.9,167.7,36,168,35.6z"/>
			<path style="fill:#D3CDC5;" d="M160.4,34.5c-0.2-0.2-0.6-0.1-0.8-0.2C159.5,34.6,160.1,34.9,160.4,34.5z"/>
			<path style="fill:#D3CDC5;" d="M152.1,33c0,0.2-0.2,0.4-0.3,0.6c0.2,0.1,0.3,0,0.5-0.2C152.3,33.3,152.3,33.2,152.1,33z"/>
			<path style="fill:#D3CDC5;" d="M108.5,20.6c-1,0.5-1.4,1.8-2.3,2.3C107,23,107.9,21.4,108.5,20.6z"/>
			<path style="fill:#D3CDC5;" d="M106.2,23.1c-0.5,0-0.8,0.5-0.9,1C105.7,23.9,106.1,23.5,106.2,23.1z"/>
			<path style="fill:#D3CDC5;" d="M137.8,38c0,0.2,0,0.3,0.2,0.4c-0.5,0.2-0.7,0.2-1.2,0.7c0.6,0,1.1-0.2,1.5-0.6
				C138,38.3,138,38.1,137.8,38z"/>
			<path style="fill:#D3CDC5;" d="M134.8,37.9c0.1,0.2-0.2,0.6,0.2,0.7C135.4,38.5,135.3,38.1,134.8,37.9z"/>
			<path style="fill:#D3CDC5;" d="M136.2,39.1c0-0.2-0.2-0.2-0.4-0.3c-0.1,0.2-0.2,0.4-0.1,0.6C136,39.5,135.9,39,136.2,39.1z"/>
			<path style="fill:#D3CDC5;" d="M122.2,51.8c-0.3,0.1-0.1,0.4-0.1,0.7c0.2-0.1,0.2-0.2,0.2-0.4C122.2,52,122.2,51.9,122.2,51.8z"
				/>
			<path style="fill:#D3CDC5;" d="M122.2,53.3c-0.3,0-0.1,0.6,0,0.7C122.5,53.7,122.4,53.6,122.2,53.3z"/>
			<path style="fill:#D3CDC5;" d="M120.9,54.1c-0.6,0.3-0.8,1.1-1.1,1.7c0.4,0.1,0.1,0.4,0.2,0.8C120.5,55.7,120.4,55,120.9,54.1z"
				/>
			<path style="fill:#D3CDC5;" d="M119.8,56c-0.4,0.1-0.3,0.5-0.2,0.8C119.7,56.7,119.9,56.5,119.8,56z"/>
			<path style="fill:#D3CDC5;" d="M119.3,57.1c-0.2,0.2-0.5,0.4-0.5,0.7C119,58,119.5,57.6,119.3,57.1z"/>
			<path style="fill:#D3CDC5;" d="M118.3,57.5c-0.2,0.3-0.5,0.3-0.7,0.4c0.2,0.4,0.1,0.5,0.6,0.6C117.8,58.2,118.4,57.9,118.3,57.5z
				"/>
			<path style="fill:#D3CDC5;" d="M122.1,60.4c-0.3-0.3-0.4,0.2-0.3,0.4c0.2,0,0.3-0.1,0.4-0.1C122.1,60.6,121.9,60.5,122.1,60.4z"
				/>
			<path style="fill:#D3CDC5;" d="M117.7,61.7c0-0.1-0.1-0.1-0.1-0.1l-0.2,0c0.2,0.4-0.4,0.9-0.1,1.5c0.1,0,0.2,0,0.3,0.1
				c0-0.4,0.2-0.7,0-1.1c0.6-0.1,0.2,0.3,0.5,0.5c0.3,0-0.3-0.6,0.1-0.6C117.9,61.9,117.3,62,117.7,61.7z"/>
			<path style="fill:#D3CDC5;" d="M121.6,61.5c-0.3,0.3-0.4,0.7-0.3,1.3C121.4,62.5,121.5,62,121.6,61.5z"/>
			<path style="fill:#D3CDC5;" d="M117,63.6c-0.1,0.2-0.6-0.1-0.7,0.3c0.4,0,0.5,0.2,0.5,0.6C117.2,64.2,117,64,117,63.6z"/>
			<path style="fill:#D3CDC5;" d="M117.4,64.3c-0.3,0.2-0.2,0.7-0.1,1C117.6,64.9,117.4,64.7,117.4,64.3z"/>
			<path style="fill:#D3CDC5;" d="M116.2,67.3c0.1,0.1,0.3-0.1,0.4,0.1c0.2-0.4-0.4-1.2,0.2-1.4C115.9,65.6,116.6,67,116.2,67.3z"/>
			<path style="fill:#D3CDC5;" d="M117.2,66c-0.4,0.3-0.1,1,0,1.6C117.7,67.2,117.2,66.6,117.2,66z"/>
			<path style="fill:#D3CDC5;" d="M118,67.5c-0.4-0.2-0.2,0.5-0.1,0.7C118.2,68.1,117.8,67.6,118,67.5z"/>
			<path style="fill:#D3CDC5;" d="M117.5,67.5c-0.3,0.3-0.7,0.6-0.2,1.2C117,68.3,117.7,68.1,117.5,67.5z"/>
			<path style="fill:#D3CDC5;" d="M116.2,69.3c0.5-0.2,0.7,0.2,0.4,0.5C116.2,69.9,116.3,69.5,116.2,69.3c-0.5,0,0,0.4-0.4,0.5
				c0.7,0.4,1.3,1.4,1.4,1.9c0.6,0.2-0.3-1-0.6-1.2c0.5,0.1,0.3-0.5,0.7-0.1c-0.3-0.7-0.9-1.2-1.5-2.2
				C115.6,68.5,115.9,68.8,116.2,69.3z"/>
			<path style="fill:#D3CDC5;" d="M116.6,71.4c-0.1-0.1-0.3,0-0.5,0.1c0,0.2,0.3,0.5,0.2,0.6c0.1,0.1,0.3,0,0.4,0.2
				c0.1-0.1,0.2-0.2,0.3-0.3C116.8,71.7,116.2,71.7,116.6,71.4z"/>
			<path style="fill:#D3CDC5;" d="M115.7,72.1c0,0.2,0.1,0.7,0.5,0.5C116,72.2,115.8,72.3,115.7,72.1z"/>
			<path style="fill:#D3CDC5;" d="M116.5,72.7c-0.4-0.2-0.1,0.3-0.4,0.3c0.3,0.1,0.3,0.1,0.4,0.4C116.9,73.2,116.6,72.9,116.5,72.7z
				"/>
			<path style="fill:#D3CDC5;" d="M107.6,111.9c0.1-0.2,0.5,0.1,0.4-0.4c-0.2-0.1-0.3-0.3-0.5-0.3c0.5,0.8-1.5,0.6-0.1,0.7
				c0.5,0.8,1.2,1.4,1.5,2.4c0.5,0.1,0.5,0.3,0.4,0.7c0.1,0,0.1-0.2,0.3-0.2c0.4,0.2-0.2,0.3,0,0.7c0.4-0.2,0.5,0,1.3,0
				c-0.1-0.4-0.7-0.5-1.1-0.6c0.2-0.5-0.3-0.6-0.6-0.8c0.1-1-0.8-1.5-0.8-2c-0.6-0.2-0.1,0.8,0,0.9
				C107.9,112.7,108.2,112,107.6,111.9z"/>
			<path style="fill:#D3CDC5;" d="M111.6,121.1c0.3,0.6,0.8,0.9,1.4,1.2c-0.2-0.4,0.1-0.3,0-0.7C112.4,122,112.2,121.2,111.6,121.1z
				"/>
			<path style="fill:#D3CDC5;" d="M113.8,123c0.2,0.2,0.5,0.2,0.4-0.2c0.2,0,0.2,0.3,0.2,0.4c0.5,0.1,0.5-0.1,0.8-0.1
				c0.5,0.5,1,0.9,1.7,1.1c0.2,1.2,1.3,1,1.8,1.7c-0.5,0.5-1.2-0.5-1.6-0.1c1.2,0.5,1.5,1.4,3,1.6c0.1,0.5,0.2,0.9,0.9,0.7
				c0,0.5-0.2,0.7-0.8,0.7c0,0.3,0.3,0.2,0.4,0.4c0-0.4,0.8-0.3,0.4-0.7c0.5,0.8,1.5,0.6,2.2,1c-1.1-0.2-1.9-0.2-2.1-0.3
				c-0.1,0.7,1.6,0.6,2.4,0.8c-0.2,0.4,0.6,0.7,1.1,0.8c0.1,0,0-0.3,0.2-0.3c0.1,0,0.2,0.1,0.3,0.1c0,0.1-0.3,0.2-0.1,0.4
				c0.8,0.4,1.9,0.5,2.9,0.8c0,0.1-0.1,0.1,0,0.3c-1-0.2-1.5-0.1-2.4-0.3c0.5,0.7,1.5,0.7,2.2,1.2c0.4-0.1-0.3-0.3-0.3-0.5
				c0.3-0.1,0.4,0,0.6,0c0.4,0.5-0.1,0.7,0.4,0.9c0.3,0,0.2-0.2,0.5-0.2c-0.1-0.1-0.2-0.1-0.4-0.1c-0.2-0.3,0.1-0.9-0.3-0.5
				c-0.4-0.7,0.4-0.5,0.8-0.4c-0.6,0,0.5,0.6,0,0.7c0.2,0.3,0.8-0.2,1,0c0.2,0.4-0.7,0.3-1,0.3c-0.4,0.1,0.1,0.5-0.3,0.6
				c0.3,0.4,0.9,0.1,1.2,0.5c-0.2,0.3-0.5,0-1,0.4c0.2,0.6,0.9,0.1,1.2,0.7c0.3-0.2-0.4-0.4-0.5-0.8c0.3,0.2,0.7,0.2,1,0.4
				c-0.4-0.5,0-0.6,0.2-0.9c0.1,0,0.2,0.1,0.4,0.1c0.4,0.4-0.4,0.2,0,0.6c0.7-0.3,3.2,0.9,2.8,1.4c0.4-0.2,0.7,0.1,0.9-0.3
				c0.5,0.4,0,0.5,0.4,0.9c-0.5-0.3-1.2,0-1.7-0.4c0.2,0.5,1.6,0.9,2.4,0.9c0.2,0.2-0.3,0.3,0.1,0.6c0.6-0.1,1.2-0.3,1.8,0.3
				c0.2-0.4,0.7-0.2,0.4-0.7c0.2,0.4,0.8-0.1,1.3,0.4c-0.2-0.7,1-0.1,1.1-0.5c0.8,0.3-0.6,0.4,0,0.8c0.4-0.3,0.8-0.3,1.1-0.1
				c0,0.2-0.2,0.4-0.3,0.5c-1.3,0-2.4-0.5-3.4-0.3c0.2,0.4,0.6,0,0.8,0.4c1.8-0.6,3.1,1.1,4.7,0.5c1.5,1,4.3,0.3,5.1,1.2
				c0.5,0.1,1,0.1,1.5,0.2c0.3-0.6,1.1-0.2,1.8-0.3c0,0.1-0.2,0.3,0.1,0.4c0.1-0.4,1-0.5,0.9-0.1c1.4-0.6,2.7,0.1,4.1-0.3
				c-0.4-0.2,0.3-0.4,0.5-0.5c0.2,0.2-0.5,0.4-0.4,0.6c1.2,0.3,2.3-0.4,3.5-0.5c0,0.7,1.4,0.5,1.6,0c0.3,0.3,0.5,0.1,0.8,0.2
				c0.4-1,3.2-0.2,4.4-1.3c1.2,0.6,2.9-1.4,4-0.7c-0.4,0-0.7,0.2-1.1,0.4c0.4,0.4,1.5-0.6,2.4-0.8c0.4,0,1.9,0,1.8-0.5
				c0.2-0.3,0.5,0.1,0.8,0c0.8-0.7,1.7-0.6,2.3-1.4c1.1-0.1,3.1-1.1,4.6-1.7c9.7-4.2,18.6-10.8,25.5-19.2s11.9-18.7,14.3-29.6
				c2.3-10.9,1.9-22.6-1.6-33.6c-1.7-5.5-4.2-10.7-7.3-15.5c-3.1-4.8-6.9-9.1-11-13.1c-0.1-0.4,0.3-0.3,0.6-0.3
				c2.1,2.8,5.2,4.6,6.9,7.7c0.4,0,0.5,0.2,0.9,0.5c-0.1,0.2-0.2-0.2-0.4-0.2c0.1,0.6,1,0.6,0.9,1.3c0.4,0.2,0.4-0.3,0.7-0.1
				c0.2,1.7,1.6,3.4,3.1,4.9c0.7,1.5,1.2,2.8,2.3,4c0,0.2-0.1,0.3-0.2,0.2c1.5,2,2.3,5.4,3.4,6.7c-0.1,0.4-0.3,0.1-0.2,0.6
				c0.1,0.1,0.2-0.2,0.3-0.3c0.5,3.1,2.2,5.2,2.2,8.5c0.6,0.2,0.4,1.8,0.5,2.6c0.2,1.2,0.8,2,0.5,2.7c0.5,1.1,0.7,2.2,0.3,3.3
				c0.2,0.6,0.3-0.3,0.5,0.3c0.2,0.1-0.2,0.8-0.4,0.5c0.5,0.8,0.1,1.5,0.5,2.2c-0.1,0.3-0.2,0.1-0.3,0c0.5,1,0.2,1.9,0.4,2.9
				c-0.6,0-0.1,0.1-0.3,0.8c0.2,0,0.4,0.4,0.3,0.7c-0.1,0-0.3,0.1-0.5,0.3c0.6,0.7-0.3,1.9,0.2,3.3c-0.2,0.2-0.3,0.2-0.4,0
				c0.1,1.6-0.5,5.3-0.3,5.7c0,0.8-0.7,1.5-0.3,2.4c-0.6,0.6-1.1,1.9-0.7,2.4c-1.5,4.8-2.5,9.3-4.9,13.9c0,0.3,0.1,0.2,0.2,0.4
				c-0.4,0.2-0.4,0.4-0.9,0.9c-0.7,2.8-3.4,5.6-4.5,8.7c-0.3,0.1-0.3-0.1-0.6,0c-0.6,1-1.1,2.2-2,3c0.2,0.1,1,0.3,0.4,1.4
				c-0.5,0-0.4-0.3-1,0.2c-0.3,0-0.1-0.9,0.3-0.9c0-0.6-1,0.3-0.6,0.5c-1.5,0.9-1.9,2.7-3.5,3.6c0.1,0.7-0.7,1.4-1.6,1.5
				c-0.1,0.3,0,0.3,0.2,0.3c-1.2,0.9-2.2,2.1-3.4,2.8c0,0.2,0.2,0.2,0.1,0.4c-1.7,1.2-3.6,3.6-5.3,3.9c-0.1,0.1,0.1,0.1,0.2,0.1
				c-1.9,1.3-3.6,2.9-5.9,3.7c-1.2,1.2-3.8,2.3-5.6,3.2c-0.4,0.4,0.2,0.3-0.1,0.7c-0.1,0.1-0.3,0.2-0.5,0.2c0-1.1-1.6,0.3-2.4,0.4
				c-0.1,0.5,0.6-0.1,0.8-0.1c0.3,0.3-0.5,0.5-0.6,0.6c-1.2-0.6-2.6,0.7-3.9,0.8c-0.4,0.3,0.2,0.3-0.2,0.7c-0.1,0.1-0.4,0-0.5,0.2
				c-0.2-0.1,0.1-0.3,0.3-0.5c-0.4-0.1-0.8,0.1-1.1,0.5c0,0.2,0.5,0.2,0.1,0.5c0.3,0.1,0.5-0.3,0.8-0.2c-0.3,0.5-0.9,0.2-1.1,0.8
				c-0.5-0.4-0.9,0.1-1.3,0.1c-0.2-0.4,0.8-0.2,1.1-0.7c-0.9-0.2,0.3-0.3,0.5-0.6c-1.3-0.1-1.1,0.5-2.3,0.5
				c-0.2,0.2,0.4,0.2,0.4,0.4c-0.1,0.1-0.3,0-0.4,0c-0.1,0.3,0,0.3,0.3,0.3c-0.5,0.6-1.2,0.7-1.6,1.3c-0.4-0.1-0.6,0-0.6-0.4
				c-0.5,0.1-0.9,1.1-1.5,0.9c-0.3-0.1,0.3-0.4,0.4-0.6c-0.5-0.1-0.7,0.4-0.6,0.5c-0.3,0.3-0.8-0.1-1.2,0.2
				c-0.2-0.1,0.2-0.4-0.3-0.5c-0.4,0.8-2.3,1.4-2.5,0.8c-0.5,0.1-1.1,0-1.6,0.6c-0.8-0.5-1.7,0.4-2.1-0.2c-0.5,1.1-2.4-0.1-3.5,0.7
				c-1.1-0.1-2.2,0.3-3.2,0c-0.3-0.2,0.7,0,0-0.3c-1.7,0.9-3.4-0.2-5.1,0.4c0.2,0.2,0.4,0.1,0.6,0.3c0.1,0.1-0.2,0.2,0,0.3
				c-0.8,0-1.5-0.5-2.2-0.5c-0.2,0.2,0.2,0.2,0.3,0.3c0.2,0.3-0.6-0.1-0.8,0.4c0-0.2-0.1-0.3-0.5-0.4c-0.7,1-2-0.5-3.1,0.1
				c-0.4-0.3-0.4-0.5,0.1-0.7c-0.3-0.4-0.7,0-1-0.2c-0.2,0.1,0.2,0.3,0.3,0.5c-0.4,0.3-0.7,0.1-1.1,0.3c-0.2-0.2,0-0.3,0.4-0.5
				c-1,0.3-1.8-0.2-2.7-0.2c-0.1-0.2,0.4-0.3-0.1-0.5c-0.6,0.8-3.2-0.3-4.2,0c-0.2-0.5-1.2-0.6-0.4-0.8c-0.5-0.2-0.6,0-0.8,0.3
				c-0.5-0.1-0.5-1-1.3-0.7c0.1,0.4,0.5,0.2,0.7,0.3c-0.2,0-0.2,0.1-0.2,0.2c-1.2-0.3-2.3-1.1-3.8-0.8c0.2-0.4,0.1-0.4-0.2-1
				c-0.5,0.1-0.1,0.5,0.2,0.8c-0.9,0.5-1.2-0.8-2-0.5c-0.6-0.6,0.6-0.4,0.2-0.9c-0.6,0.1-0.5,0.5-0.7,0.8c-0.6,0.1-0.3-0.5-0.6-0.5
				c-0.1-0.2,0.3-0.2,0.5-0.2c-0.4-0.3-1.1-0.2-1,0.1c-0.7-0.9-0.8-0.3-1.2-1.2c-0.9,0-0.9-0.1-1.7-0.7c-0.2,0.1,0.1,0.6-0.6,0.5
				l0.4,0.7c0.4,0.2,0.4-0.3,0.7,0.2c0.3,0,0.2-0.1,0.2-0.3c0.7,0.3,3.1,1,2.4,1.6c0.2,0.3,0.6,0,0.9-0.1c0.3,0.5-0.2,0.6-0.7,0.5
				c0.2,0.2,1.5,0.6,1.1,0c0.6,0.1,0.9,0.6,1.7,0.3c0.1,0.3-0.7,0.2-0.6,0.4c0.3,0.5,1.8,0.2,1.3,0.8c0.2,0.3,0.5-0.1,0.4-0.2
				c0.5,0.1,0.9,0.2,1.3,0.6c0.2-0.1,0.1-0.3,0.3-0.4c0.3,0,0.6,0.2,0.9,0.1c0,0.1-0.1,0.3-0.3,0.4c1.2-0.1,2.3,0.2,3.3,0.6
				c0.2,0.3-0.4-0.1-0.6,0.2c0.3,0.3,0.8,0,1.1,0.5c-0.6,0-1.1,0-1.5-0.5c-0.6,0.6-1.7-0.5-2.6-0.3c1.7,0.7,3.3,0.8,4.6,1.2
				c0.4-0.2-0.4-0.2-0.4-0.5c1-0.4,0.7,0.9,1.6,0.6c-0.2-0.1-0.5-0.2-0.7-0.2c0.5-0.3,0.7,0.2,1.1-0.2c0.3,0.2,0,0.3-0.2,0.4
				c0.2,0.1,0.5,0,0.6,0.2c0.4-0.5,2.5,0.1,3.5,0.4c0.1,0.4-0.5-0.3-0.8,0.1c1.8,0.1,3.6,0.1,5.5,0.5c0.1,0.2-0.3,0.3-0.5,0.4
				c0.5,0.5,1-0.2,1-0.4c0.8-0.1-0.1,0.5,0.7,0.6c0.8-0.2-0.5-0.4-0.1-0.6c1.1,0,2.3-0.5,3.3,0.1c0.4-0.6,0.9-0.4,1.6-0.6
				c0.5,0.2,0.1,0.3,0.5,0.5c0.9-0.5,1.7-0.4,2.5-0.5c0.2,0.3-0.7,0.2-0.9,0.4c0.5,0.3,1.6,0,2.3-0.5c0.5,0.2-0.1,0.4,0.4,0.6
				c-0.4,0.3-0.9,0.2-0.9,0.6c1.7-0.1,2.8-0.5,4.2-1.2c0.8,0.1-0.4,0.5,0.3,0.8c1.4-0.3,2.8-0.7,4.3-0.5c0.5-0.7,1.2-0.4,1.6-0.4
				c0.2-0.2-0.2-0.3,0.2-0.6c1.1,0.3,3.2-1.2,3.6-0.6c1.6-0.5,3.9-0.9,5-1.8c0.9,0.1,1.6-0.6,2.6-0.4c0.4-0.6,1.1-0.5,1.4-1.2
				c0.5,0,0.3,0.3,0.7,0.3c2.9-1.3,5.6-3,8.5-4.1c0-0.2,0.2-0.6-0.3-0.3c2.4-1.1,4.7-2.3,6.6-4.3c0.4-0.5,1.3-0.4,1.7-0.9
				c0-0.2-0.3-0.1-0.2-0.3c0.8-0.4,1.6-0.8,2.4-1.9l0.9-0.2c1.8-2.2,4-3.9,6.1-5.7c0-0.1-0.1-0.1-0.1-0.3c3.6-3.4,6.3-7.5,9.1-11.5
				c-0.1-0.9,2.2-3.6,3.1-5.5c0.5-1,0.7-2.1,1.4-2.6l0-0.7c0.8-0.3,0.6-1.7,1.4-2.4c0.3-2.4,2.2-5.4,2.5-8.3l0.5-0.4
				c0.4-3.6,1.9-7.1,1.7-10.8c0.7-1.6,0.1-3.3,0.7-4.9c-0.5-1,0.3-1.9-0.2-2.9c0.4-2.6,0.2-5.4-0.3-8.1c-0.3-6-2.2-11.9-4-17.6
				l-0.5-0.5c-0.2-0.2,0.1-0.3,0.2-0.2c-1.4-2.9-2.3-5.1-4.1-7.8l0.1-0.7c-0.3-0.5-0.7,0-0.9-0.9c0.1-0.2,0.2,0.2,0.4,0.3
				c-0.1-0.4-0.5-1-0.8-0.7c-2.9-5.2-6.5-9.9-10.7-14c-4.2-4.1-8.9-7.6-14-10.4c-10.1-5.7-21.4-8.6-32.5-9.2l-0.5,0.2
				c-3-0.5-6.1,0.3-9.1,0c-0.5,0.1-0.9,0.8-1.1,0.2c-0.4,0.2-1.7,0.5-2.5,0.3l-0.6,0.3c-1,0.1-2.1,0-3.1,0.5c-2.5,0.2-5,0.9-7.3,1.5
				c-2.5,0.8-4.8,1.5-7.2,1.9l-0.5,0.5c-0.9-0.1-2.3,0.6-2.4,1.1c-0.3-0.1-0.2-0.2-0.5-0.3c-0.2,0.7-0.7,0.5-1.1,0.5
				c-1,1-2.5,1.5-4,2.3c-0.3-0.1-0.3-0.2-0.3-0.4c-0.4,0.1-0.2,0.7-0.9,0.8c-0.1,0.1,0.1,0.1,0.2,0.2c-0.3,0.3-0.8,0.3-0.9,0.8
				c-0.3,0-0.2-0.2-0.1-0.3c-0.3,0.4-0.9,1.1-1.7,1.4c-0.5-0.2,0.3-0.4,0.4-0.8c-1.2,1.2-2.6,2.2-3.7,3.3l-0.8,0
				c-0.1-0.4-0.2,0.4,0.4,0.2c-0.4,0.7-1,1.1-1.7,1.8c-0.3-0.2-1.1,0.5-0.7-0.2c-0.4,0.1-0.1,0.7-1,0.8c-0.3,0.6,0.4,0.1,0.6,0
				c-0.5,0.9-1.4,1.1-1.9,2.1c-0.2,0,0-0.3,0-0.4c-0.3,0.1-0.3,0.5-0.7,0.3c0.5,0.3-0.3,0.4-0.4,1c-2.1,1-2.9,4-5,4.7
				c0.2,0.9-0.9,1.8-1.3,2.4c-0.3-0.4,0.6-0.9,0.8-1.5c-0.3,0-0.4,0.2-0.7,0.2c0.3-0.7,0.6-1.6,1-2.3c0.5,0.7,1.4-1.3,1.7-1.7
				c-1.5,0.7-3,2.7-3.5,4.3c-0.2,0,0-0.4,0-0.6c-0.5,0.6-1.7,1.9-1.1,2.5c-0.2,0.5-0.5,0-0.8,0.2c-0.6,1.4-1.2,2.2-1.7,3.9
				c-1.2,1.6-2.4,3.2-2.8,5.3c-0.7,0.9-1.4,2.7-1.3,3.6c-0.8,1-1.2,2.7-1.7,4.4c-0.5,1.7-1.1,3.5-2.3,4.7c1.3-0.3-0.2,2,0.8,2.2
				c-0.4,0.6,0.4,1.6-0.5,1.9c0,2.8-0.6,5.3-2,7.6c0.2,0.4,0.4,0.8,0.7,0.8c0,0.4-0.2,0.8-0.6,1c0.3,0.5,0.1,0.8,0,1.1
				c0.4,0.3,0.3,0.6,0.7,1c0.3-0.2,0-0.5,0.2-0.7c0.3,1.7-0.1,4.2-1.1,6.1c0.6,0.3,0.7,1.1,0.5,1.8c1.2,1.6,1.7,3.5,2.3,5.5
				l-0.6,0.6c0.6-0.2,0.5,1.1,0.8,1.5c-0.1,0-0.2,0.1-0.3,0c0.3,1.7,0.6,3.3,1.6,4.4c0.4,1.7,1.2,3.9,2.5,5c0.2,1.2,1.7,2.9,2.4,3.6
				c1.1,1.2,2.1,2.4,3.3,3c-0.1-0.4,0.2-0.5,0.3-0.7c0.3,0.2,0.2,0.5,0.6,0.7c0-0.5-0.4-0.6-0.2-1c-0.7-0.3-0.3-1.4-0.9-1.3
				c-0.2-0.2,0.2-0.5,0.1-0.8c-0.3-0.6-0.6-1.2-0.8-1.8c0.5,0.5,0.7,0.8,1.6,1.3c-1-2.2-2-5.3-3.5-8c-0.1-0.3,0-0.6,0-0.8
				c-0.1,0-0.3,0-0.4,0.1c0-0.3-0.2-0.6-0.4-0.9c0.7-0.5-0.6-1.6-1.3-2.1c0.3-0.3,0.6,0.2,0.8,0.4c-0.1-0.3,0.1-0.7,0.3-0.7
				c0.4,0.5,0,0.6,0.7,1c0.3-0.2-0.6-0.5-0.1-0.7c-0.2-0.4-0.3-0.1-0.5-0.4c0-0.1-0.1-0.3,0-0.4c0.3,0,0.6,0.5,0.8,0.4
				c0.1,0.1,0,0.2,0.1,0.3c-0.5-0.2-0.1,0.6,0.1,1c-0.1,0.2-0.3,0.1-0.4,0.3c0.4,0.9,1.3,0.9,1.5,1.7c-0.3,0.1-0.6-0.7-1.1-0.8
				c0,0.4,0.3,1.1,0.7,0.9c-0.1,1,0.7,1.9,1.3,2.8c0.2-0.6-0.6-1.2-0.9-1.7c0.8,0.2,1.3,1.4,1.1,2.1c0.6,0.7,1.2,1.3,1.1,2.1
				c1.7,2,2.1,4.3,3.8,6c0.2-0.6-0.3-1,0.1-1.6c-0.3-0.5-0.5-1-0.2-1.6c-0.1-0.1-0.2,0-0.4-0.1c0.5-0.5-0.3-0.8-0.1-1.2
				c0.2-0.2,0.4,0,0.6,0.2c0.2-0.5-0.4-0.9-0.4-1.4c0.1-0.4,0.4,0.1,0.6-0.2c0.1-0.7-0.7-1-1-1.7c0.4-0.3,0.9,0.5,1.3,0.7
				c0-0.1,0.1-0.3,0.2-0.5c-0.1-0.1-0.2,0.1-0.2,0.1c-0.3-0.3,0-0.6-0.4-0.7c0.1-0.2,0.3-0.1,0.4-0.3c-0.4-0.6-0.5-1.2-0.4-1.8
				c-0.2-0.2-0.5-0.2-0.7,0c-0.2-0.2-0.3-0.3-0.4-0.5c0.3-0.2,0.7-0.3,1-0.5c0.2,0.7,1.1,1.6,1.8,1.7c0.4,1,0.9,1.9,0.9,3
				c0.6-0.4,0.6,0.4,0.7,0.8c-0.3,0.2-0.1-0.4-0.4-0.5c-0.3,0.5,0.7,0.8,0.9,1.1c-0.1,0.4-0.5-0.1-0.4,0.3c0.6,0,1,1,1.1,1.6
				c0.7,0.2,0.7,0.9,1.2,1.4c0.6-0.1-0.1-0.6-0.2-0.8c0.5,0.4,1.7,1.4,1.6,2.5c0.9,0.3,1.5,2.7,2.8,2c0.1,0.6,0.9,0.3,1,0.9
				c-0.2,0.2-0.3-0.2-0.6,0.1c1.2,0.7,2.7,1.2,3.6,0.5c0.1-0.4-0.1-0.9,0.4-1.1c0-0.7-0.7-1.5,0.1-2.2c-0.6,0-0.6-0.6-1.1-0.3
				c0,0.1,0.2,0.1,0.3,0.2c-0.2,0.3-0.2,0.1-0.5,0c0.2-0.3,0.2-0.5,0.1-0.7c0.1-0.3,0.3-0.3,0.6-0.2c0-0.2-0.2-0.3-0.4-0.2
				c0.4-0.7-0.7-1.3-1.2-1.7c0.3-1-1-1.3-1.8-1.9l0.1-0.2c1-0.1,1.4,0.7,2.1,0.8c0.2-0.2-0.1-0.3,0.2-0.5c-1.4-0.7-1.3-1.5-2.3-2.4
				c0.1-0.1,0.2,0,0.2-0.1c0.2,0.4,0.9,0.8,1.4,0.9c0.2-0.2-0.1-0.3,0-0.6c-0.3,0.2-0.5,0-0.3-0.3c-0.2,0.1-0.4,0.2-0.7,0.2
				c0.1-0.4-0.5-1.2-1.2-0.8c-0.3-0.1,0.5-0.2,0.2-0.4c0.2-0.1,0.2,0.2,0.5,0c0-0.3-0.7-0.3-0.9-0.1c-0.2-0.2,0.4-0.3,0.5-0.5
				c-0.3-0.3-0.5,0-0.8-0.1c-0.2-0.1,0.2-0.3,0.3-0.2c0.1-0.3-0.4-0.2-0.5-0.2c0-0.1,0.2-0.4,0.4-0.5c0.3,0.1,0.3,0.3,0.5,0.4
				c0.2-0.5-0.4-0.5-0.8-0.4c-0.2-0.5-0.4-0.9-1.1-1.1c0.2-0.4,0.5,0,0.7-0.2c0.2,0.3,0.3,0.6,0.5,0.8c0.3-0.3,0.6-0.4,1-0.2
				c0.1-0.2-0.1-0.3-0.3-0.3c0.4-0.1,0-0.3,0.5-0.5c-0.5-0.3-0.5-0.7-0.7-1.2c0.2-0.1,0.5,0.3,0.1,0.5c0.1,0.1,0.1,0,0.2,0l0.2,0.1
				c0.3-0.3-0.1-0.5-0.3-0.8c0.3-0.2,0.7,0,1-0.3c-0.4-0.1-0.2-0.1-0.5-0.4c0.2-0.3,0.4-0.2,0.6-0.4c-0.1-0.2-0.3-0.1-0.4-0.2
				c0.2-0.2,0.3,0,0.5-0.3c-0.2-0.4-0.3-0.8-0.3-1.2c0.4-0.2,0.2,0.2,0.6,0.3c0.2-0.2-0.3-0.4,0.1-0.6c-0.1,0-0.3-0.1-0.4-0.1
				c0.2-1-0.5-2-0.3-3c-0.1-0.1-0.2,0-0.4,0.1c-0.2-0.2-0.4-0.4-0.4-0.5c1.4-0.2-0.3-1.4,0-2c1.2,0.3,0.8,0.9,1.3,1.5
				c0.3-0.3-0.3-0.7,0.3-0.7l-0.4-0.5c0.2-0.1,0.3-0.1,0.5-0.1c0,0.2,0.3,0.4,0.1,0.6c0.4,0,0.2,0.2,0.6,0.3
				c0.7-0.2-0.8-0.6-0.1-0.9l-1.3-1c0.3-0.2,0.5,0,0.7,0.1c0.5-0.1,0.2-0.4,0.3-0.6c-0.2,0-0.4-0.1-0.6-0.4
				c-0.1,0.1,0.1,0.3-0.3,0.4c-0.2-0.3-0.1-0.5,0.2-0.7l-0.7-0.8c0.5,0,0.4,0.2,0.5-0.2c0.3-0.3,0.4,0.3,0.7,0
				c-0.8-0.2-0.4-0.6-1.1-1.1c0.2-0.4,0.3-0.8,0.6-1.1c-0.7-0.4-0.8-0.9-1-1.5c0.3-0.2,0.3,0.4,0.6,0.4c0.1-0.6-0.8-1.6-1.3-2.1
				c-0.4,0.6,0.6,1.2,0.7,1.7c-0.2,0.1-0.3,0-0.4-0.1c-0.2,0.1,0.2,0.6,0.4,0.4c-0.8,0.5,0.8,2-0.1,2.6c-0.8-0.6-0.7-1.9-0.4-2.5
				c-1.1-0.7-0.6-1.8-0.5-2.8c0.4,0.4,0.7,0.6,1.3,0.9c-0.3-0.3,0-0.4-0.2-0.7c1.1-0.4-0.2-1.1,0.8-1.4c-0.2-0.8-0.1-0.5-0.1-1.3
				c-0.2,0.1-0.2-0.2-0.4-0.1c0-0.2,0.2-0.4,0-0.7c0.4-0.2,0.4,0.3,0.3,0.5c0.4,0.1,0.2-0.9-0.1-1c0.2-0.3,0-0.7,0.5-0.7
				c0.2-0.4-0.4-1.2,0.1-1.4c0.6,0,0.7,0.5,1.1,1c0.2-0.5-0.4-1.1,0.1-1.6c0.4-0.1,0.4,0.1,0.5-0.2c-0.1-0.4-0.4,0.3-0.5,0
				c-0.1,0.2-0.3,0.3-0.3,0.6c-0.4-0.1-0.4-0.2-0.5,0.2c-0.1,0-0.2-0.2-0.2-0.3c0-0.3,0.6-0.1,0.6-0.3c-0.1-0.1-0.1-0.3-0.3-0.3
				c0-0.3,0.3-0.4,0.4-0.6c0.3,0,0.3,0.1,0.2,0.3c0,0.2-0.2,0-0.3,0.1c0.2,0.2,0.3,0.4,0.7,0.3c-0.7-1.6-0.1-2.5-0.1-3.7
				c0.2,0,0.3,0,0.4,0.1c-0.2-0.2-0.2-1.2,0.1-1.6c0.4,0.2,0.1,1,0.4,1.1c-0.4-0.1-0.4,0.2,0,0.1c0.1-1,0.5-1.7,0.8-2.3
				c0.6,0.2-0.2,0.9,0.3,1.3c0.2-0.2,0.4-0.2,0.2-0.6c1-0.6,1.1-2.8,1.6-3.8c0.3,0-0.1,0.7,0.4,0.6c-0.2-0.4-0.1-0.8,0-1.2
				c-0.2,0.1-0.5,0.2-0.6,0.4c-0.1,0-0.1-0.1-0.2-0.1c0.1-0.6,0.9-0.6,0.8-1.3c0.2,0,0.2,0.2,0.5,0.2c0-0.6,0.5-0.6,0.5-1
				c0.2,0,0.3,0.1,0.3,0.3c0.2,0,0.1-0.4,0.5-0.3c0.1-0.2-0.1-0.2-0.2-0.3c1.1-1,1.8-1.8,2.7-2.9c0.2,0.1,0.2,0.3,0.2,0.5
				c0.2-0.1,0.3-0.4,0.6-0.5c0.2-0.4-0.4-0.3-0.2-0.7c0.5,0.1,0.7-0.3,0.8-0.9c0.3,0,0.2,0.3,0.6,0.3c0-0.2-0.3-0.3-0.2-0.5
				c0.6,0.2,0.3-0.2,0.7-0.8c0.3,0,0.2,0.3,0.5,0.3c0-0.2-0.1-0.3-0.3-0.3c0.3-0.5,1.6-0.7,1.8-0.2c0.4-0.7-0.8,0-0.7-0.8
				c0.3-0.1,0.3,0.1,0.7,0.1c0.2-0.5,0.7-0.4,0.5-1.1c0.3-0.2,0.7-0.4,1-0.1l0.2-0.6c-0.5-0.3,0.1,0.4-0.4,0.1
				c-0.1-0.7,1.1-0.9,1.6-1.6c0,0.4,0.2,0.6,0,0.9c0.7,0.2,0.2-0.9,0.8-1.3c0.6,0.4,0.7-0.2,1-0.7c0.6,0.3,1-0.2,1.4-0.5
				c0.2,0.3-0.4,0.3-0.4,0.6c0.2,0.2,0,0.6,0.2,0.7c0.2-0.6,0.7-1,0.9-1.7c0.2,0.1,0.3-0.1,0.7,0c0.3,0.4-0.9,0.5-0.1,0.7
				c-0.1,0.4-0.5,0.1-0.6,0.5c0.4,0.3,0.8-0.7,0.9-0.1c0.2-0.4,0.5-0.3,0.7-0.9c0.2,0.7,0.5-0.1,1,0.1c0.3-0.6,0.8-0.7,1.2-1.1
				c-0.1-0.3-0.5-0.5-0.7-0.2c-0.1-0.6,0.7-0.4,1-0.6c0.1,0.2,0,0.6-0.1,0.6c0.1,0.3,0.4,0.2,0.5,0.6c-0.2-0.7,0.4-0.3,0.6-0.9
				c-0.3-0.4-0.4,0.1-0.6-0.1c0.3-0.1,0.5-0.5,0.8-0.3c0.1,0.1-0.1,0.1-0.2,0.3c0.2,0.1,0.4,0,0.3,0.2c0.3,0.2,0-0.6,0.4-0.2
				c-0.1-0.3-0.4-0.5-0.3-0.8c0.4-0.1,0.1,0.3,0.4,0.4c0.2-0.2,0.1-0.4,0-0.6c0.1-0.1,0.3,0.1,0.4-0.2c0.5,0.3,0,0.8,0.4,1.1
				c0-0.2,0.1-0.5,0-0.7c0.2-0.4,0.6,0.3,0.8-0.4c0.3,0.2,0.3,0.4,0.5,0.5c0.3-0.4,0.7-0.2,1-0.3c0.1-0.6,0.7-0.5,1.2-0.6
				c0.2,0.1-0.4,0.4,0,0.5c0.3-0.6,0.7-0.3,1.3-0.5c0.3-0.2-0.2-0.4,0-0.6c0.5-0.1,0.1,0.5,0.5,0.7c0.2,0,0.3-0.1,0.3-0.4
				c0.9,0.8,1.6-0.7,2.4-0.2c0.3-0.6,0.5-0.5,0.9-0.9c0.1,0,0.2,0.3,0.6,0.3c0.1,0.4-0.5,0.2-0.7,0.5c0.5,0.3,0.9-0.2,1.2-0.5
				c0.4,0.2,0.2,0.4,0.4,0.7c0.3-0.1,0.5,0.2,0.7-0.3l0.3,0.4c-0.1-0.5,0.8-0.7,1-0.1c0.3-0.6,0.5-0.3,0.9-0.2
				c0.4-0.3,0-0.1-0.1-0.4c0.2-0.2,0.4,0,0.6,0c0.3,0.4,0,0.4,0,0.7c0.3,0,0.7,0.2,1,0.7c-0.1,0.1-0.2,0.1-0.2,0
				c0,0.3,0.7,0.2,1,0.3c-0.8-0.3-0.6-0.9-1.4-1.1c0.9-0.7,0.8,0.5,1.3,0.5c0-0.4-0.6-0.8-0.4-1.2c0.2,0.4,0.7,0.3,0.9,0.8
				c0.3-0.3,0.3-0.7,0.5-1c-0.2,0.6,0.2,0.6,0.5,1c0.1,0.3-0.4,0.4-0.1,0.7c0.2-0.2,0.3-0.2,0.3-0.6c0.2,0,0.4,0.4,0.4-0.1
				c0.2,0.1,0.4,0.3,0.6,0.6c0,0.3-0.7-0.1-0.7,0.4c0.5-0.2,2.5-0.6,1.9,0.3c0.2,0.1,0.6-0.2,0.7,0.1c0.5-0.7,1.2,0.1,2-0.5
				c0,0.6,0.5,0.4,0.3,0.8c0.2,0.2,0.3-0.4,0.7-0.4c0.6,0.3,1,0.6,1.8,0.4c-0.1,0.5,0.4,0.5,0.6,0.3c0,0.5,0.4,0.3,0.5,0.7
				c0.1-0.3-0.1-0.3-0.1-0.8c0.3,0.1,0.5,0.5,0.6,0.8c0.3,0.3,0.4-0.4,0.7,0.4c0.1-0.1,0-0.3,0.3-0.3c-0.4-0.1-0.6-0.3-0.8-0.6
				c0.5,0.3,1,0.5,1.6,0.7c0,0.1-0.1,0.1-0.1,0.3c-0.3,0-0.6-0.5-0.8,0c0.2,0.4,0.9-0.1,1.1,0.6c0.2-0.1,0.3-0.1,0.4,0
				c0.1-0.1,0.2-0.2,0.1-0.4c0.4-0.1,0.6,0.4,1,0.2c0.2,0.3-0.1,0.3,0,0.6c0.4,0,0.1-0.5,0.4-0.2c0.1,0.4-0.4,0.3,0,0.5
				c0.3,0,0.1-0.3,0.3-0.3c0.6,1.5,2.3,1.3,2.9,2.3c0,0.2-0.4,0.1-0.4,0.3c0.2,0.4,1.1,0,1,0.8c0.1-0.1,0.2-0.2,0.2-0.4
				c0.3-0.1,0.3,0.1,0.6,0c0.1,0.2-0.2,0.2-0.3,0.3c0,0.3,0.4,0.3,0.5,0.5c0.1,0,0.1-0.2,0.1-0.4c0.3-0.1,0.2,0.2,0.5,0.2
				c-0.1,0.1-0.3,0.1-0.2,0.4l0.5,0c0,0.3-0.2,0.3-0.1,0.6c0.6,0.4,1.3,0.7,1.8,1.3l0-0.3c0.1,0.2,0.6,0,0.5,0.3
				c0,0.2-0.2,0.2-0.4,0.2c0.2,0.5,1.1,0.7,1.4,0.7c-0.2,0.3-0.1,0.5,0.3,0.6c0-0.5,0.2-0.3,0.5-0.2c-0.6-0.4-0.5-1-1.2-1.3
				c-0.2,0,0,0.1,0,0.2c-0.4,0.1,0-0.4-0.4-0.2c0.1-0.5,0.1-0.4,0-0.9c0.5,0.9,1.8,1.3,1.9,2.1c0.1,0,0.1-0.1,0.2-0.1
				c0.3,0.1-0.3,0.2-0.2,0.4c0.8-0.2,0.8,0.5,1.1,0.9c0.5-0.2,0.6,0.1,0.7,0.4c-0.3,0.1-0.8,0.2-0.9,0.6c-0.2-0.1-0.3-0.5-0.6-0.3
				c0.2,0.2,0.2,0.3,0,0.6c0.4-0.1,0.4,0.1,0.7,0c0.3,0.1,0.1,0.5,0.6,0.5c-0.3,0.6,0.4,1,0.9,1.2c-0.4,0.3-0.3,0.5,0.3,0.6
				c-0.1,0.1-0.2,0.2-0.4,0.2c0.1,0.5,0.8,0.6,1,1.1c0.2,0,0.2-0.3,0.4-0.2c0.3,0-0.2,0.5,0.2,0.4c-0.1,0.2-0.2,0.3-0.3,0.3
				c0,0.2,0.4-0.2,0.4,0.2c-0.1,0.3-0.2,0.4-0.4,0.4c0.4,0.2,0.4,1,0.9,0.8c-0.1,0.3-0.3,0.2-0.3,0.5c0.5-0.2,0.2,0.3,0.2,0.3
				c0.3,0.4,1,0.2,0.8,1c0.5-0.1,0.5,0.6,0.8,0.8c-0.1,0.1-0.3,0-0.4,0.2c0.6,0,0.2,0.5,0.9,0.6c0.4,0,0.3-0.5,0.1-0.6
				c0-0.2,0.5,0.2,0.5,0.3c0.4,0,0-0.4,0-0.5c0.1-0.1,0.3,0,0.5,0.1c0.1,0.1-0.4,0.6,0.2,0.7c-0.1,0.3-0.3,0.5-0.5,0.4
				c-0.2,0.4,0.3,0.5,0.1,0.9c0.2,0,0.5-0.2,0.6,0.2c-0.6,0-1.2-0.3-1.8-0.7c0,0.3-0.1,0.5,0,0.8c0.2,0.1,0.5,0,0.3,0.3
				c0.2,0,0.3-0.1,0.4,0c0.3,0.3-0.1,0.2-0.3,0.6c0.7-0.3,1.2,0.9,0.5,1.3c0.4-0.1,0.1,0.3,0.5,0.4c0.2-0.3-0.2-0.5-0.1-0.8
				c0.3-0.1,0.2,0.6,0.3,0.9c0.2,0,0.4,0,0.6,0.2c0.2,0.1-0.2,0.2-0.3,0.1c-0.1,0.3,0.5,0.2,0.6,0c-0.2-0.2,0-0.4-0.3-0.5
				c0.2-0.1,0.3-0.2,0.5-0.3c0.3,0.3,0,0.8,0.3,1.1c-0.3,0.1-1-0.2-1,0.3c0.4-0.2,0.2,0.1,0.5,0.3c-0.5,0.1-0.3-0.2-0.5,0.4
				c0.3,0,0.4,0,0.6,0.3c-0.6,0.2,0.3,0.5-0.1,0.9c-0.3-0.9-0.9-1.4-0.9-2.5c-0.5,0.5-0.4-0.6-1-0.2c-0.1,0.2,0,0.3-0.2,0.4
				c0.6,0,0.3,0.7,0.1,0.9c0.4-0.3,0.5,0.3,0.9-0.2c0,0.2,0.3,0.3,0.1,0.6c-0.2,0.2-0.1-0.6-0.4,0c-0.4-0.1,0.2-0.3-0.2-0.4
				c-0.1,0.2-0.3,0.1-0.4,0.3c0.6,0.3,0.2,0.5-0.1,0.7c0.7-0.1,0.5,0.9,0.7,1.3c0.3,0.1,0.2-0.1,0.4-0.3c0.6,0.4,0.3,1.3,0.8,1.4
				c-0.2,0.3-0.4,0-0.6,0.1c0-0.4-0.3-0.8-0.2-1.2c-0.2-0.1-0.5-0.1-0.7,0.1c0.2,0.1,0.1,0.2,0,0.3c0.1,0,0.2,0,0.3,0
				c-0.5,0.5,0.2,1.5,0.7,1.7c-0.9,0-0.4,0.6-0.9,0.9c0.2,0.1,0.2,0.2,0.1,0.4c0.5,0.1,0.1-0.3,0.3-0.4c0.4-0.1,0.6,0.3,1.1,0.5
				c-0.5,0.4-0.5-0.3-0.8-0.2c-0.3,0.4,0,0.3,0.3,0.7c0.2-0.1,0.4-0.1,0.6-0.1c0.1,0.2-0.3,0.3,0.1,0.5c0.4-0.3-0.4-0.6,0.2-1
				c-0.4-0.4-0.7-0.6-0.7-1.1c0.2-0.1,0.2,0.3,0.2,0.4c0.3,0.1,0.3-0.4,0-0.3c1.7-0.3,0.4,2.1,1,3.2c0.1-0.1,0.2-0.2,0.3-0.1
				c0.3-0.2-0.2-0.4,0.1-0.5c0.2,0,0.5,0.6,0.2,0.8c0.4-0.2,0.9,0.4,0.6,0.8c-0.1,0.1-0.3-0.5-0.1-0.6c-0.5,0.1-0.5-0.2-0.9-0.2
				c-0.2,0.3-0.3,0.2-0.5,0.6c-0.2-0.5,0.1-0.9-0.5-1.5c-0.4,0.3-0.4,0-0.7,0.4c0.3,0,0.6-0.3,0.8,0.1c0,0.5-0.1,1,0,1.5
				c0.2-0.2,0.4-0.2,0.5-0.1c0.1-0.2,0.1-0.4,0.1-0.7c0.2,0,0.4,0.3,0.5,0.5c-0.1,0.1-0.2,0.1-0.3,0c-0.3,0.4,0.5,0.1,0.3,0.6
				c-0.3,0-0.5-0.2-0.8,0c0.6,0.6,0,1.6,0.6,2.2c-0.2,0.1-0.4-0.1-0.6,0.1c0.2,0.3-0.1,0.5,0.4,0.9c0.2-0.2,0.4-0.2,0.6-0.2
				c0.1,0.4-0.1,0.7,0.2,1.1c-0.4,0.1-0.9-0.3-0.4-0.7c-0.3,0.1-0.5-0.2-0.8,0c0.5,0.4,0.2,0.7,0.6,1.4c0.4-0.1-0.1-0.4,0.2-0.5
				c0.4,0.1,0,0.5,0.4,0.8c-0.2,0.1-0.3,0-0.5,0.1c0.9,0.3-0.1,0.9,0.2,1.4c-0.7,0.1-0.3-0.7-0.8-0.8c-0.1,0.1,0,0.2,0,0.2
				c-0.2,0.3-0.3-0.3-0.5,0c0.2,0.3-0.2,0.7,0.3,0.6c0.3,0.3-0.3,0.5-0.2,0.7c-0.2,0-0.5-0.2-0.2-0.4c-0.6-0.1,0.3,1.1-0.5,0.9
				l0.4,0.6c0.2-0.1,0.3-0.1,0.5-0.1c0.1,0.3-0.2,0.3-0.5,0.3c0.5,0.6-0.2,0.9-0.7,1.7c0.3,0.6-0.6,1.3-0.5,2.1
				c0.4,0.2,0.2-0.3,0.4-0.4c0.4,0.3,0.1,0.9-0.1,1.3c-0.4,0,0.2-0.4-0.2-0.5c-0.3,0.1-0.5,0.3-0.7,0.2c0.1,0.2,0.4,0.7,0.7,1.1
				c0,0.4-0.5,0.1-0.8,0.3c-0.1,0.1,0.2,0.9-0.4,0.6c0.2,0.7-0.1,1.2-0.5,1.7c-0.4,0.2-0.3-0.5-0.7-0.2c0,0.5,0.5,0.1,0.6,0.6
				c0,0.4-0.6,0.1-0.9,0.3c0,0.3-0.3,0.3-0.3,0.5c-0.2-0.2-0.4-0.2-0.7,0c0.1,0.1,0.3,0.3,0.1,0.3c0.1,0.3,0.2-0.2,0.4-0.1
				c0.2,0.3-0.2,0.4-0.3,0.5c0.1,0.3,0.4-0.1,0.4-0.2c0.2,0.1,0.3,0.3,0.5,0.4c-0.1,0.3-0.4,0.1-0.1,0.5c-0.5,0.1-0.2-0.2-0.5-0.4
				c-0.4,0.1,0,0.3,0.2,0.6c-0.1,0.4-0.5,0.6-0.5,0.9c-0.2-0.1-0.3-0.5-0.5-0.6c-0.3,0.2-1,0.2-1,0.7c-0.6-0.1-0.9-0.1-1.3,0.4
				c0.3-0.1,0.4-0.2,0.7-0.1c0.1,0.3-0.2,0.4-0.3,0.6c0,0.2,0.3,0.1,0.3,0.4c0.2-0.2,0.9-0.5,0.4-0.7c0.2,0.1,0.4,0.1,0.4,0.4
				c-0.1,0.2-0.5-0.1-0.3,0.5c-0.3,0.2-0.2-0.3-0.5-0.2c0.4,0.3,0.2,0.6-0.2,0.7c0.1,0.3,0.4,0.2,0.5,0c0.1,0.2-0.1,0.2,0,0.5
				c-0.2-0.1-0.7,0.2-0.7-0.1c-0.1,0.1,0.1,0.8-0.4,0.4c-0.3,0.1,0.4,0.8,0,0.9c-0.2,0-0.1-0.3-0.2-0.4c-0.3,0.3-1.1,0.6-0.7,1
				c0,0.1-0.5,0.4-0.5,0c-0.4,0.5-0.5,1.5,0.2,2.4c-0.1,0.2-0.3,0.2-0.3,0.4c-0.4,0-0.2-0.6-0.7-0.4c0-0.5,0.2-0.3,0.4-0.4
				c0-0.5-0.1-0.7-0.5-0.7c0,0.1,0.1,0.1,0.2,0.1c0,0.3-0.1,0.6-0.4,0.5c-0.3,0,0.1-0.2,0-0.5c-0.4-0.1-0.1,0.4-0.6,0.3
				c0.5,0.7-0.4,0.9-1.1,1c0,0.4,0.4,1,0.7,0.5c-0.4-0.2-0.1-0.3,0.2-0.4c0.2,0.1,0,0.2-0.1,0.2c0.4,0.2,0.7-0.5,1-0.8
				c-0.4,1.3-2,2.3-2.9,3.6c-0.1,0-0.1-0.2-0.1-0.4c-0.2,0-0.4,0.1-0.4,0.5c-0.4-0.3-0.3,0.1-0.7,0.1c-0.3,0,0.2-0.6-0.3-0.5
				c0.1,0.6-0.2,0.4-0.6,0.7c0.1,0.5,0.1,0.9-0.5,0.7c0,0.5-0.3,0.4-0.2,0.8c-1.3-0.4-2,1.1-3.5,1.5c0.2,0.3,0.2,0.8-0.3,0.4
				c-0.2,0.3,0,0.5,0.1,0.6c-0.1,0.1-0.1,0.2-0.3,0.1c-0.1-0.2-0.3-0.4-0.3-0.8c-0.5-0.1,0.2,0.7-0.5,0.4c0.2,0.6,0,0.5-0.3,0.7
				c-0.2-0.1-0.2-0.4-0.1-0.6c-0.3,0.7-1.5,0.9-1.5,2.1c-0.3,0.3-0.4,0.1-0.6,0.1c-0.3-0.2,0-0.5-0.4-0.7c-0.2,0.3,0,0.5,0.1,0.7
				c-0.4,0.1-0.2,0.3-0.4,0.5c-0.4-0.3-0.3-1,0.1-1.2c-0.2-0.1-0.2-0.2-0.1-0.2c-0.7-0.2-1.5-0.4-1.9,0.7c-0.3-0.1,0.2-0.5-0.2-0.6
				c-0.1,0.5-0.9,0.4-1.4,0.6c-0.1,0.2,0,0.3-0.1,0.5c-0.1-0.1,0-0.3-0.2-0.4c-0.2,0.1,0,0.1-0.2,0.4c-0.1-0.1,0-0.2-0.1-0.3
				c-0.4-0.2-0.6,0.1-0.5,0.5c-0.1-0.1-0.2-0.1-0.2,0c-0.1-0.1,0-0.2,0-0.4c-0.7,0.2-1.8-0.1-2.1,0.6c-0.7-0.2-0.4,0.3-0.9,0.1
				c-0.2,0.7-0.4,0.7-0.8,1.2c0.2,0.2,0.4,0.1,0.6,0.2c-0.2,0.3-0.5-0.1-0.6,0.2c-0.1-0.1,0-0.2,0.1-0.4c-0.5,0-1-0.1-1.4-0.1
				c-0.1-0.1,0-0.2,0.1-0.4c-0.2,0-0.4-0.1-0.6,0.2c0,1-1.7-0.1-2.3,0.7c0.8,0,1.7,0,2.5,0c-0.3,0.3-0.6,0.1-0.9,0.2
				c-0.1,0.4,0.4,0.1,0.5,0.2l-0.4,0.6c-0.2-0.1-0.1-0.3-0.3-0.4c-0.6,0.3-0.4,1.1-1.1,0.9c-0.1-0.3,0.4-0.4,0.6-0.6
				c0-0.2-0.2-0.4-0.1-0.6c-0.1,0.1-0.3,1.2-0.9,0.9c-0.1-0.2-0.1-0.3,0.1-0.5c-0.3-0.3-0.4,0.8-1,0.7c-0.3-0.2,0.2-0.5-0.2-0.7
				c-0.1,0.1,0,0.1,0,0.2c0,0.2-0.4,0.1-0.3,0.5c-0.1-0.1-0.6-0.2-0.5,0.3c-0.2-0.1-0.3,0.1-0.5-0.1c0-0.3,0.5-0.6,0.2-0.9
				c-0.2,0.1-0.4,0.2-0.6,0.4c-0.2-0.2,0-0.3-0.3-0.5c-0.4,0.1-0.8,0.1-1.3,0.1c-0.1-0.2,0.3-0.1,0.4-0.4c-0.5-0.3-0.6,0.9-1.2,0.3
				c-0.1,0.1-0.3,0.5-0.4,0.3c-0.2,0.2,0.2,0,0.3,0.4l-0.2,0.2c-0.4-0.4-0.9,0.1-1.2-0.4c0-0.4,0.6-0.4,0.8-0.1
				c0.2-0.2,0.4-0.3,0.6-0.3c-0.2,0-0.7-0.6-1.1,0c-0.3-0.3,0.1-0.5-0.2-0.8c-0.3,0.6-1.1,0.5-1.8,0.5c-0.1-0.3,0.2-0.1,0.3-0.3
				c-0.3,0-0.1-0.3-0.3-0.6c-0.4,0.2-0.7-0.1-1.1,0.3c-0.4-0.6-0.5,0-1.3,0.5c0.3,0,0.6-0.1,0.9,0c0.2-0.1,0.1-0.2,0.1-0.3
				c0.2-0.1,0.4-0.1,0.5,0.1c0.1,0.2-0.2,0.2-0.3,0.1c0,0.3,0.7,1.2,1,0.6c0.2,0.5,0.9,0.5,1.4,0.4c0.1,0.3,0,0.5,0.3,0.1
				c0.7,0.5,1.5,0.7,2.2,0.4c0,0.6,0.8,0.1,0.6,0.7c0.1-0.2,0.4-0.1,0.7-0.2c-0.1-0.2-0.2-0.1-0.4-0.3c0.1-0.1,0.3-0.1,0.4-0.2
				c0.1,0.1,0.1,0.3-0.1,0.4c0.2,0.3,0.4,0.1,0.6,0.3c0.1-0.1,0.1-0.2,0.1-0.3c0.2,0.2,0.4,0.4,0.5,0.1c0.1,0.1,0.3,0.4,0.4,0.2
				c0.2,0.2-0.4,0.3,0,0.5c0.3-0.7,1.6-0.5,1.9-0.1c0.3,0.2,0.1-0.3,0.3-0.4c0.1-0.1,0.1,0,0.2-0.1c0.3,0.2,0.1,0.4,0.4,0.6
				c0.4-0.6,1.5-0.3,2.2-0.4c0.1-0.3,0.3-0.3,0.5-0.5c-0.4-0.3-0.2,0.4-0.7,0.2c0.1-0.3,0.1-0.2-0.2-0.6c0.4-0.6,0.8-0.5,1.1-0.1
				c-0.1,0.3-0.5-0.3-0.6,0.1c0.3,0,0.6,0.4,0.3,0.7c0.5-0.1,1,0,1.5-0.1c0,0.5,0,0.3,0.4,0.4c-0.2,0.2-0.5,0.1-0.8-0.1
				c-0.1,0.2,0.3,0.3,0.1,0.5c0.3-0.2,0.6,0,0.9-0.2c0.1-0.3-0.2-0.4-0.4-0.6c0.4-0.2,0.9-0.1,1.2-0.6c0-0.2-0.2-0.4-0.2-0.7
				c0.4-0.2,0.1,0.4,0.5,0.5c0.1,0.1-0.1,0.1-0.2,0.3c0.6,0.5,1.5-0.2,2.2,0.1c0.4-0.7,1.2-0.6,1.7-0.8c0.3,0.3-0.3,0.5-0.1,0.9
				c0.6,0.2,0.3-0.7,0.8-0.1c0-0.3,0-0.6-0.4-0.8c0.5-0.4,1-0.6,1.6-0.6c-0.1-0.7,0.5-0.6,0.8-0.8c0.1,0.1,0,0.2,0,0.4
				c-0.1,0.1-0.3,0-0.5-0.1c-0.1,0.1-0.1,0.2,0,0.3l-0.1,0.2c0.4,0.1,0.4-0.5,0.9-0.2c-0.1,0.3-0.3,0.2-0.5,0.3
				c0.1,0.5,0.5,0,0.7,0.1c-0.1,0.9,0.6-0.1,1.1-0.1c-0.1-0.2-0.2-0.7,0-0.9c0,0.5,0.4,0.3,0.7,0.8c0-0.1,0.1-0.2,0.2-0.2
				c-0.3-0.4,0.2-0.5,0-1c0.2,0,1.1,0,1.3-0.6c0.4,0.1,0.2,0.4,0.3,0.6c0.5,0,0.9-0.3,1.3-0.2l0.1-0.5l-0.5-0.1
				c0,0.6-0.6,0.2-0.9,0.4c0.2-0.5,0.8-0.3,0.9-0.8c0.6,0.9,1-0.1,1.8,0c-0.3,0-0.4,0.4-0.7,0.3c0.2,0.4,0.7-0.1,0.9-0.3
				c0-0.2-0.2-0.4-0.2-0.7c0.3-0.3,0.4,0.3,0.7,0.2c0-0.2,0.1-0.2,0.3-0.2c-0.3-0.5,0.1-0.7,0.7-0.4c-0.5-0.3,0-0.2,0-0.8
				c0.7,0-0.2,0.7,0.5,0.7c-0.2-0.6,0.1-0.6,0-1.1c0.6,0.1-0.2,0.6,0.2,0.8c0.3-0.2,0.4-0.3,0.3-0.8c0.5,0.1-0.1,0.3,0.1,0.5
				c1,0,0.7-0.6,1.1-1.3c0.3,0,0.3,0.3,0.7,0.2c0.1-0.5,0.6-0.5,0.6-0.9c0.2,0.1,0.2,0.4,0.4,0.5c0,0.2-0.1,0.2-0.2,0.3
				c-0.3,0-0.2-0.3-0.3-0.4c-0.4,0.4-0.2,0.7-0.8,1.1c0.4-0.1,0.9-0.2,1.1-0.6c0.4,0-0.4,0.3,0.1,0.4c-0.4,0.1-0.7,0.4-1.1,0.7
				c0,0.1,0.2,0.1,0.2,0.3c-0.2,0.3-0.3-0.2-0.6-0.1c0,0.2-0.1,0.3-0.3,0.3c0.7,0.9-0.8,0.4-0.8,1.2c-0.4,0-0.2-0.5-0.6-0.2
				c0,0.4,0.4,0.5,0.5,1c0.3,0.1,0.4-0.3,0.7-0.2c0-0.1-0.2-0.1-0.3-0.2c0.1-0.4,0.5-0.4,0.7-0.5c0.2,0.2-0.2,0.3,0,0.6
				c-0.3,0.3-0.6,0.3-0.7,0.8c-0.4,0-0.2-0.5-0.6-0.2c0.3,1.4-1.9,1.7-2.7,2.4c-0.2-0.2,0.1-0.6-0.2-0.7c1-0.5,1.9-0.8,2.8-1.5
				c0-0.3-0.5-0.1-0.5,0.3c-0.4-0.1-0.6,0.1-0.5-0.4c-0.2,0.2-0.4,0.4-0.7,0.6c-0.2-0.2,0-0.5-0.5-0.5c0,0.6-0.2,0.5-0.6,0.6
				c-0.4,0-0.1-0.4-0.5-0.4c-0.6,0.2-1,0.9-1.2,1.3c-0.1-0.1-0.3-0.2-0.3-0.3c0.1-0.3,0.2,0.4,0.3-0.2c-0.6-0.1-0.9,0.5-1.5,0.5
				l-0.2,0.8c-0.2-0.1-0.4-0.3-0.7-0.4c-0.1,0.7,0.4,0.4,0.7,0.5c-0.2,0.4-0.8-0.2-0.9,0.4c-0.5-0.2-0.1-0.8-0.7-0.9
				c0,0.1,0.1,0.1,0.2,0.2c-0.5,0.5-1.2,0.6-1.8,0.7c-0.2,0.5,0.5,0.6,0.7,0.4c-0.2,0.3-0.1,1.1-0.6,0.9c-0.3-0.2,0.3-0.2,0.1-0.5
				c-0.3-0.3-0.2,0.3-0.5,0c-0.1,0.4,0.2,0.4-0.2,0.7c-0.2-0.1-0.3-0.3-0.2-0.5c-0.6-0.2-0.1,0.8-0.7,0.6c-0.2-0.2,0.3-0.6-0.3-0.8
				c-0.2,0.3-0.1,0.5-0.1,0.7c-0.1,0.1-0.2,0.1-0.3,0.1c-0.1-0.3,0.3-0.4,0.1-0.7c-0.4,0.2-0.4-0.1-0.9-0.2c-0.8,0-1.5,0.7-1.9,0.8
				c0.2-0.7-1.4,0.1-2,0c-0.1-0.4,0.8-0.2,0.9-0.7c-0.7-0.2-1,0.8-1.7,0.4c-0.1,0.1,0.1,0.2,0.2,0.3c-0.1,0.4-0.4,0.1-0.6,0.5
				c-0.8-0.6-1.4,0.3-1.9-0.3c-0.7,0.5-1.2,0.2-1.6,0.8c0.3,0,0.1,0.1,0.4,0.3c-0.7,0.8-1.2-0.2-1.4-0.9c-0.2,0.4,0,0.7,0,1
				c-0.4-0.1-0.7,0-1.1-0.1c-0.1-0.2,0.4-0.2,0.5-0.5c0.1,0.2-1.2-0.1-1.4,0c-0.2-0.1-0.2-0.5,0-0.3c0-0.4-0.3,0-0.5,0
				c-0.1,0.1,0.1,0.2,0.2,0.3c-0.7,0.1-1.8-0.9-2.5-0.3l-0.4-0.4c-0.2,0.2-0.3-0.1-0.5,0.2c-0.7-0.9-1.3,0-2-0.9
				c-0.7,0.4-1.4,0.1-2-0.6c0.4-0.2,0.5-0.4,0.8-0.7c-0.7-0.1-1.5,0.5-1.8-0.1c-0.1,0.7-0.6,1-0.5,1.8c-0.4-0.2-0.7-0.4-1-0.5
				c-0.1,0.7,1.3,0.4,1.2,1.3c-0.2,0.2-0.3-0.3-0.4-0.4c-0.1,0.5-0.6-0.1-1,0.4c0.1-0.3,0.2-0.5-0.2-0.9c-0.1,0.4-0.3,0.4-0.7,0.6
				c-0.2-0.4-0.6-0.9-0.6-0.4c-0.2-0.3,0-0.5-0.3-0.6c-0.1-0.4,0.1-0.2,0.3-0.4c-0.3-0.1-0.6-0.3-1-0.1c-0.2-0.3,0.4-0.5,0.1-0.8
				c-0.2,0.1-0.3,0.7-0.6,0.3c-0.1,0.2-0.3,0.3-0.1,0.6c-0.5,0.1-0.4,0-0.7,0.4c-0.2,0.2-0.2-0.5-0.4-0.3c-0.4,0.2,0.1,0.4,0.1,0.6
				c-0.2,0-0.3-0.3-0.6-0.2c-0.1-0.3,0.4-0.3,0.2-0.6c-0.2,0.3-0.6,0-0.3-0.2c-0.6,0.5-1.3,0-1.8-0.8c-0.1,0.2-0.3,0.3-0.4,0.5
				c0.2,0.3,0.1,0.2,0.2,0.6c0.2-0.1,0.1-0.3,0.1-0.4c0.6,0.1,1.1,0.7,1.7,1.1c-0.6,0.1-0.9-0.6-1.5-0.5c0.2,0.2,0.5,0.4,0.6,0.7
				c-0.4,0.1-0.5-0.4-1,0.1c-0.1-0.3,0.3-0.4,0.1-0.7c-0.2,0.1-0.3,0-0.4,0.1c-0.1-0.2,0.1-0.3,0.2-0.4c-0.1-0.2-0.3,0-0.4-0.3
				c-0.2,0.4-0.6,0-0.8,0.5c-0.3-0.4,0.2-0.5,0-0.9c-0.4,0.1-0.9-0.4-0.8-0.6c-0.5,0.1-0.3-0.4-0.8-0.3c0-0.4,0.2,0,0.4-0.2
				c-0.2-0.5-0.7-0.4-1.1-0.7c-0.3,0.2-0.3,0.2-0.5,0.6c-0.2-0.2-0.7-0.2-0.9,0.2c-0.2-0.3,0.3-0.2,0.1-0.5c-0.1-0.2-0.5,0-0.5-0.4
				c-0.3,0-0.3,0.3-0.5,0.2c-0.1-0.4,0.6-0.3,0.7-0.6c0.3-0.1,0,0.7,0.4,0.3c0.1-0.4-0.4-0.6-0.8-0.5c-0.1-0.3,0.1-0.3,0-0.6
				c-0.5,0.1-1.3,0-1.1-0.3c-0.1-0.1-0.2,0-0.2,0.2c-0.3-0.1-0.5-0.2-0.5-0.7c-0.3,0.2-0.3-0.1-0.6,0.1c0.4,0,0.3,0.8,0.7,0.5
				c-0.1,0.5-0.4,0.4,0,1c-0.7,0.2-0.4-0.4-0.5-0.5c-0.5,0.2,0.1,0.4,0,0.7c0.3-0.1,0.4-0.1,0.4,0.3c0.3-0.2,0.4,0.1,0.5-0.1
				c-0.1-0.3-0.4-0.2-0.1-0.6c0.2,0,0.1,0.5,0.4,0.4c-0.1,0.3-0.4,0.3-0.1,0.6c0.2-0.6,0.3,0.2,0.5,0.3c0,0.1-0.3,0.5-0.4,0.2
				c0.2,0.1,0.4,0.8,0.8,0.8c0,0.8,0.5,0.6,0.5,1.3c0.4,0.1,0.5-0.3,0.9-0.2c0,0.2-0.2,0.2-0.4,0.3c0.1,0.6,0.5,0.5,0.8,0.8
				c0.2-0.1,0.2-0.3,0-0.4c0.4-0.3,0.5,0.2,0.7-0.1c0,0.1-0.1,0.5,0.1,0.4c0,0.4-0.1,0.2-0.4,0.3c0.2,0.5,0.8,0.2,1,0.9
				c0.4-0.8,0.4,0.6,1,0c-0.3,0.5,0.2,0.3,0.1,0.7c-0.3-0.1-0.6-0.1-0.7-0.5c-0.5,0.6-1-0.2-1.4-0.8c-0.1,0.2-0.3,0.4-0.7,0.5
				c1-0.5,1.8,2,3.1,0.8c0.4,0.3,1,0.2,1.5,0.7c0.2-0.2,0.1-0.3,0-0.4l0.6-0.3c0.2,0,0.3,0.1,0.4,0.3c-0.3,0.2-0.5-0.2-0.8,0.3
				c0.2,0.3,0.4,0.3,0.6,0.6l0.4-0.2c0.1,0,0.3,0.1,0.4,0.2c0.1,0.2-0.1,0.4-0.4,0.5c0.6,0.3,0.5-0.7,1.1-0.3c0.1-0.1,0.1-0.3,0-0.4
				c0.2-0.1,0.4-0.1,0.5,0c-0.5,0.6,0.8,1.1,1.1,1.5c-0.5,0.1-1.7-0.7-1.7,0c-0.5-0.1-0.9-0.5-1.4-0.5c-0.2,0.4,0.5,0.3,0.7,0.5
				c-0.5,0.1-0.4-0.1-0.8,0.4c-0.1-0.8-0.4-0.2-0.5-1c-0.5,0.2-0.4,0.5-0.3,0.9c-0.4,0-0.2-0.5-0.3-0.7c-0.3,0.1-0.4,0-0.7,0.2
				c-0.2-0.3,0-0.3-0.1-0.6c-0.5,0.2-0.2-0.1-0.5-0.3c-0.5,0.1-0.7-0.3-1.2-0.1c-0.2-0.3,0.2-0.3,0.2-0.6c0.4,0,1,0.6,1.2-0.1
				c-0.2-0.1-0.5,0.1-0.7,0.1c0-0.1,0-0.2,0-0.4c-0.5,0.2-0.6,0.2-0.7-0.2c-0.6,0.1-0.2,0.6-0.7,0.8c-0.1,0-0.2-0.1-0.3,0
				c-0.2-0.3,0.2-0.4,0.3-0.6c0-0.5-0.4-0.2-0.4-0.6c-0.2,0-0.2,0.2-0.1,0.3c-0.5,0-0.7-1-1.4-0.4c-0.7-0.6-1.4-0.6-1.8-1.5
				c-0.5,0.2-0.5-0.2-0.8-0.2c-0.3,0.3-0.3,0.4-0.6,0.5c0.1,0.5,0.2,0.4,0.3,0.9c0.4-0.3,0.2-0.2,0.6-0.4c0.4,0.1,0.5,0.5,1.1,0.2
				c0,0.4-0.6,0.4-0.8,0.7c0.1,0.3,0.8,0.3,0.6,0.8c0.4,0.4,1.2,0,1.5,0.9c-0.4,0.1-0.7-0.2-1.1-0.1c0.2,0.2,0.4,0.2,0.5,0.6
				c0.3-0.3,0.3-0.2,0.3,0.2c0.9-0.3,1.2,0.8,1.9,0.9c0.3,0.3-0.2,0.3-0.4,0.4c0.1,0.4,0.4,0.2,0.6,0.5c0-0.3,0.1-0.6-0.3-1.1
				c0-0.1,0.1-0.2,0.3-0.3c0.2,0.1,0.3,0.2,0.5,0.3c0,0.2-0.3,0.2,0,0.5c0.3,0,0.3-0.2,0.4-0.3c0.1,0,0.2,0.2,0.3,0.1
				c0.1,0.4-0.3,0.1-0.4,0.4c-0.3,0.1-0.4-0.5-0.8-0.1c2.5,1.3,5.2,2,7.8,3.1c0.4-0.6,1.1-0.2,1.2,0.4c0.3-0.3,0.1-0.7,0.2-1.1
				c0.5-0.1,0.4,0.6,0.9,0.4c0.1,0.1-0.1,0.2-0.2,0.3c0.4,0.2,1-0.2,1.4,0.1c-0.6,0.8,1,0.6,1.7,1.4c0.4-0.1,0-0.3-0.1-0.5
				c0.7,0.1,0.4,0.2,1.1,0.4c0.1-0.1-0.2-0.3,0-0.4c0.2,0,0.4,0.1,0.5,0.2c0-0.2,0.2-0.3,0.4-0.5c0.4-0.2,0.2,0.5,0.7,0
				c0.1,0.2,0,0.3-0.2,0.5c1.1,0.2,0.9,0.5,2.3,0.2c0.1,0.1,0.1,0.3-0.1,0.4c0.9-0.6,1.8-0.1,2.7-0.5c0,0.1,0.1,0.2,0,0.3
				c0.4,0,0.7-0.3,1-0.7c0.3,0.2,0.3,0.3,0,0.5c1.1-0.3,2.3,0.4,3.4-0.6c0.4,0.2,0,0.4,0.3,0.6c-0.2,0.2-0.4-0.1-0.6,0.2
				c0.9-0.3,1.9-0.9,3.1-0.8c0.1-0.4-0.8-0.1-0.3-0.6c0.5,0.3,1,0.4,1.4,0.2c0.2-0.6-0.4,0-0.7-0.1c0.3-0.4,0.7-0.3,1-0.5
				c0.1,0.3,0,0.6,0,0.9c1-0.4,1.4-1.1,2.6-1.2c0.1,0.1-0.1,0.2,0.1,0.3c0.2,0.1,0.3,0,0.5,0.1c0.3-0.4,0.1-0.4,0.5-0.6
				c0.1,0.2,0.2,0.3,0.5,0.4c0.4-0.3,0.9-0.4,1.4-0.6c0.3,0.1-0.2,0.4-0.3,0.3c0.5,0.4,1.1-0.5,1.2-1.1c0.5,0.1,0.2,0.4,0,0.7
				c0.7-0.2,1-1.2,1.7-1.1c0.3,0-0.1,0.6-0.3,0.3c0.2,0.3,0.6,0.3,1.1,0.1c-0.1,0.1-0.5,0.3-0.1,0.4c-0.2,0.2-0.4-0.1-0.5,0.4
				c0.4,0.2,0.6-0.2,1-0.3c-0.2-0.2-0.1-0.7,0.3-0.6c0-0.2-0.2,0-0.4-0.1c0.3-0.3,0.7-0.5,0.8-1.2c0.5,0,0,0.5,0.4,0.6
				c0.2-0.4,0.6-0.6,0.4-0.9c0.8-0.3,1.8-0.5,2.1-1c-0.1-0.2-0.3-0.3,0-0.7c0.5,0.3,0.2,0.8,0.9,0.4c-0.1,0.4-0.4,0.3-0.7,0.5
				c0.2,0.4,0.8-0.5,1.2-0.6c0-0.1-0.2-0.2-0.1-0.4c0.4,0,0.5-0.2,0.9,0c0.2-0.4-0.1-0.4,0.1-0.8c0.2-0.2,0.9,0.3,1-0.5
				c0.3,0,0.2,0.3,0.6,0.3c-0.1,0.3-0.3,0.3-0.6,0.4c1.7-0.1,3.3-2.1,4.9-3.1c0.1,0.2,0.1,0.5,0.1,0.8c0.4-0.1,0.5-0.6,1-0.6
				c0.1-0.3-0.1-0.4-0.2-0.6c0.7-0.5,2.5-1,2.4-2.5c0.5,0.1-0.1,0.5,0.1,0.7c0.5-0.4,0.6-0.5,1-0.8c0-0.2-0.2-0.2-0.2-0.4
				c0.4-0.5,1.9-0.6,1.6-1.4c0.3,0,0.3,0.2,0.8,0c0.2-0.3,0-0.8,0.5-0.7c-0.3-1,1.3-1.1,1.4-2.2c0.1,0.2,0.5,0,0.5,0.2
				c0.2-0.5,0.3-1.1,1-1.1c0-0.3,0.1-0.5,0.2-0.7c0.1,0.1,0.2,0.1,0.4,0.1c-0.1-0.3,0.2-0.7,0.3-0.3c0-0.4,0.3-0.8,0.9-1.2
				c-0.4-0.1-0.2-0.4,0-0.7c0.2,0,0.1,0.2,0.1,0.4c0.4-0.3,0.5-0.8,1-1.2c0.1,0.6-0.4,0.4,0,0.8c0.3-0.2,0.6-0.3,0.6-0.7
				c0.2,0,0.1,0.3,0.1,0.5c-0.3,0.3-0.9,0.3-0.7,0.9c0.2-0.4,0.6,0.2,0.8-0.4c0.4,0.1,0.1,0.5,0.1,0.8c-0.3,0-0.2-0.3-0.4-0.5
				c-0.4,0.2-0.2,0.5-0.1,0.8c-0.2,0.3-0.4,0.6-0.7,0.8c0.6-0.5-0.1-0.8,0.4-1.2c-0.1-0.4-0.5,0.4-0.4-0.3c0.1-0.5,0.3,0.4,0.4-0.1
				c0.1-0.7-0.1-0.2-0.5-0.2c0.1-0.1,0.1-0.3,0.3-0.3c-0.5,0.1-0.9,1.6-1.7,2c0.5,0.2-0.2,0.4,0.1,0.7c0.3-0.4,0.5-0.8,0.6-1.3
				c1,0.5-0.3,1.6-0.4,2.2c-0.8,0.4-0.6-0.6-1.3-0.4c0.4,0.4-0.6,0.4-0.4,1c0.2-0.3,0.9-0.9,1.1-0.3c-0.8,0.1-0.2,0.6-0.9,1
				c-0.5,0.1-0.3-0.5-0.7-0.2l-0.1,0.7c0.2,0,0.4,0,0.4,0.1c-0.3,1-1.2,1.6-1.6,2.5c0.5,0.1,0.5-0.3,0.9-0.5
				c-0.3,0.6-0.8,1.6-1.5,1.2c0.3-0.1,0.4-0.4,0.3-0.8c-0.1-0.3-0.4,0.2-0.5-0.1c-0.4,0.5-0.4,1.4-1.2,1.2c0,0.4-0.3,0.4-0.5,0.5
				c0.1,0.1,0,0.4,0.2,0.4c-0.8,0.3-1.4,1.6-2.1,1.4c-0.3,0.3-0.5,0.7-0.9,1.1c-0.1-0.1-0.1-0.3-0.1-0.4c-0.4,0.1,0,0.4-0.2,0.6
				c-0.5,0-0.5-0.4-0.5-0.7c-0.5,0.1-0.9,0.7-1.3,0.3c0.1,0.4,0.6,0.4,0.5,1c0.7-0.2-0.3-0.8,0.6-0.9c0.3,0.2,0.3,0.5,0.1,0.8
				c-0.6,0.6-1.7,0.4-2.1,1.1c-0.5-0.3,0.1-0.4,0.2-0.8c-0.4,0-0.6,0.4-0.7,0.8c0.1,0.1,0.2,0.2,0.3,0.2c-0.2,0.2-0.4,0-0.3,0.4
				c-0.7,0-0.7,1.2-1.7,0.7c0.1,0.4-0.5,0.8-0.9,0.6c0.1,0.8-0.8,1.3-1.5,1.4c-0.1,0.2,0,0.2,0,0.4c-0.6,0-1.1,0.6-1.3,0l-0.3,0.8
				c-0.8,0.1,0-0.6-0.5-0.7c-0.3,0.5-0.7,0.6-1.2,0.7c0,0.3-0.2,0.7-0.2,1c-0.4-0.2,0.1-0.8-0.5-1c0.4,0.8-0.9,1.3-1.6,1.2
				c-0.4,0.3-0.1,0.8-0.7,0.9c-0.1-0.3,0.1-0.8-0.4-0.4c-0.2-0.2,0-0.5,0.1-0.9c-0.1-0.1-0.1,0-0.2,0.1l-0.2-0.1
				c-0.2,0.3,0.1,0.5-0.1,0.8c-0.4,0.4-0.6-0.3-1.2-0.2c-0.3,0.4-0.7,0.1-1,0.5c0.5,0.3,0.9,0,1.2-0.3c0.1,0.2,0.3,0.3,0.7,0.3
				c-0.4,0.1-0.3,0.4-0.9,0.3c-0.4,0.3,0.3,0.3-0.1,0.5c-0.5-0.3-1.4,0.2-2.2,0.4c-0.1,0.2,0.7,0,0.8-0.1c0.3,0.6-0.6,0.8-1.1,0.9
				c-0.4-0.3,0.7-0.2,0.3-0.4c-0.6-0.3-0.3,0.4-0.9,0.4c0.3-0.9-1.5,0.6-2.3,0c-0.2,0.4-0.8,0.8-1.3,1.3c-0.1-0.7-1.6,0.3-1.8,0.6
				c-0.2-0.1-0.3-0.2-0.2-0.3c-0.1,0.3-0.6,0-1,0.6c-0.4-0.6-0.7,0.1-1.4,0.4c-0.2-0.2,0.1-0.4-0.4-0.6c-1.2,0.7-2,0.3-3.3,0.7
				c-0.2-0.2,0.1-0.4-0.3-0.4c0,0.7-0.7,0.3-1,0c0.2,0.5-0.4,0.9-0.9,0.8c-0.2-0.4,0.6,0,0.5-0.4c-0.2-0.2-0.3-0.1-0.5-0.3
				c-0.2,0.2,0.1,0.4-0.3,0.4c-0.1-0.1,0.3-0.3,0.1-0.4c-0.6-0.2-0.9,0.1-0.8,0.4c-0.5,0.1,0-0.5-0.5-0.4c0,0.4-0.4,0.5-0.9,0.7
				c-0.1-0.5-0.3,0-0.7-0.5c0,0.4-0.5,0.3-0.8,0.2c0-0.2,0.2-0.1,0.1-0.4c-0.2,0.5-1.7-0.1-1.6,0.7c-0.3-0.3-0.8,0.5-1.2,0.2
				c-0.2-0.4,0.4-0.2,0.7-0.6c-0.4-0.2-0.7,0-1.1-0.1c-0.2,1-1.6,0.4-2,0.6c0.1-0.3,0.6-0.4,0.8-0.6c0.2,0.1,0.1,0.2-0.1,0.3
				c0.4,0.3,0.4-0.2,0.9-0.3c-0.7-0.2-0.8,0-1.4-0.8c-0.4,0.1,0,0.4-0.2,0.6c-0.5-0.7-2.9-0.3-3.8-0.6c-0.1,0-0.9,0.2-0.6,0.5
				c-0.6,0.2-0.9-0.5-1.1,0.2c-0.2-0.3,0.2-0.4,0.2-0.7c0.2,0,0.3,0.2,0.4,0.4c0.4-0.2-0.1-0.6,0.6-0.6c-0.5-0.1-0.6,0.1-1.3,0.3
				c0-0.1,0-0.2-0.1-0.4c-0.4,0.2,0.1,0.3-0.1,0.6c-0.3,0.1-0.5-0.3-1,0.1c1.5,0.7,3,1.1,4.5,1.4c0.4,0.3-0.3,0.3,0.1,0.5
				c0.4,0.1,0.3-0.1,0.6-0.3c0.3,0.4-0.4,0.6-0.7,1c-0.9-0.1-1.8-1.1-3-0.7c-0.3-0.1-0.5-0.5-0.8-0.4c0.2,0.4,0.1,0.4-0.5,0
				c-0.4,0.1-0.1,0.3-0.4,0.4c-0.7-0.9-0.9-0.3-1.5-0.6c-0.2-0.3,0.1-0.3-0.2-0.6c-0.1,0.4-0.5,0.5-0.8,0.3
				c-0.2-0.3,0.6-0.1,0.2-0.5c-0.2,0.1-0.3,0-0.4-0.1c-0.1,0.1-0.2,0.2-0.4,0.3c-0.8-0.4-1.2-0.6-1.8-1.3c-0.5,0.6-0.6-0.4-1.1-0.1
				c-0.1-0.4,0.4,0.1,0.6-0.2c-0.4-0.1-0.7-0.2-1-0.4c-0.2,0-0.6,0.3-0.7,0.2c-0.1,0.5-0.2,0.4-0.8,0.6c0.8,0.2,0.9,0.8,1.7,0.7
				c0.2,0.5-0.4,0.2-0.2,0.6c0.5-0.1,0.6-0.3,0.6-0.6c0.3,0,0.5,0.2,0.8,0c-0.2,0.5,0.5,0.5,0.9,0.4c0.1,0.4-0.5,0.1-0.8,0.6
				c0.4,0.2,0.4,0.1,0.7-0.1c0.1,0.2,0.2,0.6,0.9,0.7c0.1-0.2,0.5-0.3,0.8-0.5c0,0.3-0.2,0.5,0.2,0.9c0.4-0.1,0.5,0.2,0.8,0.2
				c-0.2,0.2,0,0.4-0.1,0.6c1.1,0.1,2.2,0.5,3.4,0.9c0.8-0.5,1.2,0.4,1.9,0.2c1,1,2.8-0.2,3.5,1.1c0.3-0.3,0.5,0,0.7-0.2
				c0.2,0.4,0.5,0.4,0.8,0.5c-0.5,0.1-0.8-0.1-1.1,0.4c0.3-0.4-0.2-0.3-0.6-0.4c-0.3,0.3,0.1,0.3,0.4,0.4c-0.6,0.3-1.1,0.1-1.6,0
				c-0.2-0.2,0.5-0.2,0.7,0c-0.1-0.5-1.3-0.1-1.8-0.3c0.2,0.4,0.5,0,0.7,0.3c-1-0.2-1.4,0.1-2.4,0.1c-0.3-0.3,0.8-0.3,0.3-0.5
				l-0.5,0.2c-0.9-0.5-2-0.5-2.8-0.3c0.8-0.4-0.3-0.4-0.8-0.6c-0.1,0.2-0.5,0.3,0,0.4c-0.9,0.5-0.7-0.5-1.5-0.2
				c-0.2-0.3,0-0.5,0.1-0.8c-0.2-0.2-0.9,0.3-0.9,0.4c-0.5,0-1.1-0.9-1.4-0.3c-0.2-0.1-0.8-0.5-0.6-0.7c-0.6,0.2-1.7,0-2.6-0.7
				c0.6,0.1,0.5,0.1,1.2-0.2c-0.3-0.3-0.5-0.6-0.9-0.8c-0.3,0,0,0.7-0.3,0.3c-0.4,0.3,0.5,0.2,0.6,0.3c-0.1,0.5-1.5,0.5-1.7-0.3
				c-0.6-0.3-1.8,0.4-2.2-0.3l-0.6,0.1c-0.2-0.3,0.2-0.3,0.3-0.4c-0.3-0.3-1,0.1-1.2-0.4c0-0.4,0.5,0,0.7-0.2
				c-1.2-0.3-2.4-0.5-2.8-1.5c-0.3-0.2-0.6-0.4-1.1-0.2c0.1,0.3,0.1,0.4-0.2,0.4c-0.1-0.6-1.5-0.7-1.9-1.6c0.3,0,0.7,0,0.8,0.1
				c0-0.4-1-0.9-1.5-1.3c-0.7,0,0.3,0.2,0.2,0.7c-0.5,0-0.6-0.4-1.1-0.3c0,0.2-0.1,0.3-0.4,0.3c0.1,0.4,0.3,0.3,0.1,0.5
				c-0.1-0.1-0.3-0.1-0.5-0.1c-0.1-0.9-0.4-0.8-0.7-1.5c0.6-0.1,0.4,0.7,1,0.5c0-0.4-0.3-0.4-0.4-0.8c0,0.4-1,0.1-1.3-0.2
				c0-0.2,0.2-0.1,0.4-0.1c0.1-0.5-0.4-0.4-0.5-0.8c-0.3,0,0,0.5-0.2,0.5c-0.8-0.2-1.2-1-1.9-1.4c-0.3,0.3,0.5,0.3,0.5,0.7
				c0,0.1-0.1,0.1-0.1,0.3c-0.3-0.5-0.6-0.4-1.2-0.6c-0.3,0.4,0.2,0.6,0.6,0.5c0.2,0.5-0.7,0-0.2,0.5
				C114.3,122.8,113.6,122.3,113.8,123z M154.7,140.2c0.5-0.3,0.9-0.1,1.4,0C155.6,140.4,155.2,140.4,154.7,140.2z M191.8,130.9
				c-0.2,0.5-1,0.8-0.2,0.8c-0.5,0.6-1.1,0.9-1.9,1.1c0.2-0.5,0.3-0.3,0.3-1c0.2,0,0.5,0.1,0.7-0.1c0.1-0.2-0.2-0.2-0.2-0.3
				C190.9,131.2,191.1,130.6,191.8,130.9z M103.9,86.2c0.3,0.3,0.6,0.2,0.3,0.6C103.9,86.9,103.6,86.6,103.9,86.2z M112.9,84.6
				c0.2,0.4,0.3,0.5,1,0.7c-0.4,0.2-0.1,0.3,0.1,0.5c-0.3,0.3-0.4,0.3-0.8,0.6c0.4,0.3,0.7,0,1-0.2c-0.1,0.6-0.8,0.8-1.4,0.5
				c0.6-0.6-0.7-1-0.5-1.5c0.3-0.3,0.2,0.3,0.5,0.1C112.6,85,112.6,84.6,112.9,84.6z M129.9,41.5c0.1-0.4,0.6-0.2,0.8-0.6
				C130.6,41.3,130.3,41.5,129.9,41.5z M153.9,32.5c0.1,0.3,0.7,0.2,0.5,0.6C154.2,32.7,153.6,33,153.9,32.5z M172.4,36.6
				c-0.1-0.2-0.5,0-0.5-0.5C172.2,36,172.7,36.3,172.4,36.6z M152.8,111.5c-0.3,0-0.6,0-0.9-0.2
				C152.1,111.2,152.7,111.1,152.8,111.5z M160,116.2c0,0.4-1.4,0.6-1.3,0C159.2,116.4,159.5,115.8,160,116.2z M133.2,111.6
				c0.1-0.1,0.2-0.2,0.4-0.3c0,0.2,0.2,0.2,0.2,0.4C133.5,111.9,133.2,111.9,133.2,111.6z M173.5,124.2c-0.9,0.4-1.3,0.5-2.1,0.7
				C172,124.4,172.8,124.3,173.5,124.2z M154.2,128.8c-0.3-0.1-1.2,0.1-1.1-0.2C153.4,128.6,154.3,128.4,154.2,128.8z M144.2,127.8
				c0,0.1-0.5,0.6-0.7,0.2C143.4,127.9,144.1,127.6,144.2,127.8z M117.7,124.3c-0.1-0.2-0.2,0-0.4,0c0.1-0.6-0.7-0.2-0.7-0.8
				C117.2,123.4,117.9,124,117.7,124.3z M131,133.4c-0.3-0.1-0.7,0-0.9-0.3C130.7,132.9,130.9,133.5,131,133.4z M146.4,139.4
				c-0.1,0.3-0.9,0.3-1.2-0.1C145.6,139,146,139.2,146.4,139.4z M149.9,139.6c-0.4,0.2-1.5,0-1.4-0.4
				C148.9,139.5,149.5,139.2,149.9,139.6z M132.7,118.3c0.5,0.3,1.1,0.2,1.7,0.7C133.7,119.2,132.8,118.7,132.7,118.3z M161.2,144.7
				c-0.1,0.4-1,0.5-1.5,0.3C160.2,144.5,160.7,144.6,161.2,144.7z M145,133.7c-0.4-0.1-0.8,0.2-1.1-0.1
				C144.2,133.3,145.1,133.3,145,133.7z M133.3,116.9c0-0.3-0.6-0.2-0.3-0.5C133.2,116.6,133.8,116.6,133.3,116.9z M134,116.9
				c-0.1,0.5,0.2,0.2,0.4,0.5c-0.2,0.1,0,0.3-0.1,0.4c-0.4-0.2-0.1-0.5-0.6-0.3l-0.1-0.3C133.7,117.1,133.7,117,134,116.9z
				 M135.1,118.5c-0.3-0.1-0.7,0.1-0.8-0.3C134.7,117.9,134.9,118.1,135.1,118.5z M144.8,129.6c0.2-0.1,0.5-0.1,0.6-0.1
				c-0.5,0.2-0.3,1-0.9,0.8C144.4,129.8,145.2,129.8,144.8,129.6z M137.7,119.1l-0.4,0.2l-0.1-0.3
				C137.3,118.8,137.6,119,137.7,119.1z M134.9,112.6c0.2-0.6-0.3-0.1-0.4-0.4C134.5,111.6,135.5,112.4,134.9,112.6z M147.1,129.6
				c0.6,0.5,1.5-0.4,1.8,0.5c0.1-0.5,0.8-0.5,1.2-0.2c-1,0.1-0.9,0.7-1.8,1c-0.3-0.7-0.4,0-0.6-0.6c-0.5,0.1-1.7,0.4-1.8-0.1
				c0.1,0.1,0.7,0,0.4-0.1c-0.4,0-0.7,0-1-0.2c0.3-0.2,0.6,0,0.8,0.2C146.5,129.8,147.1,130,147.1,129.6z M159.5,139.4
				c0,0.4-0.7,0.4-1.1,0.4C158.5,139.4,159.2,139.3,159.5,139.4z M145,128.1l0.3,0.4c-0.2,0.2-0.5,0.2-0.6,0.1
				C145.2,128.5,144.5,128.3,145,128.1z M137,114.3c-0.4,0.3-0.3-0.5-0.7-0.2c-0.1-0.3,0.3-0.5-0.1-0.7
				C136.9,113.1,136.6,114.1,137,114.3z M140.4,120.4c-0.3,0.2-0.7,0.4-0.8,0.1C139.8,120.4,140.1,120,140.4,120.4z M138,116.3
				c-0.1-0.6,0.8-0.9,1.1-0.5c-0.1,0.3-0.4,0.4-0.6,0.4C138.6,115.9,138.2,116.1,138,116.3z M153.6,131c0-0.4-0.4-0.2-0.7,0.1
				c-0.3,0-0.4-0.1-0.4-0.4c-0.8,0.5-1.5-0.2-2.3,0.3c-0.3-0.2,0.1-0.7-0.5-0.3c-0.3-0.3-0.4-1,0.3-0.7c-0.1,0.1-0.2,0.2,0,0.3
				c0.1-0.9,1.4-0.7,2-0.9l0.5,0.5c0.4,0,0.9-0.6,1.3-0.2c-0.2,0.5-1.2,0.7-1.7,0.5c0.1,0.1-0.1,0.1-0.2,0.2c0.3,0.1,0.7,0.3,1,0.3
				c0.6-0.5,1-0.9,1.6-0.5C153.7,130.4,153.9,130.8,153.6,131z M141,120.2c0.2-0.1-0.1-0.4,0.1-0.5c0.1,0.4,0.4-0.1,0.4,0.3
				c-0.3,0.2-0.3,0.5-0.6,0.7l-0.2-0.3L141,120.2z M174.5,142.3c0.2,0.2-0.5,0.8-0.9,0.6C173.9,142.7,174.1,142,174.5,142.3z
				 M167.2,138.5c-0.2,0.6-1.6,0.2-1.1,0.2C166.5,138.7,166.8,138.2,167.2,138.5z M140.8,116.9l-0.4,0.2c0-0.1-0.2-0.3-0.1-0.4
				C140.5,116.9,140.6,116.4,140.8,116.9z M143.5,119.4c-0.2,0.1-0.2,0.2,0,0.4l-0.5,0.3c-0.2-0.1-0.4-0.4-0.6-0.6
				C142.7,119.7,143.1,119.5,143.5,119.4z M141,116.8c0.2-0.2,0.2-0.5,0.2-0.7c0.1,0.2,0.3,0,0.4,0.3c-0.8,0.5,0.5,0.4,0.3,0.8
				c-0.2-0.3-1.1,0.1-1-0.6L141,116.8z M144.9,120.8c0-0.6-0.6-0.1-0.9-0.4C144.3,119.7,145.3,120.2,144.9,120.8z M145.5,121.1
				c0.3,0.1,0,0.5,0.3,0.4c0.2-0.2,0-0.4,0.2-0.6l0.3,0.4c-0.2,0.1-0.4,0.2-0.2,0.4c-0.2,0.2-0.5,0.3-0.7,0.1
				c0.1-0.1,0.2-0.2,0.1-0.3c-0.4,0.1-0.2,0.3-0.5,0.4C144.9,121.6,145.4,121.4,145.5,121.1z M147.9,123.5c-0.4,0.3-0.9,0.3-1.2-0.2
				C147.1,123.1,147.5,123.3,147.9,123.5z M142.2,117c0.4-0.1,0.7,0.5,1.2,0.3c-0.4,0.3-0.6,0.1-1.1,0.1
				C142.4,117.3,142.3,117.1,142.2,117z M156.3,130l-0.4,0.3c-0.3-0.4-0.6-0.4-0.8,0.1l-0.3-0.3C155.2,129.8,155.7,129.9,156.3,130z
				 M143.9,118c-0.2-0.2-0.5-0.1-0.7-0.3C143.4,117.3,144,117.6,143.9,118z M173.3,137.3c-0.6,0.4-1.3,0.3-1.9,0.6
				C171.4,137.3,172.6,137.3,173.3,137.3z M142.5,115.3c0-0.2,0.2-0.3,0.4-0.5c0.2,0,0.4,0,0.6,0.2c0,0.3-0.2,0.5-0.3,0.7
				c0.5-0.5,0.8-0.3,1.2-0.3c0.2,0.7,0.5,0.6,1.1,0.9c-0.3,0.4-1.1,0-1.5-0.3c0.1,0.2,0.1,0.3,0,0.4c-0.5-0.1-0.6-0.3-0.3-0.5
				c-0.4,0-1.5,0.1-1.7-0.8C142.2,115.5,142.2,115.2,142.5,115.3z M146.2,119.9c-0.2,0.4-0.4,0.6-0.8,0.4
				C146,120.4,145.6,119.8,146.2,119.9z M143.4,116.5c0.2,0.2,0.4,0.1,0.5,0.4C143.6,117.1,143.1,116.9,143.4,116.5z M157.7,129.8
				c0.2,0.1,0.4,0,0.5-0.1l0.5,0.4c0.7-0.4,0.9-0.2,1.7-0.6c-0.2,0.2,0.2,0.3-0.2,0.5c-0.4-0.3-0.9,0-1.3,0.2
				c0.2,0.3,0.2,0.6-0.1,0.9c-0.3-0.1-0.6-0.1-1-0.3c0.3-0.3,0.6-0.1,0.9-0.6C158.6,129.8,157.8,130.2,157.7,129.8z M158.1,130.1
				c-0.3,0.3-0.7,0.2-1.1,0C157.4,129.9,157.7,130.2,158.1,130.1z M145.4,117.6c0.3,0.2-0.3,0.3,0.1,0.5c-0.3,0.2-0.5,0.1-0.6-0.1
				C144.9,117.7,145.2,117.5,145.4,117.6z M179.2,137.6c-0.3,0.3-0.5,0.6-0.9,0.6C178.5,137.7,178.8,137.6,179.2,137.6z M145,116.8
				c0.1,0.2,0,0.3,0.1,0.5c-0.2,0.2-0.4,0.1-0.5-0.2L145,116.8z M152.3,123.6c0.2,0.1,0.3,0.3,0.3,0.4c-0.4,0.1-0.8,0.4-1.2-0.1
				C151.7,123.6,152,124,152.3,123.6z M146.3,117.7c0.4,0.4,0.9-0.1,1.3,0.3c-0.4-0.1-1,0.5-1.3,0.1
				C146.4,118,146.2,117.8,146.3,117.7z M148.1,119.8l0.4-0.3c0.1,0.2,0.3,0.4,0.2,0.6C148.5,119.8,148.3,120.1,148.1,119.8z
				 M146,116.7c0.1-0.2-0.4-0.5,0-0.7c0.4,0.1-0.1,0.4,0.3,0.7l-0.5,0.3c-0.1-0.2-0.5-0.2-0.3-0.5
				C145.6,116.6,145.8,116.8,146,116.7z M161.7,129.7c-0.5-0.1-0.4,0.4-0.9,0.3C161,129.5,161.6,129.2,161.7,129.7z M150.5,120.1
				c-0.3,0-0.7,0.1-1,0.1C149.8,119.8,150.2,120.1,150.5,120.1z M184.3,135.6c-0.2,0.2-0.4,0.5-0.8,0.5
				C183.4,135.8,183.9,135.4,184.3,135.6z M153.1,121.8c-0.3-0.1-0.7,0-1-0.2C152.3,121.2,153.1,121.6,153.1,121.8z M163.9,129.2
				c0.5-0.1,1-0.2,1.5-0.2C165.1,129.4,163.8,129.8,163.9,129.2z M149.2,114.9c-0.3,0.3,0,0.1,0.1,0.4c-0.2,0.3-0.3-0.2-0.5,0
				c0.2,0.5,0.5,0.3,0.7,0.5c0.1,0.2,0.4,0.8-0.1,0.6c0.2-0.3-0.3-0.1-0.3-0.5c-0.4,0.5-0.6-0.2-1,0.1c-0.2-0.4-0.3-0.6-0.7-0.5
				c-0.1,0.1,0.1,0.3,0,0.4c-0.6-0.6-0.3-0.9,0.1-1.5c0.1,0.2,0,0.3,0,0.4c0.1-0.1,0.2,0.2,0.4,0.1c-0.1-0.2-0.2-0.3-0.2-0.5
				c0.3-0.2,0.5,0.1,0.4-0.4c0.2,0,0.4,0,0.5,0.3c-0.1,0.2-0.3,0.1-0.3,0.2C148.7,114.7,149,114.8,149.2,114.9z M151.5,117.9
				c0-0.3,0.3-0.2,0.5-0.3c0.1,0.5,0.6,0.2,1,0.3c-0.4,0.5,0.4,0,0.5,0.5c-0.4,0.2-0.7-0.2-1.1,0c-0.7,0.5-0.4,1.5-1.1,1.2
				C151.8,119.1,152.3,118.1,151.5,117.9z M188,133c0.2,0.1-0.3,0.7,0.1,0.6c0.5-0.5,0.1-0.6,0.2-1c0.3,0.1,0.4-0.1,0.7-0.2
				c0,0.8-0.4,1.1-0.5,1.8c-1.1-0.1-1.2,0-2.2,0.3C186.7,134.1,187.2,133.4,188,133z M166.4,128.5c-0.1,0.4-0.4,0.5-0.9,0.5
				C165.8,128.8,166.1,128.8,166.4,128.5z M147.5,113.8c-0.2,0.1,0.1,0.4-0.1,0.5C147.2,114.5,147.2,113.7,147.5,113.8z
				 M153.2,118.9l-0.6,0.7c-0.1-0.1-0.2,0-0.3-0.2C152.1,119,152.8,118.7,153.2,118.9z M167.3,128.5c0.3,0.1,0.5,0,0.4,0.4
				c-0.2-0.1-0.4,0.2-0.7,0L167.3,128.5z M159.1,123.2c0.5,0.4-0.3,0.7-0.6,0.5C158.7,123.4,158.9,123.7,159.1,123.2z M149.8,115.6
				c0.2,0,0.4,0.4,0.2,0.6C149.8,116,149.7,115.8,149.8,115.6z M167.7,127.8c0,0.1-0.1,0.1,0,0.2c0.1-0.2,0.3-0.2,0.5-0.2
				c-0.3,0.3-0.6,0.5-1,0.5C167.5,128.1,167.5,127.8,167.7,127.8z M167,126.4c-0.4-0.2-0.6,0.4-1,0.3
				C166.2,126.2,167,125.9,167,126.4z M147.7,110.3c-0.2,0.3,0.3,0.2,0.2-0.1c0.2,0.2,0.1,0.4,0,0.6c-0.3-0.1-0.3,0.1-0.7-0.1
				C147.3,110.5,147.5,110.3,147.7,110.3z M195.6,128.6c-0.1,0.5-0.6,0.4-0.9,0.7C194.9,128.7,195.2,128.5,195.6,128.6z
				 M164.9,122.2c-0.2,0.3-0.4,0.2-0.7,0C164.4,122,164.6,122.1,164.9,122.2z M175.9,126.2c0.6,0.1,0.1,0.7-0.3,0.5
				C175.8,126.3,175.5,126.3,175.9,126.2z M166.5,122.1c0.3-0.4,1.2-0.6,1.5-0.2c-0.5-0.4-0.8,0.4-1.2,0.5
				C166.9,122.2,166.6,122.5,166.5,122.1z M201,124.7c-0.4,0.4-0.7,1-1.3,1.1C199.9,125.2,200.6,124.4,201,124.7z M153.9,111.8
				c-0.2-0.1-0.7-0.2-0.6-0.5C153.4,111.2,154,111.5,153.9,111.8z M161.1,115.6c0.3,0.4,0.6,0.1,0.9,0.3c-0.2,0.4-0.6-0.1-0.8,0.7
				c-0.2-0.2-0.3,0-0.5-0.3C160.9,115.9,160.8,116,161.1,115.6z M177.6,122c0.5,0.1,0.7,0.2,0.4,0.7c-0.3,0.1-0.6-0.3-1,0.1
				C177.1,122.2,177.4,122.5,177.6,122z M159.2,111.8c-0.2,0.3-0.5,0.6-0.8,0.6C158.7,112,158.9,111.5,159.2,111.8z M168.1,117.4
				c-0.1,0.3-0.4,0.3-0.6,0.1C167.6,117.1,167.9,117.2,168.1,117.4z M164.6,115.1c-0.2,0.3-0.5,0.5-0.9,0.4
				C164,115.2,164.3,115.2,164.6,115.1z M167.2,115.9c0.5,0.2,0.8-0.5,1.3-0.5c-0.1,0.7-0.7,0.6-1.2,0.9c-0.1,0.1,0,0.3-0.2,0.2
				C167,116.3,167.1,116.1,167.2,115.9z M176.9,118.3c-0.3,0.5-0.7,0.8-1.1,0.9C175.9,118.5,176.4,118.4,176.9,118.3z M160.7,110.7
				c-0.2,0.2-0.4,0.2-0.6,0.3c0.1-0.3-0.1-0.6-0.1-0.9C160.5,110.2,160.4,110.5,160.7,110.7z M159.7,111.3c-0.2-0.4-0.3-0.2-0.7-0.4
				c0.5-0.1,0.6-1.1,1.1-0.6C159.6,110.6,159.7,110.9,159.7,111.3z M161,111.4c-0.2-0.3-0.7,0.2-0.6-0.2c0.3,0,0.5-0.2,0.9,0
				c-0.1,0.2,0,0.3,0.2,0.4c-0.2,0.3-0.4,0.4-0.7,0.3C160.7,111.8,161.2,111.7,161,111.4z M167.8,114.4c-0.3-0.1-0.4,0.3-0.7,0
				C167.2,114.2,167.8,114.1,167.8,114.4z M166.8,114.8c0.2-0.3-0.4-0.3-0.1-0.6C167.1,114.2,167.2,114.8,166.8,114.8z M169.3,115.5
				c0.1-0.4,0.4-0.3,0.6-0.5c0.3,0.3,0.5,0.1,0.8,0c-0.3,0.3-0.1,0.2-0.2,0.7c-0.3-0.3-0.4-0.3-0.6,0.1
				C169.4,115.8,169.3,115.7,169.3,115.5z M188.8,118.4c-0.1,0.5-0.5,0.6-0.2,0.9l-0.3,0c0,0.1-0.1,0.2-0.2,0.1
				C188.1,119.1,188.3,118.6,188.8,118.4z M208.1,116.5c0.3-0.2,0.4-0.5,0.6-0.3C208.8,116.7,208.1,117,208.1,116.5z M161.5,110.8
				c-0.2,0.1-0.4,0-0.7,0C160.9,110.3,161.5,110.6,161.5,110.8z M185.3,117.5c-0.3,0.4-0.6,0.6-1.1,0.7
				C184.5,117.8,184.9,117.5,185.3,117.5z M164.5,110.5c-0.2-0.1,0,0.1-0.2,0.3c-0.3,0-0.5-0.5-0.8,0.1c0,0.3,0.5,0.1,0.4,0.5
				c-0.3,0.1-0.5,0-0.7-0.3C163.5,110.5,164.2,110.1,164.5,110.5z M181.1,116.7c0.4-0.1,0.5-0.8,1.2-0.7c-0.2,0.5-0.5,0.5-0.7,1
				C181.2,117,181,116.9,181.1,116.7z M171.2,113.6c0.2,0,0.4,0,0.6,0.1C171.7,114,171,113.9,171.2,113.6z M165.6,110.3
				c-0.1,0.1-0.1,0.3,0,0.4c-0.2,0-0.3,0-0.5-0.2C165.1,110.2,165.3,110.1,165.6,110.3z M172.7,113c-0.2,0.1-0.2,0.7-0.6,0.5
				C172.2,113.2,172.4,113,172.7,113z M175.6,113.1c-0.1,0.5-0.5,0.1-0.3,0.7c-0.2-0.1-0.4-0.1-0.4-0.3
				C174.9,113,175.2,112.9,175.6,113.1z M173.9,113.8c0.5,0.2,0.5-0.6,1-0.4C174.8,114,174,114.2,173.9,113.8z M166.9,110.8
				c-0.1,0.5-0.4,0.2-0.6,0C166.4,110.5,166.7,110.8,166.9,110.8z M174,112.7c-0.1,0.4-0.4,0.3-0.6,0.4
				C173.2,112.8,173.6,112.5,174,112.7z M174.5,111.6c-0.2,0.5-0.4,0.6-0.2,1.1c-0.3,0.1-0.3-0.2-0.5-0.3c0.1-0.4,0.3-0.4,0.5-0.6
				c-0.1,0-0.3,0.1-0.3-0.1c0.4-0.4,0.7-0.2,1.2-0.2c0,0.2,0.1,0.3,0,0.5C174.7,112,174.7,111.7,174.5,111.6z M176.1,111.7
				c-0.4,0.6-0.8,0.9-1.4,1C174.4,112,175.4,111.9,176.1,111.7z M165.8,108.4c-0.3,0.2-0.7,0.2-1.1,0.3
				C165,108.5,165.3,108.3,165.8,108.4z M168.9,109.9c0.1,0.2,0.2,0.6-0.2,0.5C168.6,110.3,168.6,109.8,168.9,109.9z M167.6,108.3
				c0.5,0-0.1,0.5,0.1,0.6c0.3,0.1,0.3-0.5,0.6-0.2c-0.2,0.5-0.7,0.5-1.1,0.7C167.2,108.9,167.6,108.9,167.6,108.3z M177.3,112.2
				c0.2-0.7,1.2-0.4,1.2,0.1C178.1,112.2,178.1,112.1,177.3,112.2z M176.7,111.3l-0.2,0.6c-0.1-0.1-0.3-0.1-0.3-0.2
				C176.5,111.8,176.4,111,176.7,111.3z M171.8,109.4c0.3,0.1,0.2,0.3,0.2,0.6c-0.1-0.1-0.2,0.1-0.4,0L171.8,109.4z M169.7,108.3
				c0.3,0.2,0.4,0.5,0.4,0.9C169.6,109.1,169.5,108.5,169.7,108.3z M175.9,110.7c0-0.5,0.6-0.3,0.8-0.1
				C176.5,111.2,176.4,110.7,175.9,110.7z M170.8,107.6c0.2,0.1,0.3,0.1,0.5,0.1c-0.3,0.3-0.5,0.1-0.4,0.7c-0.3-0.4-0.4,0.1-0.8,0
				C170.2,107.8,170.7,108.1,170.8,107.6z M173.1,107.3c-0.7-0.2-1.1,0.9-1.7,0.4C171.9,107.5,172.8,106.4,173.1,107.3z
				 M172.7,107.5c-0.1,0.2,0.3,0.3,0.1,0.5c-0.2,0-0.3,0.1-0.5-0.1C172.6,107.8,172.3,107.6,172.7,107.5z M174.9,105.9
				c0.3,0.2,0.3-0.2,0.6-0.1c-0.1,0.3-0.2,0.5-0.5,0.5C175.1,106.1,174.9,106,174.9,105.9z M184.3,105.6c-0.2,0.2-0.6,1.1-0.9,0.5
				C183.9,106.2,184.1,105.3,184.3,105.6z M197.4,104.5c0.5-0.2,0.5,0.6,0.1,0.7C197.5,104.8,197.2,104.9,197.4,104.5z M183.8,105.5
				c0,0.3-0.3,0.3-0.5,0.3c0.1-0.3-0.3-0.7,0-0.7C183.3,105.3,183.7,105.4,183.8,105.5z M183.6,104.8c0.5-0.1,0.6,0.6,0.2,0.6
				C183.6,105.2,183.4,105.1,183.6,104.8z M178.3,103.9c0.5,0.3,0.3-0.4,0.7-0.2c-0.2,0.5-0.4,0.7-0.7,1L178.3,103.9z M183,104.2
				l-0.1,0.5l-0.4,0C182.6,104.3,182.8,104.3,183,104.2z M185.3,104.5c0.1-0.6,0.5,0,0.9-0.4C186.1,104.4,185.6,104.6,185.3,104.5z
				 M186.5,104l0.5,0c0.1,0.4-0.2,0.9-0.5,0.5C186.7,104.4,186.5,104,186.5,104z M199.2,101.7c-0.1,0.2-0.4,0.3-0.6,0.4
				c0.7-1.3,1.4-2.5,2.6-3.6c0.3,0.7-0.7,0.5-0.5,1.1c0.3-0.1,0.4-0.4,0.5,0c-0.3,0.4-0.4,0-0.9,0.3c0.1,0.6-0.7,0.6-0.5,1.2
				c0.2-0.2,0.3-0.5,0.8-0.6c0.1,0.3-0.2,0.4-0.1,0.7c-0.3,0.2-0.5-0.5-0.7,0c0,0.4,0.5,0,0.4,0.5c-0.1,0.2-0.3,0.3-0.5,0.4
				C199.4,102.3,199.5,101.8,199.2,101.7z M184.5,103.6c0.6,0.1,0.7-0.5,1.1-0.6c0.1,0.4,0.5,0.4,0.3,0.9c-0.5,0.1-0.4-0.3-0.6-0.4
				c-0.1,0.2-0.4,0.3-0.4,0.7C184.5,104.2,184.5,103.9,184.5,103.6z M179.9,102.9c0,0.4,0,0.8-0.3,0.7
				C179.7,103.4,179.5,103,179.9,102.9z M189.3,103.4l0,0.5l-0.4,0C188.9,103.6,189,103.4,189.3,103.4z M189.5,100
				c0-0.2,0.2-0.3,0.4-0.3c0,0.8-1.1,0.4-1.5,0.5l0,0.6c-0.8,0.2-1.1,0.8-1.5,1.3c0.2,0.4,0.4,0.8,0.3,1c-0.5-0.5-0.1,0.4-0.6,0.3
				c0.1-0.7,0.2-1.2,0-1.8c0.9,0.1,1-1.2,1.4-1.8c0.1,0.2-0.1,0.6,0.1,0.6c0-0.4,0.3-0.6,0.3-1c-0.1,0-0.3,0.2-0.4,0
				c0.4,0,0.4-1,0.9-0.7c-0.5,0.2-0.3,1.1,0.2,1.1c-0.4-0.5,0.5-1.1,0.7-1C189.7,99.2,188.9,99.8,189.5,100z M189.1,99.2
				c-0.1-0.1-0.1-0.6,0.1-0.7c0.1,0.3,0.3-0.2,0.6-0.2C189.8,98.7,189.4,99,189.1,99.2z M180,103.1c0.3-0.3,0.6-0.5,0.9-0.8
				C180.8,102.8,180.5,103.4,180,103.1z M184.5,103c-0.2,0-0.1,0.4-0.5,0.2C183.8,102.8,184.5,102.7,184.5,103z M185.9,102
				c0,0.3-0.3,0.8-0.6,0.5C185.5,102.4,185.6,102.1,185.9,102z M181.5,101.8c0.2,0.2,0,0.6-0.4,0.5
				C181.1,101.9,181.3,101.9,181.5,101.8z M201.9,97.7c0.3,0.3-0.3,0.6,0.3,0.8C201.6,98.8,201.5,97.8,201.9,97.7z M202.3,96.6
				c0.3,0.2-0.1,0.6,0.2,1.1l-0.4,0.1C202.1,97.4,202,96.9,202.3,96.6z M187.5,100.3c-0.1,0.2-0.2,0.9-0.6,0.5
				C187.2,100.7,187.2,100.3,187.5,100.3z M184.4,99.8c0,0.3-0.1,0.5-0.4,0.5C184.1,99.9,184.1,99.7,184.4,99.8z M190.4,98.2
				c0.2-0.2,0.3-0.4,0.5-0.5c0,0.4,0.3,0.6,0,0.9C190.8,98.3,190.4,98.4,190.4,98.2z M192.1,97.1c0.2,0,0.4-0.1,0.5-0.2l0,0.2
				c0.1,0,0.1,0,0.1,0.1c-0.6,0.1,0.2,0.3,0.2,0.6c-0.2,0.1-0.2,0.4-0.6,0.3C192.4,97.6,192.2,97.5,192.1,97.1z M190.2,97.1
				c0.2,0,0.4-0.1,0.5,0.1c-0.4,0.2-0.2,0.8-0.8,0.9C190,97.4,190.5,97.5,190.2,97.1z M224.4,75.6c0.3-0.4,0.5-0.1,0.6,0.4
				c-0.1,0.2-0.2,0.3-0.3,0.5C224.7,76.5,224.4,76,224.4,75.6z M204.2,92.3c0-0.4,0.1-0.7,0.5-0.8c0.1,0.4,0.8,0.7,0.2,1.1
				C204.7,92.1,204.6,91.8,204.2,92.3z M193.4,95.5c-0.2,0.3-0.5,0.2-0.6,0c0,0.7-0.8,1.6-1.5,1.4c0.8-0.4,1-1.3,1.1-1.9
				c0.1,0.2,0.4,0.3,0.6,0.3c-0.3-0.2-0.3-0.3-0.1-0.6c0.2-0.1,0.3,0.1,0.4,0.2c-0.3-0.4,0-0.2,0.2-0.5c-0.4,0-0.2-0.5,0.2-0.5
				c0.2,0.2,0,0.4,0.2,0.9C193.4,95.2,193.2,95,193.4,95.5z M183.9,96.3c0.5-0.1,0-0.8,0.2-1c0.5,0.1,0.2,0.4,0.5,0.8
				c-0.4-0.1-0.2,0.3-0.2,0.5C184.1,96.6,183.9,96.5,183.9,96.3z M192.1,94.9c0.3-0.2,0.6-0.5,0.8-0.9c0,0.3-0.1,0.6-0.2,0.8
				C192.7,94.6,192.3,95.3,192.1,94.9z M186.7,94.9c0.2,0.1,0.3,0.7,0,0.7C186.7,95.4,186.4,95,186.7,94.9z M185,94.3
				c0.1,0.3-0.2,0.3,0,0.7c0.3,0,0.3-0.2,0.5,0.1c-0.2,0.1-0.4,0.7-0.9,0.5C184.7,95.1,184.6,94.6,185,94.3z M193.9,93.4
				c0.4,0.1,0.1-0.8,0.6-0.4C194.4,93.3,194.2,94,193.9,93.4z M190.3,93.4c-0.1,0.3-0.3,0.6-0.4,0.9C189.7,94.1,190,93.2,190.3,93.4
				z M186,94.1c0,0.2,0.1,0.2,0.2,0.3c-0.3,0-0.6,0.5-0.8,0.4C185.9,94.7,185.5,94.1,186,94.1z M195.5,90.1c0,0.6-0.4,1.4-0.7,2.1
				c0.2,0,0.5-0.1,0.5,0.2c-0.7-0.2-0.3,0.2-0.9,0.6c-0.1-0.5,0-0.7-0.6-0.9C195,91.9,194.8,90.7,195.5,90.1z M224.6,66.8
				c-0.1,0.4,0.4,0.9,0,1.4C224.5,67.8,224.2,66.7,224.6,66.8z M206.7,85.3c0.3-0.1,0.4-0.3,0.2-0.6c0.6-0.2,0.9,1,0.4,1.5
				C207.2,85.5,207.2,85.5,206.7,85.3z M187,92.9c-0.1,0.5-0.5,0.7-0.8,1.2l-0.1-0.3C186.6,93.5,186.7,93.1,187,92.9z M198.7,89.9
				c-0.2,0.3-0.4,1.2-0.8,1.1C198.2,90.7,198.1,89.7,198.7,89.9z M196.8,90c0.6-0.2,0.4-0.8,0.9-1.2c0.1,0.6-0.5,1.4-0.8,1.6
				C197.1,90.3,196.9,90.1,196.8,90z M187.3,92.3c0,0.2,0.3,0,0.4,0.2c-0.3,0.1-0.1,0.4-0.5,0.4C187.1,92.6,187,92.4,187.3,92.3z
				 M188.2,91.2c0.1,0.4,0,0.6-0.2,0.7C188.1,91.7,187.9,91.3,188.2,91.2z M195.8,89.5c-0.1-0.6,0.3-0.5,0.7-0.8
				c0,0.2,0.1,0.4,0.2,0.4l-0.2,0.1C196.4,88.9,196.1,89.1,195.8,89.5z M186.8,91.2c0.3-0.3,0.1-0.8,0.7-1c-0.2,0.4,0.4,0.6,0.3,0.9
				c-0.4,0.2-0.6-0.5-0.7-0.1c0.1,0.2,0.4,0.2,0.3,0.5C187.1,91.6,187,91.4,186.8,91.2z M188.9,90.3c0.1,0.1,0.2,0.3,0.3,0.5
				c-0.5-0.1-0.3,0.3-0.6,0.3l0-0.2C188.8,90.9,188.6,90.6,188.9,90.3z M197.1,86.8c-0.2,0.4,0.1,1.8-0.5,1.3
				C197.1,87.8,196.6,87,197.1,86.8z M199.4,84.6c0.1,0.3,0.1,0.6-0.1,0.7C199,85.3,199,84.8,199.4,84.6z M198.5,84.3
				c-0.4,0.4-0.2,2-1,1.7C198,85.5,198,84.3,198.5,84.3z M201.4,81.8c0.2,0.3,0.1,0.6,0,0.8C201.1,82.5,201.2,82,201.4,81.8z
				 M200,82.1c0.8-0.4,0.4-0.9,0.8-1.5c0.4,0.5-0.2,1.3-0.4,1.9C200.3,82.2,200.1,82.5,200,82.1z M199.8,81.8c0.6-0.4-0.5-0.8,0-1.2
				c0.1,0.6,0.1,0.3,0.4,0.6C200.2,81.5,200.1,82.2,199.8,81.8z M200.6,78.8c0.3,0.4,0.2,0.6,0.1,0.9
				C200.4,79.6,200.1,79.1,200.6,78.8z M193,82.8c0.3,0.4,0,0.6-0.1,0.8C192.9,83.3,192.7,82.9,193,82.8z M192.6,82.8
				c0.2,0.2-0.1,0.7-0.4,0.5C192.6,83.2,192.1,82.8,192.6,82.8z M193.9,81.9c0.1,0.2,0.4-0.1,0.5,0c0.2,0.3,0.2,0.5-0.1,0.6
				C194.3,82.2,193.6,82.3,193.9,81.9z M192.2,81.5c0.1,0.1,0.3,0.5,0.6,0.5c-0.1-0.2,0.2-0.3,0.4-0.4c0.1,0.5,0.5,1,0.1,1.3
				C193.1,82.1,191.6,82.1,192.2,81.5z M202.6,75.7c0.3,0.2,0.2,0.8-0.2,0.6C202.6,76.2,202.2,75.9,202.6,75.7z M193.7,80.7
				c0.2,0.3,0.2,0.5-0.1,0.6C193.4,81,193.4,80.8,193.7,80.7z M200.6,76.5c0-0.4,0-1.2,0.4-1.3c-0.2-0.4,0.3-0.9-0.3-1.1l0.4-0.3
				c0.3,0.3,0,0.5,0.3,0.5c-0.3,0.5-0.4,0.7,0.3,1c-0.2,0.4-0.3,0-0.5,0.1l0.3,0.5C201,76.3,200.8,75.8,200.6,76.5z M201.5,73.3
				c0.6-0.4,0.8,0.6,0.5,1c-0.1-0.1-0.3-0.1-0.4-0.2C201.5,73.5,202.1,73.8,201.5,73.3z M200.9,72.3c0.4-0.4,0.6,0.1,0.9,0.3
				c-0.1,0.1,0.1,0.3-0.1,0.4C201.2,72.7,201.5,72.5,200.9,72.3z M203,70c0.1,0.3,0.3,0.6,0.1,0.9C202.8,70.6,202.8,70.3,203,70z
				 M212.7,33.6c-0.3-0.2-1.1-0.9-0.6-1.1c0,0.4,0.5,0.7,0.7,0.5C212.8,33.3,212.8,33.5,212.7,33.6z M201.4,65
				c0.5-0.6,1.3,0.8,0.5,0.8C202,65.5,201.5,65.5,201.4,65z M211.3,31.8c-0.5-0.6-1.7-1.5-1.3-2.1c0.4,1,0.6,0.1,1,0.3
				c0,0.6-0.4,0.6-0.5,0.8C211.1,31.1,211.7,31.6,211.3,31.8z M208.8,28.5c0.1,0.3,0.6,0.5,0.7,0.9C209,29.7,208.2,28.4,208.8,28.5z
				 M194.6,66c0.2,0.3,0.2,0.5,0.1,0.8C194.3,66.5,194.4,66.2,194.6,66z M194,64.6c-0.7-0.2,0-0.4,0-0.6c-0.4,0.2-0.8,0-1-0.1
				c0.3-0.4,0.8,0.3,1.1-0.1c-0.1-0.1-0.3,0-0.4-0.2c0-0.1,0.2-0.6,0.5-0.5c-0.2,0.5,1.5,1.9,0.2,1.7c0,0.3,0.5,1,0,1.1
				C193.7,65.7,193.6,64.9,194,64.6z M193,64.3c0.3,0.4,0.3,0.7,0.4,1.1C193.2,65,192.8,64.7,193,64.3z M201.6,22.7
				c-0.2-0.6-1.8-0.9-1.4-1.4C200.7,21.7,202,22.1,201.6,22.7z M192.5,63c0.1-0.1,0.2-0.3,0.4-0.3c-0.2,0.4-0.1,0.5,0.3,0.7
				C192.8,63.6,192.7,63.2,192.5,63z M193.1,61.4c0.3-0.2-0.2-0.3,0.2-0.6C193.5,61,193.6,61.6,193.1,61.4z M191.4,62.4
				c0.1-0.2,0.3-0.3,0.5-0.2c-0.1,0.1-0.2,0.2-0.1,0.3c0.1,0.1,0.2,0.1,0.1,0.2L191.4,62.4z M196.4,18.4c0.2,0,0.2-0.2,0.6,0
				c0,0.5,0.4,0.5,0.6,0.8C197.1,18.9,196.7,18.8,196.4,18.4z M192.2,58.8c0.2,0,0.1-0.4,0.2-0.4c-0.2-0.1-0.3,0.1-0.4,0
				c-0.2-0.4,0.3-0.6,0.7-0.4c0,0.4,0.3,0.8,0.2,1.2C192.6,58.9,192.4,58.9,192.2,58.8z M194.9,16.4l0.2,0.6
				C194.5,17,194.3,16.2,194.9,16.4z M192,56.8c-0.2-0.2-0.3-0.4-0.1-0.7c0.3,0.1,0.4,0.4,0.3,0.6C192.1,56.8,192,56.7,192,56.8z
				 M189.1,14.2c-0.2-0.3-0.5-0.4-0.6-0.7c0.2,0,0.2-0.6,0.6-0.1c-0.4,0-0.2,0.4,0.2,0.4c0-0.2,0.1-0.3,0.3-0.4
				c0.1,0.3,0.5,0.2,0.6,0.6C189.4,13.7,189.8,14.3,189.1,14.2z M190.4,55c0-0.4-0.6-0.9-0.2-1.2c0,0.3,0.2,0.4,0.3,0.6
				c0.1-0.2,0-0.3,0.1-0.5c0.2,0.1,0.4,0.4,0.7,0.2C191,54.5,190.8,54.7,190.4,55z M186.8,12.8c0.3-0.1,0.3-0.3,0.7-0.3
				C187.6,12.9,187.2,13.4,186.8,12.8z M190.2,53.4c0.2-0.5,0.6-0.6,0.9-0.7c-0.1,0.1-0.1,0.3,0,0.4C190.6,53,190.6,53.6,190.2,53.4
				z M185.9,11.9c0.4,0,0.7,0.1,0.9,0.3C186.4,12.4,186.1,12.3,185.9,11.9z M189.4,52.5c0.2,0.3,0.5,0.7,0.6,1.1
				c-0.2-0.4-0.4-0.4-0.5-0.7c0.1,0,0.2,0,0.2-0.2C189.4,52.8,189.3,52.7,189.4,52.5z M189.5,51.8c0.2,0,0.2-0.2,0.4-0.2
				c0.5,0.2,0.6,0.7,0.7,1.2c-0.3-0.1-0.4,0.1-0.7,0C189.7,52.4,189.5,52.2,189.5,51.8z M182.7,10.9c0.6,0,1-0.1,1-0.4
				c0.2,0.4,0.7,0.4,1,0.6c-1,0.2,0.2,0.5-0.4,0.6C183.9,11.2,183.1,11.4,182.7,10.9z M188.4,51.9c0.1-0.2,0.2-0.2,0.3-0.4
				c-0.1,0-0.2,0-0.3,0c0-0.4,0.3-0.3,0.6-0.2c0,0.1-0.1,0.3,0,0.3c0.1-0.1,0.2-0.1,0.4,0l-0.1,0.3
				C188.7,51.8,188.9,51.8,188.4,51.9z M188.9,50.4c-0.3-0.1-0.2-0.5-0.4-0.7C189,49.7,189.3,50,188.9,50.4z M187.5,49.3
				c-0.2-0.2-0.5-0.3-0.4-0.6c0.5,0,0.3,0.3,0.5,0.4c0.1-0.1,0.1-0.2,0.2-0.2C187.6,49.1,187.5,49.2,187.5,49.3z M186.9,47.5
				c0,0.3,0.4,0.4,0.4,0.8C186.9,48.1,186.6,47.6,186.9,47.5z M187.1,47.5c0-0.1-0.1-0.1-0.2-0.2c0-0.3,0.1-0.4,0.3-0.4
				c0,0.2,0.1,0.2,0.1,0.4C187.2,47.3,187.2,47.5,187.1,47.5z M186.1,46c0.6,0.1,0.8,0.4,0.9,0.9C186.5,46.7,186.5,46.2,186.1,46z
				 M185.3,46.4c0.6-0.2,0.8,0.1,0.9,0.5C185.7,46.9,185.3,46.8,185.3,46.4z M184.8,44.1c0.1-0.2,0.2-0.2,0.2-0.4
				c0.5,0.1,0.8,0.2,0.8,0.7C185.4,44.2,185,44,184.8,44.1z M180.6,41.8c0.3,0-0.1-0.2,0-0.5c0.3-0.1,0.5,0.5,0.2,0.6
				C180.8,41.7,180.7,42,180.6,41.8z M150.1,33.5c-0.2-0.1-0.4,0-0.7-0.2c0.3-0.4,0.6-0.5,1-0.6l0.2,0.3
				C150.1,33.1,150.1,33.1,150.1,33.5z M147.3,33.4c0.4,0.4,0.8-0.5,0.8,0.3C147.9,33.5,147.3,33.9,147.3,33.4z M100.7,32
				c0.4-1.3-0.9,0.8-0.8-0.7c0.6,0,0.5,0.1,0.9-0.4C101.1,31.2,101.4,31.8,100.7,32z M100.9,30.4c0.2-0.1,0.4,0,0.5-0.2
				c0-0.3-0.6-0.5-0.1-0.9c0.2,0.1,0.1,0.5,0.5,0.4c-0.5,0.5,0.1,1-0.3,1.5C101.2,31.1,100.8,31,100.9,30.4z M139.6,36.1
				c-0.2,0.3-0.4,0.2-0.7,0.3c-0.1-0.3,0.3-0.3,0.3-0.7C139.6,35.7,139.4,35.9,139.6,36.1z M99.5,33.5c-0.4,0.1-0.5-0.3-0.8-0.3
				c0.4-0.1,0.2-0.7,0.6-0.7C99.5,32.9,99.4,33,99.5,33.5z M137.9,36.4c0.4,0,0.2-0.5,0.6-0.3C138.6,36.2,138,36.9,137.9,36.4z
				 M99.3,33.8c0,0.3-0.2,0.5-0.5,0.5c0-0.2-0.1-0.4,0.1-0.6C98.9,34,99.1,33.8,99.3,33.8z M119.8,52.1c0.4,0,0.2-0.6,0.5-0.7
				C120.6,51.9,120.1,52.4,119.8,52.1z M119.2,53.2c0.3-0.3,0.4-0.7,0.8-0.9C120,52.9,119.8,53.2,119.2,53.2z M119.1,53.9l0-0.5
				l0.4,0C119.6,53.7,119.3,53.8,119.1,53.9z M96.8,76.5c-0.3,0.3-0.6,0-0.8-0.3c-0.2-0.5-0.1-1.3-0.3-2.1c0.1-0.1,0.3-0.3,0.4-0.1
				C96.2,74.5,96.5,75.6,96.8,76.5z M96.7,79.3c-0.2,0.2-0.4,0.2-0.5,0.1c0-0.7-0.3-1.5-0.3-2.2C96.2,78.1,96.3,78.7,96.7,79.3z
				 M113.8,67.2c-0.3-0.2-0.5-0.8-0.2-1C114,66.6,113.9,66.9,113.8,67.2z M97.5,82.5c-0.5-0.9-0.7-1.7-1.4-2.1l0.4-0.4
				C96.6,80.5,97.8,81.3,97.5,82.5z M115,72.8c0.1,0.2,0.2,0.3,0.1,0.4c-0.5,0.3-0.7-0.3-1.2,0.1c0-0.3-0.3-0.6,0-0.8
				C114,73,114.6,73.2,115,72.8z M98.1,90.1c-0.2,0.3-0.5,0-0.7,0.1c0.1-0.3-0.1-0.5,0.1-0.8C97.9,89.7,97.8,89.9,98.1,90.1z
				 M104.4,85.3c-0.1,0.3,0.5,0.4,0.7,0.5c-0.2,0.4-0.3,0.1-0.5,0.2c0.1,0.1,0,0.2-0.1,0.3c-0.1-0.4-0.2-0.8-0.6-0.6
				C103.9,85.4,104.2,85.3,104.4,85.3z M112.2,81.4c0.3-0.2-0.2-0.4,0.1-0.5C112.7,81,112.6,81.5,112.2,81.4z M112.4,83.5
				c-0.3-0.4-0.5-0.7-0.3-1.1C112,82.8,112.6,83.1,112.4,83.5z M112.3,85c-0.2-0.2-0.4-0.4,0-0.6C112.5,84.6,112.5,84.8,112.3,85z
				 M114,84.6c-0.3,0.2-0.3,0.3,0,0.3c-0.3,0.3-0.7-0.3-0.4-0.4C113.8,84.6,113.9,84.6,114,84.6z M114.9,98.2
				c-0.3,0.1-0.6-0.2-0.7-0.3C114.5,97.7,115.1,97.9,114.9,98.2z"/>
			<path style="fill:#D3CDC5;" d="M179.6,100.3c0,0.2,0.2-0.1,0.2,0.2c0-1.1,1.1-1.3,1.3-2.2c-0.7,0.2-1.1,0.8-1.6,1.3
				c0,0.1,0.2,0.1,0.3,0.2C179.8,100,179.8,100.3,179.6,100.3z"/>
			<path style="fill:#D3CDC5;" d="M119.8,134.8c0.2,0.4,0.8,0.2,1.2,0.4C120.7,135,120.4,134.7,119.8,134.8z"/>
			<path style="fill:#D3CDC5;" d="M141.9,139.9c-0.3,0.1-0.3,0.2-0.5,0.3c0.2,0.1,0.4,0,0.7-0.1c0,0.1,0,0.2,0.2,0.4
				C142.8,140.1,142.2,140.1,141.9,139.9z"/>
			<path style="fill:#D3CDC5;" d="M129.5,123.4c-0.4-0.1,0.5,0.4,0.3,0.7c0.2-0.1,0.2-0.3,0.4-0.5
				C129.9,123.2,129.9,123.9,129.5,123.4z"/>
			<path style="fill:#D3CDC5;" d="M134.2,130.6c-0.3,0.1-0.4,0.2-0.2,0.5c0.1-0.2,0.4-0.2,0.6,0
				C134.9,130.9,134.2,130.7,134.2,130.6z"/>
			<path style="fill:#D3CDC5;" d="M133.6,128.3c0-0.1,0.2-0.2,0.1-0.4c-0.3,0-0.5,0.2-0.6,0.3c0.1,0.2,0.5,0,0.6,0.2
				C133.8,128.3,133.6,128.3,133.6,128.3z"/>
			<path style="fill:#D3CDC5;" d="M147.7,143c0.4,0.4,0.4-0.2,0.6-0.3c0.4-0.2,0,0.3,0.5,0.4c0.8-0.5,1.4-0.3,2.1-0.1
				c0.1-0.2,0.2-0.3,0.3-0.5c-0.6,0.2-1.8,0.3-2.7,0C148,142.8,147.7,142.7,147.7,143z"/>
			<path style="fill:#D3CDC5;" d="M133.2,126c1.2,0.3,2,0.7,3.2,0.5c-0.1-0.2-0.4-0.2-0.2-0.3c-0.4-0.3-0.3,0-0.8,0.1
				c0.2-0.4-1.4-0.5-1-0.7C134.5,125.1,133.6,125.6,133.2,126z"/>
			<path style="fill:#D3CDC5;" d="M154.5,145.8c0.4,0.3,1.9,0.2,2.8-0.1C156.4,145.8,155.4,145.8,154.5,145.8z"/>
			<path style="fill:#D3CDC5;" d="M129.4,108.2c-0.2,0.2-0.3,0-0.6,0.1c0.2,0.4,0.4,0.2,0.7,0.2
				C129.6,108.5,129.3,108.4,129.4,108.2z"/>
			<path style="fill:#D3CDC5;" d="M135.8,126.8c0.4,0,0.7,0.3,1.1,0C136.7,126.4,136.2,126.9,135.8,126.8z"/>
			<path style="fill:#D3CDC5;" d="M152.9,141.3c-0.4,0.1,0,0.3-0.2,0.4c0.3,0.2,0.6,0,0.9-0.1C153.8,141.4,153,141.8,152.9,141.3z"
				/>
			<path style="fill:#D3CDC5;" d="M134.1,116c0.1,0,0-0.2,0-0.3c0.3-0.1,0.3,0.1,0.6-0.1c-0.2-0.2-0.4-0.5-0.9-0.2
				C134,115.7,134.2,115.5,134.1,116z"/>
			<path style="fill:#D3CDC5;" d="M142.1,123.4c0.5-0.1,0.4,0.3,0.9,0.3c0.3-0.3,0.3-0.4,0.5-0.6C143,123.4,142.3,123.1,142.1,123.4
				z"/>
			<path style="fill:#D3CDC5;" d="M167.2,140.8c-0.3-0.3,0.6-0.2,0.4-0.6c-0.3-0.2-0.6,0.4-0.9,0.2c0.2,0.3-0.5,0.6,0.2,1
				c0.3-0.2,0.6-0.4,1-0.4C168.1,140.7,167.3,140.9,167.2,140.8z"/>
			<path style="fill:#D3CDC5;" d="M169.4,140.6c0.6,0.2,1.1-0.7,1.8-0.3c0.3-0.4-0.4-0.1-0.2-0.4
				C170.5,140.2,169.9,140.2,169.4,140.6z"/>
			<path style="fill:#D3CDC5;" d="M172,139.5c-0.3-0.1-0.2-0.3-0.4-0.3c-0.7,0.4-1.4,0.5-2.1,0.5c0.2,0.7,1.3-0.2,2,0.3
				c0.3-0.5,0.8-0.4,1.3-0.2c0.7-0.3,0.7-0.5,1.1-1c-0.3,0-0.5,0-0.8,0.1c-0.3,0.2,0.1,0.3,0,0.4c-0.1,0.1-0.3,0.1-0.4,0.2
				c-0.2-0.1,0.2-0.4-0.3-0.4C172,139.1,171.9,139.2,172,139.5z"/>
			<path style="fill:#D3CDC5;" d="M143.7,109.3c-0.1,0.1,0,0.1,0,0.1c0.1,0.1,0.1,0.3,0,0.4c0.1,0.1,0.2-0.1,0.4-0.2
				C144.1,109.5,143.9,109.5,143.7,109.3z"/>
			<path style="fill:#D3CDC5;" d="M150.1,112.4c-0.1,0.2,0.9,0.6,1.3,0.2c-0.1-0.1-0.6,0.2-0.4-0.2
				C150.7,112.2,150.4,112.8,150.1,112.4z"/>
			<path style="fill:#D3CDC5;" d="M153.9,113.6c0.3,0.2,0.6,0.8,0.9,0.2c-0.1-0.7-0.8,0-0.9-0.7
				C153.8,113.3,154.3,113.4,153.9,113.6z"/>
			<path style="fill:#D3CDC5;" d="M173.6,121.5c-0.1,0.4,0.4,0,0.6,0.1c0.1-0.2,0-0.4,0.2-0.3c0.1-0.1,0-0.1-0.1-0.2l-0.2-0.1
				c0.1,0.1-0.1,0.8-0.2,0.3C173.7,121.3,173.9,121.6,173.6,121.5z"/>
			<path style="fill:#D3CDC5;" d="M162.7,112.9c0.1,0.3,0.7,0,1,0c0,0.5,0.7,0.6,1.1,0.7c-0.1-0.5-0.6-0.9-0.8-1.2
				c0.2,0.8-0.5,0-1,0.2C163,112.8,162.9,113,162.7,112.9z"/>
			<path style="fill:#D3CDC5;" d="M165.6,113.7c0.2,0.3,0.9-0.2,1.4-0.1c0.1-0.4-0.6,0-0.5-0.4C166.4,113.3,166.1,113.7,165.6,113.7
				z"/>
			<path style="fill:#D3CDC5;" d="M164.5,112.6c-0.3,0.3,0.1,0.3,0.2,0.1c0.2,0.1,0.2,0.2,0.2,0.4c0.1,0,0.3-0.1,0.4,0
				c-0.2-0.1-0.4-0.6,0.2-0.3c0-0.2-0.2-0.2-0.3-0.4C164.9,112.7,164.7,112.7,164.5,112.6z"/>
			<path style="fill:#D3CDC5;" d="M168.4,111.6c-0.2,0-0.2,0.1-0.4,0c-0.2,0.3,0.2,0.4,0,0.6C168.2,112.2,168.1,112,168.4,111.6z"/>
			<path style="fill:#D3CDC5;" d="M169.9,106.7c0.1,0.3-0.1,0.1-0.1,0.4c0.3,0.1,0,0.4,0.4,0.5l0.1-0.3c-0.2-0.1-0.4-0.3,0-0.4
				C170.4,106.6,170.1,107,169.9,106.7z"/>
			<path style="fill:#D3CDC5;" d="M178,108.8C177.8,108.8,178.1,109,178,108.8c0.2,0.1,0.3,0.3,0.2,0.5c0.3-0.1,0.2-0.8-0.2-0.8
				C178.2,108.7,178.1,108.8,178,108.8z"/>
			<path style="fill:#D3CDC5;" d="M193.1,109.7c0.2,0,0.1-0.1,0-0.1c0-0.4,0.8-0.2,0.5-0.7c-0.5-0.1-0.6,0.4-0.9,0.7
				C192.9,109.6,193.1,109.6,193.1,109.7z"/>
			<path style="fill:#D3CDC5;" d="M176.3,102c-0.4-0.1-0.7,0-0.8,0.4c0.6,0.2,0.8-0.2,1.3-0.1c-0.2-0.6,0.4-0.6,0.5-1
				C177.2,101.3,176,101.6,176.3,102z"/>
			<path style="fill:#D3CDC5;" d="M177.4,101.8c0.4-0.2,0.3-0.8,0.9-0.8c-0.6-0.8,1.1-0.7,1.1-1.4c-0.1-0.1-0.3-0.1-0.3-0.3
				c-0.2,0.3-0.1,0.8-0.8,0.6c-0.2,0.5-0.7,0.6-1,1c0,0.2,0.3,0.2,0.4,0.2C177.7,101.5,177.3,101.4,177.4,101.8z"/>
			<path style="fill:#D3CDC5;" d="M175.6,100.8c0.6,0.7,1.9-0.4,1.9-1C176.9,100.2,176.4,101.2,175.6,100.8z"/>
			<path style="fill:#D3CDC5;" d="M180.3,97.9c0.3-0.1,0.5-0.3,0.8-0.6C180.7,97.2,180.4,97.6,180.3,97.9z"/>
			<path style="fill:#D3CDC5;" d="M183.2,95.1c0.6-0.1,1.2-1,1.6-1.7c-0.6-0.1-0.4,0.5-0.9,0.3c0.4,0.4-0.5,0.4-0.2,0.9
				c-0.4,0.1-0.3-0.6-0.6-0.2C183.6,94.7,183.5,94.9,183.2,95.1z"/>
			<path style="fill:#D3CDC5;" d="M182.5,94.7c0.3,0.3,0.5-0.4,0.7-0.5c-0.1-0.3-0.3,0.1-0.6,0C182.7,94.5,182.8,94.6,182.5,94.7z"
				/>
			<path style="fill:#D3CDC5;" d="M185,93.4c0.5-0.2,0.9-0.7,1.1-1.2C185.1,91.8,185,92.8,185,93.4z"/>
			<path style="fill:#D3CDC5;" d="M189.6,86.6c0.2-0.2,0.2-0.4,0.2-0.8l-0.3,0.1C189.9,86.3,189.5,86.3,189.6,86.6z"/>
			<path style="fill:#D3CDC5;" d="M190.1,82.2l0.3,0.6c0.3-0.3-0.4-0.6,0-0.9C190.3,81.6,190.2,82.2,190.1,82.2z"/>
			<path style="fill:#D3CDC5;" d="M191.6,78.1c0.8,0-0.3-0.5,0.5-0.7c-0.1,0-0.2-0.1-0.3-0.2C191.5,77.5,191.7,77.8,191.6,78.1z"/>
			<path style="fill:#D3CDC5;" d="M192.2,71.1C192.1,71.3,192.5,71.2,192.2,71.1c0.3-0.2,0.5,0,0.7,0.1c0.1-0.2-0.3-0.5,0.1-0.7
				c-0.8-0.3-0.2-0.7-0.4-1.1c-0.1-0.3-0.4,0.2-0.5-0.2c0.2,0.4-0.1,0.8,0.3,1.3c-0.2,0.1-0.3,0-0.4,0.2
				C192.1,70.6,192.3,70.9,192.2,71.1z"/>
			<path style="fill:#D3CDC5;" d="M191.1,59.2c0.3-0.5-0.6-0.6-0.4-1.1c-0.2,0-0.2,0.2-0.4,0.3C191,58.6,190.5,59.1,191.1,59.2z"/>
			<path style="fill:#D3CDC5;" d="M187.6,52.4c0.3-0.1-0.2-1-0.4-0.9C187.3,51.8,187.7,52,187.6,52.4z"/>
			<path style="fill:#D3CDC5;" d="M184.7,45.3c-0.2,0-0.4,0.2-0.6,0.3c0,0.2,0.2,0.3,0.5,0.4c0.1-0.3-0.2-0.2-0.3-0.4
				C184.4,45.4,184.8,45.8,184.7,45.3z"/>
			<path style="fill:#D3CDC5;" d="M157.6,34.2c0.1-0.4-0.5-0.2-0.7-0.4c-0.1,0-0.1,0.1,0,0.2l0.1,0.2
				C157.2,34,157.4,34.2,157.6,34.2z"/>
			<path style="fill:#D3CDC5;" d="M115.1,15.2c-0.7,0.3-1.2,0.9-2,1.1c0,0.6-0.9,1-1.5,1.3c0,0.1,0.1,0.2,0,0.3
				c0.1,0,0.1,0.1,0.1,0.1C112.7,16.9,114,16.4,115.1,15.2z"/>
			<path style="fill:#D3CDC5;" d="M120.2,56.6c-0.1,0.4,0.4,0.2,0.3,0.7c0.1,0,0.1-0.1,0.2-0.1l0-0.2
				C120.4,57.1,120.6,56.4,120.2,56.6z"/>
			<path style="fill:#D3CDC5;" d="M118,59.2c-0.6,0.1,0.6,0.3,0.1,0.6c0.2,0.3,0.4-0.1,0.3-0.4C118.1,59.4,118,59.4,118,59.2z"/>
		</g>
	</g>
</g>
<text transform="matrix(1 0 0 1 0 110.0305)" style="enable-background:new    ;"><tspan x="0" y="0" style="font-family:'Samurai';adobe-font-script:japanese; font-size:100;">天</tspan><tspan x="100" y="0" style="font-family:'Samurai';adobe-font-script:japanese; font-size:100; letter-spacing:4;">心</tspan><tspan x="204" y="0" style="font-family:'Samurai';adobe-font-script:japanese; font-size:100;">工房</tspan></text>
<text transform="matrix(1 0 0 1 3 147.0305)" style="enable-background:new    ;"><tspan x="0" y="0" style="font-family:'Athelas-Regular'; font-size:26;">F</tspan><tspan x="14" y="0" style="font-family:'Athelas-Regular'; font-size:26;">usion of                    </tspan><tspan x="209.9" y="0" style="font-family:'Athelas-Regular'; font-size:26; letter-spacing:-3;"> </tspan><tspan x="211.7" y="0" style="font-family:'Athelas-Regular'; font-size:26; letter-spacing:-2;">W</tspan><tspan x="235" y="0" style="font-family:'Athelas-Regular'; font-size:26;">eb and the</tspan><tspan x="348.2" y="0" style="font-family:'Athelas-Regular'; font-size:26; letter-spacing:-1;"> </tspan><tspan x="352.6" y="0" style="font-family:'Athelas-Regular'; font-size:26;">Zen</tspan></text>
</svg>
