<?xml version="1.0" encoding="utf-8"?>
<!-- Generator: Adobe Illustrator 16.0.0, SVG Export Plug-In . SVG Version: 6.00 Build 0)  -->
<!DOCTYPE svg PUBLIC "-//W3C//DTD SVG 1.1//EN" "http://www.w3.org/Graphics/SVG/1.1/DTD/svg11.dtd">
<svg version="1.1" id="レイヤー_1" xmlns="http://www.w3.org/2000/svg" xmlns:xlink="http://www.w3.org/1999/xlink" x="0px"
	 y="0px" width="590.374px" height="52px" viewBox="0 0 590.374 52" enable-background="new 0 0 590.374 52" xml:space="preserve">
<g>
	<path fill="#231815" d="M22.04,24.168c0.629,0,1.159-0.248,1.569-0.717c0.645-0.733,0.929-1.937,0.761-3.216
		c-0.301-2.286-1.932-4.185-3.637-4.235l-0.068-0.001c-0.604,0-1.142,0.247-1.552,0.716c-0.636,0.725-0.903,1.871-0.735,3.146
		c0.299,2.283,1.964,4.256,3.634,4.307H22.04z"/>
	<path fill="#231815" d="M23.9,31.054c-0.167-0.113-0.342-0.232-0.521-0.355c-0.526-0.161-1.084-0.246-1.655-0.253h-0.071
		c-2.625,0-4.929,1.591-4.929,3.405c0,1.972,1.972,3.518,4.491,3.518c3.322,0,5.006-1.145,5.006-3.404
		c0-0.214-0.026-0.435-0.077-0.655C25.92,32.43,25.116,31.883,23.9,31.054z"/>
	<path fill="#231815" d="M26.625,1.365C13.025,1.365,2,12.389,2,25.988s11.025,24.625,24.625,24.625
		c13.599,0,24.624-11.025,24.624-24.625S40.224,1.365,26.625,1.365z M24.385,39.387c-0.981,0.283-2.041,0.428-3.154,0.428
		c-1.237,0-2.43-0.143-3.539-0.424c-2.15-0.542-3.741-1.571-4.481-2.896c-0.319-0.573-0.482-1.184-0.482-1.816
		c0-0.652,0.157-1.312,0.464-1.966c1.179-2.511,4.283-4.197,7.722-4.197c0.035,0,0.067,0,0.1-0.001
		c-0.28-0.491-0.416-1.001-0.416-1.536c0-0.269,0.035-0.54,0.105-0.815c-3.607-0.084-6.307-2.725-6.307-6.207
		c0-2.46,1.966-4.854,4.776-5.824c0.842-0.29,1.7-0.438,2.544-0.438h7.713c0.263,0,0.494,0.17,0.576,0.42
		c0.083,0.251-0.008,0.524-0.222,0.679L28.06,16.04c-0.104,0.075-0.229,0.115-0.357,0.115h-0.617
		c0.798,0.956,1.266,2.316,1.266,3.849c0,1.69-0.855,3.289-2.41,4.506c-1.202,0.936-1.25,1.191-1.25,1.729
		c0.016,0.294,0.854,1.252,1.775,1.904c2.152,1.522,2.952,3.014,2.952,5.507C29.418,36.248,27.442,38.499,24.385,39.387z
		 M41.808,26.155c0,0.335-0.273,0.606-0.607,0.606h-4.384v4.385c0,0.335-0.271,0.606-0.606,0.606h-1.248
		c-0.336,0-0.607-0.271-0.607-0.606v-4.385H29.97c-0.333,0-0.605-0.271-0.605-0.606v-1.249c0-0.334,0.272-0.607,0.605-0.607h4.385
		v-4.383c0-0.336,0.271-0.607,0.607-0.607h1.248c0.335,0,0.606,0.271,0.606,0.607v4.383H41.2c0.334,0,0.607,0.273,0.607,0.607
		V26.155z"/>
</g>
<path fill="#231815" d="M101.928,1.364c-13.601,0-24.625,11.025-24.625,24.625c0,13.602,11.024,24.625,24.625,24.625
	s24.625-11.023,24.625-24.625C126.553,12.39,115.529,1.364,101.928,1.364z M94.291,37.099c-1.787,0-3.236-1.451-3.236-3.238
	c0-1.789,1.449-3.238,3.236-3.238c1.788,0,3.238,1.449,3.238,3.238C97.529,35.647,96.079,37.099,94.291,37.099z M102.414,37.12
	c0-3.057-1.182-5.928-3.329-8.082c-2.143-2.154-4.993-3.342-8.028-3.342v-4.674c8.84,0,16.03,7.223,16.03,16.098H102.414z
	 M110.669,37.124c0-10.867-8.795-19.711-19.605-19.711v-4.676c13.388,0,24.279,10.941,24.279,24.387H110.669z"/>
<path fill="#231815" d="M179.232,1.365c-13.601,0-24.625,11.027-24.625,24.625c0,13.6,11.024,24.623,24.625,24.623
	s24.624-11.023,24.624-24.623C203.856,12.393,192.833,1.365,179.232,1.365z M185.851,40.334c-1.015,0-6.633-0.133-8.067-0.133
	s-8.912-2.332-8.912-10.559c0-1.465-0.001-2.938-0.005-4.404c-0.006-1.367-0.034-2.732-0.039-4.09
	c-0.001-0.396-0.003-0.793-0.005-1.189c-0.01-2.072-0.185-4.404,0.481-6.395c0.51-1.518,1.716-2.125,3.201-2.125
	c3.594,0,3.834,3.664,3.844,7.344h10.387c1.646,0,2.873,1.668,2.873,4.221c0,2.551-2.661,3.123-4.055,3.123h-9.32
	c-0.047,1.562-0.097,2.834-0.097,3.607c0,1.625,0.634,3.385,4.603,3.385h5.578c1.393,0,3.46,1.055,3.46,4.002
	C189.777,40.064,186.864,40.334,185.851,40.334z"/>
<path fill="#231815" d="M256.536,1.365c-13.6,0-24.625,11.027-24.625,24.625c0,13.6,11.025,24.623,24.625,24.623
	s24.625-11.023,24.625-24.623C281.161,12.393,270.135,1.365,256.536,1.365z M263.054,25.887h-4.264c0,6.814,0,15.207,0,15.207
	h-6.321c0,0,0-8.307,0-15.207h-3.005v-5.369h3.005v-3.479c0-2.49,1.183-6.377,6.379-6.377l4.68,0.018v5.215c0,0-2.846,0-3.398,0
	c-0.554,0-1.339,0.277-1.339,1.461v3.162h4.817L263.054,25.887z"/>
<path fill="#231815" d="M333.84,1.365c-13.6,0-24.625,11.027-24.625,24.625c0,13.6,11.025,24.623,24.625,24.623
	s24.623-11.023,24.623-24.623C358.463,12.393,347.439,1.365,333.84,1.365z M346.245,21.025c0.012,0.267,0.018,0.534,0.018,0.803
	c0,8.201-6.242,17.657-17.656,17.657c-3.505,0-6.768-1.027-9.514-2.788c0.486,0.057,0.979,0.086,1.48,0.086
	c2.908,0,5.584-0.992,7.707-2.656c-2.715-0.051-5.007-1.845-5.797-4.31c0.379,0.073,0.768,0.111,1.168,0.111
	c0.566,0,1.114-0.075,1.635-0.218c-2.84-0.57-4.979-3.079-4.979-6.084c0-0.027,0-0.053,0.001-0.079
	c0.837,0.465,1.794,0.744,2.812,0.777c-1.666-1.115-2.762-3.013-2.762-5.166c0-1.138,0.307-2.204,0.84-3.12
	c3.061,3.755,7.635,6.225,12.792,6.483c-0.106-0.454-0.161-0.928-0.161-1.414c0-3.427,2.779-6.205,6.206-6.205
	c1.785,0,3.397,0.754,4.529,1.959c1.415-0.277,2.742-0.795,3.941-1.506c-0.464,1.45-1.448,2.666-2.729,3.434
	c1.256-0.15,2.452-0.484,3.564-0.978C348.511,19.057,347.457,20.15,346.245,21.025z"/>
<g>
	<path fill="#231815" d="M411.141,1.365c-13.6,0-24.624,11.023-24.624,24.623s11.024,24.625,24.624,24.625
		c13.601,0,24.625-11.025,24.625-24.625S424.742,1.365,411.141,1.365z M413.293,15.391c-0.47-0.668-1.339-1.006-2.143-1.006h-0.269
		c-1.339,0.135-2.544,0.871-2.878,2.346c-0.067,0.334-0.269,0.668-0.671,0.736l-3.748-0.469c-0.269-0.066-0.67-0.268-0.537-0.803
		c0.805-4.221,4.42-5.693,7.834-5.891h0.805c1.875,0,4.286,0.535,5.825,1.939c1.875,1.74,1.673,4.086,1.673,6.627v6.027
		c0,1.809,0.738,2.611,1.474,3.549c0.202,0.334,0.269,0.738-0.067,1.006c-0.734,0.67-2.141,1.875-2.945,2.545
		c-0.268,0.197-0.603,0.197-0.938,0.064c-1.271-1.07-1.473-1.539-2.209-2.543c-1.273,1.338-2.344,2.074-3.617,2.479
		c-0.802,0.197-1.673,0.332-2.743,0.332c-3.216,0-5.761-2.006-5.761-5.959c0-3.145,1.676-5.289,4.152-6.295
		c1.271-0.602,2.812-0.869,4.352-1.07c1.005-0.135,2.01-0.201,2.88-0.268v-0.533C413.762,17.268,413.83,16.195,413.293,15.391z
		 M423.434,36.488c-0.39,0.312-0.806,0.592-1.22,0.84l-0.018,0.012c-3.164,1.988-7.242,3.207-10.848,3.285
		c-0.113,0.004-0.225,0.006-0.336,0.006c-5.667-0.002-9.882-3.102-13.727-6.439c-0.188-0.15-0.32-0.377-0.318-0.625
		c-0.002-0.193,0.08-0.383,0.217-0.508c0.138-0.131,0.326-0.199,0.511-0.199c0.146,0,0.289,0.039,0.433,0.117
		c4.098,2.273,8.158,4.578,13.134,4.578c0.114,0,0.231,0,0.348-0.004c3.165-0.068,6.584-0.842,9.84-2.162v-0.004l0.3-0.119
		l0.231-0.096c0.155-0.068,0.321-0.143,0.484-0.207c0.145-0.068,0.3-0.104,0.45-0.104c0.477,0.002,0.918,0.352,0.926,0.871
		C423.845,36.025,423.678,36.307,423.434,36.488z M425.293,37.863c-0.158,0.123-0.34,0.207-0.556,0.209h-0.004
		c-0.145,0-0.315-0.049-0.446-0.174c-0.136-0.127-0.199-0.314-0.196-0.471c0-0.107,0.021-0.205,0.057-0.295
		c0.147-0.387,0.368-0.969,0.552-1.553c0.185-0.578,0.323-1.176,0.318-1.498c0.001-0.084-0.009-0.141-0.017-0.168
		c-0.005-0.002-0.013-0.006-0.024-0.012c-0.035-0.018-0.099-0.037-0.183-0.055c-0.167-0.039-0.41-0.057-0.682-0.055
		c-0.384,0-0.827,0.035-1.245,0.076c-0.486,0.074-0.902,0.113-1.187,0.172l-0.023,0.006l-0.027,0.002
		c-0.029,0.002-0.061,0.004-0.096,0.004c-0.144,0-0.309-0.039-0.449-0.15c-0.143-0.115-0.227-0.307-0.222-0.477
		c0.009-0.309,0.179-0.51,0.382-0.66c0.326-0.238,0.679-0.438,1.065-0.596l-0.001-0.018l0.33-0.107l0.011-0.002l0.585-0.197v0.039
		c0.578-0.127,1.156-0.176,1.68-0.176c0.729,0.002,1.332,0.09,1.746,0.248c0.142,0.061,0.269,0.115,0.402,0.262l0.017,0.02
		l0.014,0.021c0.132,0.199,0.2,0.438,0.212,0.758l0.004,0.188C427.29,34.404,426.775,36.529,425.293,37.863z"/>
	<path fill="#231815" d="M413.762,21.82c-1.004,0-2.009,0.064-2.88,0.266c-1.605,0.471-2.878,1.475-2.878,3.617
		c0,1.674,0.87,2.811,2.343,2.811c0.201,0,0.402-0.066,0.535-0.066c0.871-0.201,1.676-0.805,2.144-1.74
		c0.804-1.34,0.736-2.547,0.736-4.084V21.82z"/>
</g>
<g>
	<polygon fill="#231815" points="477.932,28.062 479.715,28.062 479.715,36.919 481.438,36.919 481.438,28.062 483.219,28.062 
		483.219,26.554 477.932,26.554 	"/>
	<path fill="#231815" d="M488.512,20.702c0.234,0,0.42-0.062,0.557-0.189c0.137-0.131,0.207-0.309,0.207-0.533v-4.59
		c0-0.184-0.07-0.334-0.211-0.445c-0.141-0.115-0.324-0.172-0.553-0.172c-0.209,0-0.379,0.057-0.512,0.172
		c-0.131,0.111-0.195,0.262-0.195,0.445v4.59c0,0.23,0.061,0.408,0.184,0.533C488.11,20.64,488.286,20.702,488.512,20.702z"/>
	<path fill="#231815" d="M492.311,29.179c-0.238,0-0.473,0.061-0.705,0.182c-0.229,0.121-0.449,0.301-0.654,0.533v-3.34h-1.545
		v10.365h1.545v-0.586c0.199,0.236,0.418,0.408,0.652,0.52c0.232,0.111,0.5,0.166,0.801,0.166c0.451,0,0.801-0.143,1.037-0.432
		c0.24-0.291,0.361-0.705,0.361-1.246v-4.244c0-0.627-0.127-1.104-0.385-1.428C493.165,29.343,492.795,29.179,492.311,29.179z
		 M492.227,35.13c0,0.246-0.045,0.42-0.133,0.527c-0.088,0.109-0.225,0.162-0.412,0.162c-0.129,0-0.25-0.029-0.369-0.082
		c-0.117-0.053-0.24-0.146-0.361-0.27v-4.764c0.104-0.107,0.209-0.186,0.314-0.234c0.105-0.053,0.215-0.076,0.324-0.076
		c0.205,0,0.365,0.066,0.477,0.197c0.107,0.135,0.16,0.33,0.16,0.59V35.13z"/>
	<path fill="#231815" d="M486.727,35.083c-0.143,0.164-0.301,0.299-0.473,0.408c-0.172,0.107-0.316,0.16-0.426,0.16
		c-0.145,0-0.248-0.039-0.314-0.121c-0.062-0.08-0.096-0.211-0.096-0.391v-5.867h-1.527v6.395c0,0.457,0.09,0.793,0.268,1.025
		c0.182,0.227,0.445,0.34,0.799,0.34c0.287,0,0.584-0.078,0.889-0.242c0.305-0.166,0.598-0.4,0.881-0.709v0.838h1.529v-7.646h-1.529
		V35.083z"/>
	<path fill="#231815" d="M488.446,1.364c-13.6,0-24.625,11.025-24.625,24.625c0,13.602,11.025,24.625,24.625,24.625
		s24.625-11.023,24.625-24.625C513.071,12.39,502.045,1.364,488.446,1.364z M492.424,13.526h1.719v6.459
		c0,0.201,0.039,0.344,0.111,0.432c0.07,0.09,0.188,0.137,0.35,0.137c0.125,0,0.285-0.061,0.48-0.178
		c0.191-0.121,0.369-0.271,0.529-0.457v-6.393h1.723v8.424h-1.723v-0.93c-0.314,0.342-0.645,0.605-0.99,0.783
		c-0.342,0.178-0.674,0.27-0.998,0.27c-0.398,0-0.697-0.127-0.9-0.379c-0.199-0.248-0.301-0.623-0.301-1.129V13.526z
		 M486.034,15.452c0-0.65,0.23-1.17,0.693-1.561c0.465-0.383,1.088-0.578,1.869-0.578c0.713,0,1.295,0.205,1.752,0.611
		c0.453,0.406,0.68,0.934,0.68,1.578v4.35c0,0.723-0.223,1.287-0.666,1.695c-0.449,0.408-1.062,0.613-1.844,0.613
		c-0.752,0-1.355-0.211-1.807-0.631c-0.451-0.426-0.678-0.996-0.678-1.711V15.452z M481.346,10.532l1.258,4.562h0.123l1.197-4.562
		h1.969l-2.254,6.682v4.736h-1.938v-4.525l-2.307-6.893H481.346z M503.885,34.565c0,3.047-2.471,5.52-5.518,5.52h-19.176
		c-3.049,0-5.52-2.473-5.52-5.52v-4.438c0-3.049,2.471-5.52,5.52-5.52h19.176c3.047,0,5.518,2.471,5.518,5.52V34.565z"/>
	<path fill="#231815" d="M496.926,29.083c-0.686,0-1.24,0.207-1.674,0.627c-0.432,0.416-0.65,0.959-0.65,1.617v3.438
		c0,0.738,0.199,1.316,0.592,1.734c0.393,0.42,0.932,0.631,1.617,0.631c0.762,0,1.334-0.197,1.715-0.592
		c0.387-0.398,0.576-0.988,0.576-1.773v-0.393h-1.572v0.348c0,0.451-0.053,0.742-0.152,0.873s-0.277,0.197-0.531,0.197
		c-0.244,0-0.416-0.076-0.518-0.23c-0.1-0.158-0.148-0.436-0.148-0.84V33.28h2.922v-1.953c0-0.723-0.186-1.277-0.562-1.666
		C498.165,29.276,497.625,29.083,496.926,29.083z M497.53,32.091h-1.35v-0.773c0-0.32,0.049-0.553,0.156-0.686
		c0.107-0.143,0.281-0.211,0.525-0.211c0.23,0,0.404,0.068,0.508,0.211c0.105,0.133,0.16,0.365,0.16,0.686V32.091z"/>
</g>
<g>
	<polygon fill="#231815" points="573.915,20.6 573.915,16.652 573.915,16.062 573.324,16.064 569.377,16.078 569.392,20.615 	"/>
	<path fill="#231815" d="M563.627,31.076c2.598,0,4.713-2.113,4.713-4.711c0-1.026-0.334-1.975-0.893-2.748
		c-0.856-1.186-2.248-1.965-3.82-1.965c-1.573,0-2.963,0.779-3.82,1.965c-0.559,0.773-0.892,1.722-0.892,2.748
		C558.916,28.963,561.03,31.076,563.627,31.076z"/>
	<path fill="#231815" d="M563.75,1.365c-13.6,0-24.625,11.023-24.625,24.623s11.025,24.625,24.625,24.625
		c13.599,0,24.624-11.025,24.624-24.625S577.348,1.365,563.75,1.365z M577.013,23.617v10.96c0,2.853-2.321,5.173-5.174,5.173
		h-16.425c-2.853,0-5.173-2.32-5.173-5.173v-10.96v-5.465c0-2.853,2.32-5.173,5.173-5.173h16.425c2.853,0,5.174,2.32,5.174,5.173
		V23.617z"/>
	<path fill="#231815" d="M570.948,26.365c0,4.035-3.283,7.32-7.32,7.32s-7.319-3.285-7.319-7.32c0-0.973,0.193-1.898,0.538-2.748
		h-3.996v10.96c0,1.415,1.15,2.565,2.564,2.565h16.425c1.415,0,2.565-1.15,2.565-2.565v-10.96h-3.998
		C570.752,24.467,570.948,25.393,570.948,26.365z"/>
</g>
</svg>
