<?xml version="1.0" encoding="utf-8"?>
<!-- Generator: Adobe Illustrator 15.1.0, SVG Export Plug-In . SVG Version: 6.00 Build 0)  -->
<!DOCTYPE svg PUBLIC "-//W3C//DTD SVG 1.1//EN" "http://www.w3.org/Graphics/SVG/1.1/DTD/svg11.dtd" [
	<!ENTITY ns_flows "http://ns.adobe.com/Flows/1.0/">
	<!ENTITY ns_extend "http://ns.adobe.com/Extensibility/1.0/">
	<!ENTITY ns_ai "http://ns.adobe.com/AdobeIllustrator/10.0/">
	<!ENTITY ns_graphs "http://ns.adobe.com/Graphs/1.0/">
]>
<svg version="1.1" id="レイヤー_1" xmlns:x="&ns_extend;" xmlns:i="&ns_ai;" xmlns:graph="&ns_graphs;"
	 xmlns="http://www.w3.org/2000/svg" xmlns:xlink="http://www.w3.org/1999/xlink" xmlns:a="http://ns.adobe.com/AdobeSVGViewerExtensions/3.0/"
	 x="0px" y="0px" width="9px" height="9px" viewBox="0 0 9 9" style="enable-background:new 0 0 9 9;" xml:space="preserve">
<rect style="display:none;" width="9" height="9"/>
<g>
	<defs>
		<rect id="SVGID_1_" width="9" height="9"/>
	</defs>
	<clipPath id="SVGID_2_">
		<use xlink:href="#SVGID_1_"  style="overflow:visible;"/>
	</clipPath>
	<rect style="clip-path:url(#SVGID_2_);fill:none;" width="9" height="9"/>
	<polygon style="clip-path:url(#SVGID_2_);fill:none;" points="-33.5,-38.5 58.7,50.7 58.7,56.8 -39.8,-38.5 	"/>
	<polygon style="clip-path:url(#SVGID_2_);fill:none;" points="-41.2,-31.1 -41.2,-37.2 57.3,58.1 51.1,58.1 	"/>
	<polygon style="clip-path:url(#SVGID_2_);fill:none;" points="42,58.1 -41.2,-22.3 -41.2,-28.4 48.2,58.1 	"/>
	<polygon style="clip-path:url(#SVGID_2_);fill:none;" points="-24.4,-38.5 58.7,41.9 58.7,48 -30.7,-38.5 	"/>
	<polygon style="clip-path:url(#SVGID_2_);fill:#EDEDED;" points="48.2,58.4 -41.2,-28.1 -41.2,-30.8 51.1,58.4 	"/>
	<polygon style="clip-path:url(#SVGID_2_);fill:#EDEDED;" points="-40.4,-39 -39,-39 58,57.8 58,59.2 56.6,59.2 -40.5,-37.6 	"/>
	<polygon style="clip-path:url(#SVGID_2_);fill:#EDEDED;" points="-30.7,-38.4 58.7,48.1 58.7,50.8 -33.5,-38.4 	"/>
</g>
</svg>
