<?xml version="1.0" encoding="utf-8"?>
<!-- Generator: Adobe Illustrator 15.1.0, SVG Export Plug-In . SVG Version: 6.00 Build 0)  -->
<!DOCTYPE svg PUBLIC "-//W3C//DTD SVG 1.1//EN" "http://www.w3.org/Graphics/SVG/1.1/DTD/svg11.dtd" [
	<!ENTITY ns_flows "http://ns.adobe.com/Flows/1.0/">
	<!ENTITY ns_extend "http://ns.adobe.com/Extensibility/1.0/">
	<!ENTITY ns_ai "http://ns.adobe.com/AdobeIllustrator/10.0/">
	<!ENTITY ns_graphs "http://ns.adobe.com/Graphs/1.0/">
]>
<svg version="1.1" id="レイヤー_1" xmlns:x="&ns_extend;" xmlns:i="&ns_ai;" xmlns:graph="&ns_graphs;"
	 xmlns="http://www.w3.org/2000/svg" xmlns:xlink="http://www.w3.org/1999/xlink" xmlns:a="http://ns.adobe.com/AdobeSVGViewerExtensions/3.0/"
	 x="0px" y="0px" width="421.6px" height="288.4px" viewBox="0 0 421.6 288.4" style="enable-background:new 0 0 421.6 288.4;"
	 xml:space="preserve">
<g id="レイヤー_2">
	<g>
		<path d="M355.6,125.2c-7.4,2.4-12.8,4.4-16.3,6.2c-3.3-0.1-6.6-2.2-10.2-6.4c-3.6-4.2-5.6-7.9-5.8-11.1l-0.1-1.2l-4.1-4.5
			c-1.3-0.2-2.6-0.3-3.7-0.2c-5.5,0.5-9.7,3.2-12.7,8.5c-0.7,1.4-2.6,6.4-5.8,15.1c-2.6,7.5-3.8,12.9-3.5,16.4
			c0.2,3.4,2.1,7.3,5.6,11.8c2.9,3.3,5.7,6.7,8.4,10.1c-0.5,0-1.2,0.3-2,0.8c-0.9,0.5-1.5,0.7-2,0.8c3,4.9,6,8.3,8.9,10.3
			c0.6-0.7,2.7-1.2,6.1-1.5l2.2-0.2c3,0.7,5.2,1.2,6.6,1.4l-2.3-1.5l0.9-0.6c1.3,0.4,2.3,0.7,3,1l3.3-4.3c0,0,0,0.1,0.1,0.1
			c0.4-0.4,0.9-0.6,1.4-0.8c0.3-0.2,0.5-0.4,0.8-0.5c2.8-5.6,5.2-9.5,7.4-11.8c0.1-0.3,0.8-2.7,2.1-7.2c1-3.3,2.2-5.4,3.4-6.3
			l-0.6-1.2c0.3-0.5,1.3-2.7,3.1-6.5c1.4-3.1,2.6-4.9,3.7-5.4c-0.2-2.6,1.5-6,5.3-10.3L355.6,125.2z"/>
		<path d="M361.5,105.5c-0.1,1.3-0.4,2.5-0.9,3.4c2.2,2.8,3.7,5,4.5,6.4c7.8,11.7,13.2,20.3,16.3,25.8c0.4,0.8,0.9,2.4,1.6,4.7
			c0.7,2.4,1.5,3.9,2.4,4.6c1.4,1.5,4.1,2.4,8,2.8c0.8-0.7,1.9-1.1,3.3-1.3c0.5,0,1.1,0,1.7,0.1c0.2-1.5,1.1-2.9,2.7-4.5
			c1.6-1.6,3-3,4.4-4.4c0.4-0.5,1.2-2.2,2.3-5c0.8-2.2,1.8-3.3,2.9-3.6c0-2,0.7-4.9,2.2-8.9c1.5-4,2.1-7.2,1.9-9.4
			c-0.4-4.1-4.3-9.8-11.9-17.1c-5.8-5.8-11.5-10.5-17-14.2c-4.1-2.6-10.2-5-18.3-7.4l-0.4,0.5c-3.4,0.3-5.9,1.8-7.5,4.6
			c-1.6,2.8-2.3,5.9-2,9.4C357.2,92.9,358.7,97.5,361.5,105.5z"/>
		<path d="M251,208.4c-0.1-1.6-1.2-5-3.1-10.2c-1.9-5.2-3.3-8.3-4.2-9.4c-3.2-3.4-5.7-6.1-7.2-8.1c-2.9-3.9-5.4-6.2-7.3-6.9
			c-1.7,1.1-3.1,3-4.3,5.8c-1.2,2.8-1.6,5.2-1.5,7.5c0.1,1.1,0.7,2.9,1.9,5.4l-0.3,1.7c-4.9,8-21.5,6.1-24.8,6.4
			c0.2,0-0.7-0.2-2.5-0.5l0.7-0.1l-3.7,0.1l-0.5-0.7c0.3-0.5,0.6-0.9,0.9-1.1c-0.8,0.1-1.9,0.2-3.2,0.3c-1.6,0-2.8,0-3.4,0
			c-1.8,0.2-3.1,0.5-3.8,1.1c2.3,0.3,4.1,1,5.3,2c-0.6,2.8-1.1,4.9-1.4,6.4c1.1,3.7,3.3,6.7,6.3,8.8c-0.8,2-1.3,3.4-1.6,4.2
			c-0.1,0.8,0,1.5,0.2,1.9c3,2.8,4.6,4.3,4.8,4.6c0.8,1.2,2.5,4.5,5.4,9.8c2.8,5.3,4.3,8.3,4.3,9.1c0.6-0.1,1.6-0.4,2.8-1.1
			c1.2-0.6,2.1-1,2.7-1.1c-0.1,0,0.7,0.1,2.2,0.2c0.1,0,0.1,0,0.2,0c0.6,0,1.2,0.1,1.7,0.3c0.3,0,0.6,0.1,0.9,0.2
			c0.4,0.1,0.8,0.2,1.1,0.3c0.4,0.1,0.9,0.2,1.2,0.4l0,0l13.1,5.4l3.2-0.3c3.1-3.6,5.6-6.3,7.3-8.1c1-1.9,1.7-3.3,2.1-4.5
			c0.1-0.2,1-5,2.4-14.6C250.4,214.1,251.1,209,251,208.4z"/>
		<path d="M416.7,193.9c-0.1-0.4-0.3-0.8-0.4-1.2c-0.1-0.2-0.1-0.4-0.2-0.6l0,0.8c-1.8-1.8-4.1-4.8-6.8-9s-5.1-7.4-6.8-9.3l-0.1-1
			c-1.6-1-2.5-1.7-2.9-2c-3.8-6-8.9-12.4-15.5-19.2c-1.9-1.6-3.4-2.8-4.5-3.4c-0.4-0.5-1.1-2.1-2.1-4.9c-1-2.2-2.1-3.4-3.3-3.8
			l0.6-2l-2.2-6.1l0.5-2.7l-2.5-0.8l-0.2-2.8c-1.8,3.3-2.9,6.3-3.2,8.9l-0.8-0.9l-0.4,0.5c0.3-0.3,0.5,0.3,0.6,1.9l0.5,0.7l-1.3,2.3
			l1.7,2.3l-0.3,11.1c0.1,1.1,0.4,2.8,0.8,5s0.7,3.8,0.8,5c0.1,1.3,0.2,3.1,0.2,5.6c0,2.5,0.1,4.3,0.2,5.6l2,12.4
			c0.6,3.3,0.1,6.2-1.5,8.5c0.2,0,0.7,0,1.5,0.1l0.3,1c-10.5,12.3-22,23.6-34.6,33.9c-5.7-1.2-11.2-2.4-16.9-3.6
			c-7.4-1.8-11.6-4.7-12.4-8.8l0.6-1l-1.1-1.1c-0.4-1.3-0.7-2.2-0.7-2.8l0.8-2.3c-2-4-3.1-8.3-3.5-12.7c-0.4-5.3-0.7-8.2-0.7-8.6
			c-2.1-5.3-3.7-9.3-4.9-12.1c-2.2-10.2-6.6-22-13.4-35.3c-3.9-5.9-19-34.3-21.2-37C256.4,91.1,251,83,247.2,80.3
			c-0.5,0.2-0.9,0.4-1.4,0.6c-1.8-1.5-3-2.7-3.7-3.5c-4.1,0.3-8.6,3.7-13.7,10.3c-4.3,5.5-7.2,10.6-9,15.3
			c-1.8,4.7,9.7,34.9,10.4,42.3c0.6,6.9,2.6,14,6.1,21.1c4.3,8.4,9.1,13.7,14.4,15.4l1.2-0.6c5.5,4.8,9.4,8.4,12.1,10.8
			c1.3,3.4,2.3,5.9,3.1,7.5c0.2,0.8,0.5,3.4,0.9,7.9c0.3,3.1,0.9,5.6,1.8,7.3c-0.4,1.5-0.7,2.6-1,3.2l3.9,11.5
			c-4.9,9.4-7.5,15.8-7.8,19.5c2.9,5.5,6,11.1,9.3,16.8c3.3,5.7,7.9,9.6,13.8,11.9l-3.2-2.7l-0.1-1.5l13.4,2.9l3.6-1
			c1.3-0.1,3.2,0,5.8,0.4c2.6,0.4,4.5,0.5,5.8,0.4c0.1-0.7,0.9-1.4,2.3-2.2c0.6-0.1,1.6,0.1,2.9,0.5c1.3,0.4,2.3,0.5,3.1,0.5
			c5.5,3.7,9.5,6.5,12.1,8.3c5.7-2.3,10.8-4.1,15.6-5.6c1.4-0.8,3.3-2.4,5.7-4.7c2.4-2.4,4.4-3.9,6-4.7c0.2,0,1.8-0.3,5.1-0.9
			c1.8-0.3,3.3-1.5,4.6-3.5l1.6,1.1l0.5-0.3c0.1-0.3,0.4-0.6,0.7-0.8h0.5l0.6,1.2c3.4-1.8,6.8-3.4,10.2-5.2c5.6-3.1,8.1-7,7.7-11.5
			c2.6-6.3,5.5-11,8.8-13.9c4.1-3.3,8.1-6.8,12.3-10.1c3.8-4.1,5.6-9.2,5.2-15.1L416.7,193.9z"/>
	</g>
	<g style="enable-background:new    ;">
		<path d="M285.7,46.7c-0.5,0.6-0.9,1.3-1,1.9c-0.1-0.1-0.2-0.2-0.2-0.4l-0.1-0.9l-0.2-0.3l-0.9,0.4c-0.2,0.2-0.3,0.4-0.5,0.8
			c0.3,0.3,0.6,0.7,1.1,1.2l0.3-0.1c0.1-0.2,0.3-0.3,0.5-0.5h0.3l0.2,1.9c-0.4,0.1-0.6,0.4-0.7,1l0.7,0.7l-0.5,0.2
			c-0.2,0.3-0.2,0.6-0.2,0.8c0,0.2,0.1,0.5,0.2,1s0.2,0.8,0.2,1.1c-0.2,0.1-0.4,0.2-0.6,0.3l-0.2,0.2c-0.5,1.5-1.4,2.5-2.6,3
			c0,0.5-0.3,0.9-0.8,1.4c-0.5,0.5-1,0.7-1.5,0.7c-1,0.9-2.6,2-4.7,3.5c-0.8,0.5-1.7,0.7-2.5,0.8c-1.4,0.1-3.4,0.3-6.1,0.5
			c-0.2,0-0.6,0-1,0.2c-0.5,0.1-0.9,0.2-1.1,0.2c-0.4,0-1-0.1-1.8-0.3s-1.4-0.3-1.8-0.3l0.2-0.2c0.1-0.1,0.1-0.2,0.1-0.4
			c-0.9-1.1-4.5-1.7-10.7-1.7c-0.5,0-1,0.1-1.4,0.4c-0.4-0.2-0.8-0.3-1.2-0.3c-0.9,0-2.3,0.2-4.1,0.6c-1.8,0.4-3.2,0.6-4.1,0.6
			c-0.2,0-0.6-0.1-1.2-0.3c-0.6-0.2-1-0.3-1.2-0.3c-0.2,0-0.3,0-0.4,0.1c-2-0.7-3.9-1.3-5.8-1.9c-2.3-0.8-4.3-1.2-6-1.2l-1.8,0.2
			c-0.4-0.2-1.7-0.4-3.9-0.7c-1.7-0.2-2.7-0.8-3.2-1.9c0.1-2.6,0.8-6.2,2.2-10.9c0.7-0.5,1.4-1,2.2-1.5l0.2,0.5l0.2,0.1
			c0.6-0.4,1.8-0.6,3.6-0.8c1.4-0.1,2.5-0.5,3-1.2c0.5,0.3,1.3,0.7,2.5,1.2c0.5,0.1,1.2,0.3,2.2,0.5c0.5,0.3,1.2,0.6,2.3,0.9
			l0.4-0.2l0.2-0.2l1.4,0.5l-0.2-0.1c-0.1,0.1-0.2,0.2-0.2,0.2c2,1.1,3.5,1.6,4.3,1.6c1.2,0,1.9,0.2,2.2,0.5
			c0.4-3.9,0.5-5.9,0.5-5.8c0-2.4-0.2-4.3-0.7-5.8c-0.1,0-0.2-0.1-0.3-0.1l-0.2,0.3c-1.7-4.1-2.5-6.9-2.5-8.5c0-1.2,1-2.8,2.9-4.9
			c-0.9-0.9-2.2-1.3-4-1.3c-1.9,0-3.3,0.5-4.4,1.5l-0.4,0.2c-1.4-0.1-2.5-0.7-3.3-1.8c-0.5-0.7-1-2.6-1.5-5.7
			c-0.5-2.8-0.8-4.9-0.8-6.2c0-0.7,0.2-1.2,0.5-1.7c0.3-0.2,1.4-1,3.3-2.6c1.2-1.1,2.5-1.7,3.6-1.7c3,0,6.5,1,10.5,3
			c1.2,0.7,3,1.6,5.5,2.6c3.9-0.4,8.9-1.4,15.1-3.1l4.6-1.3c0.8,0,1.3,0.4,1.5,1.3c0.1,0.7,0.1,1.4,0.2,2.1c0,0.4,0.2,1.1,0.7,2.1
			c0.5,1.1,0.8,1.7,1,1.9c-0.3,0.3-0.4,0.6-0.5,0.8l0.1,0.5c-0.1,0.5,0.3,1.2,1.1,2.1l-0.2,0.4c-0.4,0.2-0.9,0.5-1.4,0.9h-0.2
			c0.2,0.3,0.3,0.5,0.3,0.7c-0.4,0.3-0.7,0.6-1,0.9c-0.5,0.4-0.7,0.8-0.7,1.2c0,0.2,0.1,0.4,0.2,0.6c-0.9,0.2-2.1,0.6-3.4,1.3
			l0.2,0.3c0.3,0.1,0.8,0.3,1.4,0.7c-0.1,0.3-0.6,0.5-1.4,0.8l-0.3-0.2c-0.3-0.4-0.6-0.5-0.9-0.5c-0.3,0-0.7,0.1-1.4,0.3
			c-0.6,0.2-1.2,0.3-1.6,0.3c-0.7,0-1.8,0.2-3.5,0.5c-1.9,0.4-2.9,0.7-3.3,1c0.2,0,0.7-0.1,1.8-0.2c-0.6,0.1-1.2,0.1-1.8,0.2
			c-0.6,0.1-0.9,0.5-0.9,1.2c0,1.4,0.2,3.8,0.7,7.2c0.4,3.4,0.7,5.8,0.7,7.5c0,0.8-0.1,1.8-0.2,3c-0.2,1.5-0.2,2.5-0.2,2.9
			c0.6,0.6,1.9,1,4,1.1c2,0.1,3.4,0.6,4.1,1.3c-0.2-0.1-0.3-0.2-0.5-0.2c-0.3,0.1-0.6,0.3-1.1,0.5c0.8,0.5,1.6,0.7,2.5,0.7
			c1.8,0,5.4-1,10.9-3l0.5,0.1c1.3-0.7,2.2-1,2.6-1l1-1l0.4,0.6l0.3,0.1l3.2-1.5L285.7,46.7z M241.9,50.7v-0.4c0,0,0-0.1-0.1-0.2
			l-0.2-0.2c-0.1,0-0.2,0-0.3,0c-0.2,0-0.5-0.2-0.8-0.5c-0.2,0-0.5-0.1-0.9-0.2c-0.8-0.4-1.8-0.6-3.1-0.6h-0.2l-0.2,0.2
			c0.8,0.4,1.7,0.8,2.5,1.2c1,0.5,1.9,0.8,2.6,0.8C241.5,50.9,241.8,50.8,241.9,50.7z M284.7,50.1l-0.4-0.4H284l0.3,0.8l0.2-0.2
			L284.7,50.1z"/>
	</g>
	<g style="enable-background:new    ;">
		<path d="M344.6,46.4c-0.4,0.3-0.5,0.7-0.5,1.3c0,0.4,0,0.9,0.1,1.6c0.1,0.7,0.1,1.3,0.1,1.6c0,0.5-0.2,1.5-0.5,2.9
			c-0.3,1.4-0.6,2.3-0.9,2.8c-0.4,0.6-1.4,1.8-3,3.6c-1.8,1.9-3,2.9-3.6,3.1l-0.2-0.5c-1.7,0.1-2.9,0.7-3.6,1.7
			c-0.5,0-0.9-0.3-1.2-0.8l1-1.1c-0.2-0.7-0.7-1.1-1.6-1.1c-1.3,0-3.1,0.7-5.4,2.1l0.9,3.5l-0.2,1.2l0.4,0.2
			c0.3,0.1,0.5,0.1,0.6,0.1c1,0,2.6-0.5,4.8-1.6c2-1,3.4-1.8,4.4-2.6c0.5-0.1,1.1-0.2,1.6-0.2c0.5,0,1.1,0.1,1.6,0.2
			c0,0.1,0.3,0.7,0.8,2c0.3,0.7,0.3,1.4,0.2,2.1c0.3,0.3,0.7,1,1.1,2c-0.8,1.6-1.4,3.2-1.7,4.6c-0.5,0.3-1.3,0.6-2.5,1.2
			c-0.4-0.1-0.8-0.3-1.2-0.7c-0.6,0-1.2,0.1-1.9,0.4c-0.9,0.4-1.5,0.6-1.9,0.6l-0.9-0.2l-1.7,0.5l0.6-0.5c-1.2-0.1-1.7-0.1-1.2-0.1
			c-1,0-1.7,0.4-2.1,1.3l0.3,0.5c0.3,0.1,0.5,0.1,0.8,0.1c0.7,0,1.8-0.2,3.3-0.6c1.5-0.4,2.7-0.6,3.5-0.6c0.7,0,1.2,0.1,1.5,0.2
			c0.4,0.3,1,0.7,1.8,1.3c0.3,0.2,0.8,0.4,1.4,0.7c0.1,0.1,0.6,1,1.4,2.8c0.7,1.5,1.2,2.5,1.3,3V87c0,0.2,0,0.4,0.1,0.7
			c0.1,0.3,0.1,0.6,0.1,0.7c0,0.4-0.4,1.3-1.2,2.6c-0.8,1.3-1.2,2.3-1.3,2.9c-1.3,0.2-3.4,1.8-6.3,4.8c-0.3,0.5-0.8,1.1-1.5,1.8
			l-0.3-0.6c-0.4,0.1-1.8,0.3-4.3,0.5c-0.7,0-2.7,0.8-6,2.1c-0.3-0.3-0.4-0.6-0.5-0.9l-0.2-0.2c-0.2,0.2-0.4,0.3-0.7,0.3l-0.5-0.7
			c-0.9-0.1-2.1-0.8-3.6-2.1c-0.1-0.5-0.2-1.4-0.2-2.8l-0.5-0.4l0.1-0.2l0.2-0.1l0.2-0.1l-0.1-0.1c-0.3-0.1-0.6-0.2-0.8-0.2
			c-0.6,0-1,0.3-1.4,0.9c-0.3,0.6-0.6,1.2-0.9,1.8c-0.3-0.1-0.6-0.1-0.9-0.1c-0.3,0-1.8,0.3-4.5,1c-1.2-0.2-2.6-0.8-4.1-2
			c-1.7-1.3-2.9-2.1-3.6-2.4l0.2-0.5c-0.2-0.7-0.9-1.6-2-2.7l-0.6,0.4l0.5-0.8l-0.2-0.4c-0.5,0.4-0.7,1-0.5,1.8
			c-0.3,0.2-0.6,0.7-0.9,1.5c-0.3,1.1-0.5,1.7-0.7,1.9h-0.3c-0.4-0.1-0.9,0.2-1.5,0.8c-0.6,0.6-1,1-1.2,1.1
			c-1.1,0.1-2.3,0.4-3.6,0.8c-0.9-0.2-1.5-0.7-1.8-1.4c-0.9-0.3-2.2-0.6-3.9-1.1l-0.2-0.2c0-0.1,0.1-0.2,0.2-0.2
			c-2.8-1.9-4.3-3.6-4.3-4.8l0.4-0.6l-1-0.4l-0.2-0.3c0.1,0,0.2-0.2,0.2-0.3h-0.1h-1.6c0-0.6,0.3-1,0.9-1.1l0.1,0.4
			c0.2,0,0.5-0.2,1.2-0.4c0.5-0.2,0.9-0.2,1.2-0.2l0.9,0.2c2.1-0.9,4.5-2.7,7.1-5.4l-0.9,0.4l1.8-5.8c-0.9-4.1-1.3-8.1-1.2-12
			l-0.3-0.8l0.5-0.6c-0.3-1.6-0.4-2.6-0.4-3c0-0.6,0.1-1.4,0.3-2.4c0.3-1.2,0.5-2,0.5-2.5c0.1-1,0.2-2.5,0.5-4.5
			c0.1-0.1,0.2-0.4,0.4-1c0.2-0.4,0.2-0.7,0.2-0.9l1-0.3l1.3,1c0.1-1.1,0.5-2.6,1.2-4.6l0.5,0.2c0.2-0.3,0.4-0.6,0.9-1.1
			c0.1,0.1,0.2,0.1,0.3,0.2l0.2,0.1v-0.5l0.9-0.5l0.1-0.3c0.1,0,0.4-0.1,0.8-0.2c-0.3-0.7-1.3-1.8-2.9-3.4c-1.3-1.3-2.1-2.5-2.3-3.6
			c0.1-0.4,0.2-1,0.4-1.8c0.6-1.7,1.6-2.9,3-3.5c1-0.5,2.6-0.7,4.6-0.7c5.6,0,9.2,0.1,10.8,0.4c0.5,0.1,2.1,0.4,4.9,1
			c2.4,0.5,3.8,0.8,4.2,0.8c1.4,0,3.8-0.6,7.1-1.9c3.4-1.3,5.7-1.9,6.9-1.9c0.7,0,1.1,0.1,1.3,0.2c0.1,0.1,0.3,0.5,0.7,1.2
			c0,0.1,0.4,0.5,1.1,1.5l0.1,0.5c0.8,0.7,1.8,1.6,2.9,2.8c-0.4,2.3-1.1,4.2-2.1,5.6h0.5C339.9,41.7,342.1,43.7,344.6,46.4z
			 M315.1,62.5c-0.5,0-1-0.2-1.5-0.5l-0.7,0.2l-0.6-0.2c-0.7,0.3-1.6,0.3-2.9,0.2c-1.7,0.7-3.4,1.4-5.1,2.1c-2.1,1-3.3,2.3-3.8,3.7
			c0-0.4-0.1-0.9-0.2-1.5c-0.4,0.4-0.6,1.2-0.6,2.3c-0.1,0.8-0.1,1.7-0.2,2.5L299,67c0,0.7-0.2,1.6-0.5,2.9
			c-0.4,1.3-0.5,2.2-0.5,2.8c0,3.7,0.8,6.4,2.5,8.3c-0.1,0.5-0.2,1.3-0.4,2.4c0.3,0.7,0.4,1,0.4,0.8c-0.3,0.1-0.7,0.5-1.3,1.2v0.2
			l0.1,0.2l0.2,0.1c0.2-0.1,0.5-0.2,0.8-0.2c0.3,0,0.6,0.1,0.9,0.2c-0.6,0-1,0.2-1.3,0.5l0.2,0.6l-0.5,0.1l0.3,0.1h0.3
			c0.1,0,0.3,0,0.5-0.1c0.2,0,0.4-0.1,0.5-0.1l-0.6-0.6c0.2-0.2,0.9-0.4,2.2-0.5c1.7,0,2.5-0.1,2.5-0.2c1.1-0.2,2.1-0.6,2.8-1.3
			c0.7-0.7,1.5-1.4,2.2-2.1c2.3-1.8,3.9-3.9,4.9-6.1l-2.2-0.2l-0.1,0.1l0.3,0.2v0.2h-0.7c-1.3,0-2.9,0.5-4.9,1.6h-0.2
			c0.1,0.2,0.2,0.3,0.4,0.3l0.1,0.2c-1.5,0.4-2.7,0.7-3.6,1c-0.7-0.2-1.2-0.5-1.5-0.8l0.9-0.4l-1.2-0.3c-0.1,0-0.5-0.6-1.2-1.8
			c-0.5-0.6-0.7-1.3-0.7-2.1c0-2.7,0.9-4.8,2.6-6.3c0.6,0,1.1-0.3,1.5-0.9c0.6-0.9,1-1.4,1.1-1.5l8.6,0.7
			C314.1,65.4,314.5,64.1,315.1,62.5z M299.2,87l-0.2-0.7h-0.2l-0.1,0.2c-0.1,0.2-0.1,0.3-0.1,0.5l-0.1,0.1c0,0.1,0.1,0.2,0.2,0.2
			l0.2,0.1L299.2,87z M330.9,42.8c-0.5-0.2-1.1-0.2-1.6-0.2c-0.6,0-1.5,0.1-2.8,0.2c-1.2,0.1-2.2,0.2-2.8,0.2
			c-1.6,0-3.7-0.6-6.4-1.8c-2.7-1.2-4.7-1.8-6-1.8l0.7,0.6h-0.8c-0.4,0-0.9,0-1.5-0.1c-0.7-0.1-1.2-0.1-1.5-0.1
			c-1.2,0-1.9,0.1-2.2,0.2c-0.5,0.3-1.1,0.8-1.9,1.6c-0.8,0.8-1.3,1.3-1.7,1.6c-0.1,0.1-0.6,0.2-1.5,0.3c-0.7,0.1-1.1,0.4-1.2,0.9
			c2.3,0.7,5.3,1.1,9,1.3c5,0.3,8,0.5,9.1,0.7C322.3,44.9,326.7,43.8,330.9,42.8z M330.6,50.9c-0.4,0-0.8-0.1-1.2-0.1
			c-1.4,0-3.4,0.8-5.9,2.5c-2.5,1.7-4.1,2.5-4.8,2.5c-0.6,0-1.2-0.3-1.8-0.9c-0.6-0.6-1-0.9-1.2-1c-0.6-0.2-1.4-0.4-2.5-0.7L313,53
			h-5.8l1.4,0.4c-0.1,0-0.6,0-1.8,0c-1.3,0-2.4,0.5-3,1.6c-1,0.1-2.2,0.2-3.4,0.5v1h0.1c0.4-0.2,0.6-0.5,0.8-0.8l0.3-0.2h0.4
			c0.4,0,0.9,0,1.7,0.1c0.8,0.1,1.4,0.1,1.8,0.1c0.7,0,1.8,0,3.2-0.1c1.4,0,2.4,0,3.1,0c3.1,0,5.5,0.3,7.1,0.8c1-0.2,2.7-0.7,5-1.8
			c1.7-0.8,3.3-1.5,5-2.3C329.4,52.2,330,51.7,330.6,50.9z M301,80.8c-0.1,0.5-0.2,1.3-0.4,2.4c0-0.2,0-0.4,0-0.7
			c0-0.1,0.1-0.4,0.2-1c0.1-0.4,0.1-0.8,0-1.1L301,80.8z M303,86.6c-0.2-0.2-0.4-0.3-0.6-0.3c0.1,0-0.1,0-0.6,0.1l-0.4,0.4
			c0.1,0.1,0.2,0.1,0.3,0.1c0.2,0,0.4,0,0.7-0.1C302.7,86.6,302.9,86.6,303,86.6z M318.2,90.7l-0.1-0.4l-0.3-0.2
			c-0.2,0-0.4-0.1-0.5-0.2v0.5c0.3,0.2,0.5,0.2,0.6,0.2h0.2H318.2z M333.6,85.1c-0.7,0.2-1.7,1-2.9,2.5c-1.2,1.5-2.3,2.2-3.3,2.2
			c-0.7,0-1.4-0.1-1.9-0.4h0.1l0.2-0.1c-0.7-0.3-1.5-1-2.6-2.1c-0.9-1-1.6-1.5-2-1.5c-1.3,0-2.4,1-3.2,3c0.9,0.1,2.3,0.5,4.3,1.3
			c1.9,0.8,3.4,1.2,4.6,1.2c1.8,0,3.3-0.6,4.3-1.8C331.7,88.8,332.5,87.4,333.6,85.1z M322.3,90.9c-0.6-0.4-1.6-0.9-3-1.5
			c0.1,0.4,0.5,0.7,1.3,0.9C321.2,90.6,321.8,90.7,322.3,90.9z M337.8,77.1h-0.3l-0.1-0.4h0.1C337.6,76.8,337.7,76.9,337.8,77.1z
			 M342.7,91.2l-1.1,1.7c0.2-0.3,0.5-0.8,0.9-1.5L342.7,91.2z"/>
	</g>
	<g>
		<path d="M139.6,79.7l1.2-0.2c-1.1-0.1-2.1-0.1-3.1,0C138.2,79.5,138.9,79.5,139.6,79.7z"/>
		<path d="M232.3,141c2.3-3.4,5.8-5.6,10.3-6.6c-1.7-0.1-3.3,0-4.9,0.2c-2.3,0.3-5.5,1-9.6,1.9c-4.2,0.9-7.3,1.6-9.4,1.9
			c-0.5,0.1-1,0.1-1.5,0c-1.6,0.6-18.5,7.6-22,7.6c-4.3-0.2-6.9-0.2-8-0.1c-1.4,0.2-3.1,1.5-4.9,3.8h-0.3c0,0,0,0,0,0.1
			c1.5,0.2,2.9,0.4,4.1,0.7c6.5,0.2,9.9,0.4,10.1,0.5c-3.1,1.3-5.4,2.2-6.9,2.7c-4.1,1.3-7.1,2-9.2,2.3c-1.7-0.6-6.1-1.6-13.4-2.9
			c-5.6-1-9.6-2.5-12.4-4.5l3-1.7c-1.6-0.6-5-1.3-10.1-2.2c-4.2-0.7-7.4-2.1-9.8-4.1c-2.4-2.1-4-3.8-4.8-5.1l0.4-0.6l0.4-0.3
			l0.5-0.1l-2.1-2.7l0.9-0.6c2.2,0.2,4.4,1,6.7,2.5c6.7-1.6,10.1-2.5,9.9-2.4c0.6-0.1,1.4,0.1,2.3,0.7L176,113
			c-1-3.7-1.5-6.6-1.3-8.5c0.2-2.9,0.5-5.8,0.9-8.6l-0.3-0.4c-0.6,0.3-1,0.5-1.1,0.7l-1.2-1.6v-1.7l0.3-1c0.6-0.6,1.2-1.1,2-1.5
			l-0.1-2.7c-4.6-3.3-6.9-5.4-7-6s0-1.3,0.2-2c-3-2.5-5.2-3.6-6.6-3.4c-0.5,2-0.8,3.6-0.8,4.7c-2.6-1.3-20.3,4.4-21.6,3.9l1.9-2
			c-2.3-0.8-3.6-1.4-3.9-1.6l-0.6-0.7c0.1-0.5,0.3-0.8,0.6-1.1c-0.1,0-0.2,0-0.2,0c-1.9,0.3-4.2,1.1-6.7,2.5
			c-3.4,1.6-5.6,2.6-6.6,2.8c-1.9-0.9-3.1-2.8-3.5-5.6c-0.4-3.5-0.9-5.8-1.7-6.8c-3.6-4-5.5-7.2-5.8-9.3c-0.1-0.5-0.1-0.9-0.2-1.2
			c0.3,0,1.3-0.2,2.9-0.4c0.6-0.1,1.7-0.1,3.1,0c1.4,0.1,2.5,0.1,3.3,0c1.9-0.3,4.7-1.3,8.2-3c3.6-1.8,6.2-2.8,7.9-3.2
			c4.1-0.9,28-2.7,28.3-2.8c0.4-0.1,0.8-0.2,1.2-0.1c0,0,0,0,0,0c0.6-0.4,1.3-0.6,1.9-0.6c0,0,0,0,0,0c0.2-0.1,0.5-0.3,0.8-0.4
			c0.9-1.2,1.8-1.9,2.8-2.1c0.6-0.1,1.4,0,2.2,0.2c1.1-2.1,2.7-3.7,4.6-4.8c0-0.3,0-0.6,0.1-0.9c0.2-1,0.5-1.9,0.9-2.8
			c-0.1,0-0.2,0-0.3,0.1c0-2,1-3.4,3-4.5c-1.1-2.8,0.1-6,3.5-9.7l-1-1.6c-0.1-1,0-2.1,0.5-3.3c0.5-1.3,0.7-2.3,0.6-2.8
			c-0.5-3.3-2.2-5.3-5.1-5.8c-2.3-4.7-4.1-7.8-5.3-9.1c-2.6-3.1-5.7-4.5-9.1-4c-5.5,0.8-34.3,4.7-43.4,9.3c-9.1,4.6-16.2,7.3-21.1,8
			c-4.8,0.7-15.6-0.3-32.2-2.8c-14-2.2-25.2-4.3-33.4-6.3c-4.4,1.1-7.6,1.5-9.6,1.2c-4.4,1.1-8.4,5.4-12.1,12.9
			c2.3,8.7,3.8,15.3,4.7,19.9l-0.2,2.2c5.2,9.6,12.8,15.2,22.8,16.8h0.2c0,0.3-0.1,0.6-0.4,0.8c-0.3,0.2-0.4,0.4-0.4,0.6
			c5.6,0,12.8,1.5,21.7,4.4l2-1.3l5.8,0.6c0.1-0.5,0.2-1.1,0.5-1.8c2.4-1.3,4.3-2.1,5.6-2.3c1.2,1.2,1.8,2.4,2,3.8
			c0.6,4.2,1.4,7.8,2.3,10.3c0.2,0.5-0.4,3.1-1.8,8.1c-3.8-1.1-7.5-2.2-11.2-3.2c-4.6-1.1-16.1,1.5-19.2,2c-3.7,0.5-6.5,2.8-8.5,6.8
			l-3.1-0.8c-1.1,1.5-2,6-2.6,13.6c-0.6,7.6-0.7,12.7-0.3,15.2c1.7,11.2,5.2,16.5,10.6,15.7c0.6-0.1,11.9-4.1,18.6-6.2
			c2.2,0.3,3.9,0.6,5,0.7c1.1-0.6,1.7-1.1,2-1.3c1.7,0.1,3,0.1,3.9-0.1c0.6,0.4,0.9,0.8,1.2,1.3c-0.6,0.4-1.3,0.8-2.1,1l0.2,1.2
			c0.1,2,1.1,3.7,3,5.4c-1.4,4.9-2.4,8.5-3.1,10.9c-2.1,0.3-3.4,0.7-3.8,1c-2.7,2.8-4.8,5-6.3,6.8v1.5c0.4,3,0.4,5.4-0.2,7.3L64,163
			c-0.3,1.6-1.4,3.1-3.5,3.7c-3,0.8-6.3,1.6-9.8,2.4l-0.1,0.1c-0.3,0.1-0.7,0.1-1.1,0.1c-13.4,2.8-29.3,4.3-40.6-1.9
			c-1.7-0.5-3.1-1.1-4.3-1.6l3.7,3.3l-1.8,1.2L1.9,170l0.7,1.4l-0.2,0.3c-1.1,0.2-1.7,0.5-1.7,1S0.5,173.6,0,174l6.3,5.1
			c-0.1,1.3,1,3,3.5,5.3s3.8,4.2,4.1,6h1.5c2.4,1.6,4,2.9,4.8,3.9c3.1,2.2,5.5,3.6,7,4.5c2.5,2.8,5.1,5.3,7.6,7.9
			c2.6,2.6,6.2,3.9,11,4.2c3.8,0.3,6.1,0.3,7.1,0.2c4.3-0.6,7.2-0.2,8.7,1.2l0.1,0.5c-0.3,0.4-0.5,0.7-0.6,1.1l-0.2,0.5
			c2.9-1.4,5.1-2.6,6.6-3.3c2.4,0.5,4.2,0.8,5.6,0.9c5.9-3.7,10.4-6.9,13.3-9.4c2,0.2,4.3-1,6.8-3.4c1.2,0.3,2.7,0.2,4.4-0.4
			c5.2-15.1,9.9-25.5,14.5-31.1c6.8,5.8,10.8,8.9,11.9,9.4L123,178c1.2,1.6,2.6,3.9,4.2,6.9l-0.2,3.4l2.6,6.2c1.1,0.8,2.3,1.1,3.6,1
			c0.6-0.1,1.6-0.3,3-0.7c1.3-0.4,2.3-0.6,3-0.7c8.4-1.2,15,1.6,19.5,8.3c5.7,1,10,1.8,13.1,2.5c6,0.3,9.8,0.5,11.1,0.8l2.3-0.8
			c0.4-0.7,1-1.3,1.7-1.7c-0.7-2.2,0.1-4.2,2.4-6.3c2.2-2.1,3.3-3.5,3.1-4.7c0.5-1.2,1.8-2,3.9-2.3c2.1-0.3,3.2-0.6,3.3-0.7
			c2.5-4.1,4.9-7.4,7.1-9.7c0.8-1.4,1.9-4.6,3.5-9.7c1.2-3.9,17.3-13.8,19-16.1l-2.7,0.1c0.2-1.2,1.5-2.7,4-4.4
			c2.5-1.8,4.1-3.6,4.6-5.5l-3.2-0.3l5.1-2.5L232.3,141z"/>
	</g>
	<g style="enable-background:new    ;">
		<path d="M54.4,231.7c-0.2,0-0.4,0.2-0.8,0.6c-0.4,0.4-0.7,0.6-1,0.6c-0.3,0.3-1.7,0.9-4.4,1.8c-0.2-0.2-0.6-0.3-1-0.5l-0.3,0v0.2
			l0.2,0.1h-0.2l-0.1-0.1l-0.6,0.2l0.1-0.1c0-0.1,0.1-0.1,0.2,0l0.2-0.1h0.1l-0.2-0.3c-0.2,0-0.6-0.2-1.2-0.5l-0.1,0.1l0.1,0.2
			l0.3,0.1l-0.1,0.1c-0.1-0.1-0.1-0.1-0.2-0.1l0.1,0.1l-0.1-0.1c-0.3,0-0.5-0.2-0.8-0.4c-0.4-0.3-0.6-0.5-0.7-0.6
			c-0.1-0.1-0.2-0.2-0.3-0.3c-0.2,0-0.4-0.3-0.7-0.7c-0.3-0.4-0.5-0.7-0.7-0.8l-0.1,0.1v-0.2l-0.3-0.2l-0.1-0.1
			c-0.5-0.4-1.1-0.8-1.8-1.2c-0.1,0.1-0.2,0.2-0.3,0.3c0,1.6,0.2,2.8,0.5,3.5c0.4,0.9,1.2,1.7,2.5,2.5c0.4,0.3,1.1,0.7,2.1,1
			c0.7-0.3,1.4-0.4,2.1-0.4l0.2-0.2l0.2,0.2c0-0.1,0.1-0.2,0.3-0.2c0.4,0,0.7-0.1,1-0.1c0,0,0.1,0,0.2,0.1c0.1,0,0.1,0,0.2,0l0.2,0
			l0.1,0.1l0.1-0.3c0.3,0.2,1.2,1.3,2.8,3.4c0,0.1,0,0.2,0.1,0.3c0.3,0.2,0.7,0.4,1.2,0.8c0.2,1,0.3,1.9,0.3,2.7
			c0,0.3,0.1,0.7,0.2,1.2c-0.1,0.9-0.2,2-0.4,3.3c-0.2,0.9-0.5,1.8-1,2.8c-0.1,0.2-0.3,0.5-0.5,0.9c-0.2,0.7-0.5,1.5-0.7,2.2
			c-0.2,0.7-0.6,1.4-1.1,1.9c-0.1,0.2-0.3,0.4-0.6,0.7l-0.2,0.1c-0.4,0.4-0.9,0.6-1.7,0.7c-0.6,0.1-1,0.3-1.2,0.6l-0.3-0.2
			c-0.4,0.1-1.1,0.4-1.9,0.7c-0.2,0.2-0.9,0.6-2,1.1l-0.2,0.1c0,0,0-0.1,0-0.1h-0.1c0,0-0.6,0.2-1.6,0.5l-0.1-0.2l-0.1,0l-0.1,0v0.2
			l-0.1-0.2c-0.1,0-0.2,0-0.3,0l-0.1,0c0-0.1-0.1-0.1-0.1-0.1l-0.1,0.1c-0.2-0.1-0.5-0.2-0.8-0.3c-0.1-0.1-0.3-0.3-0.5-0.5
			c-0.1-0.1-0.3-0.2-0.6-0.3c-0.9-0.4-1.7-1.2-2.3-2.6v-0.1h0.2l-0.2-0.2c-0.4,0.1-1,0.2-1.7,0.4c-0.2,0.1-0.5,0.2-0.8,0.4
			c-0.3,0.2-0.7,0.3-1.2,0.3l-0.2,0.2c-0.4-0.2-0.6-0.6-0.8-1.1l0.1-0.2l-0.1-0.2c-0.1-0.1-0.2-0.2-0.4-0.2
			c-0.1,0.2-0.4,0.4-0.7,0.6l-0.1-0.1l-0.2-0.1c0,0.3-0.1,0.5-0.3,0.8c0-0.3,0.1-0.8,0.2-1.5l-0.1-0.3l-0.2,0c0-0.2,0-0.6,0.1-1.1
			c0.2-0.6,0.4-1.4,0.8-2.4c0.4-1,0.8-2.1,1.4-3.4c0.2-0.2,0.4-0.5,0.7-0.9l-0.3-0.5l0.1-0.2l0.1-0.1c0.6-0.2,1.1-0.4,1.5-0.7
			c0.5-0.3,1.1-0.7,1.9-1.4c1.3,0.3,2.4,0.8,3.2,1.4l-0.4-0.4v0.4l0.2,0.1h0.2v0.1l0.3,0.3c0,0-0.1-0.1-0.2-0.1v0.1l0.4,0.7l-0.1,0
			v0.1c0-0.1,0,0,0.1,0.2h0.7c0,0.6,0.2,0.9,0.5,1h-0.1l-0.1,0.1c0.1,0.4,0.2,0.8,0.4,1.1h0.5c0,0.2,0,0.4,0.1,0.6l-0.1,0.2
			c0.1,0.2,0.2,0.6,0.4,1.1c0.1,0.1,0.3,0.3,0.7,0.5l0.2,0.2l0.7,0.3c2.8-1.6,4.2-3,4.4-4c-0.3-0.3-0.7-0.9-1.2-1.6l0.1-0.2
			c0.2,0.1,0.4,0.4,0.6,0.8H47c-0.3-0.4-0.7-1-1.2-1.8c-0.1-0.5-0.3-1.1-0.6-2c-0.3,0.2-0.7,0.3-1.2,0.3c-0.7,0.1-1.1,0.1-1.3,0.1
			l2-0.3L45,243c-0.1,0-0.3,0-0.6,0l0.2-0.1h-0.6h-0.4c0,0,0,0.1,0,0.1c-0.4,0-0.9,0.1-1.5,0.2l-0.1,0.1l0.1,0.2
			c-0.9,0-1.6-0.2-2-0.5l-0.2,0l0.2,0.2c0.4,0.2,0.9,0.4,1.5,0.4c-0.7-0.1-1-0.1-1.1,0c-0.1-0.3-0.2-0.4-0.4-0.4h-0.2L40,243h-0.1
			l-0.3,0.1c-0.6-0.1-1-0.2-1.1-0.2h-0.2l0.5,0.4l-0.3-0.2c-0.3,0-0.5,0-0.4,0H38V243l-0.4,0.2c-0.7-0.5-1.3-0.7-1.8-0.7
			c-0.1,0-0.1,0-0.2,0l-0.1,0.3l-0.2,0l-0.2,0l-0.2-0.2l-0.4,0.2c0.1,0,0.1,0,0.2,0l-0.1,0.1c0-0.1-0.2-0.3-0.5-0.7
			c-0.3-0.4-0.5-0.6-0.6-0.6l-0.1,0l-0.1,0.2c-0.2-0.2-0.4-0.6-0.7-1.1c-0.1-0.4-0.3-0.9-0.5-1.6l-0.2,0c-0.1-0.2-0.2-0.4-0.3-0.6
			l-0.1,0c-0.1-0.8-0.2-1.4-0.5-1.9l0.1-0.1c-0.8-3.3-1.3-5.3-1.3-5.9c0-1,0.7-2.2,2.1-3.6c1.4-1.3,3-2.5,4.9-3.4
			c2-1,3.9-1.5,5.6-1.5c0.5,0,1,0.2,1.4,0.6l0.3-0.1c0.4,0.3,1,0.7,1.9,1.1l0.1,0.2l0.2,0.2c1,0.6,2.6,1.9,4.6,3.9l0.3-0.2
			c0.5,0.5,1.2,1.3,2.1,2.4c0.1,0.3,0.3,0.7,0.6,1.2C54,231.4,54.2,231.6,54.4,231.7z M44.2,234L44.2,234H44l0.1-0.2l-0.2-0.3
			L44.2,234z"/>
		<path d="M80.2,237.7c0,0.5-0.2,1.2-0.6,2c-0.4,0.9-0.7,1.4-1.1,1.6c-0.1,0.1-0.3,0.1-0.7,0.1c-0.5,0-0.7,0.2-0.8,0.7l-0.3-0.1
			c-0.7,0.4-1.4,1.1-2.3,2.1h0.1l-0.2,0l0.1,0.2c-0.3,0.3-0.4,0.5-0.2,0.5v0.1h-0.2l-0.1,0.1l-0.1,0.2c-0.1,0.1-0.1,0.2-0.2,0.3v0.1
			h-0.1v-0.3c-0.1,0.1-0.2,0.2-0.4,0.4c-0.2,0.4-0.4,0.8-0.6,1.2c-0.1,0.1-0.2,0.1-0.3,0.2l0.1,0.2l-0.2,0c-0.1,0.1-0.2,0.3-0.3,0.5
			c-0.1,0.1-0.3,0.3-0.4,0.6c-0.1,0.3-0.3,0.5-0.4,0.6v0.7c-0.3,0.2-0.6,0.7-1,1.4c-0.3,0.5-0.5,1.1-0.8,1.6l-0.2,0.1
			c0,0.1,0.1,0.1,0.2,0.2h-0.2l-0.1,0.1l0.1,0.3l-0.2,0.1c-0.2,0.4-0.3,1-0.2,1.6l-0.1-0.3l-0.1,0l-0.1,0.2l-0.3,0.3l0.1,0
			c0,0,0,0.1,0,0.1l0.2,0.4l0.1,0.1l-0.4,0.4l0.1,0.1l0.1,0v0.2l-0.1,0c0,0,0,0.1,0,0.2c-0.1,0.3-0.3,0.7-0.5,1.3
			c0,0.3-0.1,0.8-0.3,1.4l0.3-0.2l-0.2,0.3l-0.1-0.1v0.1l-0.1,0.1l0.1,0.1c-0.5,0.3-0.8,0.8-1.1,1.4l-0.1-0.1c0,0-0.1,0-0.2,0
			l0.2,0.3l0.2,0l-0.4,0l-0.5,0.2h-0.2c-0.1,0-0.1,0.1-0.1,0.2l0.1,0c-0.3,0.2-0.6,0.2-0.8,0.2l-0.2,0.1v0.1l0.1,0.1
			c0.1,0,0.2,0.1,0.3,0.2l-0.2-0.1l-0.4,0.1l-0.1-0.1c-0.3,0-0.7,0.1-1.2,0.2c-0.1,0.1-0.2,0.2-0.2,0.3l-0.4,0.3
			c-0.2-0.1-0.5-0.1-0.7-0.1c-0.2,0-0.4,0-0.5,0.1l-0.3,0.3c-0.3,0.1-0.7,0.1-1.2,0.1l-0.2-0.1c-0.1-0.2-0.1-0.3-0.2-0.4
			c-0.1-0.1-0.2-0.2-0.5-0.2c-0.1,0.1-0.2,0.1-0.3,0.1V264l-0.3-0.1c-0.2-0.1-0.3-0.2-0.5-0.3l-0.2,0c-0.5-0.6-0.9-1.1-1.1-1.4
			c-0.4-0.7-0.7-1.2-0.7-1.6l-0.1-0.1c-0.2-0.1-0.3-0.2-0.3-0.2l-0.1,0l-0.1,0.2c-0.1,0-0.2-0.1-0.3-0.2c0.2-0.2,0.3-0.3,0.3-0.4v0
			c-0.3-0.3-0.5-0.5-0.5-0.7l0.1-0.4l0.3-0.2l-0.3-0.1l0.2-0.3l-0.4-0.7l0.1,0c0.1,0,0.2-0.1,0.4-0.2c-0.4-0.7-0.6-1.9-0.6-3.7
			l0.2-0.1c0,0,0-0.3-0.1-0.9c0.1,0.3,0.4,0.8,0.7,1.5c0.1-1.2,0.2-1.8,0.2-1.7l0.1,0.3l0.2-0.2l0.1-0.4l0.3,0.3l0.2-0.4
			c0.1,0.1,0.4,0.3,0.7,0.5l0.1-0.5l0.3-0.1l0.4-0.6l0.7-0.2l0.1,0.1l0.1,0.1c0.3,0.1,0.6,0.3,1,0.7l0.2,0.1l0.1,0l0.1-0.1l0.1,0
			l0.1,0.1l1.3,0.4c0.2-0.2,0.4-0.6,0.7-1.2l-0.2-0.1l-0.4,0.1l0.4-0.1c-0.2-0.1-0.4-0.1-0.6-0.1l0.2-0.3l-0.3-0.5l0.2-0.5l-0.2-0.3
			l0.1,0v-0.2c-0.4-0.6-0.8-1.5-1.3-2.8c0-0.1-0.1-0.1-0.1-0.2v-0.1l0.3-0.1c-0.5-1.3-1-2.2-1.5-2.6c-0.2-0.1-0.6-0.4-1.1-0.7
			c-1.1-1.1-1.9-2.1-2.3-3c-0.4-0.9-0.6-2.1-0.6-3.7c0-0.3,0.1-1.2,0.2-2.7c0.2-0.6,0.4-1.2,0.6-1.8c0.3-0.8,0.6-1.3,0.9-1.5
			l0.2,0.1l0.1-0.3c0.2,0.2,0.4,0.4,0.7,0.5c0.3-0.1,0.6-0.3,0.9-0.6l0.2,0v0.4c0.2-0.1,0.5-0.3,1-0.5c0.3,0.1,0.6,0.3,1,0.7
			c0.4,0.6,0.7,0.9,0.8,0.9c-0.1-0.1-0.2-0.2-0.4-0.3l-0.5,0.6c0.2,0.1,0.8,1.1,2,2.9c0.7,1.1,1.3,2.3,2,3.4l0.2,0
			c0.1,0.1,0.2,0.3,0.2,0.6c0,0.1,0.3,0.7,0.9,1.6c0.5,0.9,0.9,1.5,1,1.6c1-1.8,1.9-3.6,2.9-5.4c1.1-2.1,2.2-3.8,3.3-5.2
			c0.1-0.3,0.1-0.8,0.2-1.4v0.2c0-0.1,0-0.1,0.1-0.2H74l-0.2-0.6l0.1,0.1c0.1,0.1,0.2,0.3,0.3,0.4l0.1,0.3c0.1-0.1,0.1-0.3,0.1-0.5
			l0.1,0l-0.1-0.4l0.2,0.1l0.1-0.1v-0.2l0.2,0.1l0.2,0l-0.2-0.6l0.2,0c0.1,0.1,0.2,0.2,0.4,0.4c0-0.5,0.2-0.9,0.7-1.2l-0.1-0.4
			c0.1,0.1,0.2,0.1,0.3,0.2h0.2l-0.2-0.2c0.4,0.6,0.9,1.3,1.6,2v0.3l-0.2-0.2l-0.2,0.5c0.1,0.1,0.3,0.4,0.6,0.9c0.1,0,0,0-0.2,0.1
			c-0.1,0-0.1-0.1-0.2-0.1l-0.1,0c0.3,0.3,0.7,0.9,1.2,1.6c0.2,0.8,0.3,1.2,0.3,1.2c0,0,0-0.1-0.1-0.1v0.1l0.1,0.1
			c0.1,0.1,0.3,0.2,0.5,0.3l-0.1,0C79.9,235.2,80.2,236.6,80.2,237.7z M63.6,264.9c-0.5,0.2-0.9,0.3-1.2,0.3c-0.1,0-0.3,0-0.4,0
			c0.2,0,0.5-0.1,0.9-0.2c0.1-0.1,0.2-0.1,0.4-0.2l0.1-0.1l0.1,0v0v0l-0.1,0.1l0.1,0.1L63.6,264.9z M77.5,230.1h-0.3l0.2,0
			L77.5,230.1L77.5,230.1z M79.4,241.1l-1.5,2.1l0.5-0.9v0.1h0.2L79.4,241.1z M80.3,235.3L80.3,235.3c-0.1,0-0.2,0-0.2-0.1v0h0.1
			C80.2,235.1,80.3,235.2,80.3,235.3L80.3,235.3z"/>
		<path d="M105.6,252.3c0,0.1,0.1,0.3,0.1,0.5c0,0.2-0.1,0.7-0.2,1.3c-0.1,0.6-0.2,1.1-0.1,1.4c-0.2,0.1-0.5,0.3-0.9,0.6
			c-0.1,0.2-0.1,0.3-0.1,0.5l-0.5-0.1c-0.5,0-1,0.2-1.3,0.7l-0.7,0.5l-1.2-0.1c-0.3-0.4-0.6-0.7-0.9-0.7l-0.3,0.3l-0.4-0.1l-0.2,0.3
			c-0.3-0.6-0.9-1.4-1.7-2.4c-1,1-2.4,1.7-4,2.1c-1.6,0.4-2.7,0.8-3.2,1.3l0.3,0c-0.3,0-0.5,0-0.8-0.2l-0.1,0v0.1l0.1,0.1
			c-0.1-0.1-0.1-0.2-0.2-0.2h-0.1l-0.1,0.1c-0.5-0.3-1-0.6-1.5-0.8c-0.5-0.5-1.1-1.3-2-2.4c-0.3-0.6-0.8-1.5-1.5-2.6l-0.2,0
			l-0.2,0.2v0.2c-0.1-0.1-0.3-0.5-0.6-1.1c-0.3-0.6-0.8-1.5-1.4-2.6l-0.1-0.1c-0.1,0-0.1,0.1-0.1,0.1l0.1,0.2
			c-0.1-0.5-0.4-1.1-0.9-1.8l0.1-0.7c0-0.3,0-0.7-0.1-1.3s-0.1-1.1-0.1-1.4c0-1.6,0.2-2.7,0.7-3.5c0.2-0.4,0.4-0.9,0.5-1.3v-2.1
			c0-1.4,0.7-3.4,2.2-6.2c1.6-3,2.9-4.5,4.1-4.5c0.4,0,0.8,0.3,1.3,1c0.5,0.6,0.8,1.2,0.9,1.6c0.5,2.1,0.8,4.5,0.8,7.2
			c0,0.7-0.2,1.6-0.6,2.7c-0.4,1.3-0.7,2.2-0.8,2.6c0.1,0.2,0.2,0.6,0.3,1c0.4,0.8,0.9,2,1.5,3.6c0.8,0,1.3,0.1,1.5,0.3l0.4-0.1
			l0.2,0.1l0.2-0.1l0.1-0.1v-0.1l0.5-0.6v-0.2l-0.1-0.2v0c0.4-0.5,0.8-1.4,1.1-2.6c0.4-1.7,0.6-2.7,0.7-2.9l-0.1-0.4
			c-0.4,0.9-0.6,1.4-0.6,1.6l-0.1-0.4l-0.3,0.2l0.4-0.8l-0.1-0.2c-0.1-0.1-0.2-0.1-0.3-0.2h0.2c-0.1-0.3-0.2-0.7-0.3-1.2l0.4,0.8
			v-2.2l-0.4-0.2l0.2,0.2c0-0.9,0.2-2.2,0.4-3.8l0.1,0.1l0.1,0l0.2-1.1c0-0.1,0-0.3-0.2-0.6c-0.1-0.3-0.2-0.4-0.2-0.5
			c0-0.1,0.1-0.6,0.2-1.5l0.3-0.1c0.4-1.5,1.2-2.6,2.3-3.3c0.6-0.4,1.8-0.9,3.8-1.7l0.3,0.5l0.1-0.1c0.1,0.1,0.2,0.2,0.3,0.3
			c0.1,0.1,0.3,0.2,0.6,0.3l-0.1,0.3l0.1,0.3l0.3,0.2c0.1,0.1,0.3,0.1,0.4,0c0,0.1-0.1,0.3-0.1,0.4c0,0.3,0.1,0.7,0.2,1.2
			c0.1,0.5,0.2,0.9,0.2,1.2l-0.3,0.2c0,0.6,0.1,1.5,0.2,2.7c0.2,1.2,0.2,2.1,0.2,2.7c0,0.3-0.1,0.8-0.3,1.5
			c-0.2,0.6-0.3,1.1-0.3,1.4c0,0.5,0.1,0.7,0.3,0.8c-0.4,0.6-0.9,1.5-1.3,2.9c-0.5,1.4-0.7,2.4-0.7,3.1c0,0.1,0,0.3,0,0.5
			c0,0.3,0.1,0.4,0.1,0.5c0.3,0.1,0.4,0.4,0.4,1c0.5,0.7,1.2,1.9,2.1,3.4C105.7,250.3,106,251,105.6,252.3z M86,255.9l-0.6-0.9
			C85.7,255.2,85.8,255.5,86,255.9z M90.8,258.7c-0.1,0-0.3,0.1-0.6,0.1l-0.1-0.1l-0.1-0.1L90.8,258.7z M95.6,233.7
			c0,0.1,0,0.3-0.1,0.6v-1.6c0,0.1,0,0.3,0.1,0.5C95.6,233.4,95.6,233.6,95.6,233.7z"/>
		<path d="M130.2,254.3c0,0.3-0.3,0.9-0.8,1.6c-0.4,0.6-0.5,1.2-0.4,1.8l-0.2-0.1c-0.2,0.3-0.5,0.6-0.9,1.1l-0.1,0.1l0.1,0.1
			l0.1,0.1l-0.1,0.2l-0.4-0.2l-1,0.2l-0.6-0.1c-0.7,0-1,0.2-1.1,0.6c-0.4-0.3-0.9-0.5-1.5-0.6c-0.2-0.1-0.3-0.4-0.4-0.7
			c-0.1-0.5-0.1-0.7-0.1-0.7l0.1-0.1c0-0.3,0.1-0.8,0.2-1.5c-0.1-0.3-0.3-0.8-0.5-1.5c-0.1-0.2-0.4-0.5-1-0.9
			c-0.6-0.4-0.9-0.8-1.1-1.2c0-0.6-0.1-1.4-0.4-2.5c-0.4,0.1-1,0.5-1.6,1.2c-0.7,0.9-1.2,1.4-1.5,1.6c0,0.3-0.1,0.7-0.3,1.2l0.3,0.4
			c0,0.1-0.1,0.3-0.1,0.4c0,0.2,0.1,0.5,0.2,0.9c0.1,0.4,0.2,0.7,0.3,0.9c0,0.3,0,0.8,0.1,1.4h0.3c-0.3,0.6-0.6,0.9-1,1
			c-0.1,0-0.7,0-1.6,0c-0.2,0-0.4,0.1-0.7,0.3c-0.3,0.2-0.5,0.4-0.5,0.6c-0.2,0-0.3,0-0.5,0c-0.8,0-1.7,0.4-2.7,1.1
			c-0.4-0.4-1-0.9-1.8-1.5c-0.2-0.7-0.3-1.9-0.3-3.7c0-0.2,0-0.5-0.1-0.9c-0.1-0.4-0.1-0.7-0.1-0.9c0-0.1,0.1-0.2,0.2-0.3l0.1,0.3
			c0.1-0.2,0.3-0.7,0.4-1.6c0.1-0.7,0.3-1.1,0.5-1.2v-1.5c0-0.4,0.3-1.7,1-3.8l0.2-0.2l-0.2-0.3h0.2L111,245c0-0.6,0.1-1.2,0.3-1.8
			c-0.1,0.3-0.1,0.5-0.1,0.8l0.1,0v0.1v0.7c0-0.6,0.1-1.5,0.2-2.7l-0.2,0.1c0-0.1-0.1-0.8-0.1-2c0-1.4-0.1-2.3-0.3-2.5
			c-0.1,0.1-0.2,0.2-0.2,0.3v0.1c0,0-0.3-0.7-0.9-1.9c-0.4-1-0.6-1.6-0.6-1.8l-0.3-0.1c0-0.2-0.2-0.6-0.4-1.3
			c-0.1-0.5-0.2-1-0.2-1.4c0-0.6,0-0.9-0.1-1c0-0.5,0-1.3,0.2-2.4c0.1-1.1,0.5-2,1.1-2.8c0.1-0.1,0.8-0.9,2.2-2.2
			c-0.1-0.1-0.1-0.3-0.1-0.4c0-0.3,0.2-0.7,0.6-1.2c0.4-0.5,0.8-0.7,1.1-0.7c0.5,0,1.2,0.3,1.9,0.8c1,0.8,1.6,1.7,1.8,2.9
			c0.2,0.7,0.2,1.9,0.1,3.4c-0.1,1.6-0.1,2.7,0.1,3.5c-0.2,1.7-0.4,3.7-0.4,5.9c0,0.4-0.1,0.9-0.2,1.4c-0.2,0.5-0.2,1.5-0.2,3
			c0,1.6,0.1,2.5,0.3,2.6h0.2h0.4c0.9-0.9,1.6-1.3,2.2-1.3c0-0.2,0.2-0.4,0.4-0.6c0.2-0.1,0.4-0.2,0.7-0.4c1.1-1.3,2.3-2.3,3.6-2.9
			c0.3-0.1,0.8-0.4,1.5-0.7c0.2-0.2,0.5-0.5,1-0.8l0.1-0.2l0.4,0.2c0.1,0,0.2,0,0.3,0l0.3-0.3l0.3,0l0.3,0.2c0-0.1,0.1-0.2,0.2-0.2
			c0.1,0,0.2-0.1,0.4-0.1l0.3-0.6c0.1,0.2,0.3,0.4,0.6,0.7c0.1,0.4,0,1-0.3,1.8c0,0.2,0,0.4-0.1,0.8c0.1,0.2,0.3,0.5,0.5,0.8
			c0,0.1,0,0.2-0.1,0.3l-0.1,0.2l-0.1,0.2l0.1,0.3c0.1,0.1,0.2,0.2,0.3,0.3c-0.1,0.1-0.2,0.2-0.3,0.3c0,0.1,0,0.3,0,0.6
			c0.1,0.3,0.1,0.5,0.1,0.6c0,0.2,0,0.3-0.1,0.4c-0.1,0-0.2,0-0.4,0.1c-0.1,0.2-0.4,0.6-0.7,1c-0.2,0.2-1,0.6-2.5,1.2l-0.3-0.1
			l-0.5,0.3l0.1,0.1l0.3,0.1l-0.2,0.2c0.3,0.3,0.8,0.9,1.5,1.6c0.4,0.8,1,1.9,2,3.3c0.1,0.2,0.3,0.7,0.5,1.5
			C130,253.8,130.1,254,130.2,254.3z M111.4,242.6v-0.2V242.6l-0.1-0.1c-0.1,0-0.1-0.1-0.2-0.1v0v0l0.1,0
			C111.2,242.5,111.3,242.5,111.4,242.6z"/>
		<path d="M157.2,239.8c0,1.4-0.2,2.7-0.7,4.1c-0.1,0.8-0.4,1.9-0.7,3.4c-0.2,0.8-0.6,1.8-1.2,3c-0.9,1.8-1.3,2.8-1.4,2.9l-0.1-0.1
			c-0.1,0-0.2,0.1-0.3,0.2c-0.1,0.1-0.3,0.3-0.5,0.5c-0.1,0.1-0.1,0.1-0.2,0.2l-0.1,0.1l-0.3,0.1c-0.4,0.4-1,1-1.7,1.7h-0.2
			l-0.1-0.1c0-0.1-0.1-0.1-0.1,0c-0.1,0.1-0.4,0.2-0.7,0.3l-0.2,0l-0.3,0.5l-0.3,0h-0.1c-0.1,0.1-0.2,0.2-0.2,0.3l-0.1,0l-0.1-0.1
			c-0.4,0.6-0.8,0.9-1.2,1c-0.5,0.1-1,0.1-1.5,0.2l-0.2,0.3c-0.1-0.2-0.4-0.5-0.7-0.8h-0.2c-0.1,0.1-0.2,0.1-0.4,0.1
			c-0.6-0.3-1.3-0.6-1.9-0.9c-0.9-0.4-1.5-0.6-1.9-0.6c-0.2,0-0.4,0-0.7,0c0,0.1,0,0.2,0.1,0.2l0.1,0h-0.3c-0.2,0-0.4-0.1-0.8-0.3
			c-0.6-0.4-0.9-0.7-1-0.9c0,0-0.2-0.5-0.5-1.4c-0.1-0.1-0.3-0.4-0.5-0.7l-0.3,0.3c0-0.2-0.2-0.8-0.5-1.6h-0.2l-0.2,0.2
			c-0.1,0.2-0.1,0.5-0.2,0.7l-0.5-2.4l-0.1,0.6l-0.5-0.9l0.1-0.6c0-0.3-0.1-0.8-0.4-1.6c-0.1-0.3-0.2-0.8-0.4-1.5
			c-0.7-2.3-1.1-4.1-1.1-5.2c0-0.9,0.1-1.5,0.3-2c0.2-0.5,0.5-1.2,0.9-2.2c0.3-1.1,0.7-2.2,1.1-3.3c0.5-1.5,1.1-2.4,1.7-2.5
			c-0.2,0.3-0.4,0.5-0.6,0.8c0,0.1-0.1,0.1-0.1,0.1l0.2,0.1c1.2-2.3,3.9-3.5,8.1-3.5c1,0,1.8-0.1,2.3-0.2c0.6,0,1.6,0.1,2.8,0.2
			c0.7,0,1.3,0.2,1.8,0.5l0.1,0.4c0.5,0.3,1.6,1.9,3.3,4.6c1.5,2.5,2.4,4,2.6,4.6C157.1,238.8,157.2,239.3,157.2,239.8z M138.6,257
			c-0.3-0.3-0.6-0.7-0.8-1.1L138.6,257z M149.6,243.5c-0.2-0.9-0.6-2.2-1.2-3.9h0.2c-0.2-1.3-0.2-2-0.2-2.2l0.1,0.6l-0.1-1.9
			c-0.7-1-1.3-1.5-2-1.7c0,0-0.1,0-0.2,0l-0.1,0.1c-0.3-0.1-0.5-0.1-0.6-0.1c-0.9,0-1.7,0.7-2.5,2.1c0,0.5-0.1,1.2-0.2,2.2
			c-0.1,1-0.2,1.7-0.2,2.2c0,2.1,0.8,3.7,2.5,4.6c0.3,0.1,0.8,0.4,1.4,0.9c0.1-0.1,0.4-0.2,0.7-0.3c0.1,0,0.2,0.1,0.3,0.2
			c0-0.1,0.1-0.3,0.3-0.5c0.2,0,0.4-0.1,0.6-0.1C148.4,245.7,148.8,244.9,149.6,243.5z M145.9,245.5l-0.1,0.1h-0.2l-0.1,0.1v-0.3
			L145.9,245.5z M147.8,258.4c0,0.2-0.1,0.4-0.2,0.4c-0.1-0.1-0.1-0.3-0.2-0.5l0.1-0.1L147.8,258.4z M156.7,239.7v-0.4l-0.2-0.3
			L156.7,239.7z"/>
		<path d="M183,252.3c0,0.1,0.1,0.3,0.1,0.5c0,0.2-0.1,0.7-0.2,1.3c-0.1,0.6-0.2,1.1-0.1,1.4c-0.2,0.1-0.5,0.3-0.9,0.6
			c-0.1,0.2-0.1,0.3-0.1,0.5l-0.5-0.1c-0.5,0-1,0.2-1.3,0.7l-0.7,0.5l-1.2-0.1c-0.3-0.4-0.6-0.7-0.9-0.7l-0.3,0.3l-0.4-0.1l-0.2,0.3
			c-0.3-0.6-0.9-1.4-1.7-2.4c-1,1-2.4,1.7-4,2.1c-1.6,0.4-2.7,0.8-3.2,1.3l0.3,0c-0.3,0-0.5,0-0.8-0.2l-0.1,0v0.1l0.1,0.1
			c-0.1-0.1-0.1-0.2-0.2-0.2h-0.1l-0.1,0.1c-0.5-0.3-1-0.6-1.5-0.8c-0.5-0.5-1.1-1.3-2-2.4c-0.3-0.6-0.8-1.5-1.5-2.6l-0.2,0
			l-0.2,0.2v0.2c-0.1-0.1-0.3-0.5-0.6-1.1c-0.3-0.6-0.8-1.5-1.4-2.6l-0.1-0.1c-0.1,0-0.1,0.1-0.1,0.1l0.1,0.2
			c-0.1-0.5-0.4-1.1-0.9-1.8l0.1-0.7c0-0.3,0-0.7-0.1-1.3s-0.1-1.1-0.1-1.4c0-1.6,0.2-2.7,0.7-3.5c0.2-0.4,0.4-0.9,0.5-1.3v-2.1
			c0-1.4,0.7-3.4,2.2-6.2c1.6-3,2.9-4.5,4.1-4.5c0.4,0,0.8,0.3,1.3,1c0.5,0.6,0.8,1.2,0.9,1.6c0.5,2.1,0.8,4.5,0.8,7.2
			c0,0.7-0.2,1.6-0.6,2.7c-0.4,1.3-0.7,2.2-0.8,2.6c0.1,0.2,0.2,0.6,0.3,1c0.4,0.8,0.9,2,1.5,3.6c0.8,0,1.3,0.1,1.5,0.3l0.4-0.1
			l0.2,0.1l0.2-0.1l0.1-0.1v-0.1l0.5-0.6v-0.2l-0.1-0.2v0c0.4-0.5,0.8-1.4,1.1-2.6c0.4-1.7,0.6-2.7,0.7-2.9l-0.1-0.4
			c-0.4,0.9-0.6,1.4-0.6,1.6l-0.1-0.4l-0.3,0.2l0.4-0.8l-0.1-0.2c-0.1-0.1-0.2-0.1-0.3-0.2h0.2c-0.1-0.3-0.2-0.7-0.3-1.2l0.4,0.8
			v-2.2l-0.4-0.2l0.2,0.2c0-0.9,0.2-2.2,0.4-3.8l0.1,0.1l0.1,0l0.2-1.1c0-0.1,0-0.3-0.2-0.6c-0.1-0.3-0.2-0.4-0.2-0.5
			c0-0.1,0.1-0.6,0.2-1.5l0.3-0.1c0.4-1.5,1.2-2.6,2.3-3.3c0.6-0.4,1.8-0.9,3.8-1.7l0.3,0.5l0.1-0.1c0.1,0.1,0.2,0.2,0.3,0.3
			c0.1,0.1,0.3,0.2,0.6,0.3l-0.1,0.3l0.1,0.3l0.3,0.2c0.1,0.1,0.3,0.1,0.4,0c0,0.1-0.1,0.3-0.1,0.4c0,0.3,0.1,0.7,0.2,1.2
			c0.1,0.5,0.2,0.9,0.2,1.2l-0.3,0.2c0,0.6,0.1,1.5,0.2,2.7c0.2,1.2,0.2,2.1,0.2,2.7c0,0.3-0.1,0.8-0.3,1.5
			c-0.2,0.6-0.3,1.1-0.3,1.4c0,0.5,0.1,0.7,0.3,0.8c-0.4,0.6-0.9,1.5-1.3,2.9c-0.5,1.4-0.7,2.4-0.7,3.1c0,0.1,0,0.3,0,0.5
			c0,0.3,0.1,0.4,0.1,0.5c0.3,0.1,0.4,0.4,0.4,1c0.5,0.7,1.2,1.9,2.1,3.4C183.1,250.3,183.3,251,183,252.3z M163.4,255.9l-0.6-0.9
			C163,255.2,163.2,255.5,163.4,255.9z M168.1,258.7c-0.1,0-0.3,0.1-0.6,0.1l-0.1-0.1l-0.1-0.1L168.1,258.7z M172.9,233.7
			c0,0.1,0,0.3-0.1,0.6v-1.6c0,0.1,0,0.3,0.1,0.5C172.9,233.4,172.9,233.6,172.9,233.7z"/>
	</g>
</g>
</svg>
