<?xml version="1.0" encoding="utf-8"?>
<!-- Generator: Adobe Illustrator 16.0.0, SVG Export Plug-In . SVG Version: 6.00 Build 0)  -->
<!DOCTYPE svg PUBLIC "-//W3C//DTD SVG 1.1//EN" "http://www.w3.org/Graphics/SVG/1.1/DTD/svg11.dtd">
<svg version="1.1" id="レイヤー_1" xmlns="http://www.w3.org/2000/svg" xmlns:xlink="http://www.w3.org/1999/xlink" x="0px"
	 y="0px" width="421.546px" height="290.359px" viewBox="0 0 421.546 290.359" enable-background="new 0 0 421.546 290.359"
	 xml:space="preserve">
<g>
	<path fill="#FFFFFF" d="M299.153,163.549c2.847,3.305,5.626,6.693,8.33,10.169c-0.48,0.041-1.145,0.299-1.988,0.771
		c-0.847,0.473-1.509,0.728-1.987,0.768c2.98,4.904,5.924,8.36,8.83,10.37c0.583-0.689,2.636-1.186,6.152-1.479l2.158-0.179
		c2.956,0.72,5.168,1.18,6.633,1.378l-2.297-1.497l0.919-0.561c1.317,0.373,2.31,0.695,2.976,0.961l3.258-4.377
		c0.917,1.372,2.255,1.986,4.016,1.838l0.719-0.06c-1.173-0.543-2.011-0.957-2.518-1.237l-0.538-0.68
		c3.021-6.205,5.641-10.525,7.852-12.966c0.131-0.331,0.818-2.724,2.059-7.173c1.012-3.301,2.123-5.404,3.337-6.312l-0.579-1.159
		c0.278-0.506,1.304-2.681,3.077-6.532c1.343-3.167,2.563-4.959,3.656-5.375c-0.213-2.555,1.511-5.999,5.175-10.329l-3.216-0.939
		c-7.368,2.386-12.749,4.441-16.144,6.172c-3.226-0.052-6.62-2.183-10.188-6.394c-3.571-4.206-5.486-7.909-5.753-11.108l-0.1-1.199
		l-3.996-4.495c-1.308-0.212-2.519-0.273-3.635-0.18c-5.437,0.452-9.623,3.298-12.568,8.53c-0.694,1.348-2.604,6.414-5.734,15.204
		c-2.601,7.458-3.751,12.948-3.458,16.462C293.866,155.14,295.716,159.007,299.153,163.549z"/>
	<path fill="#FFFFFF" d="M360.991,108.912c-0.055,1.295-0.362,2.444-0.919,3.456c2.171,2.879,3.634,5.009,4.395,6.394
		c7.738,11.75,13.123,20.393,16.16,25.934c0.386,0.776,0.919,2.337,1.599,4.696c0.679,2.356,1.449,3.903,2.317,4.635
		c1.41,1.494,4.062,2.4,7.951,2.718c0.745-0.703,1.838-1.118,3.276-1.238c0.479-0.04,1.044-0.004,1.697,0.1
		c0.199-1.465,1.08-2.986,2.638-4.564c1.56-1.578,3.005-3.064,4.337-4.464c0.439-0.521,1.183-2.189,2.238-5.016
		c0.785-2.155,1.729-3.362,2.836-3.616c-0.002-1.931,0.715-4.925,2.149-8.99c1.431-4.061,2.055-7.209,1.868-9.45
		c-0.346-4.154-4.283-9.862-11.806-17.123c-5.793-5.794-11.422-10.553-16.881-14.286c-4.075-2.557-10.158-5.027-18.24-7.414
		l-0.44,0.52c-3.356,0.28-5.846,1.814-7.461,4.605c-1.621,2.79-2.282,5.946-1.989,9.459
		C356.81,96.386,358.233,100.933,360.991,108.912z"/>
	<path fill="#FFFFFF" d="M251.301,212.192c-0.133-1.595-1.143-5.012-3.026-10.248c-1.884-5.235-3.273-8.378-4.165-9.431
		c-3.183-3.436-5.58-6.134-7.191-8.093c-2.905-3.941-5.347-6.23-7.331-6.873c-1.682,1.104-3.09,3.033-4.227,5.783
		c-1.141,2.751-1.615,5.247-1.43,7.481c0.094,1.12,0.727,2.92,1.898,5.395l-0.34,1.719c-4.81,7.968-21.421,6.158-24.617,6.424
		c0.158-0.013-0.66-0.187-2.457-0.52l0.719-0.06l-3.616,0.06l-0.539-0.679c0.278-0.507,0.571-0.851,0.879-1.04
		c-0.802,0.067-1.84,0.154-3.117,0.26c-1.613-0.024-2.74-0.013-3.377,0.039c-1.761,0.148-3.018,0.492-3.776,1.039
		c2.277,0.293,4.021,0.955,5.234,1.979c-0.574,2.787-1.039,4.915-1.398,6.394c1.118,3.769,3.216,6.732,6.292,8.89
		c-0.799,1.998-1.327,3.412-1.579,4.236c-0.094,0.815-0.041,1.451,0.16,1.919c2.968,2.812,4.546,4.368,4.734,4.675
		c0.744,1.228,2.506,4.497,5.284,9.819c2.774,5.321,4.199,8.383,4.265,9.18c0.636-0.052,1.572-0.409,2.807-1.077
		c1.165-0.629,2.057-0.978,2.693-1.059c-0.063,0.041,0.67,0.109,2.206,0.204c0.052-0.002,0.101-0.008,0.153-0.008
		c0.627,0,1.188,0.098,1.69,0.271c0.323,0.045,0.634,0.107,0.915,0.207c0.394,0.065,0.758,0.171,1.091,0.313
		c0.434,0.078,0.843,0.188,1.201,0.361c-0.011-0.011-0.03-0.024-0.031-0.031l13.047,5.402l3.117-0.258
		c3.077-3.638,5.508-6.332,7.293-8.092c0.971-1.85,1.651-3.356,2.038-4.515c0.145-0.171,0.944-5.065,2.398-14.685
		C250.653,217.961,251.354,212.834,251.301,212.192z"/>
	<path fill="#FFFFFF" d="M417.229,212.945l-2.055-24.694l0.219,8.432c-1.759-1.786-4.022-4.813-6.792-9.092
		c-2.771-4.272-5.043-7.383-6.812-9.331l-0.08-0.958c-1.532-0.997-2.472-1.642-2.816-1.938c-3.719-5.966-8.839-12.379-15.362-19.24
		c-1.907-1.61-3.37-2.774-4.396-3.496c-0.362-0.453-1.06-2.085-2.098-4.896c-0.988-2.17-2.06-3.45-3.216-3.836l0.56-1.978
		l-2.197-6.094l0.5-2.697l-2.478-0.759l-0.239-2.877c-1.813,3.373-2.851,6.355-3.118,8.951l-0.799-0.899l-0.439,0.519
		c0.291-0.344,0.506,0.283,0.639,1.878l0.54,0.679l-1.259,2.277l1.638,2.278l-0.28,11.128c0.093,1.12,0.353,2.787,0.779,5.005
		c0.426,2.22,0.685,3.888,0.778,5.004c0.106,1.281,0.18,3.166,0.229,5.654c0.046,2.494,0.124,4.377,0.23,5.654l1.997,12.387
		c0.598,3.33,0.111,6.188-1.46,8.57c0.157-0.014,0.644,0.029,1.459,0.119l0.319,0.939c-10.405,12.296-21.854,23.63-34.347,34.002
		c-5.567-1.144-11.144-2.369-16.721-3.678c-7.393-1.798-11.501-4.754-12.327-8.871l0.64-1.02l-1.059-1.118
		c-0.429-1.251-0.665-2.196-0.72-2.837l0.779-2.238c-1.944-4.021-3.102-8.271-3.475-12.747c-0.438-5.273-0.678-8.15-0.719-8.63
		c-2.052-5.298-3.675-9.352-4.874-12.147c-2.146-10.281-6.585-22.061-13.323-35.344c-3.875-5.954-18.946-34.415-21.104-37.132
		c-7.073-13.413-12.495-21.49-16.262-24.235c-0.465,0.201-0.932,0.402-1.398,0.599c-1.732-1.462-2.959-2.65-3.675-3.557
		c-3.998,0.333-8.54,3.771-13.627,10.308c-4.212,5.503-7.203,10.618-8.981,15.353c-1.778,4.734,9.7,34.985,10.326,42.496
		c0.571,6.874,2.609,13.945,6.111,21.217c4.246,8.501,9.021,13.655,14.324,15.466l1.158-0.579
		c5.391,4.861,9.396,8.474,12.007,10.828c1.251,3.438,2.263,5.932,3.036,7.473c0.223,0.789,0.525,3.418,0.897,7.891
		c0.267,3.201,0.87,5.644,1.818,7.333c-0.36,1.479-0.674,2.554-0.939,3.216l3.854,11.51c-4.851,9.419-7.449,15.91-7.793,19.479
		c2.877,5.555,5.958,11.174,9.249,16.852c3.286,5.684,7.842,9.648,13.664,11.898l-3.116-2.637l-0.12-1.438l13.285,2.997l3.537-1.019
		c1.277-0.105,3.177,0.016,5.704,0.37c2.522,0.352,4.423,0.478,5.703,0.371c0.104-0.654,0.854-1.362,2.238-2.119
		c0.637-0.052,1.579,0.11,2.817,0.491c1.238,0.379,2.255,0.537,3.056,0.47c5.459,3.728,9.477,6.532,12.047,8.412
		c5.607-2.24,10.762-4.118,15.464-5.634c1.386-0.76,3.266-2.324,5.645-4.693c2.375-2.371,4.337-3.945,5.884-4.716
		c0.157-0.013,1.822-0.31,4.995-0.898c1.743-0.304,3.257-1.479,4.535-3.517l1.538,1.08l0.46-0.279
		c0.131-0.333,0.351-0.593,0.659-0.779l0.48-0.04l0.578,1.158c3.394-1.73,6.792-3.462,10.189-5.192
		c5.528-3.195,8.105-7.03,7.733-11.507c2.528-6.326,5.44-10.994,8.731-14.006c4.062-3.393,8.125-6.79,12.188-10.188
		C415.809,223.927,417.561,218.873,417.229,212.945z"/>
</g>
<g>
	<path fill="#FFFFFF" d="M285.743,49.932c-0.514,0.616-0.847,1.258-1,1.925c-0.104-0.103-0.181-0.231-0.231-0.385l-0.077-0.924
		l-0.23-0.308l-0.924,0.385c-0.154,0.154-0.335,0.437-0.539,0.847c0.256,0.308,0.616,0.719,1.078,1.231l0.308-0.077
		c0.103-0.154,0.256-0.308,0.462-0.462h0.308l0.231,1.925c-0.36,0.104-0.591,0.437-0.693,1.001l0.693,0.693l-0.462,0.154
		c-0.154,0.308-0.231,0.591-0.231,0.847c0,0.206,0.077,0.539,0.231,1.001c0.153,0.462,0.23,0.821,0.23,1.078
		c-0.153,0.052-0.359,0.154-0.615,0.308l-0.231,0.231c-0.514,1.489-1.36,2.49-2.54,3.002c0,0.462-0.27,0.924-0.809,1.386
		s-1.039,0.693-1.501,0.693c-0.976,0.873-2.541,2.028-4.696,3.464c-0.821,0.462-1.644,0.72-2.464,0.77
		c-1.386,0.104-3.413,0.256-6.081,0.462c-0.206,0-0.553,0.05-1.04,0.154c-0.488,0.103-0.859,0.154-1.116,0.154
		c-0.411,0-1-0.116-1.771-0.347c-0.77-0.231-1.36-0.346-1.771-0.346l0.231-0.154c0.05-0.102,0.076-0.231,0.076-0.385
		c-0.924-1.128-4.465-1.694-10.623-1.694c-0.514,0-0.976,0.129-1.386,0.385c-0.36-0.205-0.771-0.308-1.232-0.308
		c-0.924,0-2.284,0.192-4.08,0.578c-1.797,0.385-3.156,0.577-4.08,0.577c-0.205,0-0.615-0.089-1.231-0.27
		c-0.616-0.179-1.027-0.27-1.231-0.27c-0.206,0-0.335,0.027-0.385,0.077c-1.951-0.667-3.876-1.309-5.774-1.924
		c-2.31-0.77-4.311-1.155-6.005-1.155l-1.771,0.231c-0.359-0.205-1.643-0.436-3.849-0.693c-1.644-0.205-2.694-0.847-3.156-1.925
		c0.102-2.566,0.82-6.209,2.155-10.932c0.666-0.462,1.411-0.975,2.232-1.54l0.23,0.462l0.231,0.077
		c0.616-0.358,1.796-0.616,3.541-0.77c1.437-0.103,2.438-0.513,3.003-1.232c0.512,0.308,1.334,0.693,2.463,1.155
		c0.513,0.104,1.232,0.257,2.156,0.462c0.461,0.257,1.231,0.565,2.309,0.924l0.386-0.154l0.23-0.154l1.386,0.462l-0.23-0.077
		c-0.104,0.103-0.181,0.18-0.231,0.231c2.002,1.078,3.438,1.616,4.312,1.616c1.18,0,1.897,0.181,2.155,0.539
		c0.358-3.951,0.539-5.901,0.539-5.851c0-2.412-0.231-4.362-0.693-5.851c-0.104-0.05-0.205-0.077-0.308-0.077l-0.154,0.308
		c-1.643-4.105-2.463-6.954-2.463-8.545c0-1.18,0.949-2.822,2.848-4.927c-0.873-0.872-2.182-1.309-3.926-1.309
		c-1.848,0-3.311,0.488-4.388,1.463l-0.386,0.154c-1.385-0.102-2.463-0.718-3.232-1.848c-0.514-0.718-1.027-2.617-1.54-5.697
		c-0.514-2.822-0.77-4.9-0.77-6.236c0-0.666,0.153-1.231,0.462-1.693c0.308-0.154,1.386-1.026,3.233-2.618
		c1.231-1.128,2.437-1.693,3.618-1.693c2.976,0,6.466,1,10.47,3.002c1.18,0.72,3.002,1.592,5.466,2.618
		c3.849-0.358,8.853-1.411,15.012-3.156l4.619-1.309c0.82,0,1.334,0.437,1.539,1.309c0.051,0.719,0.103,1.438,0.154,2.155
		c0,0.36,0.243,1.078,0.731,2.156c0.487,1.078,0.834,1.72,1.039,1.925c-0.257,0.308-0.411,0.565-0.462,0.77l0.077,0.462
		c-0.104,0.514,0.256,1.232,1.078,2.156l-0.154,0.385c-0.411,0.206-0.873,0.514-1.386,0.924h-0.23
		c0.153,0.257,0.256,0.488,0.308,0.693c-0.359,0.308-0.693,0.616-1.001,0.924c-0.462,0.411-0.692,0.796-0.692,1.155
		c0,0.206,0.076,0.411,0.23,0.616c-0.924,0.154-2.054,0.591-3.388,1.309l0.154,0.308c0.308,0.104,0.77,0.334,1.386,0.693
		c-0.104,0.257-0.565,0.539-1.386,0.847l-0.308-0.154c-0.309-0.358-0.616-0.539-0.924-0.539c-0.258,0-0.706,0.09-1.348,0.27
		c-0.642,0.181-1.168,0.27-1.578,0.27c-0.667,0-1.822,0.154-3.464,0.462c-1.848,0.36-2.926,0.693-3.233,1.001
		c0.154,0,0.743-0.077,1.771-0.231c-0.565,0.052-1.154,0.128-1.771,0.231c-0.616,0.103-0.924,0.488-0.924,1.155
		c0,1.437,0.218,3.837,0.654,7.198c0.436,3.362,0.654,5.864,0.654,7.506c0,0.77-0.052,1.771-0.154,3.002
		c-0.153,1.54-0.23,2.515-0.23,2.925c0.616,0.616,1.925,0.989,3.926,1.116c2.002,0.129,3.361,0.552,4.08,1.271
		c-0.153-0.103-0.308-0.179-0.462-0.231c-0.257,0.104-0.615,0.257-1.077,0.462c0.77,0.462,1.59,0.693,2.463,0.693
		c1.744,0,5.362-1.001,10.855-3.002l0.538,0.077c1.282-0.718,2.156-1.051,2.618-1l1-1.001l0.386,0.616l0.308,0.077l3.156-1.462
		L285.743,49.932z M242.248,54.012v-0.385c0-0.05-0.027-0.127-0.077-0.231l-0.154-0.154c-0.104,0-0.206,0-0.308,0
		c-0.206-0.051-0.462-0.205-0.771-0.462c-0.205-0.051-0.514-0.127-0.924-0.231c-0.77-0.41-1.797-0.616-3.079-0.616h-0.23
		l-0.231,0.231c0.82,0.412,1.643,0.822,2.464,1.232c1.026,0.514,1.898,0.77,2.617,0.77
		C241.862,54.166,242.094,54.115,242.248,54.012z M284.743,53.396l-0.386-0.385h-0.308l0.308,0.77l0.231-0.154L284.743,53.396z"/>
</g>
<g>
	<path fill="#FFFFFF" d="M344.256,49.657c-0.36,0.308-0.539,0.745-0.539,1.309c0,0.359,0.025,0.912,0.077,1.655
		c0.05,0.745,0.076,1.271,0.076,1.578c0,0.514-0.167,1.476-0.5,2.887c-0.334,1.412-0.629,2.348-0.886,2.81
		c-0.359,0.616-1.36,1.822-3.002,3.618c-1.797,1.899-2.977,2.925-3.541,3.079l-0.154-0.539c-1.643,0.103-2.849,0.667-3.618,1.693
		c-0.514,0-0.898-0.281-1.154-0.847l1-1.078c-0.205-0.718-0.744-1.078-1.616-1.078c-1.283,0-3.079,0.719-5.389,2.156l0.847,3.464
		l-0.231,1.155l0.386,0.231c0.256,0.052,0.462,0.077,0.615,0.077c0.975,0,2.566-0.539,4.773-1.617
		c1.949-0.974,3.412-1.848,4.388-2.617c0.513-0.103,1.052-0.154,1.617-0.154c0.512,0,1.051,0.052,1.616,0.154
		c0,0.052,0.256,0.719,0.77,2.001c0.257,0.667,0.334,1.386,0.231,2.156c0.308,0.308,0.666,0.975,1.078,2.001
		c-0.822,1.643-1.386,3.183-1.694,4.619c-0.514,0.257-1.335,0.642-2.463,1.155c-0.412-0.103-0.797-0.333-1.155-0.693
		c-0.565,0-1.206,0.128-1.925,0.385c-0.924,0.359-1.539,0.565-1.848,0.616l-0.847-0.231l-1.693,0.539l0.616-0.539
		c-1.232-0.05-1.644-0.077-1.232-0.077c-1.027,0-1.72,0.437-2.078,1.309l0.308,0.539c0.257,0.052,0.513,0.077,0.771,0.077
		c0.718,0,1.82-0.205,3.31-0.616c1.488-0.41,2.643-0.616,3.465-0.616c0.666,0,1.18,0.077,1.539,0.231
		c0.41,0.308,1.001,0.744,1.771,1.309c0.309,0.154,0.771,0.385,1.386,0.693c0.103,0.104,0.564,1.027,1.386,2.771
		c0.719,1.54,1.155,2.54,1.31,3.002v2.156c0,0.154,0.038,0.398,0.115,0.731c0.077,0.334,0.115,0.577,0.115,0.731
		c0,0.411-0.385,1.27-1.154,2.579c-0.771,1.309-1.207,2.271-1.31,2.887c-1.283,0.206-3.361,1.796-6.235,4.773
		c-0.308,0.462-0.821,1.078-1.54,1.848l-0.308-0.616c-0.359,0.103-1.771,0.256-4.234,0.462c-0.667,0.051-2.669,0.77-6.004,2.156
		c-0.258-0.257-0.412-0.565-0.462-0.924l-0.231-0.231c-0.206,0.154-0.437,0.256-0.692,0.308l-0.462-0.693
		c-0.924-0.104-2.105-0.796-3.542-2.079c-0.104-0.462-0.18-1.386-0.23-2.771l-0.462-0.385l0.077-0.231l0.153-0.077l0.154-0.077
		l-0.077-0.077c-0.308-0.104-0.565-0.154-0.77-0.154c-0.565,0-1.015,0.308-1.348,0.924c-0.334,0.616-0.629,1.206-0.885,1.771
		c-0.309-0.052-0.591-0.077-0.847-0.077c-0.309,0-1.798,0.333-4.466,1c-1.231-0.154-2.592-0.821-4.08-2.001
		c-1.643-1.335-2.848-2.13-3.618-2.386l0.154-0.462c-0.206-0.667-0.873-1.565-2.002-2.695L297.219,95l0.462-0.77l-0.231-0.385
		c-0.514,0.359-0.668,0.976-0.462,1.848c-0.308,0.206-0.591,0.719-0.847,1.54c-0.308,1.078-0.539,1.719-0.693,1.925h-0.308
		c-0.359-0.052-0.847,0.231-1.463,0.847c-0.615,0.616-1.027,0.974-1.231,1.078c-1.078,0.103-2.259,0.358-3.541,0.77
		c-0.873-0.206-1.463-0.667-1.771-1.386c-0.874-0.257-2.156-0.616-3.85-1.078l-0.23-0.154c0-0.104,0.076-0.18,0.23-0.231
		c-2.823-1.95-4.234-3.566-4.234-4.85l0.386-0.616l-1.001-0.385l-0.154-0.308c0.103-0.05,0.18-0.154,0.231-0.308h-0.077h-1.617
		c0-0.616,0.309-0.975,0.924-1.078l0.077,0.385c0.154-0.051,0.539-0.179,1.155-0.385c0.462-0.154,0.872-0.231,1.231-0.231
		l0.924,0.231c2.104-0.872,4.465-2.668,7.082-5.389l-0.847,0.385l1.771-5.773c-0.924-4.105-1.309-8.134-1.154-12.087l-0.309-0.847
		l0.539-0.616c-0.257-1.59-0.385-2.591-0.385-3.002c0-0.564,0.103-1.359,0.308-2.387c0.309-1.231,0.487-2.052,0.539-2.463
		c0.051-0.974,0.205-2.489,0.462-4.542c0.051-0.102,0.18-0.436,0.385-1.001c0.154-0.41,0.231-0.718,0.231-0.923l1.001-0.308l1.309,1
		c0.103-1.078,0.487-2.617,1.154-4.619l0.462,0.231c0.154-0.256,0.436-0.616,0.847-1.078c0.051,0.052,0.154,0.104,0.309,0.154
		l0.23,0.077v-0.462l0.847-0.462l0.077-0.308c0.103-0.051,0.358-0.127,0.771-0.231c-0.309-0.718-1.259-1.848-2.849-3.387
		c-1.335-1.282-2.105-2.489-2.31-3.619c0.051-0.41,0.179-1.026,0.385-1.847c0.564-1.744,1.565-2.926,3.002-3.542
		c1.026-0.462,2.566-0.693,4.619-0.693c5.543,0,9.135,0.129,10.778,0.385c0.512,0.052,2.129,0.385,4.85,1.001
		c2.412,0.514,3.798,0.77,4.157,0.77c1.386,0,3.746-0.641,7.083-1.925c3.335-1.282,5.619-1.924,6.852-1.924
		c0.718,0,1.141,0.051,1.27,0.154c0.128,0.104,0.347,0.488,0.654,1.155c0,0.052,0.358,0.539,1.078,1.462l0.077,0.462
		c0.82,0.668,1.771,1.592,2.849,2.771c-0.412,2.31-1.104,4.184-2.079,5.62h0.462C339.585,44.987,341.792,46.989,344.256,49.657z
		 M315.002,65.824c-0.514-0.051-1.001-0.231-1.463-0.539l-0.693,0.154l-0.615-0.231c-0.668,0.257-1.617,0.334-2.849,0.231
		c-1.693,0.719-3.388,1.438-5.081,2.156c-2.053,1.027-3.311,2.259-3.772,3.695c0-0.358-0.076-0.872-0.23-1.54
		c-0.359,0.412-0.565,1.182-0.616,2.31c-0.052,0.822-0.104,1.668-0.153,2.541l-0.539-4.311c0,0.667-0.181,1.643-0.539,2.925
		c-0.359,1.284-0.539,2.232-0.539,2.849c0,3.695,0.82,6.466,2.464,8.314c-0.104,0.514-0.231,1.309-0.385,2.387
		c0.256,0.719,0.385,1,0.385,0.847c-0.258,0.104-0.693,0.514-1.309,1.232v0.154l0.076,0.154l0.154,0.077
		c0.204-0.102,0.462-0.154,0.77-0.154c0.309,0,0.59,0.052,0.848,0.154c-0.565,0-1.001,0.154-1.31,0.462l0.231,0.616l-0.539,0.077
		l0.308,0.077h0.309c0.102,0,0.27-0.025,0.5-0.077c0.231-0.05,0.397-0.077,0.501-0.077l-0.616-0.616
		c0.204-0.205,0.924-0.358,2.155-0.462c1.642-0.05,2.464-0.102,2.464-0.154c1.128-0.154,2.065-0.578,2.81-1.271
		c0.743-0.693,1.475-1.397,2.194-2.117c2.258-1.848,3.874-3.9,4.85-6.159l-2.155-0.154l-0.077,0.077l0.308,0.231v0.231h-0.692
		c-1.283-0.051-2.9,0.488-4.85,1.617h-0.231c0.051,0.154,0.18,0.257,0.385,0.308l0.077,0.231c-1.489,0.412-2.694,0.745-3.618,1.001
		c-0.668-0.205-1.182-0.462-1.54-0.77l0.924-0.385l-1.231-0.308c-0.052-0.05-0.462-0.641-1.231-1.771
		c-0.462-0.616-0.693-1.334-0.693-2.155c0-2.72,0.847-4.824,2.541-6.313c0.563,0,1.051-0.308,1.462-0.924
		c0.616-0.872,0.975-1.359,1.078-1.462l8.545,0.693C313.975,68.698,314.386,67.415,315.002,65.824z M299.143,90.381l-0.23-0.693
		h-0.231l-0.076,0.231c-0.052,0.154-0.077,0.308-0.077,0.462l-0.077,0.077c0,0.104,0.051,0.18,0.154,0.231l0.23,0.077
		L299.143,90.381z M330.629,46.039c-0.514-0.154-1.052-0.231-1.616-0.231c-0.616,0-1.54,0.052-2.771,0.154
		c-1.231,0.103-2.155,0.154-2.771,0.154c-1.591,0-3.722-0.589-6.39-1.771c-2.669-1.18-4.671-1.796-6.005-1.848l0.693,0.616h-0.771
		c-0.359,0-0.873-0.039-1.539-0.115c-0.668-0.077-1.155-0.116-1.463-0.116c-1.182,0-1.925,0.077-2.232,0.231
		c-0.462,0.257-1.078,0.783-1.848,1.578c-0.77,0.796-1.335,1.322-1.693,1.578c-0.104,0.052-0.616,0.154-1.54,0.308
		c-0.668,0.104-1.053,0.411-1.154,0.924c2.258,0.667,5.234,1.104,8.93,1.309c4.927,0.308,7.93,0.539,9.007,0.693
		C322.084,48.169,326.473,47.014,330.629,46.039z M330.398,54.199c-0.411-0.05-0.821-0.077-1.231-0.077
		c-1.438,0-3.4,0.847-5.89,2.541c-2.49,1.693-4.068,2.541-4.734,2.541c-0.616,0-1.207-0.295-1.771-0.886
		c-0.565-0.589-0.95-0.936-1.155-1.039c-0.565-0.154-1.386-0.385-2.463-0.693l-0.309-0.308h-5.773l1.386,0.385
		c-0.052,0-0.643,0-1.771,0c-1.335,0-2.336,0.539-3.003,1.617c-1.026,0.052-2.155,0.206-3.387,0.462v1h0.077
		c0.358-0.205,0.615-0.462,0.77-0.77l0.308-0.154h0.385c0.359,0,0.924,0.039,1.694,0.116c0.77,0.077,1.359,0.115,1.771,0.115
		c0.718,0,1.771-0.025,3.156-0.077c1.386,0,2.412,0,3.079,0c3.08,0,5.439,0.282,7.083,0.847c0.974-0.154,2.643-0.744,5.004-1.771
		c1.642-0.77,3.311-1.54,5.004-2.31C329.141,55.534,329.73,55.021,330.398,54.199z M300.99,84.146
		c-0.104,0.514-0.23,1.309-0.385,2.387c0-0.154,0-0.385,0-0.693c0-0.102,0.077-0.436,0.231-1.001c0.102-0.41,0.102-0.77,0-1.078
		L300.99,84.146z M302.992,89.997c-0.206-0.205-0.411-0.308-0.616-0.308c0.103,0-0.104,0.026-0.615,0.077l-0.386,0.385
		c0.103,0.052,0.205,0.077,0.309,0.077c0.153,0,0.371-0.039,0.654-0.116C302.619,90.035,302.838,89.997,302.992,89.997z
		 M318.081,94.154l-0.077-0.385l-0.308-0.154c-0.206-0.051-0.385-0.103-0.539-0.154v0.462c0.256,0.154,0.462,0.231,0.616,0.231
		h0.153H318.081z M333.4,88.534c-0.719,0.206-1.668,1.053-2.848,2.541c-1.182,1.489-2.284,2.232-3.311,2.232
		c-0.72,0-1.36-0.127-1.925-0.385h0.077l0.23-0.077c-0.667-0.256-1.514-0.974-2.54-2.155c-0.924-1.026-1.592-1.54-2.002-1.54
		c-1.335,0-2.386,1.001-3.156,3.002c0.924,0.104,2.335,0.539,4.234,1.309c1.898,0.77,3.412,1.154,4.542,1.154
		c1.796,0,3.233-0.616,4.312-1.847C331.477,92.204,332.271,90.793,333.4,88.534z M322.161,94.308
		c-0.616-0.41-1.616-0.897-3.002-1.463c0.102,0.36,0.538,0.667,1.309,0.924C321.031,93.974,321.596,94.154,322.161,94.308z
		 M337.558,80.451h-0.308l-0.077-0.385h0.077C337.353,80.169,337.454,80.296,337.558,80.451z M342.408,94.615l-1.078,1.694
		c0.204-0.308,0.487-0.795,0.847-1.463L342.408,94.615z"/>
</g>
<g>
	<path fill="#FFFFFF" d="M140.581,83.051l1.19-0.173c-1.098-0.109-2.107-0.094-3.06-0.001
		C139.268,82.842,139.879,82.884,140.581,83.051z"/>
	<path fill="#FFFFFF" d="M232.76,144.518c2.26-3.404,5.666-5.601,10.226-6.589c-1.634-0.085-3.246-0.014-4.83,0.216
		c-2.226,0.323-5.416,0.949-9.573,1.875c-4.161,0.931-7.274,1.542-9.335,1.841c-0.477,0.069-0.964,0.06-1.463-0.031
		c-1.543,0.55-18.467,7.568-21.869,7.576c-4.246-0.192-6.921-0.21-8.03-0.05c-1.428,0.208-3.026,1.495-4.788,3.856
		c-0.089-0.018-0.17-0.032-0.259-0.049c-0.001,0.022,0.001,0.044-0.001,0.065c1.502,0.215,2.852,0.433,4.004,0.654
		c6.508,0.192,9.855,0.355,10.038,0.488c-3.061,1.257-5.362,2.157-6.9,2.703c-4.037,1.235-7.086,2.001-9.147,2.3
		c-1.703-0.561-6.142-1.539-13.31-2.93c-5.491-0.984-9.6-2.496-12.326-4.531l2.921-1.64c-1.542-0.585-4.894-1.314-10.042-2.189
		c-4.153-0.691-7.395-2.087-9.723-4.179c-2.332-2.093-3.917-3.808-4.758-5.145l0.407-0.545l0.442-0.307l0.476-0.069l-2.082-2.616
		l0.884-0.614c2.129,0.177,4.356,0.99,6.673,2.435c6.731-1.624,10.018-2.427,9.862-2.404c0.632-0.092,1.392,0.125,2.28,0.642
		l24.212-18.921c-1.03-3.74-1.444-6.597-1.244-8.571c0.217-2.949,0.529-5.827,0.933-8.644l-0.306-0.442
		c-0.614,0.252-0.988,0.471-1.122,0.649l-1.194-1.528l-0.004-1.702l0.339-1.021c0.563-0.567,1.219-1.065,1.97-1.501l-0.142-2.654
		c-4.545-3.389-6.862-5.404-6.955-6.04c-0.091-0.632-0.028-1.291,0.2-1.974c-2.956-2.488-5.146-3.628-6.575-3.421
		c-0.52,2.02-0.776,3.599-0.771,4.73c-2.611-1.239-20.163,4.397-21.524,3.945l1.9-1.978c-2.226-0.809-3.519-1.35-3.882-1.624
		l-0.579-0.646c0.084-0.488,0.273-0.83,0.56-1.038c-0.072,0.009-0.151,0.006-0.223,0.017c-1.904,0.276-4.138,1.087-6.697,2.431
		c-3.332,1.619-5.542,2.59-6.627,2.907c-1.91-0.854-3.069-2.714-3.483-5.572c-0.35-3.512-0.922-5.78-1.717-6.8
		c-3.501-4.027-5.413-7.153-5.736-9.378c-0.069-0.476-0.126-0.87-0.173-1.19c0.317-0.046,1.269-0.185,2.858-0.415
		c0.631-0.092,1.648-0.076,3.044,0.044c1.393,0.125,2.487,0.125,3.284,0.009c1.904-0.276,4.633-1.281,8.192-3.012
		c3.555-1.732,6.195-2.802,7.92-3.216c4.08-0.916,27.774-2.675,28.07-2.881c0.77-0.271,1.678-0.16,2.724,0.334l-0.815,1.091
		l-0.679,0.342c0.5,0.091,0.987,0.099,1.463,0.03c-0.32,0.046,2.051-0.943,7.104-2.976l-5.303,1.985l-1.329-0.78
		c1.015-1.929,2.158-2.987,3.43-3.171c0.632-0.092,1.37-0.036,2.212,0.164c1.896-3.678,4.987-5.829,9.272-6.451l3.199,0.265
		l-0.345-2.38c-2.972-0.378-5.243-0.371-6.805,0.015c0.041-1.95,1.035-3.47,2.984-4.565c-1.051-2.764,0.1-6.009,3.448-9.739
		l-0.956-1.562c-0.139-0.953,0.022-2.07,0.485-3.352c0.46-1.283,0.648-2.241,0.556-2.877c-0.484-3.333-2.145-5.28-4.981-5.841
		c-2.302-4.688-4.043-7.758-5.227-9.208c-2.57-3.189-5.604-4.535-9.093-4.028c-5.397,0.784-34.128,4.695-43.179,9.329
		c-9.05,4.637-16.039,7.311-20.957,8.025c-4.762,0.691-15.438-0.27-32.021-2.888c-13.931-2.19-25.019-4.307-33.254-6.355
		c-4.376,1.121-7.561,1.503-9.559,1.144c-4.375,1.121-8.369,5.431-11.98,12.921c2.243,8.753,3.776,15.417,4.604,19.995l-0.165,2.212
		c5.125,9.629,12.669,15.261,22.628,16.892l0.239-0.035c0.046,0.32-0.079,0.581-0.373,0.783c-0.296,0.207-0.43,0.389-0.407,0.546
		c5.509,0.012,12.692,1.481,21.546,4.408l2.004-1.264l5.683,0.634c0.088-0.5,0.246-1.088,0.473-1.771
		c2.399-1.32,4.234-2.074,5.506-2.258c1.137,1.134,1.809,2.412,2.016,3.84c0.623,4.285,1.367,7.743,2.235,10.372
		c0.225,0.453-0.358,3.132-1.751,8.033c-3.723-1.078-7.446-2.159-11.167-3.241c-4.539-1.123-15.939,1.482-19.113,1.943
		c-3.653,0.53-6.483,2.807-8.489,6.824l-3.03-0.775c-1.087,1.456-1.926,5.992-2.521,13.615c-0.596,7.622-0.709,12.706-0.34,15.243
		c1.636,11.271,5.151,16.512,10.548,15.728c0.632-0.091,11.826-4.125,18.49-6.228c2.154,0.337,3.812,0.582,4.969,0.737
		c1.04-0.637,1.708-1.057,2.004-1.264c1.631,0.09,2.927,0.062,3.879-0.077c0.544,0.407,0.93,0.837,1.159,1.29
		c-0.59,0.413-1.269,0.754-2.039,1.025l0.172,1.19c0.117,1.928,1.108,3.729,2.973,5.403c-1.396,4.905-2.408,8.535-3.037,10.894
		c-2.065,0.301-3.31,0.644-3.74,1.03c-2.672,2.818-4.776,5.068-6.314,6.749l-0.031,1.464c0.438,3.017,0.386,5.455-0.153,7.314
		l-1.022-0.337c-0.389-0.431-0.762-0.778-1.125-1.053l-0.476,0.069c-2.585,1.188-4.172,1.984-4.758,2.393
		c-6.166-0.39-10.729-0.772-13.703-1.15c-0.066,0.038-0.133,0.074-0.201,0.11c-0.355,0.343-0.593,0.667-0.692,0.971l-0.399,0.2
		c-0.1,0.22-0.218,0.43-0.349,0.632c0.128-0.017,0.237-0.028,0.376-0.049c1.428-0.207,2.527,0.119,3.302,0.979l0.208,1.428
		l1.324-0.922c1.108-0.16,2.711,0.256,4.801,1.248l-0.983,1.602c-1.089,0.322-2.665,0.064-4.731-0.771l-1.394,0.445l-0.787-2.073
		c-2.427,0.029-4.277,0.134-5.545,0.317l-1.598,0.72c-6.763-0.8-11.584-1.64-14.465-2.521c-2.495,0.688-4.364,1.204-5.61,1.544
		c-1.089,0.321-2.26,0.085-3.506-0.706l0.684,1.359l3.779,0.911l-1.325,0.921c-5.039-1.214-8.773-2.373-11.201-3.479l3.647,3.36
		l-1.766,1.229l-4.663-0.296l0.685,1.36l-0.204,0.272c-1.111,0.16-1.672,0.485-1.682,0.973c-0.013,0.488-0.23,0.926-0.66,1.312
		l6.34,5.157c-0.135,1.318,1.016,3.097,3.449,5.334c2.429,2.241,3.775,4.233,4.028,5.979l1.462,0.03
		c2.337,1.605,3.907,2.92,4.704,3.937c3.066,2.149,5.396,3.676,6.985,4.577c2.499,2.718,5.03,5.348,7.588,7.893
		c2.558,2.547,6.204,3.962,10.948,4.246c3.763,0.263,6.124,0.326,7.077,0.188c4.285-0.621,7.176-0.231,8.678,1.172l0.069,0.476
		c-0.274,0.363-0.466,0.714-0.575,1.057l-0.169,0.51c2.875-1.39,5.062-2.519,6.559-3.383c2.335,0.47,4.161,0.771,5.479,0.906
		c5.932-3.778,10.336-6.932,13.213-9.454c1.975,0.2,4.239-0.94,6.798-3.417c1.177,0.315,2.616,0.186,4.319-0.384
		c5.092-15.162,9.9-25.584,14.424-31.265c6.837,5.813,10.783,8.972,11.828,9.465l-1.053,1.126c1.206,1.608,2.593,3.918,4.166,6.931
		l-0.23,3.437l2.6,6.187c1.09,0.813,2.268,1.13,3.541,0.944c0.632-0.092,1.614-0.317,2.941-0.67c1.324-0.355,2.306-0.578,2.941-0.67
		c8.411-1.222,14.893,1.564,19.446,8.359c5.647,0.962,9.983,1.792,13.001,2.488c6.031,0.256,9.718,0.535,11.06,0.825l2.312-0.821
		c0.384-0.704,0.947-1.273,1.698-1.705c-0.643-2.177,0.146-4.274,2.367-6.3c2.217-2.022,3.247-3.593,3.085-4.701
		c0.472-1.204,1.742-1.955,3.806-2.254c2.06-0.3,3.161-0.543,3.298-0.722c2.483-4.091,4.848-7.348,7.089-9.781
		c0.768-1.406,1.915-4.653,3.448-9.738c1.216-3.902,17.159-13.779,18.925-16.144l-2.654,0.143c0.155-1.154,1.477-2.646,3.971-4.467
		c2.489-1.819,4.004-3.657,4.547-5.521l-3.199-0.265l4.995-2.427L232.76,144.518z M21.606,174.465l-2.043-0.676l0.918-0.376
		l2.177-0.072C22.251,173.886,21.899,174.264,21.606,174.465z M34.501,174.539l-0.918,0.376c-4.607-0.464-7.546-1.172-8.817-2.124
		c4.442-0.645,7.901-0.255,10.38,1.168L34.501,174.539z"/>
</g>
<g>
	<path fill="#FFFFFF" d="M55.901,235.556c-0.167,0.034-0.425,0.234-0.776,0.601c-0.35,0.367-0.675,0.567-0.976,0.601
		c-0.268,0.268-1.735,0.885-4.403,1.852c-0.234-0.167-0.568-0.333-1.001-0.5l-0.3,0.05v0.2l0.15,0.1h-0.15l-0.05-0.1l-0.601,0.25
		l0.1-0.101c0-0.066,0.05-0.082,0.15-0.05l0.15-0.1h0.05l-0.2-0.351c-0.2,0-0.584-0.183-1.151-0.551l-0.05,0.101l0.1,0.25l0.3,0.15
		l-0.05,0.1c-0.067-0.066-0.134-0.1-0.2-0.1l0.1,0.15l-0.1-0.101c-0.267-0.033-0.534-0.183-0.8-0.45
		c-0.368-0.333-0.584-0.551-0.651-0.65c-0.067-0.101-0.15-0.2-0.25-0.301c-0.2-0.032-0.442-0.274-0.726-0.726
		c-0.284-0.45-0.509-0.708-0.676-0.775l-0.05,0.101v-0.251l-0.25-0.2l-0.05-0.1c-0.5-0.367-1.084-0.767-1.751-1.201
		c-0.134,0.067-0.217,0.184-0.25,0.351c0,1.635,0.15,2.819,0.45,3.553c0.4,0.9,1.234,1.735,2.502,2.502
		c0.4,0.334,1.084,0.685,2.052,1.051c0.667-0.267,1.368-0.4,2.102-0.4l0.2-0.25l0.2,0.2c0.033-0.101,0.117-0.184,0.25-0.25
		c0.4-0.033,0.733-0.051,1.001-0.051c0.033,0,0.083,0.018,0.15,0.051s0.117,0.05,0.15,0.05l0.2-0.05l0.1,0.149l0.1-0.35
		c0.267,0.2,1.184,1.334,2.752,3.402c0,0.101,0.033,0.218,0.1,0.351c0.267,0.167,0.65,0.45,1.151,0.851
		c0.2,1.001,0.3,1.901,0.3,2.702c0,0.268,0.05,0.668,0.15,1.201c-0.1,0.867-0.234,1.969-0.4,3.302
		c-0.2,0.868-0.534,1.819-1.001,2.853c-0.134,0.234-0.3,0.551-0.5,0.951c-0.233,0.733-0.467,1.468-0.7,2.201
		c-0.234,0.734-0.601,1.368-1.101,1.901c-0.1,0.168-0.284,0.4-0.55,0.701l-0.2,0.1c-0.368,0.368-0.918,0.618-1.651,0.751
		c-0.601,0.1-0.984,0.317-1.151,0.65l-0.3-0.25c-0.434,0.134-1.051,0.367-1.852,0.7c-0.2,0.2-0.868,0.567-2.001,1.101l-0.15,0.101
		c0-0.034,0-0.084,0-0.15h-0.05c-0.034,0-0.55,0.167-1.551,0.501l-0.05-0.2l-0.1-0.051l-0.05,0.051v0.2l-0.05-0.2
		c-0.067-0.034-0.167-0.051-0.3-0.051l-0.1-0.05c-0.034-0.067-0.067-0.117-0.1-0.15l-0.05,0.101c-0.2-0.101-0.467-0.2-0.8-0.301
		c-0.134-0.133-0.3-0.316-0.5-0.55c-0.1-0.066-0.3-0.184-0.601-0.351c-0.934-0.366-1.701-1.233-2.302-2.602v-0.101h0.15l-0.2-0.2
		c-0.4,0.101-0.968,0.234-1.702,0.4c-0.234,0.067-0.484,0.209-0.75,0.426c-0.268,0.217-0.668,0.325-1.201,0.325l-0.2,0.149
		c-0.367-0.232-0.618-0.6-0.75-1.101l0.1-0.25l-0.1-0.25c-0.1-0.101-0.217-0.167-0.35-0.2c-0.134,0.167-0.368,0.384-0.701,0.65
		l-0.05-0.15l-0.2-0.05c-0.034,0.268-0.117,0.551-0.25,0.851c0.033-0.333,0.083-0.833,0.15-1.501l-0.1-0.301l-0.15,0.051
		c0-0.233,0.033-0.601,0.1-1.102c0.167-0.633,0.433-1.442,0.801-2.427c0.367-0.983,0.833-2.127,1.401-3.428
		c0.167-0.166,0.4-0.467,0.7-0.9l-0.25-0.551l0.05-0.25l0.1-0.15c0.633-0.2,1.134-0.433,1.501-0.7
		c0.5-0.267,1.117-0.751,1.852-1.451c1.333,0.334,2.402,0.801,3.202,1.401l-0.4-0.45v0.45l0.2,0.149h0.15v0.101l0.25,0.3
		c-0.034-0.032-0.1-0.066-0.2-0.1v0.1l0.4,0.701l-0.1-0.051v0.101c0-0.101,0.033-0.033,0.1,0.2h0.65c0,0.567,0.167,0.9,0.5,1.001
		h-0.1l-0.1,0.149c0.1,0.4,0.233,0.769,0.4,1.102h0.5c-0.034,0.2,0,0.4,0.1,0.601l-0.05,0.25c0.067,0.233,0.183,0.601,0.351,1.101
		c0.066,0.134,0.283,0.317,0.65,0.551l0.15,0.25l0.651,0.3c2.769-1.634,4.22-2.984,4.354-4.053c-0.3-0.333-0.685-0.867-1.151-1.602
		l0.05-0.25c0.167,0.101,0.367,0.367,0.601,0.801h0.2c-0.268-0.4-0.651-1.001-1.151-1.802c-0.067-0.467-0.268-1.134-0.601-2.001
		c-0.334,0.167-0.734,0.283-1.201,0.35c-0.667,0.067-1.084,0.117-1.251,0.15l1.952-0.351l0.2-0.149c-0.134-0.033-0.317-0.033-0.55,0
		l0.2-0.101h-0.551h-0.4c-0.033,0.034-0.033,0.067,0,0.101c-0.434,0.033-0.917,0.083-1.451,0.149l-0.1,0.101l0.1,0.25
		c-0.935,0-1.602-0.167-2.002-0.5l-0.2,0.05l0.15,0.2c0.4,0.233,0.883,0.384,1.451,0.45c-0.668-0.066-1.035-0.083-1.101-0.05
		c-0.067-0.267-0.2-0.417-0.4-0.45h-0.15l0.05-0.15h-0.05l-0.25,0.1c-0.634-0.1-1-0.149-1.101-0.149h-0.15l0.451,0.4l-0.3-0.251
		c-0.334,0.034-0.468,0.051-0.4,0.051h-0.2v-0.2l-0.35,0.149c-0.668-0.5-1.268-0.75-1.802-0.75c-0.067,0-0.133,0.017-0.2,0.05
		l-0.1,0.3l-0.2-0.05l-0.15,0.05l-0.2-0.2l-0.35,0.15c0.066,0,0.116,0.018,0.15,0.05l-0.05,0.15c-0.034-0.1-0.209-0.333-0.525-0.7
		c-0.317-0.367-0.525-0.567-0.625-0.601l-0.05,0.05l-0.05,0.25c-0.167-0.232-0.384-0.601-0.65-1.101
		c-0.1-0.366-0.25-0.9-0.451-1.602l-0.15-0.05c-0.067-0.232-0.15-0.433-0.25-0.601l-0.1-0.05c-0.067-0.801-0.233-1.451-0.5-1.951
		l0.05-0.15c-0.834-3.336-1.251-5.305-1.251-5.904c0-1.034,0.701-2.228,2.102-3.578c1.401-1.352,3.019-2.493,4.854-3.428
		c2.034-1.001,3.903-1.501,5.604-1.501c0.5,0,0.951,0.2,1.351,0.601l0.25-0.15c0.367,0.3,0.984,0.684,1.852,1.15l0.05,0.2l0.15,0.15
		c1.034,0.634,2.568,1.951,4.604,3.953l0.25-0.2c0.5,0.534,1.184,1.335,2.051,2.402c0.066,0.3,0.25,0.7,0.551,1.2
		C55.551,235.289,55.701,235.423,55.901,235.556z M45.743,237.857v0.051l-0.2-0.051l0.05-0.25l-0.2-0.3L45.743,237.857z"/>
	<path fill="#FFFFFF" d="M81.521,241.61c0,0.501-0.184,1.185-0.55,2.052c-0.368,0.868-0.734,1.401-1.101,1.602
		c-0.1,0.067-0.334,0.1-0.701,0.1c-0.467,0-0.734,0.251-0.8,0.751l-0.25-0.1c-0.667,0.367-1.418,1.084-2.251,2.151h0.05l-0.15,0.05
		l0.05,0.2c-0.3,0.334-0.35,0.518-0.15,0.551v0.1h-0.15l-0.05,0.101l-0.05,0.25c-0.067,0.067-0.134,0.167-0.2,0.3v0.101h-0.05
		v-0.301c-0.1,0.101-0.234,0.234-0.4,0.4c-0.167,0.368-0.368,0.769-0.601,1.201c-0.1,0.067-0.184,0.134-0.25,0.2l0.05,0.15
		l-0.15,0.05c-0.134,0.134-0.217,0.3-0.25,0.5c-0.133,0.134-0.267,0.343-0.4,0.626c-0.134,0.284-0.268,0.492-0.4,0.625v0.751
		c-0.3,0.233-0.618,0.7-0.951,1.401c-0.268,0.534-0.518,1.067-0.751,1.601l-0.2,0.101c0.033,0.067,0.083,0.134,0.15,0.2h-0.2
		l-0.05,0.1l0.05,0.351l-0.2,0.15c-0.234,0.434-0.284,0.984-0.15,1.651l-0.1-0.301l-0.1,0.05l-0.05,0.251l-0.25,0.3l0.05-0.05
		c-0.034,0.033-0.034,0.067,0,0.1l0.15,0.4l0.05,0.101l-0.35,0.45l0.05,0.15l0.05,0.05v0.2l-0.05-0.05
		c-0.034,0.033-0.034,0.083,0,0.149c-0.1,0.301-0.25,0.751-0.45,1.352c-0.034,0.334-0.117,0.801-0.25,1.401l0.25-0.251l-0.15,0.351
		l-0.1-0.1v0.1l-0.05,0.15l0.05,0.05c-0.468,0.3-0.818,0.767-1.051,1.401l-0.05-0.101c-0.034,0.033-0.083,0.051-0.15,0.051
		l0.15,0.35l0.2,0.05l-0.4,0.051l-0.45,0.25h-0.15c-0.067,0.032-0.083,0.1-0.05,0.2l0.1,0.05c-0.334,0.167-0.584,0.25-0.75,0.25
		l-0.15,0.101v0.1l0.05,0.15c0.1,0.033,0.183,0.116,0.25,0.25l-0.15-0.05l-0.351,0.05l-0.05-0.05c-0.268,0-0.651,0.066-1.151,0.2
		c-0.1,0.1-0.167,0.2-0.2,0.3l-0.351,0.351c-0.233-0.1-0.467-0.15-0.7-0.15c-0.234,0-0.4,0.051-0.5,0.15l-0.3,0.351
		c-0.268,0.066-0.65,0.1-1.151,0.1l-0.15-0.1c-0.067-0.168-0.125-0.317-0.175-0.45c-0.05-0.134-0.209-0.218-0.476-0.251
		c-0.067,0.066-0.15,0.101-0.25,0.101v-0.15l-0.3-0.1c-0.167-0.134-0.334-0.234-0.5-0.301l-0.2,0.05
		c-0.5-0.634-0.868-1.118-1.101-1.451c-0.434-0.667-0.668-1.2-0.701-1.601l-0.1-0.15c-0.234-0.134-0.317-0.2-0.25-0.2l-0.05,0.05
		l-0.05,0.15c-0.067-0.033-0.15-0.1-0.25-0.2c0.167-0.2,0.25-0.351,0.25-0.45v-0.05c-0.3-0.301-0.451-0.534-0.451-0.701l0.05-0.4
		l0.25-0.149l-0.25-0.101l0.2-0.351l-0.4-0.7l0.05-0.05c0.066,0,0.183-0.066,0.351-0.2c-0.4-0.7-0.601-1.935-0.601-3.703l0.2-0.15
		c0-0.032-0.017-0.35-0.05-0.95c0.133,0.334,0.351,0.834,0.651,1.501c0.133-1.201,0.2-1.768,0.2-1.701l0.1,0.3l0.15-0.149l0.05-0.4
		l0.25,0.35l0.15-0.45c0.133,0.134,0.351,0.301,0.65,0.501l0.1-0.501l0.25-0.05l0.4-0.65l0.7-0.2l0.05,0.15l0.1,0.1
		c0.267,0.067,0.601,0.317,1,0.751l0.2,0.1l0.05-0.05l0.05-0.101l0.05-0.05l0.1,0.101l1.301,0.45c0.167-0.233,0.4-0.634,0.701-1.201
		l-0.2-0.15l-0.4,0.101l0.351-0.101c-0.2-0.066-0.384-0.116-0.551-0.149l0.2-0.351l-0.25-0.5l0.15-0.501l-0.15-0.351l0.05-0.05v-0.2
		c-0.367-0.601-0.784-1.534-1.251-2.802c-0.034-0.066-0.05-0.133-0.05-0.2v-0.15l0.25-0.15c-0.5-1.334-1-2.201-1.501-2.602
		c-0.234-0.133-0.584-0.383-1.051-0.751c-1.135-1.101-1.885-2.093-2.252-2.978c-0.368-0.883-0.55-2.126-0.55-3.728
		c0-0.333,0.066-1.233,0.2-2.702c0.2-0.601,0.4-1.201,0.6-1.802c0.333-0.833,0.633-1.351,0.901-1.551l0.15,0.1l0.1-0.3
		c0.167,0.233,0.4,0.418,0.7,0.551c0.333-0.133,0.633-0.333,0.901-0.601l0.2,0.05v0.45c0.167-0.1,0.5-0.283,1-0.551
		c0.3,0.067,0.617,0.301,0.951,0.701c0.433,0.567,0.7,0.884,0.8,0.95c-0.1-0.1-0.217-0.2-0.35-0.3l-0.5,0.65
		c0.167,0.101,0.817,1.068,1.952,2.902c0.667,1.135,1.334,2.269,2.001,3.402l0.2-0.05c0.1,0.134,0.167,0.334,0.2,0.601
		c0.033,0.134,0.316,0.668,0.851,1.602c0.533,0.934,0.867,1.468,1.001,1.601c0.967-1.801,1.934-3.603,2.902-5.404
		c1.133-2.102,2.218-3.835,3.252-5.204c0.066-0.333,0.133-0.816,0.2-1.451v0.2c0-0.066,0.033-0.133,0.1-0.2h0.1l-0.2-0.65l0.05,0.15
		c0.066,0.134,0.167,0.268,0.3,0.4l0.05,0.3c0.066-0.133,0.1-0.3,0.1-0.5l0.05-0.05l-0.05-0.4l0.2,0.15l0.05-0.101v-0.2l0.15,0.101
		l0.2-0.051l-0.15-0.65l0.15,0.051c0.067,0.1,0.183,0.233,0.351,0.399c0-0.467,0.216-0.883,0.65-1.251l-0.05-0.45
		c0.1,0.067,0.2,0.15,0.3,0.25h0.2l-0.15-0.25c0.4,0.601,0.917,1.269,1.551,2.002v0.351l-0.2-0.2l-0.15,0.55
		c0.1,0.067,0.283,0.384,0.551,0.951c0.1,0,0.033,0.05-0.2,0.15c-0.067-0.033-0.134-0.083-0.2-0.15l-0.05,0.05
		c0.3,0.334,0.684,0.885,1.151,1.651c0.167,0.768,0.25,1.185,0.25,1.251c0-0.033-0.034-0.083-0.1-0.15v0.15l0.05,0.1
		c0.1,0.067,0.25,0.185,0.451,0.351l-0.05,0.05C81.221,239.093,81.521,240.477,81.521,241.61z M65.108,268.832
		c-0.467,0.233-0.851,0.351-1.151,0.351c-0.134,0-0.268-0.018-0.4-0.05c0.2-0.034,0.483-0.117,0.851-0.251
		c0.067-0.066,0.2-0.117,0.4-0.149l0.1-0.101l0.05-0.05v-0.05v0.05l-0.05,0.1l0.05,0.101L65.108,268.832z M78.919,233.955h-0.25
		l0.15,0.05h0.1V233.955z M80.771,244.963l-1.501,2.103l0.5-0.951v0.1h0.15L80.771,244.963z M81.621,239.209l-0.05,0.1
		c-0.067-0.066-0.117-0.149-0.15-0.25v-0.05h0.1c0.066,0,0.1,0.033,0.1,0.1V239.209z"/>
	<path fill="#FFFFFF" d="M106.841,256.172c0.033,0.134,0.05,0.301,0.05,0.501c0,0.233-0.059,0.659-0.175,1.275
		c-0.117,0.618-0.159,1.094-0.125,1.427c-0.2,0.1-0.484,0.317-0.851,0.65c-0.067,0.167-0.083,0.334-0.05,0.5l-0.5-0.1
		c-0.534,0-0.951,0.25-1.251,0.75l-0.65,0.501l-1.151-0.101c-0.3-0.433-0.584-0.683-0.851-0.75l-0.3,0.35l-0.4-0.149l-0.15,0.3
		c-0.333-0.566-0.884-1.367-1.651-2.401c-1.035,1.034-2.352,1.743-3.953,2.126c-1.602,0.384-2.652,0.81-3.153,1.276l0.25,0.05
		c-0.268,0.034-0.534-0.032-0.801-0.2l-0.05,0.05v0.15l0.05,0.101c-0.067-0.101-0.134-0.167-0.2-0.2h-0.1l-0.05,0.1
		c-0.534-0.333-1.018-0.601-1.451-0.801c-0.468-0.5-1.118-1.301-1.952-2.401c-0.3-0.601-0.801-1.484-1.501-2.652l-0.2-0.05
		l-0.15,0.2v0.25c-0.067-0.133-0.259-0.5-0.575-1.101c-0.317-0.601-0.776-1.468-1.376-2.603l-0.1-0.05
		c-0.067,0.033-0.1,0.067-0.1,0.1l0.05,0.2c-0.067-0.467-0.35-1.067-0.851-1.801l0.1-0.751c0-0.3-0.025-0.751-0.075-1.351
		c-0.05-0.601-0.075-1.067-0.075-1.401c0-1.567,0.217-2.752,0.651-3.553c0.233-0.434,0.383-0.867,0.45-1.301v-2.103
		c0-1.367,0.717-3.452,2.152-6.255c1.567-3.002,2.918-4.503,4.053-4.503c0.366,0,0.792,0.325,1.276,0.976
		c0.483,0.65,0.775,1.193,0.875,1.626c0.533,2.069,0.801,4.487,0.801,7.256c0,0.668-0.184,1.568-0.55,2.702
		c-0.434,1.301-0.685,2.186-0.751,2.652c0.066,0.233,0.167,0.567,0.3,1.001c0.367,0.768,0.867,1.969,1.501,3.603
		c0.767,0,1.267,0.1,1.501,0.3l0.4-0.1l0.2,0.1l0.15-0.1l0.05-0.101v-0.1l0.5-0.601v-0.2l-0.1-0.2v-0.05
		c0.433-0.533,0.783-1.418,1.051-2.652c0.367-1.701,0.583-2.668,0.65-2.902l-0.05-0.45c-0.368,0.9-0.551,1.435-0.551,1.602l-0.1-0.4
		l-0.25,0.2l0.35-0.801l-0.05-0.25c-0.067-0.066-0.15-0.133-0.25-0.2h0.2c-0.067-0.267-0.15-0.684-0.25-1.251l0.35,0.801v-2.252
		l-0.35-0.25l0.15,0.25c0.033-0.934,0.15-2.202,0.351-3.803l0.05,0.149l0.1,0.05l0.2-1.101c0.033-0.133-0.017-0.333-0.15-0.601
		c-0.134-0.267-0.2-0.45-0.2-0.55c0-0.066,0.05-0.567,0.15-1.502l0.3-0.1c0.4-1.468,1.167-2.585,2.302-3.353
		c0.567-0.367,1.834-0.934,3.803-1.701l0.25,0.55l0.05-0.1c0.066,0.1,0.158,0.209,0.275,0.325c0.117,0.117,0.308,0.225,0.576,0.325
		l-0.05,0.3l0.1,0.301l0.25,0.25c0.133,0.067,0.25,0.084,0.35,0.05c-0.034,0.134-0.05,0.268-0.05,0.4c0,0.268,0.05,0.668,0.15,1.201
		c0.1,0.534,0.15,0.935,0.15,1.201l-0.25,0.2c0,0.601,0.075,1.501,0.225,2.702c0.15,1.2,0.225,2.102,0.225,2.702
		c0,0.334-0.083,0.825-0.25,1.476c-0.167,0.65-0.25,1.126-0.25,1.427c0,0.467,0.083,0.75,0.25,0.851
		c-0.434,0.567-0.876,1.551-1.326,2.952s-0.675,2.452-0.675,3.152c0,0.134,0,0.317,0,0.551c0.033,0.268,0.05,0.45,0.05,0.55
		c0.267,0.067,0.383,0.4,0.351,1.001c0.533,0.734,1.217,1.885,2.051,3.453C106.941,254.171,107.141,254.905,106.841,256.172z
		 M87.325,259.875l-0.55-0.9C86.975,259.142,87.158,259.442,87.325,259.875z M92.079,262.678c-0.1,0.033-0.284,0.083-0.55,0.149
		l-0.1-0.1l-0.05-0.15L92.079,262.678z M96.833,237.607c0,0.101-0.034,0.301-0.1,0.601v-1.602c0,0.101,0.016,0.259,0.05,0.476
		C96.816,237.3,96.833,237.475,96.833,237.607z"/>
	<path fill="#FFFFFF" d="M131.26,258.224c-0.033,0.334-0.284,0.868-0.75,1.602c-0.367,0.601-0.5,1.218-0.4,1.852l-0.2-0.101
		c-0.2,0.268-0.5,0.635-0.9,1.102l-0.05,0.149l0.05,0.15l0.05,0.15l-0.05,0.149l-0.351-0.199l-1,0.199l-0.55-0.1
		c-0.668,0-1.035,0.2-1.101,0.601c-0.4-0.334-0.884-0.534-1.451-0.601c-0.167-0.133-0.284-0.366-0.35-0.7
		c-0.067-0.467-0.1-0.718-0.1-0.751l0.1-0.1c0-0.334,0.066-0.852,0.2-1.552c-0.1-0.333-0.25-0.851-0.451-1.551
		c-0.1-0.167-0.425-0.459-0.976-0.876s-0.909-0.826-1.076-1.226c0-0.601-0.118-1.435-0.351-2.502
		c-0.434,0.1-0.968,0.518-1.601,1.251c-0.734,0.9-1.235,1.435-1.501,1.601c0,0.268-0.083,0.668-0.25,1.201l0.25,0.4
		c-0.033,0.134-0.05,0.268-0.05,0.4c0,0.2,0.066,0.509,0.2,0.926c0.133,0.417,0.216,0.709,0.25,0.875c0,0.334,0.033,0.801,0.1,1.401
		h0.25c-0.3,0.601-0.634,0.951-1.001,1.051c-0.134,0.034-0.65,0.034-1.551,0c-0.2,0-0.442,0.093-0.726,0.275
		c-0.284,0.183-0.459,0.375-0.525,0.575c-0.167-0.033-0.334-0.05-0.5-0.05c-0.8,0-1.701,0.367-2.702,1.101
		c-0.4-0.367-1-0.867-1.801-1.501c-0.167-0.667-0.25-1.918-0.25-3.753c0-0.2-0.025-0.5-0.075-0.9c-0.05-0.4-0.075-0.717-0.075-0.951
		c0-0.1,0.05-0.2,0.15-0.3l0.1,0.351c0.133-0.2,0.25-0.733,0.351-1.602c0.1-0.733,0.267-1.134,0.5-1.201v-1.501
		c0-0.434,0.333-1.718,1-3.854l0.15-0.2l-0.2-0.3h0.2l-0.05-0.301c0-0.566,0.1-1.167,0.3-1.801c-0.067,0.268-0.083,0.534-0.05,0.801
		l0.05-0.051v0.101v0.751c0.033-0.601,0.1-1.502,0.2-2.702l-0.15,0.1c-0.034-0.133-0.05-0.817-0.05-2.052
		c0-1.434-0.083-2.268-0.25-2.502c-0.1,0.101-0.167,0.2-0.2,0.301v0.1c0-0.033-0.284-0.684-0.851-1.951
		c-0.434-0.968-0.618-1.568-0.551-1.802l-0.25-0.1c-0.034-0.167-0.167-0.617-0.4-1.352c-0.134-0.5-0.2-0.967-0.2-1.401
		c0-0.601-0.017-0.934-0.05-1c-0.034-0.534,0.016-1.343,0.15-2.428c0.133-1.083,0.5-2.009,1.101-2.777
		c0.1-0.133,0.833-0.883,2.202-2.251c-0.067-0.133-0.1-0.267-0.1-0.4c0-0.301,0.208-0.692,0.625-1.176
		c0.417-0.483,0.775-0.726,1.076-0.726c0.533,0,1.167,0.283,1.902,0.851c0.967,0.768,1.567,1.751,1.801,2.952
		c0.167,0.734,0.2,1.885,0.1,3.452c-0.1,1.569-0.067,2.736,0.1,3.503c-0.234,1.735-0.351,3.721-0.351,5.955
		c0,0.4-0.075,0.868-0.225,1.401c-0.15,0.533-0.225,1.551-0.225,3.052c0,1.602,0.1,2.486,0.3,2.652h0.15h0.351
		c0.867-0.867,1.601-1.301,2.202-1.301c0.033-0.233,0.15-0.45,0.35-0.65c0.167-0.066,0.4-0.217,0.701-0.45
		c1.134-1.302,2.318-2.269,3.553-2.902c0.333-0.134,0.833-0.367,1.501-0.701c0.2-0.2,0.517-0.483,0.951-0.851l0.05-0.15l0.351,0.15
		c0.066,0,0.15,0,0.25,0l0.3-0.3l0.25-0.051l0.25,0.2c0.033-0.1,0.108-0.175,0.225-0.225c0.116-0.05,0.242-0.075,0.375-0.075
		l0.25-0.65c0.133,0.167,0.333,0.417,0.601,0.75c0.066,0.368-0.018,0.969-0.25,1.802c0,0.167-0.017,0.434-0.05,0.801
		c0.1,0.2,0.25,0.484,0.45,0.851c0,0.134-0.017,0.25-0.05,0.351l-0.1,0.149l-0.05,0.251l0.1,0.3c0.066,0.134,0.15,0.233,0.25,0.301
		c-0.1,0.066-0.184,0.167-0.25,0.3c-0.034,0.134-0.034,0.334,0,0.601c0.066,0.334,0.1,0.55,0.1,0.65c0,0.167-0.017,0.317-0.05,0.45
		c-0.1,0-0.234,0.034-0.4,0.101c-0.134,0.233-0.351,0.567-0.651,1c-0.2,0.2-1.034,0.618-2.502,1.251l-0.25-0.149l-0.45,0.3l0.1,0.15
		l0.25,0.1l-0.15,0.15c0.333,0.334,0.833,0.868,1.501,1.602c0.367,0.834,1.034,1.951,2.001,3.353c0.1,0.233,0.25,0.751,0.451,1.551
		C131.027,257.69,131.161,257.957,131.26,258.224z M112.546,246.465v-0.15l-0.05,0.1h-0.05c-0.067-0.032-0.118-0.082-0.15-0.149
		v-0.051v0.051l0.05,0.05C112.378,246.382,112.446,246.432,112.546,246.465z"/>
	<path fill="#FFFFFF" d="M158.082,243.662c0,1.368-0.217,2.736-0.65,4.104c-0.134,0.768-0.368,1.901-0.701,3.402
		c-0.234,0.835-0.634,1.835-1.201,3.003c-0.868,1.835-1.318,2.802-1.351,2.902l-0.1-0.101c-0.067,0-0.15,0.059-0.25,0.176
		s-0.268,0.274-0.5,0.475c-0.067,0.067-0.117,0.15-0.15,0.251l-0.1,0.149l-0.25,0.101c-0.434,0.434-0.984,1.018-1.651,1.751h-0.15
		l-0.05-0.1c-0.034-0.066-0.067-0.083-0.1-0.051c-0.134,0.067-0.351,0.185-0.65,0.351l-0.15,0.05l-0.25,0.501l-0.25-0.051h-0.05
		c-0.1,0.134-0.167,0.251-0.2,0.351l-0.05,0.05l-0.05-0.149c-0.4,0.567-0.784,0.9-1.151,1.001c-0.5,0.066-1.001,0.133-1.501,0.199
		l-0.15,0.301c-0.134-0.2-0.368-0.467-0.701-0.801h-0.2c-0.1,0.067-0.233,0.117-0.4,0.15c-0.634-0.333-1.251-0.65-1.851-0.951
		c-0.868-0.433-1.485-0.65-1.852-0.65c-0.2,0-0.417,0.018-0.65,0.05c0,0.101,0.033,0.168,0.1,0.2l0.05,0.051h-0.3
		c-0.167,0.033-0.417-0.083-0.75-0.351c-0.568-0.434-0.901-0.733-1.001-0.9c-0.034-0.033-0.2-0.501-0.5-1.401
		c-0.134-0.133-0.3-0.384-0.5-0.751l-0.3,0.351c-0.034-0.233-0.184-0.768-0.45-1.602h-0.2l-0.15,0.2
		c-0.067,0.234-0.134,0.468-0.2,0.701l-0.5-2.452l-0.1,0.65l-0.45-0.951l0.05-0.65c0-0.3-0.134-0.851-0.4-1.651
		c-0.067-0.333-0.184-0.851-0.351-1.551c-0.734-2.335-1.101-4.086-1.101-5.254c0-0.867,0.091-1.552,0.275-2.052
		c0.183-0.501,0.476-1.234,0.876-2.202c0.333-1.101,0.683-2.202,1.051-3.303c0.533-1.534,1.101-2.385,1.701-2.552
		c-0.167,0.268-0.367,0.551-0.6,0.851c-0.034,0.067-0.05,0.117-0.05,0.15l0.15,0.149c1.167-2.334,3.853-3.502,8.056-3.502
		c1.001,0,1.751-0.083,2.252-0.251c0.633,0.034,1.551,0.084,2.752,0.15c0.667,0.034,1.268,0.2,1.801,0.501l0.05,0.399
		c0.5,0.334,1.584,1.869,3.252,4.604c1.534,2.502,2.402,4.036,2.602,4.604C158.014,242.712,158.082,243.162,158.082,243.662z
		 M139.617,260.976c-0.334-0.333-0.584-0.7-0.751-1.101L139.617,260.976z M150.476,247.365c-0.2-0.934-0.584-2.252-1.151-3.953h0.2
		c-0.167-1.268-0.234-2.002-0.2-2.202l0.05,0.601l-0.05-1.901c-0.668-0.967-1.335-1.551-2.001-1.751c-0.034,0.033-0.1,0.05-0.2,0.05
		l-0.1,0.1c-0.3-0.066-0.5-0.1-0.601-0.1c-0.901,0-1.719,0.718-2.452,2.151c0,0.501-0.05,1.243-0.15,2.228s-0.15,1.726-0.15,2.227
		c0,2.135,0.817,3.67,2.452,4.604c0.3,0.1,0.75,0.4,1.351,0.9c0.133-0.066,0.367-0.166,0.701-0.3c0.133,0.033,0.233,0.1,0.3,0.2
		c0.033-0.101,0.133-0.267,0.3-0.501c0.167-0.032,0.35-0.066,0.55-0.1C149.357,249.584,149.741,248.834,150.476,247.365z
		 M146.873,249.417l-0.05,0.1h-0.2l-0.05,0.101v-0.301L146.873,249.417z M148.774,262.377c-0.034,0.234-0.1,0.384-0.2,0.45
		c-0.067-0.133-0.134-0.3-0.2-0.5l0.05-0.101L148.774,262.377z M157.531,243.612v-0.4l-0.2-0.3L157.531,243.612z"/>
	<path fill="#FFFFFF" d="M183.702,256.172c0.033,0.134,0.05,0.301,0.05,0.501c0,0.233-0.059,0.659-0.175,1.275
		c-0.117,0.618-0.159,1.094-0.125,1.427c-0.2,0.1-0.484,0.317-0.851,0.65c-0.067,0.167-0.083,0.334-0.05,0.5l-0.5-0.1
		c-0.534,0-0.951,0.25-1.251,0.75l-0.65,0.501l-1.151-0.101c-0.3-0.433-0.584-0.683-0.851-0.75l-0.3,0.35l-0.4-0.149l-0.15,0.3
		c-0.333-0.566-0.884-1.367-1.651-2.401c-1.035,1.034-2.352,1.743-3.953,2.126c-1.602,0.384-2.652,0.81-3.153,1.276l0.25,0.05
		c-0.268,0.034-0.534-0.032-0.801-0.2l-0.05,0.05v0.15l0.05,0.101c-0.067-0.101-0.134-0.167-0.2-0.2h-0.1l-0.05,0.1
		c-0.534-0.333-1.018-0.601-1.451-0.801c-0.468-0.5-1.118-1.301-1.952-2.401c-0.3-0.601-0.801-1.484-1.501-2.652l-0.2-0.05
		l-0.15,0.2v0.25c-0.067-0.133-0.259-0.5-0.575-1.101c-0.317-0.601-0.776-1.468-1.376-2.603l-0.1-0.05
		c-0.067,0.033-0.1,0.067-0.1,0.1l0.05,0.2c-0.067-0.467-0.35-1.067-0.851-1.801l0.1-0.751c0-0.3-0.025-0.751-0.075-1.351
		c-0.05-0.601-0.075-1.067-0.075-1.401c0-1.567,0.217-2.752,0.651-3.553c0.233-0.434,0.383-0.867,0.45-1.301v-2.103
		c0-1.367,0.717-3.452,2.152-6.255c1.567-3.002,2.918-4.503,4.053-4.503c0.366,0,0.792,0.325,1.276,0.976
		c0.483,0.65,0.775,1.193,0.875,1.626c0.533,2.069,0.801,4.487,0.801,7.256c0,0.668-0.184,1.568-0.55,2.702
		c-0.434,1.301-0.685,2.186-0.751,2.652c0.066,0.233,0.167,0.567,0.3,1.001c0.367,0.768,0.867,1.969,1.501,3.603
		c0.767,0,1.267,0.1,1.501,0.3l0.4-0.1l0.2,0.1l0.15-0.1l0.05-0.101v-0.1l0.5-0.601v-0.2l-0.1-0.2v-0.05
		c0.433-0.533,0.783-1.418,1.051-2.652c0.367-1.701,0.583-2.668,0.65-2.902l-0.05-0.45c-0.368,0.9-0.551,1.435-0.551,1.602l-0.1-0.4
		l-0.25,0.2l0.35-0.801l-0.05-0.25c-0.067-0.066-0.15-0.133-0.25-0.2h0.2c-0.067-0.267-0.15-0.684-0.25-1.251l0.35,0.801v-2.252
		l-0.35-0.25l0.15,0.25c0.033-0.934,0.15-2.202,0.351-3.803l0.05,0.149l0.1,0.05l0.2-1.101c0.033-0.133-0.017-0.333-0.15-0.601
		c-0.134-0.267-0.2-0.45-0.2-0.55c0-0.066,0.05-0.567,0.15-1.502l0.3-0.1c0.4-1.468,1.167-2.585,2.302-3.353
		c0.567-0.367,1.834-0.934,3.803-1.701l0.25,0.55l0.05-0.1c0.066,0.1,0.158,0.209,0.275,0.325c0.117,0.117,0.308,0.225,0.576,0.325
		l-0.05,0.3l0.1,0.301l0.25,0.25c0.133,0.067,0.25,0.084,0.35,0.05c-0.034,0.134-0.05,0.268-0.05,0.4c0,0.268,0.05,0.668,0.15,1.201
		c0.1,0.534,0.15,0.935,0.15,1.201l-0.25,0.2c0,0.601,0.075,1.501,0.225,2.702c0.15,1.2,0.225,2.102,0.225,2.702
		c0,0.334-0.083,0.825-0.25,1.476c-0.167,0.65-0.25,1.126-0.25,1.427c0,0.467,0.083,0.75,0.25,0.851
		c-0.434,0.567-0.876,1.551-1.326,2.952s-0.675,2.452-0.675,3.152c0,0.134,0,0.317,0,0.551c0.033,0.268,0.05,0.45,0.05,0.55
		c0.267,0.067,0.383,0.4,0.351,1.001c0.533,0.734,1.217,1.885,2.051,3.453C183.802,254.171,184.002,254.905,183.702,256.172z
		 M164.186,259.875l-0.55-0.9C163.836,259.142,164.019,259.442,164.186,259.875z M168.94,262.678c-0.1,0.033-0.284,0.083-0.55,0.149
		l-0.1-0.1l-0.05-0.15L168.94,262.678z M173.694,237.607c0,0.101-0.034,0.301-0.1,0.601v-1.602c0,0.101,0.016,0.259,0.05,0.476
		C173.677,237.3,173.694,237.475,173.694,237.607z"/>
</g>
</svg>
