<?xml version="1.0" encoding="utf-8"?>
<!-- Generator: Adobe Illustrator 16.0.0, SVG Export Plug-In . SVG Version: 6.00 Build 0)  -->
<!DOCTYPE svg PUBLIC "-//W3C//DTD SVG 1.1//EN" "http://www.w3.org/Graphics/SVG/1.1/DTD/svg11.dtd">
<svg version="1.1" id="レイヤー_1" xmlns="http://www.w3.org/2000/svg" xmlns:xlink="http://www.w3.org/1999/xlink" x="0px"
	 y="0px" width="643.75px" height="215.522px" viewBox="0 0 643.75 215.522" enable-background="new 0 0 643.75 215.522"
	 xml:space="preserve">
<g>
	<path fill="#FFFFFF" d="M363.952,89.714c2.693,3.455,5.314,6.991,7.856,10.61c-0.483,0.017-1.163,0.243-2.031,0.674
		c-0.873,0.434-1.55,0.656-2.032,0.673c2.749,5.065,5.531,8.677,8.348,10.836c0.618-0.663,2.702-1.061,6.244-1.181l2.174-0.074
		c2.93,0.868,5.125,1.438,6.584,1.709l-2.23-1.615l0.95-0.517c1.303,0.439,2.283,0.811,2.938,1.109l3.482-4.229
		c0.853,1.422,2.164,2.104,3.938,2.042l0.724-0.025c-1.15-0.603-1.97-1.059-2.464-1.365l-0.507-0.708
		c3.335-6.075,6.176-10.281,8.513-12.62c0.148-0.326,0.955-2.692,2.417-7.094c1.178-3.262,2.396-5.316,3.658-6.167l-0.523-1.191
		c0.303-0.494,1.439-2.625,3.406-6.401c1.504-3.111,2.815-4.848,3.933-5.211c-0.088-2.573,1.81-5.943,5.699-10.105l-3.18-1.101
		c-7.51,2.032-13.008,3.829-16.497,5.398c-3.233-0.21-6.534-2.516-9.905-6.914c-3.376-4.395-5.114-8.203-5.225-11.425l-0.042-1.208
		l-3.787-4.706c-1.301-0.276-2.514-0.397-3.638-0.359c-5.475,0.187-9.814,2.835-13.025,7.938c-0.764,1.318-2.927,6.306-6.5,14.968
		c-2.975,7.354-4.398,12.804-4.277,16.343C359.062,81.019,360.727,84.989,363.952,89.714z"/>
	<path fill="#FFFFFF" d="M428.665,37.948c-0.117,1.296-0.483,2.434-1.091,3.421c2.036,2.994,3.398,5.203,4.094,6.629
		c7.185,12.167,12.161,21.1,14.935,26.808c0.35,0.796,0.808,2.39,1.373,4.788c0.566,2.398,1.262,3.987,2.097,4.763
		c1.342,1.567,3.957,2.608,7.843,3.117c0.781-0.668,1.897-1.032,3.348-1.081c0.482-0.016,1.048,0.047,1.697,0.184
		c0.272-1.459,1.229-2.943,2.87-4.449c1.642-1.506,3.164-2.926,4.569-4.265c0.467-0.5,1.294-2.137,2.491-4.92
		c0.894-2.124,1.9-3.288,3.022-3.488c0.093-1.938,0.959-4.906,2.598-8.913c1.636-4.003,2.415-7.13,2.338-9.387
		c-0.142-4.184-3.812-10.102-11-17.755c-5.526-6.097-10.938-11.147-16.23-15.16c-3.962-2.765-9.942-5.542-17.932-8.333l-0.467,0.5
		c-3.381,0.115-5.953,1.533-7.711,4.252c-1.763,2.719-2.581,5.852-2.46,9.391C425.086,25.178,426.291,29.809,428.665,37.948z"/>
	<path fill="#FFFFFF" d="M313.562,136.156c-0.055-1.607-0.899-5.084-2.532-10.429c-1.633-5.345-2.872-8.564-3.715-9.664
		c-3.023-3.604-5.296-6.427-6.815-8.472c-2.72-4.096-5.058-6.512-7.016-7.254c-1.741,1.025-3.249,2.891-4.523,5.593
		c-1.28,2.703-1.878,5.184-1.802,7.435c0.039,1.128,0.586,2.964,1.638,5.504l-0.425,1.707c-5.216,7.757-21.789,5.125-25.008,5.234
		c0.16-0.006-0.652-0.22-2.438-0.642l0.724-0.025l-3.631-0.118l-0.506-0.707c0.303-0.494,0.614-0.825,0.933-0.999
		c-0.808,0.027-1.853,0.063-3.139,0.106c-1.617-0.103-2.748-0.147-3.389-0.126c-1.774,0.062-3.051,0.346-3.839,0.856
		c2.27,0.405,3.987,1.155,5.153,2.241c-0.713,2.768-1.284,4.88-1.717,6.345c0.936,3.835,2.895,6.911,5.875,9.227
		c-0.901,1.964-1.499,3.357-1.793,4.171c-0.134,0.813-0.112,1.454,0.067,1.933c2.839,2.967,4.346,4.606,4.519,4.922
		c0.686,1.269,2.292,4.635,4.817,10.11c2.521,5.474,3.8,8.614,3.827,9.417c0.641-0.021,1.597-0.334,2.868-0.942
		c1.2-0.573,2.111-0.879,2.754-0.93c-0.066,0.038,0.666,0.143,2.202,0.312c0.052,0.001,0.102-0.003,0.155,0
		c0.628,0.03,1.187,0.157,1.683,0.354c0.321,0.062,0.63,0.14,0.906,0.254c0.392,0.085,0.753,0.208,1.08,0.368
		c0.431,0.101,0.836,0.229,1.187,0.421c-0.01-0.011-0.029-0.026-0.029-0.032l12.821,6.06l3.139-0.106
		c3.266-3.496,5.836-6.08,7.713-7.756c1.064-1.809,1.822-3.286,2.266-4.43c0.154-0.165,1.197-5.034,3.127-14.611
		C312.628,141.909,313.583,136.801,313.562,136.156z"/>
	<path fill="#FFFFFF" d="M479.963,145.065l-0.849-24.872l-0.194,8.468c-1.677-1.878-3.798-5.025-6.366-9.453
		c-2.568-4.422-4.695-7.653-6.374-9.693l-0.033-0.966c-1.488-1.075-2.399-1.768-2.729-2.082
		c-3.437-6.168-8.259-12.852-14.465-20.055c-1.833-1.709-3.243-2.949-4.236-3.723c-0.342-0.472-0.961-2.144-1.863-5.013
		c-0.885-2.225-1.897-3.562-3.038-4.006l0.658-1.956l-1.903-6.22l0.633-2.681l-2.447-0.883l-0.099-2.897
		c-1.984,3.293-3.171,6.235-3.567,8.825l-0.757-0.941l-0.467,0.5c0.31-0.332,0.494,0.308,0.549,1.915l0.509,0.708l-1.376,2.223
		l1.532,2.365l-0.829,11.148c0.038,1.128,0.217,2.814,0.536,5.058c0.318,2.249,0.496,3.934,0.534,5.058
		c0.045,1.291,0.025,3.185-0.048,5.683c-0.077,2.504-0.091,4.396-0.047,5.683l1.394,12.523c0.437,3.368-0.192,6.212-1.885,8.525
		c0.159-0.006,0.645,0.06,1.457,0.191l0.274,0.957c-11.041,11.822-23.081,22.629-36.123,32.419
		c-5.528-1.421-11.062-2.925-16.591-4.511c-7.327-2.167-11.304-5.334-11.93-9.504l0.692-0.992l-1.007-1.173
		c-0.368-1.276-0.56-2.236-0.583-2.882l0.892-2.206c-1.753-4.129-2.705-8.447-2.858-12.957c-0.181-5.312-0.28-8.209-0.297-8.692
		c-1.798-5.415-3.227-9.561-4.293-12.424c-1.646-10.418-5.521-22.452-11.627-36.106c-3.594-6.163-17.313-35.452-19.343-38.284
		c-6.436-13.801-11.477-22.169-15.121-25.108c-0.477,0.178-0.955,0.357-1.432,0.532c-1.666-1.553-2.838-2.805-3.512-3.749
		c-4.026,0.137-8.75,3.362-14.174,9.67c-4.496,5.313-7.748,10.297-9.765,14.959c-2.016,4.661,8.012,35.569,8.271,43.133
		c0.235,6.923,1.932,14.117,5.087,21.583c3.84,8.735,8.377,14.14,13.608,16.218l1.191-0.524c5.168,5.142,9.008,8.962,11.511,11.451
		c1.086,3.511,1.979,6.061,2.678,7.646c0.186,0.802,0.36,3.454,0.513,7.959c0.11,3.223,0.596,5.703,1.463,7.444
		c-0.434,1.465-0.801,2.529-1.101,3.18l3.301,11.734c-5.328,9.209-8.253,15.593-8.774,19.155c2.613,5.713,5.428,11.501,8.45,17.358
		c3.017,5.862,7.392,10.062,13.121,12.606l-2.996-2.798l-0.051-1.449l13.18,3.659l3.598-0.848c1.287-0.044,3.187,0.172,5.704,0.651
		c2.513,0.478,4.412,0.695,5.702,0.652c0.137-0.651,0.922-1.325,2.349-2.015c0.642-0.021,1.578,0.188,2.802,0.63
		c1.225,0.441,2.235,0.649,3.043,0.621c5.292,4.008,9.184,7.019,11.671,9.03c5.734-1.972,10.997-3.602,15.787-4.89
		c1.428-0.695,3.39-2.172,5.894-4.432c2.498-2.262,4.544-3.745,6.133-4.44c0.159-0.006,1.844-0.222,5.055-0.656
		c1.764-0.22,3.339-1.323,4.723-3.304l1.488,1.158l0.476-0.258c0.147-0.327,0.38-0.577,0.7-0.749l0.483-0.018l0.522,1.19
		c3.49-1.568,6.983-3.139,10.477-4.707c5.702-2.933,8.476-6.653,8.322-11.162c2.848-6.222,5.997-10.76,9.447-13.62
		c4.242-3.203,8.483-6.412,12.726-9.62C477.999,156.011,480.004,151.027,479.963,145.065z"/>
</g>
<g>
	<path fill="#FFFFFF" d="M562.488,114.328c-0.516,0.619-0.851,1.264-1.005,1.933c-0.104-0.102-0.182-0.231-0.232-0.386l-0.077-0.928
		l-0.231-0.31l-0.928,0.387c-0.154,0.154-0.337,0.438-0.541,0.851c0.257,0.309,0.618,0.722,1.082,1.236l0.31-0.077
		c0.103-0.154,0.257-0.31,0.464-0.464h0.309l0.232,1.933c-0.361,0.104-0.594,0.439-0.696,1.006l0.696,0.695l-0.464,0.154
		c-0.155,0.31-0.232,0.594-0.232,0.851c0,0.207,0.077,0.541,0.232,1.005c0.154,0.464,0.231,0.826,0.231,1.083
		c-0.154,0.052-0.361,0.154-0.618,0.309l-0.231,0.232c-0.517,1.495-1.367,2.5-2.552,3.016c0,0.464-0.271,0.928-0.812,1.392
		s-1.044,0.695-1.508,0.695c-0.98,0.877-2.552,2.036-4.716,3.479c-0.825,0.464-1.651,0.722-2.475,0.772
		c-1.392,0.104-3.429,0.258-6.107,0.464c-0.207,0-0.555,0.052-1.044,0.155c-0.491,0.103-0.864,0.154-1.121,0.154
		c-0.413,0-1.005-0.116-1.778-0.348c-0.772-0.232-1.366-0.348-1.778-0.348l0.232-0.155c0.05-0.103,0.077-0.231,0.077-0.387
		c-0.928-1.133-4.484-1.7-10.669-1.7c-0.517,0-0.98,0.129-1.392,0.387c-0.361-0.206-0.773-0.31-1.237-0.31
		c-0.928,0-2.294,0.193-4.098,0.58c-1.805,0.386-3.17,0.579-4.098,0.579c-0.207,0-0.618-0.09-1.236-0.271
		c-0.619-0.18-1.032-0.271-1.237-0.271c-0.207,0-0.337,0.026-0.387,0.077c-1.96-0.669-3.893-1.313-5.799-1.933
		c-2.319-0.773-4.329-1.159-6.03-1.159l-1.778,0.231c-0.361-0.206-1.65-0.438-3.865-0.695c-1.65-0.206-2.706-0.851-3.17-1.934
		c0.103-2.576,0.823-6.236,2.165-10.979c0.668-0.464,1.416-0.979,2.242-1.546l0.231,0.464l0.232,0.077
		c0.618-0.36,1.803-0.618,3.556-0.772c1.442-0.103,2.447-0.516,3.016-1.237c0.514,0.31,1.34,0.695,2.474,1.159
		c0.515,0.104,1.237,0.259,2.165,0.464c0.464,0.259,1.237,0.567,2.319,0.928l0.387-0.154l0.231-0.154l1.393,0.464l-0.232-0.077
		c-0.104,0.103-0.182,0.181-0.232,0.231c2.011,1.082,3.452,1.624,4.33,1.624c1.185,0,1.905,0.181,2.165,0.541
		c0.359-3.968,0.541-5.927,0.541-5.876c0-2.422-0.232-4.38-0.696-5.876c-0.104-0.051-0.206-0.077-0.309-0.077l-0.155,0.309
		c-1.65-4.123-2.474-6.983-2.474-8.582c0-1.185,0.953-2.834,2.86-4.948c-0.877-0.875-2.191-1.314-3.942-1.314
		c-1.855,0-3.325,0.49-4.407,1.469l-0.387,0.155c-1.392-0.103-2.474-0.721-3.247-1.855c-0.516-0.721-1.032-2.629-1.546-5.721
		c-0.517-2.834-0.773-4.921-0.773-6.263c0-0.669,0.154-1.237,0.464-1.701c0.31-0.155,1.392-1.03,3.247-2.628
		c1.237-1.133,2.447-1.701,3.634-1.701c2.988,0,6.494,1.005,10.515,3.015c1.185,0.723,3.015,1.599,5.489,2.629
		c3.865-0.36,8.891-1.417,15.076-3.17l4.639-1.314c0.823,0,1.339,0.439,1.546,1.314c0.051,0.722,0.103,1.444,0.155,2.165
		c0,0.362,0.243,1.083,0.734,2.165c0.488,1.083,0.837,1.728,1.043,1.933c-0.259,0.31-0.413,0.568-0.464,0.773l0.078,0.464
		c-0.104,0.516,0.257,1.237,1.082,2.165l-0.154,0.387c-0.414,0.207-0.878,0.516-1.392,0.928h-0.232
		c0.154,0.258,0.257,0.49,0.31,0.696c-0.361,0.309-0.696,0.619-1.005,0.928c-0.464,0.413-0.696,0.8-0.696,1.16
		c0,0.207,0.077,0.413,0.232,0.619c-0.929,0.154-2.062,0.593-3.402,1.314l0.154,0.31c0.31,0.104,0.773,0.336,1.392,0.696
		c-0.104,0.258-0.567,0.541-1.392,0.85l-0.309-0.154c-0.31-0.36-0.619-0.542-0.928-0.542c-0.259,0-0.71,0.091-1.354,0.271
		c-0.646,0.181-1.173,0.271-1.585,0.271c-0.67,0-1.83,0.154-3.479,0.464c-1.855,0.361-2.938,0.696-3.247,1.005
		c0.154,0,0.746-0.077,1.778-0.232c-0.568,0.052-1.16,0.129-1.778,0.232c-0.619,0.104-0.928,0.491-0.928,1.16
		c0,1.444,0.218,3.854,0.657,7.229c0.437,3.376,0.657,5.89,0.657,7.538c0,0.773-0.053,1.778-0.155,3.015
		c-0.154,1.547-0.231,2.526-0.231,2.938c0.618,0.618,1.933,0.992,3.942,1.121c2.011,0.129,3.375,0.555,4.098,1.275
		c-0.154-0.103-0.309-0.18-0.464-0.232c-0.259,0.104-0.618,0.259-1.082,0.465c0.773,0.464,1.597,0.695,2.474,0.695
		c1.751,0,5.385-1.005,10.901-3.016l0.541,0.078c1.287-0.722,2.165-1.057,2.629-1.006l1.005-1.005l0.387,0.619l0.31,0.077
		l3.17-1.469L562.488,114.328z M518.806,118.426v-0.387c0-0.051-0.027-0.128-0.077-0.231l-0.154-0.154c-0.104,0-0.207,0-0.31,0
		c-0.207-0.052-0.464-0.206-0.773-0.465c-0.207-0.051-0.516-0.128-0.928-0.231c-0.773-0.412-1.806-0.618-3.093-0.618h-0.231
		l-0.232,0.231c0.823,0.413,1.649,0.825,2.475,1.237c1.03,0.516,1.905,0.773,2.628,0.773
		C518.419,118.581,518.652,118.529,518.806,118.426z M561.483,117.808l-0.387-0.387h-0.309l0.309,0.773l0.232-0.155L561.483,117.808
		z"/>
</g>
<g>
	<path fill="#FFFFFF" d="M635.377,84.949c-0.361,0.31-0.541,0.748-0.541,1.314c0,0.361,0.025,0.916,0.077,1.662
		c0.051,0.748,0.077,1.276,0.077,1.585c0,0.516-0.168,1.482-0.502,2.899c-0.336,1.418-0.632,2.358-0.889,2.822
		c-0.362,0.619-1.367,1.831-3.016,3.634c-1.806,1.908-2.99,2.938-3.557,3.093l-0.154-0.542c-1.65,0.104-2.86,0.671-3.634,1.701
		c-0.517,0-0.902-0.283-1.16-0.851l1.006-1.083c-0.207-0.721-0.748-1.083-1.624-1.083c-1.289,0-3.093,0.723-5.412,2.165l0.851,3.479
		l-0.231,1.16l0.386,0.232c0.258,0.052,0.464,0.078,0.619,0.078c0.978,0,2.576-0.542,4.793-1.624
		c1.958-0.979,3.427-1.855,4.407-2.628c0.514-0.103,1.055-0.155,1.623-0.155c0.515,0,1.056,0.052,1.624,0.155
		c0,0.052,0.257,0.722,0.773,2.01c0.257,0.67,0.334,1.392,0.231,2.165c0.31,0.309,0.669,0.98,1.082,2.01
		c-0.825,1.649-1.392,3.196-1.7,4.639c-0.517,0.258-1.342,0.645-2.475,1.16c-0.413-0.103-0.8-0.335-1.159-0.696
		c-0.568,0-1.212,0.13-1.933,0.387c-0.928,0.361-1.547,0.567-1.855,0.618l-0.851-0.231l-1.701,0.541l0.618-0.541
		c-1.236-0.052-1.65-0.077-1.236-0.077c-1.032,0-1.729,0.438-2.088,1.313l0.31,0.542c0.257,0.052,0.514,0.077,0.772,0.077
		c0.722,0,1.829-0.206,3.325-0.619c1.494-0.411,2.653-0.618,3.479-0.618c0.669,0,1.186,0.077,1.547,0.232
		c0.411,0.309,1.005,0.748,1.778,1.313c0.309,0.155,0.772,0.387,1.392,0.696c0.102,0.104,0.566,1.031,1.392,2.783
		c0.721,1.546,1.159,2.552,1.313,3.016v2.164c0,0.155,0.039,0.4,0.116,0.734c0.077,0.336,0.116,0.58,0.116,0.735
		c0,0.412-0.387,1.275-1.16,2.59c-0.772,1.314-1.211,2.28-1.313,2.899c-1.29,0.206-3.377,1.803-6.263,4.793
		c-0.31,0.464-0.825,1.082-1.546,1.855l-0.31-0.618c-0.361,0.103-1.778,0.257-4.252,0.464c-0.671,0.051-2.682,0.772-6.031,2.164
		c-0.259-0.258-0.413-0.566-0.464-0.928l-0.231-0.231c-0.207,0.154-0.438,0.257-0.696,0.31l-0.464-0.696
		c-0.928-0.104-2.114-0.799-3.556-2.088c-0.104-0.463-0.182-1.392-0.232-2.783l-0.464-0.386l0.077-0.232l0.155-0.077l0.154-0.077
		l-0.077-0.077c-0.31-0.104-0.568-0.155-0.773-0.155c-0.568,0-1.019,0.31-1.353,0.928c-0.337,0.619-0.633,1.211-0.89,1.778
		c-0.309-0.052-0.593-0.077-0.851-0.077c-0.309,0-1.805,0.334-4.483,1.005c-1.237-0.154-2.604-0.825-4.098-2.01
		c-1.651-1.341-2.861-2.14-3.634-2.396l0.154-0.464c-0.207-0.67-0.877-1.572-2.01-2.706l-0.619,0.387l0.464-0.773l-0.231-0.387
		c-0.517,0.361-0.671,0.979-0.464,1.855c-0.31,0.207-0.594,0.722-0.851,1.546c-0.31,1.083-0.541,1.727-0.695,1.934h-0.31
		c-0.361-0.053-0.851,0.231-1.469,0.85c-0.619,0.619-1.032,0.979-1.237,1.083c-1.082,0.103-2.27,0.36-3.557,0.773
		c-0.877-0.207-1.469-0.671-1.778-1.393c-0.877-0.258-2.164-0.618-3.865-1.082l-0.232-0.154c0-0.104,0.077-0.181,0.232-0.232
		c-2.836-1.958-4.252-3.581-4.252-4.87l0.386-0.619l-1.005-0.387l-0.154-0.309c0.103-0.052,0.18-0.155,0.231-0.31h-0.077h-1.623
		c0-0.618,0.309-0.979,0.928-1.082l0.077,0.387c0.154-0.052,0.541-0.18,1.159-0.387c0.464-0.155,0.876-0.232,1.237-0.232
		l0.928,0.232c2.112-0.876,4.484-2.68,7.113-5.412l-0.851,0.387l1.778-5.799c-0.928-4.123-1.314-8.168-1.16-12.138l-0.31-0.85
		l0.542-0.619c-0.26-1.597-0.387-2.602-0.387-3.015c0-0.566,0.103-1.365,0.309-2.397c0.31-1.237,0.489-2.061,0.542-2.474
		c0.05-0.979,0.204-2.5,0.464-4.562c0.05-0.103,0.18-0.438,0.387-1.005c0.154-0.412,0.231-0.721,0.231-0.928l1.005-0.309
		l1.314,1.005c0.103-1.082,0.489-2.628,1.16-4.639l0.464,0.232c0.154-0.257,0.437-0.619,0.85-1.083
		c0.051,0.052,0.155,0.104,0.31,0.155l0.232,0.077v-0.464l0.85-0.464l0.078-0.309c0.103-0.051,0.359-0.128,0.772-0.232
		c-0.309-0.721-1.264-1.855-2.86-3.402c-1.341-1.288-2.114-2.499-2.319-3.634c0.05-0.412,0.18-1.03,0.387-1.855
		c0.566-1.751,1.571-2.938,3.015-3.556c1.03-0.464,2.577-0.696,4.64-0.696c5.566,0,9.173,0.129,10.823,0.386
		c0.515,0.052,2.138,0.387,4.871,1.005c2.422,0.516,3.813,0.773,4.175,0.773c1.392,0,3.761-0.644,7.112-1.933
		c3.35-1.288,5.645-1.933,6.881-1.933c0.722,0,1.146,0.052,1.276,0.155c0.127,0.104,0.348,0.49,0.657,1.16
		c0,0.052,0.359,0.541,1.082,1.469l0.077,0.464c0.823,0.671,1.778,1.599,2.86,2.784c-0.413,2.319-1.109,4.201-2.087,5.644h0.464
		C630.687,80.26,632.904,82.27,635.377,84.949z M605.999,101.185c-0.516-0.051-1.005-0.232-1.469-0.541l-0.695,0.155l-0.619-0.232
		c-0.671,0.259-1.623,0.336-2.86,0.232c-1.701,0.722-3.401,1.443-5.103,2.165c-2.062,1.032-3.324,2.269-3.788,3.711
		c0-0.36-0.078-0.875-0.232-1.546c-0.361,0.413-0.568,1.187-0.618,2.319c-0.053,0.825-0.104,1.676-0.155,2.552l-0.541-4.33
		c0,0.67-0.182,1.65-0.541,2.938c-0.361,1.289-0.541,2.242-0.541,2.86c0,3.711,0.823,6.494,2.474,8.35
		c-0.104,0.517-0.231,1.314-0.387,2.396c0.258,0.723,0.387,1.006,0.387,0.851c-0.259,0.104-0.695,0.517-1.314,1.237v0.154
		l0.078,0.155l0.154,0.077c0.205-0.103,0.464-0.154,0.773-0.154c0.309,0,0.591,0.052,0.85,0.154c-0.567,0-1.005,0.154-1.313,0.464
		l0.231,0.618l-0.541,0.077l0.31,0.078h0.309c0.103,0,0.271-0.025,0.503-0.078c0.231-0.051,0.398-0.077,0.502-0.077l-0.618-0.618
		c0.205-0.206,0.928-0.36,2.165-0.464c1.648-0.052,2.474-0.103,2.474-0.154c1.133-0.155,2.074-0.58,2.822-1.276
		c0.746-0.695,1.48-1.404,2.203-2.126c2.268-1.855,3.891-3.917,4.871-6.185l-2.165-0.155l-0.077,0.077l0.31,0.232v0.231h-0.696
		c-1.289-0.051-2.913,0.49-4.871,1.624h-0.231c0.05,0.154,0.18,0.258,0.387,0.31l0.077,0.231c-1.496,0.413-2.706,0.748-3.634,1.005
		c-0.671-0.205-1.187-0.464-1.546-0.772l0.928-0.387l-1.237-0.31c-0.052-0.051-0.464-0.644-1.237-1.778
		c-0.464-0.618-0.695-1.339-0.695-2.164c0-2.731,0.851-4.845,2.551-6.34c0.566,0,1.056-0.31,1.47-0.928
		c0.618-0.875,0.978-1.365,1.082-1.469l8.582,0.696C604.966,104.072,605.38,102.784,605.999,101.185z M590.073,125.848l-0.232-0.695
		h-0.231l-0.078,0.231c-0.052,0.155-0.077,0.31-0.077,0.464l-0.077,0.078c0,0.103,0.05,0.181,0.154,0.231l0.232,0.077
		L590.073,125.848z M621.694,81.316c-0.517-0.155-1.058-0.232-1.624-0.232c-0.618,0-1.546,0.052-2.783,0.154
		c-1.237,0.104-2.165,0.155-2.783,0.155c-1.599,0-3.738-0.592-6.417-1.778c-2.681-1.185-4.691-1.803-6.03-1.855l0.695,0.619h-0.772
		c-0.362,0-0.878-0.039-1.547-0.116c-0.671-0.077-1.159-0.116-1.469-0.116c-1.187,0-1.933,0.077-2.242,0.232
		c-0.464,0.258-1.082,0.787-1.855,1.585c-0.773,0.799-1.342,1.328-1.701,1.585c-0.104,0.052-0.618,0.154-1.546,0.309
		c-0.671,0.104-1.058,0.413-1.16,0.928c2.268,0.67,5.258,1.109,8.969,1.314c4.948,0.309,7.963,0.541,9.046,0.696
		C613.112,83.455,617.518,82.295,621.694,81.316z M621.461,89.511c-0.414-0.051-0.825-0.077-1.237-0.077
		c-1.443,0-3.415,0.851-5.914,2.551c-2.501,1.701-4.086,2.551-4.755,2.551c-0.618,0-1.212-0.295-1.778-0.889
		c-0.568-0.592-0.955-0.939-1.159-1.043c-0.568-0.155-1.392-0.387-2.475-0.696l-0.309-0.31h-5.799l1.392,0.387
		c-0.052,0-0.646,0-1.778,0c-1.342,0-2.347,0.541-3.016,1.624c-1.031,0.052-2.164,0.207-3.401,0.464v1.005h0.077
		c0.359-0.206,0.619-0.464,0.773-0.773l0.31-0.155h0.386c0.36,0,0.928,0.039,1.701,0.116s1.365,0.116,1.778,0.116
		c0.721,0,1.778-0.025,3.17-0.078c1.392,0,2.422,0,3.093,0c3.092,0,5.462,0.284,7.112,0.851c0.979-0.155,2.654-0.747,5.025-1.778
		c1.648-0.773,3.324-1.546,5.025-2.319C620.198,90.852,620.791,90.336,621.461,89.511z M591.928,119.586
		c-0.104,0.516-0.232,1.314-0.387,2.396c0-0.154,0-0.387,0-0.696c0-0.102,0.077-0.438,0.231-1.005c0.103-0.411,0.103-0.772,0-1.082
		L591.928,119.586z M593.938,125.462c-0.207-0.206-0.414-0.31-0.618-0.31c0.103,0-0.104,0.026-0.619,0.077l-0.387,0.387
		c0.103,0.052,0.205,0.077,0.31,0.077c0.154,0,0.373-0.039,0.657-0.116C593.563,125.5,593.784,125.462,593.938,125.462z
		 M609.091,129.637l-0.077-0.387l-0.31-0.155c-0.207-0.051-0.387-0.102-0.541-0.154v0.464c0.257,0.154,0.464,0.232,0.618,0.232
		h0.155H609.091z M624.477,123.992c-0.724,0.207-1.676,1.058-2.861,2.552c-1.187,1.495-2.294,2.242-3.324,2.242
		c-0.723,0-1.366-0.129-1.933-0.387h0.077l0.232-0.077c-0.671-0.257-1.521-0.979-2.552-2.165c-0.928-1.03-1.599-1.546-2.01-1.546
		c-1.342,0-2.397,1.005-3.17,3.015c0.928,0.104,2.345,0.541,4.252,1.314c1.905,0.773,3.427,1.16,4.562,1.16
		c1.803,0,3.247-0.619,4.329-1.855C622.543,127.679,623.342,126.261,624.477,123.992z M613.189,129.791
		c-0.618-0.412-1.624-0.901-3.016-1.469c0.103,0.361,0.542,0.671,1.314,0.928C612.054,129.457,612.621,129.637,613.189,129.791z
		 M628.652,115.875h-0.31l-0.077-0.387h0.077C628.445,115.592,628.547,115.72,628.652,115.875z M633.522,130.101l-1.082,1.7
		c0.205-0.309,0.489-0.798,0.851-1.469L633.522,130.101z"/>
</g>
<g>
	<path fill="#FFFFFF" d="M157.241,82.749l1.207-0.053c-1.086-0.22-2.095-0.307-3.057-0.31
		C155.95,82.406,156.557,82.511,157.241,82.749z"/>
	<path fill="#FFFFFF" d="M243.146,153.463c2.601-3.171,6.226-5.023,10.881-5.552c-1.624-0.25-3.242-0.342-4.849-0.271
		c-2.255,0.098-5.507,0.401-9.754,0.908c-4.251,0.511-7.423,0.808-9.513,0.898c-0.483,0.021-0.969-0.038-1.459-0.179
		c-1.597,0.394-19.215,5.7-22.615,5.365c-4.223-0.622-6.896-0.908-8.019-0.86c-1.448,0.063-3.174,1.188-5.173,3.369
		c-0.087-0.026-0.167-0.049-0.253-0.074c-0.004,0.021-0.003,0.044-0.008,0.065c1.479,0.366,2.806,0.72,3.935,1.059
		c6.483,0.846,9.811,1.348,9.98,1.498c-3.186,0.948-5.575,1.615-7.168,2.007c-4.158,0.827-7.282,1.284-9.371,1.374
		c-1.645-0.732-5.982-2.157-13.003-4.269c-5.387-1.538-9.34-3.463-11.859-5.771l3.084-1.344c-1.482-0.74-4.757-1.808-9.812-3.2
		c-4.08-1.111-7.178-2.831-9.293-5.157c-2.119-2.326-3.53-4.199-4.235-5.62l0.462-0.504l0.472-0.262l0.483-0.021l-1.816-2.823
		l0.944-0.526c2.11,0.393,4.253,1.43,6.422,3.107c6.89-0.942,10.255-1.415,10.097-1.408c0.641-0.027,1.378,0.265,2.214,0.872
		l26.102-16.465c-0.651-3.841-0.778-6.737-0.379-8.688c0.515-2.925,1.117-5.77,1.803-8.543l-0.261-0.472
		c-0.639,0.19-1.035,0.371-1.186,0.536l-1.04-1.648l0.167-1.7l0.442-0.986c0.619-0.51,1.326-0.942,2.12-1.301l0.125-2.666
		c-4.199-3.845-6.312-6.092-6.34-6.737c-0.028-0.641,0.103-1.292,0.399-1.953c-2.703-2.784-4.775-4.145-6.224-4.081
		c-0.723,1.966-1.139,3.518-1.249,4.649c-2.484-1.501-20.59,2.359-21.905,1.771l2.099-1.785c-2.143-1.033-3.38-1.704-3.715-2.014
		l-0.514-0.704c0.134-0.479,0.357-0.801,0.664-0.98c-0.073,0.002-0.152-0.009-0.224-0.006c-1.931,0.084-4.244,0.668-6.937,1.753
		c-3.492,1.282-5.799,2.029-6.916,2.236c-1.822-1.046-2.792-3.022-2.918-5.918c0.005-3.545-0.338-5.869-1.029-6.968
		c-3.092-4.377-4.687-7.693-4.786-9.949c-0.021-0.482-0.039-0.882-0.054-1.207c0.322-0.014,1.287-0.056,2.898-0.126
		c0.64-0.028,1.655,0.091,3.038,0.351c1.378,0.265,2.472,0.376,3.279,0.341c1.931-0.084,4.759-0.812,8.49-2.184
		c3.726-1.372,6.473-2.175,8.239-2.415c4.168-0.503,28.021,0.129,28.338-0.047c0.796-0.194,1.693,0.009,2.688,0.608l-0.924,1.008
		l-0.714,0.273c0.49,0.141,0.977,0.199,1.458,0.177c-0.324,0.015,2.146-0.735,7.399-2.256l-5.5,1.449l-1.249-0.913
		c1.209-1.825,2.457-2.767,3.747-2.823c0.642-0.028,1.372,0.103,2.194,0.388c2.266-3.484,5.571-5.322,9.916-5.511l3.17,0.588
		l-0.105-2.414c-2.931-0.678-5.201-0.9-6.801-0.672c0.237-1.944,1.384-3.362,3.443-4.261c-0.771-2.868,0.706-5.994,4.428-9.383
		l-0.797-1.657c-0.042-0.966,0.231-2.066,0.823-3.301c0.589-1.235,0.873-2.173,0.845-2.818c-0.147-3.379-1.61-5.492-4.387-6.339
		c-1.828-4.915-3.257-8.159-4.293-9.728c-2.247-3.446-5.142-5.096-8.679-4.942c-5.473,0.239-34.575,1.249-44.086,4.965
		c-9.511,3.721-16.764,5.688-21.749,5.905c-4.828,0.209-15.399-1.827-31.705-6.116c-13.7-3.593-24.565-6.828-32.587-9.704
		c-4.486,0.679-7.707,0.739-9.666,0.179c-4.485,0.679-8.911,4.582-13.274,11.703c1.358,8.973,2.218,15.785,2.583,20.443
		l-0.387,2.193c4.148,10.139,11.119,16.527,20.906,19.162l0.242-0.011c0.014,0.325-0.137,0.572-0.451,0.745
		c-0.317,0.177-0.469,0.346-0.462,0.504c5.504,0.568,12.533,2.76,21.084,6.578l2.13-1.061l5.615,1.207
		c0.138-0.49,0.355-1.062,0.65-1.721c2.531-1.077,4.44-1.644,5.73-1.701c1.022,1.248,1.564,2.592,1.627,4.041
		c0.189,4.344,0.585,7.875,1.188,10.589c0.179,0.475-0.674,3.094-2.561,7.85c-3.612-1.452-7.223-2.909-10.831-4.365
		c-4.422-1.58-16.076-0.127-19.293,0.013c-3.704,0.161-6.761,2.15-9.171,5.961l-2.95-1.081c-1.233,1.345-2.528,5.793-3.892,13.35
		c-1.364,7.555-1.99,12.624-1.878,15.196c0.498,11.428,3.482,17.018,8.954,16.779c0.641-0.027,12.232-2.928,19.103-4.357
		c2.118,0.554,3.75,0.966,4.891,1.237c1.103-0.53,1.813-0.883,2.13-1.059c1.621,0.254,2.918,0.356,3.884,0.314
		c0.503,0.461,0.846,0.931,1.029,1.405c-0.631,0.353-1.345,0.626-2.142,0.818l0.053,1.207c-0.078,1.938,0.73,3.838,2.425,5.698
		c-1.89,4.762-3.267,8.286-4.133,10.579c-2.094,0.092-3.373,0.31-3.841,0.651c-2.955,2.548-5.284,4.583-6.99,6.107l-0.178,1.459
		c0.133,3.06-0.165,5.49-0.891,7.295l-0.987-0.441c-0.345-0.468-0.683-0.854-1.018-1.164l-0.483,0.021
		c-2.702,0.926-4.368,1.562-4.995,1.911c-6.122-1.012-10.642-1.854-13.576-2.533c-0.07,0.033-0.141,0.062-0.212,0.092
		c-0.39,0.306-0.659,0.607-0.789,0.898l-0.419,0.162c-0.122,0.208-0.261,0.405-0.412,0.594c0.129-0.004,0.24-0.004,0.381-0.01
		c1.447-0.062,2.513,0.374,3.2,1.311l0.063,1.449l1.416-0.787c1.124-0.05,2.685,0.529,4.671,1.731l-1.144,1.499
		c-1.121,0.213-2.669-0.203-4.649-1.247l-1.438,0.306l-0.577-2.152c-2.428-0.216-4.286-0.298-5.572-0.241l-1.668,0.556
		c-6.677-1.48-11.41-2.804-14.2-3.977c-2.562,0.437-4.482,0.763-5.761,0.979c-1.121,0.21-2.266-0.145-3.432-1.06l0.546,1.426
		l3.684,1.291l-1.417,0.787c-4.912-1.722-8.526-3.256-10.841-4.606l3.306,3.725L16,160.241l-4.629-0.767l0.547,1.427l-0.231,0.254
		c-1.126,0.047-1.72,0.315-1.779,0.802c-0.062,0.486-0.323,0.901-0.792,1.243l5.814,5.792c-0.268,1.304,0.703,3.197,2.908,5.679
		c2.201,2.485,3.345,4.611,3.422,6.38l1.458,0.179c2.174,1.84,3.609,3.311,4.303,4.406c2.847,2.458,5.021,4.219,6.518,5.279
		c2.223,2.968,4.486,5.852,6.786,8.652c2.298,2.802,5.799,4.584,10.511,5.346c3.734,0.643,6.086,0.945,7.052,0.901
		c4.344-0.188,7.193,0.493,8.553,2.047l0.021,0.482c-0.312,0.336-0.538,0.666-0.682,0.997l-0.221,0.492
		c3.012-1.098,5.313-2.005,6.896-2.719c2.286,0.706,4.08,1.192,5.383,1.46c6.308-3.178,11.027-5.884,14.157-8.114
		c1.953,0.399,4.33-0.512,7.137-2.729c1.144,0.434,2.595,0.449,4.354,0.052c6.618-14.636,12.473-24.564,17.566-29.784
		c6.245,6.499,9.869,10.052,10.863,10.65l-1.166,1.02c1.042,1.729,2.196,4.177,3.463,7.346l-0.577,3.41l1.974,6.443
		c1.007,0.923,2.152,1.357,3.442,1.302c0.642-0.029,1.645-0.155,3.007-0.373c1.358-0.222,2.362-0.346,3.007-0.373
		c8.527-0.372,14.722,3.065,18.586,10.314c5.546,1.53,9.794,2.797,12.741,3.798c6,0.864,9.656,1.515,10.967,1.94l2.393-0.588
		c0.455-0.666,1.075-1.177,1.868-1.532c-0.422-2.24,0.577-4.257,3.001-6.056c2.419-1.798,3.606-3.263,3.557-4.388
		c0.592-1.153,1.937-1.777,4.03-1.868c2.089-0.091,3.214-0.223,3.368-0.388c2.895-3.836,5.585-6.853,8.071-9.058
		c0.909-1.328,2.382-4.457,4.427-9.383c1.608-3.776,18.537-12.037,20.539-14.221l-2.667-0.127c0.271-1.139,1.743-2.494,4.417-4.062
		c2.672-1.567,4.37-3.25,5.101-5.059l-3.17-0.589l5.236-1.92L243.146,153.463z M29.14,162.087l-1.973-0.882l0.955-0.284l2.183,0.148
		C29.842,161.572,29.454,161.915,29.14,162.087z M42.017,163.461l-0.956,0.283c-4.556-0.928-7.422-1.933-8.595-3.012
		c4.503-0.196,7.92,0.543,10.254,2.213L42.017,163.461z"/>
</g>
<g>
	<path fill="#FFFFFF" d="M513.159,166.011c-0.168,0.034-0.428,0.235-0.779,0.604c-0.352,0.369-0.679,0.57-0.979,0.603
		c-0.269,0.27-1.743,0.889-4.423,1.859c-0.234-0.167-0.57-0.334-1.005-0.502l-0.302,0.05v0.201l0.151,0.101h-0.151l-0.05-0.101
		l-0.604,0.251l0.101-0.1c0-0.067,0.051-0.084,0.151-0.051l0.15-0.101h0.05l-0.2-0.352c-0.201,0-0.587-0.184-1.156-0.553
		l-0.05,0.101l0.1,0.251l0.302,0.15l-0.05,0.101c-0.068-0.066-0.135-0.101-0.201-0.101l0.101,0.151l-0.101-0.101
		c-0.269-0.033-0.536-0.184-0.804-0.452c-0.369-0.335-0.587-0.553-0.653-0.653c-0.068-0.101-0.151-0.201-0.252-0.302
		c-0.201-0.033-0.444-0.276-0.729-0.729c-0.285-0.452-0.511-0.711-0.679-0.779l-0.05,0.101v-0.251l-0.251-0.201l-0.051-0.101
		c-0.502-0.368-1.089-0.771-1.759-1.206c-0.134,0.067-0.219,0.185-0.251,0.352c0,1.643,0.15,2.832,0.452,3.568
		c0.402,0.904,1.239,1.742,2.513,2.513c0.402,0.335,1.088,0.688,2.061,1.056c0.67-0.269,1.373-0.402,2.11-0.402l0.201-0.251
		l0.201,0.201c0.032-0.101,0.117-0.185,0.251-0.252c0.402-0.032,0.736-0.05,1.005-0.05c0.033,0,0.083,0.018,0.151,0.05
		c0.066,0.034,0.116,0.051,0.15,0.051l0.201-0.051l0.101,0.151l0.101-0.353c0.268,0.201,1.188,1.341,2.764,3.418
		c0,0.101,0.033,0.218,0.101,0.352c0.268,0.168,0.653,0.452,1.155,0.854c0.201,1.005,0.302,1.909,0.302,2.713
		c0,0.27,0.051,0.671,0.151,1.206c-0.101,0.872-0.235,1.978-0.402,3.317c-0.201,0.871-0.536,1.826-1.005,2.864
		c-0.135,0.234-0.302,0.553-0.503,0.955c-0.234,0.737-0.47,1.475-0.703,2.211c-0.235,0.737-0.604,1.374-1.105,1.909
		c-0.101,0.169-0.285,0.402-0.554,0.704l-0.2,0.101c-0.369,0.369-0.922,0.62-1.659,0.754c-0.603,0.101-0.988,0.318-1.155,0.653
		l-0.302-0.252c-0.436,0.135-1.055,0.369-1.859,0.704c-0.201,0.201-0.871,0.57-2.01,1.105l-0.151,0.101c0-0.034,0-0.084,0-0.151
		h-0.05c-0.034,0-0.553,0.168-1.558,0.503l-0.051-0.201l-0.101-0.05l-0.05,0.05v0.201l-0.051-0.201
		c-0.067-0.033-0.168-0.05-0.301-0.05l-0.101-0.051c-0.034-0.067-0.068-0.117-0.101-0.15l-0.051,0.101
		c-0.2-0.101-0.47-0.201-0.804-0.302c-0.135-0.134-0.302-0.318-0.503-0.553c-0.101-0.066-0.301-0.184-0.603-0.352
		c-0.938-0.368-1.709-1.239-2.312-2.613v-0.101h0.15l-0.201-0.201c-0.401,0.101-0.972,0.235-1.708,0.402
		c-0.235,0.067-0.486,0.21-0.754,0.427c-0.269,0.219-0.671,0.327-1.206,0.327l-0.201,0.15c-0.369-0.233-0.62-0.603-0.754-1.105
		l0.101-0.251l-0.101-0.252c-0.101-0.101-0.219-0.167-0.352-0.2c-0.135,0.168-0.369,0.385-0.704,0.652l-0.05-0.15l-0.201-0.05
		c-0.034,0.269-0.118,0.553-0.251,0.854c0.032-0.334,0.083-0.837,0.15-1.507l-0.101-0.302l-0.15,0.05
		c0-0.233,0.032-0.603,0.101-1.105c0.167-0.636,0.435-1.448,0.804-2.438c0.368-0.987,0.837-2.136,1.407-3.441
		c0.167-0.168,0.402-0.469,0.703-0.905l-0.251-0.553l0.051-0.251l0.101-0.15c0.636-0.201,1.138-0.436,1.507-0.704
		c0.503-0.268,1.122-0.754,1.859-1.457c1.34,0.335,2.412,0.804,3.217,1.407l-0.402-0.453v0.453l0.201,0.15h0.15v0.101l0.252,0.302
		c-0.034-0.033-0.101-0.067-0.201-0.101v0.101l0.401,0.703l-0.1-0.05v0.101c0-0.101,0.032-0.033,0.1,0.2h0.653
		c0,0.57,0.168,0.905,0.503,1.006h-0.101l-0.101,0.15c0.101,0.402,0.234,0.771,0.402,1.105h0.502c-0.033,0.201,0,0.402,0.101,0.604
		l-0.05,0.251c0.066,0.234,0.184,0.603,0.352,1.105c0.066,0.135,0.284,0.319,0.653,0.553l0.15,0.251l0.653,0.302
		c2.781-1.641,4.238-2.998,4.372-4.07c-0.301-0.334-0.687-0.871-1.155-1.608l0.05-0.251c0.167,0.101,0.368,0.369,0.604,0.804h0.201
		c-0.269-0.401-0.653-1.005-1.156-1.809c-0.067-0.469-0.269-1.139-0.603-2.011c-0.336,0.168-0.738,0.285-1.207,0.353
		c-0.67,0.067-1.089,0.117-1.256,0.15l1.96-0.352l0.201-0.151c-0.135-0.032-0.319-0.032-0.553,0l0.201-0.101h-0.554h-0.401
		c-0.034,0.034-0.034,0.068,0,0.101c-0.437,0.034-0.922,0.084-1.458,0.151l-0.1,0.101l0.1,0.251c-0.938,0-1.607-0.167-2.01-0.503
		l-0.201,0.051l0.151,0.201c0.401,0.234,0.887,0.385,1.457,0.452c-0.671-0.067-1.039-0.083-1.105-0.051
		c-0.067-0.268-0.201-0.418-0.402-0.452h-0.15l0.05-0.15h-0.05l-0.251,0.101c-0.638-0.101-1.006-0.151-1.106-0.151h-0.15
		l0.452,0.402l-0.302-0.251c-0.335,0.033-0.47,0.05-0.401,0.05h-0.201v-0.201l-0.352,0.151c-0.671-0.503-1.274-0.754-1.81-0.754
		c-0.067,0-0.134,0.018-0.201,0.05l-0.101,0.302l-0.2-0.05l-0.151,0.05l-0.201-0.201l-0.352,0.151c0.066,0,0.117,0.017,0.15,0.05
		l-0.05,0.15c-0.034-0.101-0.21-0.334-0.527-0.703c-0.319-0.368-0.528-0.569-0.629-0.604l-0.05,0.051l-0.05,0.251
		c-0.169-0.233-0.386-0.603-0.653-1.105c-0.101-0.368-0.252-0.904-0.453-1.608l-0.15-0.05c-0.067-0.234-0.15-0.435-0.251-0.604
		l-0.101-0.05c-0.067-0.804-0.235-1.457-0.503-1.96l0.051-0.15c-0.838-3.35-1.257-5.327-1.257-5.931
		c0-1.037,0.704-2.236,2.111-3.593c1.406-1.356,3.031-2.504,4.874-3.442c2.043-1.005,3.92-1.508,5.629-1.508
		c0.502,0,0.954,0.201,1.356,0.604l0.251-0.151c0.368,0.302,0.988,0.688,1.859,1.156l0.051,0.201l0.15,0.15
		c1.038,0.637,2.579,1.96,4.623,3.971l0.252-0.201c0.502,0.536,1.188,1.34,2.06,2.412c0.067,0.301,0.252,0.703,0.554,1.206
		C512.807,165.743,512.958,165.878,513.159,166.011z M502.957,168.323v0.05l-0.2-0.05l0.05-0.252l-0.201-0.301L502.957,168.323z"/>
	<path fill="#FFFFFF" d="M538.888,172.092c0,0.503-0.185,1.189-0.553,2.061c-0.369,0.872-0.737,1.407-1.105,1.608
		c-0.101,0.067-0.336,0.101-0.704,0.101c-0.469,0-0.737,0.251-0.804,0.753l-0.251-0.1c-0.671,0.369-1.425,1.089-2.262,2.16h0.051
		l-0.151,0.051l0.051,0.201c-0.302,0.335-0.353,0.52-0.151,0.553v0.101h-0.15l-0.051,0.1l-0.05,0.252
		c-0.067,0.067-0.135,0.168-0.201,0.302v0.1h-0.05v-0.301c-0.101,0.101-0.235,0.234-0.402,0.401
		c-0.168,0.369-0.369,0.771-0.604,1.206c-0.1,0.068-0.185,0.135-0.251,0.201l0.051,0.151l-0.151,0.05
		c-0.134,0.135-0.218,0.302-0.251,0.503c-0.135,0.134-0.269,0.344-0.402,0.628c-0.134,0.285-0.269,0.495-0.401,0.628v0.754
		c-0.302,0.235-0.621,0.703-0.955,1.407c-0.269,0.536-0.521,1.072-0.754,1.608l-0.201,0.101c0.033,0.067,0.083,0.134,0.15,0.2h-0.2
		l-0.051,0.101l0.051,0.352l-0.201,0.151c-0.235,0.436-0.285,0.988-0.151,1.658l-0.1-0.302l-0.101,0.051l-0.051,0.251l-0.251,0.302
		l0.05-0.051c-0.033,0.034-0.033,0.068,0,0.101l0.151,0.402l0.05,0.101l-0.352,0.452l0.05,0.15l0.051,0.051v0.201l-0.051-0.051
		c-0.033,0.034-0.033,0.084,0,0.151c-0.1,0.301-0.251,0.753-0.452,1.356c-0.033,0.335-0.118,0.804-0.251,1.407l0.251-0.251
		l-0.15,0.352l-0.101-0.101v0.101l-0.051,0.15l0.051,0.051c-0.47,0.301-0.821,0.77-1.056,1.407l-0.05-0.101
		c-0.034,0.032-0.084,0.05-0.15,0.05l0.15,0.352l0.201,0.051l-0.402,0.05l-0.452,0.251h-0.151c-0.067,0.033-0.084,0.101-0.05,0.201
		l0.101,0.051c-0.335,0.167-0.587,0.251-0.754,0.251l-0.15,0.101v0.101l0.05,0.15c0.101,0.033,0.184,0.117,0.251,0.252l-0.15-0.051
		l-0.352,0.051l-0.051-0.051c-0.269,0-0.653,0.066-1.155,0.201c-0.101,0.101-0.168,0.201-0.201,0.302l-0.352,0.352
		c-0.235-0.101-0.47-0.15-0.704-0.15s-0.401,0.05-0.502,0.15l-0.302,0.352c-0.269,0.066-0.653,0.101-1.156,0.101l-0.15-0.101
		c-0.067-0.168-0.126-0.318-0.176-0.452c-0.051-0.135-0.21-0.219-0.478-0.251c-0.067,0.066-0.15,0.101-0.251,0.101v-0.151
		l-0.302-0.101c-0.168-0.134-0.335-0.234-0.503-0.301l-0.2,0.05c-0.503-0.637-0.872-1.123-1.106-1.457
		c-0.436-0.671-0.67-1.206-0.703-1.608l-0.101-0.15c-0.234-0.135-0.318-0.201-0.251-0.201l-0.051,0.05l-0.05,0.151
		c-0.067-0.034-0.15-0.101-0.251-0.201c0.167-0.201,0.251-0.352,0.251-0.452v-0.051c-0.302-0.302-0.452-0.536-0.452-0.703
		l0.05-0.402l0.252-0.15l-0.252-0.101l0.201-0.352l-0.402-0.704l0.051-0.05c0.066,0,0.184-0.067,0.352-0.201
		c-0.402-0.704-0.603-1.942-0.603-3.719l0.2-0.151c0-0.032-0.017-0.352-0.05-0.954c0.134,0.335,0.352,0.838,0.653,1.507
		c0.133-1.206,0.201-1.774,0.201-1.708l0.101,0.302l0.15-0.151l0.05-0.401l0.252,0.352l0.15-0.452
		c0.134,0.134,0.352,0.301,0.653,0.502l0.101-0.502l0.251-0.051l0.402-0.653l0.703-0.201l0.051,0.151l0.101,0.101
		c0.268,0.067,0.603,0.318,1.005,0.754l0.201,0.1l0.05-0.05l0.051-0.101l0.05-0.05l0.101,0.101l1.307,0.452
		c0.167-0.234,0.402-0.636,0.704-1.206l-0.201-0.151l-0.402,0.101l0.352-0.101c-0.201-0.066-0.386-0.116-0.553-0.15l0.201-0.352
		l-0.251-0.503l0.15-0.502l-0.15-0.353l0.05-0.05v-0.201c-0.369-0.604-0.787-1.54-1.256-2.814c-0.034-0.066-0.051-0.133-0.051-0.201
		v-0.15l0.252-0.15c-0.503-1.34-1.006-2.212-1.508-2.613c-0.235-0.134-0.587-0.385-1.056-0.754c-1.14-1.105-1.894-2.103-2.262-2.99
		c-0.369-0.887-0.553-2.136-0.553-3.744c0-0.334,0.067-1.238,0.201-2.714c0.201-0.603,0.402-1.206,0.604-1.809
		c0.334-0.837,0.636-1.356,0.904-1.558l0.15,0.101l0.101-0.302c0.167,0.234,0.402,0.419,0.704,0.553
		c0.334-0.134,0.636-0.334,0.904-0.604l0.201,0.051v0.452c0.167-0.101,0.502-0.284,1.005-0.553c0.302,0.067,0.619,0.302,0.955,0.703
		c0.435,0.57,0.703,0.889,0.804,0.955c-0.101-0.101-0.219-0.201-0.352-0.302l-0.503,0.653c0.167,0.101,0.821,1.073,1.96,2.915
		c0.67,1.14,1.34,2.278,2.011,3.417l0.2-0.05c0.101,0.134,0.168,0.335,0.201,0.603c0.033,0.135,0.318,0.671,0.854,1.608
		c0.535,0.938,0.871,1.475,1.005,1.608c0.972-1.81,1.942-3.618,2.915-5.428c1.139-2.11,2.228-3.853,3.267-5.227
		c0.066-0.334,0.133-0.82,0.201-1.457v0.201c0-0.067,0.032-0.134,0.101-0.201h0.101l-0.201-0.653l0.05,0.15
		c0.066,0.135,0.167,0.269,0.302,0.402l0.05,0.302c0.067-0.134,0.101-0.302,0.101-0.503l0.051-0.05l-0.051-0.402l0.201,0.15
		l0.051-0.101v-0.2l0.15,0.101l0.201-0.051l-0.151-0.653l0.151,0.051c0.066,0.101,0.184,0.234,0.352,0.401
		c0-0.469,0.218-0.887,0.653-1.256l-0.05-0.452c0.1,0.067,0.2,0.15,0.301,0.251h0.201l-0.15-0.251
		c0.401,0.603,0.921,1.273,1.558,2.01v0.352l-0.201-0.201l-0.15,0.553c0.101,0.068,0.284,0.386,0.553,0.955
		c0.101,0,0.032,0.051-0.201,0.151c-0.067-0.033-0.135-0.084-0.201-0.151l-0.05,0.051c0.301,0.335,0.686,0.888,1.155,1.658
		c0.167,0.771,0.251,1.189,0.251,1.256c0-0.032-0.033-0.083-0.1-0.15v0.15l0.05,0.101c0.101,0.068,0.251,0.185,0.452,0.352
		l-0.05,0.051C538.586,169.562,538.888,170.953,538.888,172.092z M522.405,199.43c-0.47,0.234-0.854,0.352-1.155,0.352
		c-0.135,0-0.269-0.018-0.402-0.05c0.201-0.034,0.485-0.118,0.854-0.251c0.066-0.068,0.201-0.118,0.402-0.151l0.1-0.101l0.051-0.05
		v-0.051v0.051l-0.051,0.101l0.051,0.101L522.405,199.43z M536.275,164.403h-0.251l0.15,0.05h0.101V164.403z M538.134,175.459
		l-1.508,2.11l0.503-0.955v0.101h0.15L538.134,175.459z M538.989,169.68l-0.051,0.101c-0.067-0.066-0.117-0.15-0.15-0.251v-0.051
		h0.101c0.066,0,0.101,0.034,0.101,0.101V169.68z"/>
	<path fill="#FFFFFF" d="M564.317,186.716c0.032,0.134,0.05,0.302,0.05,0.502c0,0.235-0.059,0.662-0.176,1.282
		c-0.118,0.62-0.159,1.098-0.126,1.432c-0.201,0.101-0.486,0.319-0.854,0.653c-0.067,0.168-0.084,0.336-0.05,0.503l-0.503-0.101
		c-0.536,0-0.954,0.251-1.256,0.754l-0.653,0.502l-1.156-0.101c-0.301-0.435-0.586-0.686-0.854-0.753l-0.302,0.352l-0.402-0.151
		l-0.15,0.302c-0.336-0.569-0.889-1.373-1.658-2.412c-1.039,1.039-2.362,1.751-3.971,2.136c-1.607,0.386-2.663,0.812-3.166,1.281
		l0.252,0.051c-0.269,0.033-0.537-0.033-0.805-0.201l-0.05,0.05v0.151l0.05,0.101c-0.067-0.101-0.134-0.168-0.201-0.201h-0.101
		l-0.05,0.101c-0.536-0.335-1.022-0.604-1.457-0.805c-0.47-0.502-1.123-1.307-1.96-2.412c-0.302-0.603-0.805-1.49-1.508-2.663
		l-0.201-0.05l-0.15,0.2v0.252c-0.068-0.134-0.26-0.503-0.578-1.105c-0.319-0.604-0.779-1.475-1.382-2.613l-0.101-0.051
		c-0.067,0.034-0.101,0.068-0.101,0.101l0.05,0.201c-0.067-0.469-0.352-1.071-0.854-1.81l0.101-0.753
		c0-0.302-0.025-0.754-0.076-1.357c-0.05-0.603-0.075-1.071-0.075-1.407c0-1.574,0.218-2.764,0.653-3.567
		c0.234-0.436,0.385-0.871,0.452-1.307v-2.111c0-1.373,0.721-3.467,2.161-6.281c1.574-3.016,2.932-4.522,4.07-4.522
		c0.368,0,0.796,0.326,1.282,0.979c0.484,0.653,0.778,1.198,0.879,1.633c0.535,2.078,0.804,4.507,0.804,7.287
		c0,0.671-0.185,1.575-0.553,2.714c-0.436,1.307-0.687,2.194-0.753,2.663c0.066,0.235,0.167,0.57,0.301,1.005
		c0.368,0.771,0.871,1.978,1.508,3.619c0.771,0,1.272,0.1,1.508,0.301l0.402-0.101l0.2,0.101l0.151-0.101l0.05-0.101v-0.1
		l0.503-0.604v-0.201l-0.101-0.201v-0.05c0.435-0.535,0.786-1.424,1.056-2.663c0.367-1.709,0.585-2.681,0.652-2.915l-0.05-0.452
		c-0.369,0.904-0.553,1.44-0.553,1.607l-0.101-0.401l-0.251,0.201l0.352-0.805l-0.05-0.251c-0.068-0.066-0.151-0.134-0.252-0.201
		h0.201c-0.067-0.268-0.15-0.686-0.251-1.256l0.352,0.804v-2.262l-0.352-0.251l0.15,0.251c0.033-0.938,0.151-2.211,0.352-3.819
		l0.051,0.151l0.101,0.05l0.201-1.105c0.032-0.133-0.018-0.334-0.151-0.603s-0.201-0.453-0.201-0.553
		c0-0.067,0.051-0.569,0.151-1.508l0.301-0.101c0.402-1.474,1.173-2.596,2.312-3.367c0.568-0.368,1.842-0.938,3.818-1.709
		l0.252,0.553l0.05-0.1c0.067,0.1,0.159,0.209,0.276,0.326c0.117,0.118,0.31,0.227,0.578,0.327l-0.05,0.301l0.101,0.302l0.251,0.251
		c0.133,0.068,0.251,0.084,0.352,0.051c-0.034,0.134-0.05,0.269-0.05,0.401c0,0.27,0.05,0.671,0.15,1.207s0.15,0.938,0.15,1.206
		l-0.251,0.2c0,0.604,0.075,1.508,0.227,2.714c0.15,1.206,0.226,2.11,0.226,2.714c0,0.335-0.084,0.829-0.251,1.482
		c-0.168,0.653-0.251,1.131-0.251,1.433c0,0.47,0.083,0.754,0.251,0.854c-0.436,0.569-0.88,1.558-1.332,2.965
		c-0.452,1.406-0.679,2.462-0.679,3.166c0,0.134,0,0.318,0,0.553c0.033,0.269,0.051,0.452,0.051,0.553
		c0.268,0.067,0.385,0.401,0.352,1.005c0.535,0.737,1.223,1.894,2.061,3.468C564.417,184.705,564.618,185.442,564.317,186.716z
		 M544.717,190.435l-0.553-0.904C544.366,189.698,544.549,189.999,544.717,190.435z M549.492,193.249
		c-0.101,0.033-0.285,0.084-0.553,0.15l-0.101-0.101l-0.05-0.15L549.492,193.249z M554.266,168.071c0,0.101-0.034,0.302-0.101,0.604
		v-1.608c0,0.101,0.017,0.26,0.05,0.478C554.249,167.763,554.266,167.938,554.266,168.071z"/>
	<path fill="#FFFFFF" d="M588.84,188.776c-0.034,0.335-0.285,0.871-0.754,1.607c-0.369,0.604-0.503,1.224-0.402,1.859l-0.201-0.101
		c-0.2,0.27-0.502,0.638-0.904,1.106l-0.05,0.15l0.05,0.15l0.051,0.151l-0.051,0.15l-0.352-0.201l-1.005,0.201l-0.553-0.101
		c-0.671,0-1.039,0.201-1.105,0.604c-0.402-0.336-0.889-0.537-1.458-0.604c-0.168-0.133-0.285-0.368-0.352-0.703
		c-0.067-0.469-0.101-0.721-0.101-0.754l0.101-0.101c0-0.335,0.066-0.854,0.201-1.558c-0.101-0.335-0.251-0.854-0.452-1.559
		c-0.101-0.167-0.428-0.46-0.98-0.879s-0.913-0.829-1.08-1.231c0-0.603-0.118-1.439-0.352-2.513
		c-0.437,0.101-0.973,0.521-1.608,1.257c-0.737,0.904-1.24,1.44-1.508,1.607c0,0.269-0.084,0.671-0.251,1.206l0.251,0.402
		c-0.033,0.135-0.05,0.269-0.05,0.402c0,0.201,0.066,0.511,0.201,0.93c0.133,0.419,0.217,0.712,0.251,0.879
		c0,0.336,0.033,0.805,0.101,1.407h0.251c-0.302,0.604-0.637,0.955-1.005,1.056c-0.135,0.033-0.653,0.033-1.558,0
		c-0.201,0-0.445,0.093-0.729,0.276c-0.285,0.184-0.462,0.377-0.528,0.578c-0.168-0.034-0.335-0.051-0.502-0.051
		c-0.805,0-1.709,0.368-2.714,1.105c-0.402-0.369-1.005-0.871-1.81-1.508c-0.168-0.669-0.251-1.926-0.251-3.769
		c0-0.201-0.025-0.503-0.075-0.904c-0.051-0.402-0.075-0.721-0.075-0.955c0-0.101,0.05-0.201,0.15-0.302l0.101,0.352
		c0.133-0.2,0.251-0.736,0.352-1.607c0.101-0.736,0.268-1.139,0.503-1.206v-1.508c0-0.435,0.334-1.726,1.005-3.869l0.15-0.201
		l-0.201-0.302h0.201l-0.05-0.302c0-0.569,0.101-1.172,0.301-1.809c-0.067,0.269-0.084,0.536-0.05,0.804l0.05-0.05v0.1v0.754
		c0.033-0.603,0.101-1.507,0.201-2.713l-0.15,0.1c-0.034-0.133-0.051-0.82-0.051-2.06c0-1.44-0.084-2.278-0.251-2.513
		c-0.101,0.101-0.168,0.2-0.201,0.301v0.101c0-0.032-0.285-0.686-0.854-1.96c-0.437-0.971-0.621-1.574-0.554-1.809l-0.251-0.101
		c-0.033-0.167-0.168-0.619-0.401-1.357c-0.135-0.502-0.201-0.971-0.201-1.406c0-0.604-0.018-0.938-0.051-1.006
		c-0.033-0.535,0.017-1.348,0.151-2.437c0.133-1.089,0.502-2.019,1.105-2.789c0.101-0.134,0.837-0.888,2.211-2.262
		c-0.067-0.134-0.101-0.268-0.101-0.402c0-0.301,0.209-0.694,0.628-1.181c0.419-0.485,0.779-0.729,1.081-0.729
		c0.535,0,1.172,0.285,1.909,0.854c0.972,0.771,1.574,1.759,1.81,2.965c0.167,0.737,0.201,1.893,0.101,3.467
		c-0.101,1.576-0.068,2.748,0.101,3.519c-0.235,1.742-0.353,3.735-0.353,5.979c0,0.402-0.075,0.872-0.226,1.407
		c-0.151,0.536-0.227,1.558-0.227,3.065c0,1.608,0.101,2.496,0.302,2.664h0.15h0.353c0.87-0.871,1.607-1.307,2.211-1.307
		c0.032-0.234,0.15-0.453,0.352-0.653c0.167-0.067,0.402-0.218,0.703-0.452c1.139-1.307,2.328-2.278,3.568-2.915
		c0.334-0.134,0.837-0.368,1.508-0.704c0.201-0.2,0.519-0.484,0.955-0.854l0.05-0.151l0.352,0.151c0.066,0,0.151,0,0.251,0
		l0.302-0.302l0.251-0.051l0.252,0.201c0.033-0.101,0.108-0.176,0.226-0.226c0.117-0.051,0.243-0.076,0.377-0.076l0.252-0.652
		c0.133,0.168,0.334,0.419,0.603,0.753c0.066,0.369-0.018,0.973-0.251,1.81c0,0.168-0.018,0.436-0.051,0.804
		c0.101,0.201,0.252,0.486,0.452,0.854c0,0.135-0.017,0.251-0.05,0.352l-0.101,0.151l-0.05,0.251l0.101,0.302
		c0.066,0.134,0.15,0.234,0.251,0.302c-0.101,0.067-0.185,0.168-0.251,0.301c-0.034,0.135-0.034,0.336,0,0.604
		c0.066,0.335,0.1,0.553,0.1,0.653c0,0.168-0.017,0.318-0.05,0.452c-0.101,0-0.234,0.034-0.402,0.101
		c-0.134,0.234-0.352,0.57-0.653,1.005c-0.2,0.201-1.038,0.62-2.513,1.256l-0.251-0.15l-0.452,0.302l0.101,0.15l0.251,0.101
		l-0.15,0.151c0.334,0.335,0.837,0.871,1.508,1.607c0.368,0.838,1.038,1.96,2.01,3.367c0.101,0.235,0.251,0.754,0.452,1.558
		C588.605,188.24,588.74,188.509,588.84,188.776z M570.045,176.967v-0.151l-0.051,0.101h-0.05c-0.067-0.032-0.118-0.083-0.15-0.15
		v-0.051v0.051l0.05,0.05C569.877,176.884,569.945,176.934,570.045,176.967z"/>
	<path fill="#FFFFFF" d="M615.776,174.152c0,1.374-0.219,2.747-0.653,4.121c-0.134,0.771-0.369,1.909-0.703,3.417
		c-0.235,0.838-0.637,1.843-1.206,3.015c-0.872,1.844-1.324,2.814-1.357,2.915l-0.101-0.101c-0.067,0-0.15,0.06-0.251,0.176
		c-0.101,0.118-0.269,0.276-0.502,0.478c-0.068,0.067-0.118,0.15-0.151,0.251l-0.101,0.151l-0.251,0.101
		c-0.436,0.436-0.988,1.022-1.658,1.759h-0.151l-0.05-0.101c-0.034-0.066-0.067-0.083-0.101-0.051
		c-0.135,0.068-0.352,0.185-0.653,0.353l-0.15,0.05l-0.252,0.503l-0.251-0.051h-0.05c-0.101,0.135-0.169,0.252-0.201,0.352
		l-0.051,0.051l-0.05-0.15c-0.402,0.569-0.788,0.904-1.156,1.005c-0.502,0.067-1.005,0.134-1.508,0.201l-0.15,0.301
		c-0.135-0.201-0.369-0.469-0.703-0.804h-0.201c-0.101,0.067-0.235,0.118-0.402,0.15c-0.637-0.334-1.256-0.653-1.859-0.954
		c-0.871-0.436-1.491-0.653-1.859-0.653c-0.201,0-0.419,0.017-0.653,0.05c0,0.101,0.033,0.168,0.101,0.201l0.051,0.05h-0.302
		c-0.168,0.034-0.42-0.083-0.754-0.352c-0.57-0.435-0.904-0.736-1.005-0.904c-0.034-0.033-0.201-0.503-0.503-1.407
		c-0.134-0.134-0.302-0.385-0.503-0.754l-0.301,0.352c-0.034-0.233-0.185-0.77-0.452-1.607h-0.201l-0.151,0.2
		c-0.067,0.235-0.134,0.47-0.2,0.704l-0.503-2.463l-0.101,0.653l-0.452-0.954l0.05-0.653c0-0.302-0.134-0.854-0.401-1.658
		c-0.068-0.335-0.185-0.854-0.353-1.559c-0.737-2.345-1.105-4.104-1.105-5.276c0-0.871,0.092-1.558,0.276-2.061
		c0.184-0.502,0.478-1.239,0.88-2.211c0.334-1.105,0.687-2.211,1.056-3.316c0.535-1.541,1.105-2.396,1.708-2.563
		c-0.168,0.269-0.369,0.553-0.603,0.854c-0.034,0.067-0.051,0.118-0.051,0.15l0.151,0.151c1.172-2.345,3.869-3.518,8.091-3.518
		c1.005,0,1.759-0.084,2.261-0.252c0.636,0.034,1.558,0.084,2.765,0.151c0.669,0.033,1.272,0.2,1.809,0.502l0.051,0.402
		c0.502,0.335,1.59,1.877,3.266,4.623c1.541,2.513,2.412,4.055,2.613,4.624C615.708,173.197,615.776,173.649,615.776,174.152z
		 M597.233,191.54c-0.336-0.334-0.587-0.704-0.754-1.105L597.233,191.54z M608.137,177.871c-0.201-0.938-0.586-2.262-1.155-3.97
		h0.201c-0.169-1.273-0.235-2.011-0.201-2.212l0.05,0.604l-0.05-1.91c-0.671-0.971-1.341-1.558-2.011-1.759
		c-0.033,0.034-0.101,0.051-0.201,0.051l-0.1,0.101c-0.302-0.067-0.503-0.101-0.604-0.101c-0.904,0-1.726,0.721-2.462,2.161
		c0,0.502-0.051,1.248-0.151,2.236s-0.15,1.733-0.15,2.235c0,2.145,0.82,3.687,2.462,4.624c0.302,0.101,0.754,0.401,1.357,0.904
		c0.133-0.066,0.368-0.167,0.703-0.302c0.134,0.034,0.234,0.101,0.302,0.201c0.033-0.101,0.133-0.268,0.302-0.502
		c0.167-0.033,0.352-0.067,0.553-0.101C607.014,180.1,607.4,179.346,608.137,177.871z M604.519,179.932l-0.05,0.101h-0.201
		l-0.051,0.101v-0.302L604.519,179.932z M606.429,192.947c-0.034,0.234-0.101,0.386-0.201,0.452
		c-0.067-0.134-0.135-0.302-0.201-0.503l0.05-0.101L606.429,192.947z M615.223,174.102V173.7l-0.201-0.302L615.223,174.102z"/>
	<path fill="#FFFFFF" d="M641.505,186.716c0.033,0.134,0.051,0.302,0.051,0.502c0,0.235-0.059,0.662-0.176,1.282
		c-0.118,0.62-0.159,1.098-0.126,1.432c-0.201,0.101-0.486,0.319-0.854,0.653c-0.067,0.168-0.084,0.336-0.05,0.503l-0.503-0.101
		c-0.536,0-0.954,0.251-1.256,0.754l-0.653,0.502l-1.156-0.101c-0.301-0.435-0.586-0.686-0.854-0.753l-0.301,0.352l-0.402-0.151
		l-0.15,0.302c-0.336-0.569-0.889-1.373-1.659-2.412c-1.038,1.039-2.361,1.751-3.97,2.136c-1.608,0.386-2.663,0.812-3.166,1.281
		l0.251,0.051c-0.269,0.033-0.536-0.033-0.804-0.201l-0.05,0.05v0.151l0.05,0.101c-0.067-0.101-0.134-0.168-0.201-0.201h-0.101
		l-0.05,0.101c-0.536-0.335-1.022-0.604-1.457-0.805c-0.47-0.502-1.123-1.307-1.96-2.412c-0.302-0.603-0.805-1.49-1.508-2.663
		l-0.201-0.05l-0.15,0.2v0.252c-0.068-0.134-0.26-0.503-0.578-1.105c-0.319-0.604-0.779-1.475-1.382-2.613l-0.101-0.051
		c-0.067,0.034-0.101,0.068-0.101,0.101l0.05,0.201c-0.067-0.469-0.352-1.071-0.854-1.81l0.1-0.753c0-0.302-0.024-0.754-0.075-1.357
		c-0.05-0.603-0.075-1.071-0.075-1.407c0-1.574,0.218-2.764,0.653-3.567c0.234-0.436,0.385-0.871,0.452-1.307v-2.111
		c0-1.373,0.721-3.467,2.161-6.281c1.574-3.016,2.931-4.522,4.07-4.522c0.368,0,0.796,0.326,1.281,0.979s0.779,1.198,0.88,1.633
		c0.535,2.078,0.804,4.507,0.804,7.287c0,0.671-0.185,1.575-0.553,2.714c-0.436,1.307-0.687,2.194-0.754,2.663
		c0.067,0.235,0.168,0.57,0.302,1.005c0.368,0.771,0.871,1.978,1.508,3.619c0.771,0,1.272,0.1,1.508,0.301l0.401-0.101l0.201,0.101
		l0.151-0.101l0.05-0.101v-0.1l0.503-0.604v-0.201l-0.101-0.201v-0.05c0.435-0.535,0.786-1.424,1.055-2.663
		c0.368-1.709,0.586-2.681,0.653-2.915l-0.05-0.452c-0.369,0.904-0.553,1.44-0.553,1.607l-0.101-0.401l-0.251,0.201l0.352-0.805
		l-0.051-0.251c-0.067-0.066-0.15-0.134-0.251-0.201h0.201c-0.067-0.268-0.15-0.686-0.251-1.256l0.352,0.804v-2.262l-0.352-0.251
		l0.15,0.251c0.033-0.938,0.15-2.211,0.352-3.819l0.051,0.151l0.101,0.05l0.2-1.105c0.033-0.133-0.017-0.334-0.15-0.603
		s-0.201-0.453-0.201-0.553c0-0.067,0.051-0.569,0.151-1.508l0.301-0.101c0.402-1.474,1.173-2.596,2.312-3.367
		c0.568-0.368,1.842-0.938,3.818-1.709l0.252,0.553l0.05-0.1c0.066,0.1,0.159,0.209,0.276,0.326c0.117,0.118,0.31,0.227,0.578,0.327
		l-0.051,0.301l0.101,0.302l0.252,0.251c0.133,0.068,0.251,0.084,0.352,0.051c-0.034,0.134-0.05,0.269-0.05,0.401
		c0,0.27,0.05,0.671,0.15,1.207s0.15,0.938,0.15,1.206l-0.251,0.2c0,0.604,0.075,1.508,0.226,2.714
		c0.151,1.206,0.227,2.11,0.227,2.714c0,0.335-0.084,0.829-0.251,1.482c-0.168,0.653-0.251,1.131-0.251,1.433
		c0,0.47,0.083,0.754,0.251,0.854c-0.437,0.569-0.88,1.558-1.332,2.965c-0.452,1.406-0.679,2.462-0.679,3.166
		c0,0.134,0,0.318,0,0.553c0.033,0.269,0.051,0.452,0.051,0.553c0.268,0.067,0.385,0.401,0.352,1.005
		c0.535,0.737,1.223,1.894,2.061,3.468C641.606,184.705,641.807,185.442,641.505,186.716z M621.907,190.435l-0.553-0.904
		C621.555,189.698,621.739,189.999,621.907,190.435z M626.681,193.249c-0.101,0.033-0.285,0.084-0.553,0.15l-0.101-0.101
		l-0.051-0.15L626.681,193.249z M631.456,168.071c0,0.101-0.034,0.302-0.101,0.604v-1.608c0,0.101,0.016,0.26,0.05,0.478
		C631.438,167.763,631.456,167.938,631.456,168.071z"/>
</g>
</svg>
