<?xml version="1.0" encoding="utf-8"?>
<!-- Generator: Adobe Illustrator 15.1.0, SVG Export Plug-In . SVG Version: 6.00 Build 0)  -->
<!DOCTYPE svg PUBLIC "-//W3C//DTD SVG 1.1//EN" "http://www.w3.org/Graphics/SVG/1.1/DTD/svg11.dtd" [
	<!ENTITY ns_flows "http://ns.adobe.com/Flows/1.0/">
	<!ENTITY ns_extend "http://ns.adobe.com/Extensibility/1.0/">
	<!ENTITY ns_ai "http://ns.adobe.com/AdobeIllustrator/10.0/">
	<!ENTITY ns_graphs "http://ns.adobe.com/Graphs/1.0/">
]>
<svg version="1.1" id="レイヤー_1" xmlns:x="&ns_extend;" xmlns:i="&ns_ai;" xmlns:graph="&ns_graphs;"
	 xmlns="http://www.w3.org/2000/svg" xmlns:xlink="http://www.w3.org/1999/xlink" xmlns:a="http://ns.adobe.com/AdobeSVGViewerExtensions/3.0/"
	 x="0px" y="0px" width="532.3px" height="178.3px" viewBox="0 0 532.3 178.3" style="enable-background:new 0 0 532.3 178.3;"
	 xml:space="preserve">
<g>
	<path style="fill:#D6D6D6;" d="M247.8,28.2c-12.7-16.5-28.3,1.7-24.3,8.1c-12.6,6.4-4.1,22.1,1.6,20.1c5.3,6.2,12.6-3,9.5-6.6
		c-3.1-3.7-6.6,0.8-6.6,0.8c-0.9,1.2-4.7,0.2-2.1-3.1c3.5-4.5,10-2.8,12.1,0.2c2.1,3.1,3.7,8-2.3,13.6c-4.6,4.9-15,1.8-20.8-7.9
		c-5.8-9.7,3.5-17.6,3.5-17.6s2.3-1.9-0.6-6.4c-2.8-4.4-11.6-6.2-12.8-1.3c0,0-4.3-5.6-12.8,1.6c-8.5,7.2,0,17.1,4.3,18.8
		c4.3,1.7,6.5-2.7,4.9-5.7c-1.6-3-2.5,1.1-4.5-0.1c-2-1.2,0.2-5.5,4.5-3.9c8.6,4.4,2,14.9-3.4,13.7c-5.4-1.2-9.1-3-10.7-10
		c-1.1,1-4.4,7.2-0.4,10.7c3.9,3.5-0.5,5.8-5.6,4.3c-5.2-1.5-3.4-4-4.6-12.2c-1.2-8.3-10.5-7.7-15.4-4.9c-0.6,0.3-1.2,0.5-1.8,0.4
		c7.4,11.3,11.8,24.7,12.2,39c1.1,0,2.2-0.1,3.4-0.5c0.2,4.8,8.7,9.6,14.4,4.8c5.6-4.8,7.1-9.5,2.3-16.2c-4.7-6.7,1.8-9.9,5.4-5.6
		c3.6,4.2,6.9,2.9,11.8,0.1c-4.4,9.1,3.8,5.6,5.9,12.6c2.1,7,15.2,11.5,21,0.6c6.3,3.9,20.5-5.8,16.4-17.9
		C264.8,53.3,263.9,34.5,247.8,28.2z"/>
</g>
<text transform="matrix(1 0 0 1 180.895 128.0176)" style="fill:#819678; font-family:'TrajanPro-Bold'; font-size:25;">TENSHIN WebWorkshop</text>
<text transform="matrix(1 0 0 1 184.1089 160.9556)" style="fill:#819678; font-family:'TrajanPro-Bold'; font-size:21;">Fusion of  Web and ZEN</text>
<path style="fill:#C9AB2D;" d="M88.7,175.3C40.9,175.3,2,136.5,2,88.7C2,40.9,40.9,2,88.7,2c47.8,0,86.7,38.9,86.7,86.7
	C175.3,136.5,136.5,175.3,88.7,175.3z M88.7,12.6c-41.9,0-76,34.1-76,76c0,41.9,34.1,76,76,76c41.9,0,76-34.1,76-76
	C164.7,46.7,130.6,12.6,88.7,12.6z"/>
<g>
	<path style="fill:#C9AB2D;" d="M99.1,72.7C95.4,71,92,70,89,69.9c-0.2,0-2.6,0.5-7.3,1.5c-5.1,1-8,1.6-8.8,1.7
		c0.7-4.8,2.2-8.6,4.2-11.4c0.3-0.3,0.4-0.7,0.4-1.1c0.1-2.3-1.3-4.3-4.4-6.3c6.2-1.4,12.9-2,19.9-1.6c0.8,0,2,0.2,3.6,0.4
		c1.6,0.2,2.8,0.3,3.6,0.4c5.2,0.3,7.8-1.1,8-4.1c0.2-3.5-1.9-6.6-6.3-9.1c-3.7-2.1-7.5-3.2-11.6-3.4c-2.3-0.1-8.2,0.8-17.7,2.7
		c-6.3,1.4-12.6,2.7-18.9,4c-10.4,2-18.8,0.2-20.4,0.1c-2.4-0.1-4.5-0.7-6.3-1.8l-0.9,0.8c0.2,1.9,1.6,4.7,4.2,8.5
		c2.6,3.8,4.7,6,6.4,6.5c8.5-3.1,17.6-1.9,22.3-1.8c0,0.6,0.6,1.8,1.5,3.6c0.8,1.5,1.1,3.5,1,5.9c-0.2,3.1-0.7,6.2-1.6,9.1
		c-11.5,2.5-17.9,3.7-19.1,3.6c-2.8-0.1-5.6-0.9-8.5-2.4l-0.9,1.4c0.5,2.4,1.8,5.3,3.9,8.8c2.4,3.9,4.4,6.1,6.2,6.6
		c3.2-2.2,5.6-3.5,7.1-4.1c2.1-0.8,4.8-1.2,8.3-1.4c-7.3,18.2-18.1,34.9-39,47.1l0.8,0.6c2.2,0.4,4.4,0.6,6.4,0.7
		c18.8,1,30.2-13,41-38.9c0,0,0,0.1,0.1,0.1c0.1-0.1,0.1-0.3,0.2-0.4c0.2-0.5,0.5-1,0.8-1.5c1-2,1.8-4.1,3-6.1
		c0-0.2,0.1-0.4,0.2-0.6c0.1-0.4,0.3-0.7,0.5-1.1c0.1-0.2,0.2-0.5,0.3-0.7c0.2-0.4,0.4-0.7,0.7-1c0.3-0.3,0.7-0.6,1.2-0.7
		c0.1,0,0.3-0.1,0.4-0.1c0.4-0.1,0.8-0.2,1.3-0.2c0.1,0,0.2,0,0.3,0c2.6-0.2,5.2-0.2,7.9-0.1c1.7,0.1,4.2,0.4,7.5,0.9
		c3.3,0.5,5.8,0.8,7.5,0.9c1.9,0.1,3.6-0.5,5.1-1.7c1.5-1.2,2.3-2.8,2.4-4.7C105.7,77.2,103.5,74.9,99.1,72.7z"/>
	<path style="fill:#C9AB2D;" d="M160.8,125.4c0.1,1.2-0.1,2.2-0.6,3.1c-1,2-4.7,3.9-11.1,5.9c-5.3,1.6-9.9,2.6-13.8,3
		c-7.1,0.7-14.4,0.6-22-0.4c-8.2-1.1-14.8-3-19.9-5.7c-8.5-4.4-14.2-9.1-17.3-13.9c-3-4.5-5.3-8.4-6.8-11.9c-2.7-5.5-4.1-8.5-4.3-9
		c-1.9-3.4-4.1-6.2-6.5-8.3l0.2-1.1c1.3-0.4,2.5-0.6,3.7-0.8c2.6-0.3,5.8,0.1,9.8,1c4.5,1.1,6.8,2.4,7.1,4.1
		c0.1,0.6,0.1,1.4,0.1,2.4c0.1,1.1,0.2,1.9,0.2,2.4c0.3,2.6,1.1,5.2,2.6,7.7c0.2,0.6,1.8,2.9,4.8,7c3.8,5.3,9.6,9.3,17.7,12.1
		c8,2.8,16.3,3.7,24.7,2.9c7.6-0.8,11.1-4.2,10.4-10.3c-0.4-3.7-1.9-7.2-4.5-10.7l0.3-1.1c4.4,1.9,9.4,5.1,15.1,9.6
		C157.1,118.6,160.6,122.5,160.8,125.4z"/>
	<path style="fill:#C9AB2D;" d="M123.2,105.8c0.8,4.3-0.5,6.8-3.9,7.5c-2.5,0.5-4.6-0.3-6.3-2.3c-0.3-0.4-1.3-2.2-3-5.3
		c-1.9-3.6-4.1-6.9-6.5-9.9l-0.1-1.1c0.6-0.2,1.2-0.3,1.9-0.5c4.2-0.8,8-0.1,11.5,2.1C120.3,98.4,122.4,101.6,123.2,105.8z"/>
	<path style="fill:#C9AB2D;" d="M157.7,93.7c0.5,3.5-1.4,5.5-6,6.3c-0.9,0.2-2.7-0.4-5.3-1.7c-2-1-4.6-2.7-7.9-5.3
		c-3.3-2.6-5.8-4.3-7.6-5.3l-0.2-0.8c2.3-1.2,4.4-2,6.5-2.3c3.8-0.6,7.8-0.1,12.1,1.4C154.4,87.7,157.2,90.3,157.7,93.7z"/>
</g>
</svg>
