<?xml version="1.0" encoding="utf-8"?>
<!-- Generator: Adobe Illustrator 15.1.0, SVG Export Plug-In . SVG Version: 6.00 Build 0)  -->
<!DOCTYPE svg PUBLIC "-//W3C//DTD SVG 1.1//EN" "http://www.w3.org/Graphics/SVG/1.1/DTD/svg11.dtd" [
	<!ENTITY ns_flows "http://ns.adobe.com/Flows/1.0/">
	<!ENTITY ns_extend "http://ns.adobe.com/Extensibility/1.0/">
	<!ENTITY ns_ai "http://ns.adobe.com/AdobeIllustrator/10.0/">
	<!ENTITY ns_graphs "http://ns.adobe.com/Graphs/1.0/">
]>
<svg version="1.1" id="レイヤー_1" xmlns:x="&ns_extend;" xmlns:i="&ns_ai;" xmlns:graph="&ns_graphs;"
	 xmlns="http://www.w3.org/2000/svg" xmlns:xlink="http://www.w3.org/1999/xlink" xmlns:a="http://ns.adobe.com/AdobeSVGViewerExtensions/3.0/"
	 x="0px" y="0px" width="632.3px" height="452px" viewBox="0 0 632.3 452" style="enable-background:new 0 0 632.3 452;"
	 xml:space="preserve">
<g>
	<path style="fill:#D6D6D6;" d="M169.6,222.2c-10.5-6.5-25.1-6.9-32.7,6c-8.8,0-20.8,8.2-16.3,26.5c9.4-5.7,31.1-25.4,47.9,1.1
		c10.8,17-10,35.3-20.1,26.5c-4.8-4.1-3.8-10.1,6.3-7.6c3.2,4.4,11.3-3,3.7-14.3c-12.6-18.7-38.9,0.8-33.4,10
		c7,11.6,2.6,15.4-9.4,15.8c16.4,11.3,11.4,54.2-20.1,55.6c-31.5,1.3-31.8-30.3-22.2-39.6c15-14.7,26.8,3.5,22.4,11.7
		c-4.4,8.2-10.4,5.3-14.2-3.5c-6.9,5.7-0.8,28.6,19.7,17.8c18-9.4,9.6-40.8,0.4-41.8c1.9-4.4-8.3-28.3-26.6-27.7
		c-15.8-13.2-48.5-3-46.6,22.8c-35.3,6.4-39.5,66.3,3.3,70c26,53.5,81.4,45.8,97.1,7.3c15.8,3.1,33.4-5.8,24.5-33.5
		c8.8,6.3,24.6-0.7,28.3-18.4c13.3,17,27.7-0.1,29-7.6c1.2-7.6,10.1-3.8,14.5,4.4c11.7,20.8,28,18.2,35.9,10.4
		C219.4,297.5,186.1,264.1,169.6,222.2z"/>
</g>
<path style="fill:#D6D6D6;" d="M564.6,209.5c0,0-1.4-12.2,9-11.4c10.4,0.9,13.2,26.2-4.5,24.7c-5.8,11.7-42.9,0.5-33.2-28.6
	c-15.9-3.7-19.6-55.8,25.1-49.7c34.4-15,64.5,12.6,52.6,39.1c24.8,12.6,17.8,49.2,2.1,52.7c7.6,25.7-19.4,38.8-33.3,31.2
	c-13.9-7.6-21.1,10.4-28.3-10.4c-3.4,11.9-6.4,18.9-18.5,17.9c-12-1-17.3,13.9,0.2,17c17.5,3.1,22.4,12.4,21.1,28.4
	c-1.3,16.1-22,21.6-29.5,14.5c-10.5,19.3-44.4,18.2-47.7,0.1c-15,5.2-16.2-9.4-15.7-15.8c1.4-7.2-4.2-18.1-15.4-9.4
	c-11.2,8.8-26.9,12.3-35.5-1.3c-8.6-13.6-15.4-19.1-24.1-11.7c5.8-11.7,13.4-15.1,22.4-7c9,8,31.7,18,35.1,6.1
	c3.4-11.9,16.8-26.9,31.2-16c14.5,10.9,15.5,17.5,25.7,11.8c10.2-5.6,13.4-15.9,2.1-15.2c-11.4,0.7-16-13.9-15.7-17.1
	c13.1,8.4,21.5,5.5,31.8-0.9c10.2-6.4,4.3-32.8-15.6-26.4c-9.2,4.1-6,14.1-1.1,12.8c4.9-1.2-0.1-8.9,7-6.7
	c7.1,2.2,10.3,12.2,1.1,16.3c-9.2,4.1-37.3,1.8-35.4-22.3c2-24.1,17.2-22,17.2-22c-5.7-9.4,10.6-20.2,21.7-17.6
	c11.1,2.5,10.6,9,10.6,9s-2.2,26.5,21.6,32.5c23.8,6,44.5-5.1,44.1-19.7c0.7-17.7-9.3-23-17.3-24.5c-8-1.5-20.5,5.9-19,18.2
	C557.7,217,565.2,212.8,564.6,209.5z"/>
<path style="fill:#C9AB2D;" d="M320.7,326.3c-89.4,0-162.1-72.7-162.1-162.1C158.5,74.7,231.3,2,320.7,2
	c89.4,0,162.1,72.7,162.1,162.1C482.8,253.6,410.1,326.3,320.7,326.3z M320.7,21.9c-78.4,0-142.2,63.8-142.2,142.2
	c0,78.4,63.8,142.3,142.2,142.3c78.4,0,142.3-63.8,142.3-142.3C462.9,85.7,399.1,21.9,320.7,21.9z"/>
<g>
	<path style="fill:#C9AB2D;" d="M340.2,134.3c-6.9-3.2-13.2-5-19-5.3c-0.3,0-4.9,1-13.7,2.9c-9.5,1.9-15,3-16.5,3.2
		c1.4-9,4-16.1,7.9-21.3c0.5-0.6,0.7-1.2,0.8-2c0.2-4.2-2.5-8.1-8.2-11.8c11.6-2.7,24.1-3.7,37.3-3c1.5,0.1,3.8,0.3,6.8,0.7
		c3,0.4,5.2,0.6,6.8,0.7c9.6,0.5,14.6-2,14.9-7.6c0.4-6.6-3.6-12.3-11.8-16.9c-6.9-3.8-14.1-6-21.6-6.4c-4.4-0.2-15.4,1.4-33.1,5
		c-11.8,2.5-23.5,5-35.3,7.4c-19.4,3.7-35.2,0.3-38.2,0.1c-4.5-0.2-8.5-1.4-11.8-3.3l-1.7,1.5c0.4,3.5,3,8.8,7.9,15.9
		c4.8,7.1,8.8,11.2,11.9,12.1c15.9-5.8,32.9-3.5,41.8-3.3c0.1,1.1,1,3.3,2.8,6.7c1.5,2.8,2.1,6.5,1.9,11c-0.3,5.9-1.3,11.6-2.9,17.1
		c-21.5,4.6-33.4,6.8-35.7,6.7c-5.3-0.3-10.6-1.8-15.8-4.5l-1.7,2.6c1,4.4,3.4,9.9,7.3,16.5c4.4,7.3,8.3,11.5,11.6,12.4
		c5.9-4.1,10.4-6.6,13.3-7.7c3.8-1.5,9-2.3,15.5-2.6c-13.7,34-33.8,65.3-73,88.1l1.5,1.2c4.2,0.7,8.2,1.1,11.9,1.3
		c35.2,1.9,56.5-24.3,76.7-72.7c0,0.1,0.1,0.1,0.1,0.2c0.1-0.2,0.3-0.5,0.4-0.7c0.4-0.9,0.9-1.9,1.5-2.8c1.9-3.8,3.4-7.7,5.6-11.4
		c0.1-0.4,0.2-0.7,0.4-1.1c0.2-0.7,0.6-1.4,1-2c0.2-0.5,0.4-0.9,0.6-1.3c0.3-0.7,0.7-1.4,1.3-1.9c0.6-0.6,1.4-1.1,2.3-1.4
		c0.2-0.1,0.5-0.1,0.7-0.2c0.7-0.3,1.5-0.4,2.4-0.4c0.2,0,0.4,0,0.6,0.1c4.8-0.4,9.7-0.4,14.8-0.2c3.2,0.2,7.8,0.7,14,1.6
		c6.1,0.9,10.8,1.5,14,1.6c3.6,0.2,6.8-0.8,9.6-3.1c2.8-2.3,4.2-5.2,4.4-8.8C352.5,142.7,348.5,138.3,340.2,134.3z"/>
	<path style="fill:#C9AB2D;" d="M455.7,232.8c0.2,2.2-0.1,4.2-1.1,5.9c-1.9,3.7-8.9,7.4-20.9,11.1c-9.9,3-18.5,4.9-25.8,5.7
		c-13.2,1.3-26.9,1.1-41.1-0.8c-15.3-2-27.8-5.6-37.2-10.7c-15.8-8.3-26.6-17-32.4-26.1c-5.6-8.4-9.8-15.8-12.8-22.2
		c-5-10.4-7.6-15.9-8.1-16.7c-3.6-6.4-7.6-11.6-12.1-15.4l0.3-2c2.4-0.7,4.7-1.2,6.9-1.4c4.8-0.5,10.9,0.1,18.3,1.9
		c8.3,2,12.8,4.6,13.2,7.6c0.1,1.1,0.2,2.6,0.2,4.5c0.2,2.1,0.4,3.6,0.5,4.4c0.5,4.9,2.1,9.6,4.9,14.4c0.4,1,3.4,5.4,8.9,13.1
		c7,9.9,18,17.5,33.1,22.6c15,5.2,30.4,6.9,46.2,5.3c14.2-1.4,20.7-7.8,19.5-19.2c-0.7-6.9-3.5-13.5-8.4-19.9l0.5-2
		c8.2,3.5,17.6,9.4,28.2,17.9C448.8,220.1,455.2,227.5,455.7,232.8z"/>
	<path style="fill:#C9AB2D;" d="M385.4,196.2c1.6,8-0.9,12.7-7.3,13.9c-4.7,0.9-8.6-0.5-11.7-4.3c-0.6-0.7-2.5-4.1-5.6-10
		c-3.6-6.8-7.7-13-12.1-18.5l-0.2-2.1c1.1-0.3,2.3-0.6,3.5-0.9c7.8-1.5,15-0.2,21.5,3.9C379.8,182.4,383.8,188.4,385.4,196.2z"/>
	<path style="fill:#C9AB2D;" d="M449.9,173.5c1,6.5-2.7,10.4-11.1,11.7c-1.8,0.3-5.1-0.8-9.9-3.1c-3.7-1.8-8.6-5.1-14.8-9.9
		c-6.2-4.8-10.9-8.1-14.2-9.8l-0.4-1.6c4.2-2.2,8.3-3.7,12.1-4.3c7-1.1,14.6-0.3,22.6,2.5C443.6,162.4,448.8,167.2,449.9,173.5z"/>
</g>
<text transform="matrix(1 0 0 1 195.8394 388.5576)" style="fill:#819678; font-family:'TrajanPro-Bold'; font-size:47.7464;">TENSHIN</text>
<text transform="matrix(1 0 0 1 153.0615 440.2832)" style="fill:#819678; font-family:'TrajanPro-Bold'; font-size:39.7887;">WebWorkshop</text>
</svg>
