<?xml version="1.0" encoding="utf-8"?>
<!-- Generator: Adobe Illustrator 15.1.0, SVG Export Plug-In . SVG Version: 6.00 Build 0)  -->
<!DOCTYPE svg PUBLIC "-//W3C//DTD SVG 1.1//EN" "http://www.w3.org/Graphics/SVG/1.1/DTD/svg11.dtd" [
	<!ENTITY ns_flows "http://ns.adobe.com/Flows/1.0/">
	<!ENTITY ns_extend "http://ns.adobe.com/Extensibility/1.0/">
	<!ENTITY ns_ai "http://ns.adobe.com/AdobeIllustrator/10.0/">
	<!ENTITY ns_graphs "http://ns.adobe.com/Graphs/1.0/">
]>
<svg version="1.1" id="レイヤー_1" xmlns:x="&ns_extend;" xmlns:i="&ns_ai;" xmlns:graph="&ns_graphs;"
	 xmlns="http://www.w3.org/2000/svg" xmlns:xlink="http://www.w3.org/1999/xlink" xmlns:a="http://ns.adobe.com/AdobeSVGViewerExtensions/3.0/"
	 x="0px" y="0px" width="533.1px" height="179.2px" viewBox="0 0 533.1 179.2" style="enable-background:new 0 0 533.1 179.2;"
	 xml:space="preserve">
<g>
	<path style="fill:#D6D6D6;" d="M245.8,28.8c-12.5-16.3-27.9,1.7-24,8c-12.4,6.3-4,21.7,1.6,19.8c5.2,6.1,12.4-2.9,9.3-6.5
		c-3.1-3.6-6.5,0.8-6.5,0.8c-0.9,1.2-4.6,0.2-2.1-3c3.5-4.4,9.8-2.8,11.9,0.2c2.1,3,3.6,7.9-2.3,13.4c-4.5,4.8-14.8,1.8-20.5-7.7
		c-5.7-9.5,3.4-17.4,3.4-17.4s2.2-1.9-0.5-6.3c-2.8-4.4-11.4-6.1-12.6-1.2c0,0-4.2-5.5-12.6,1.6c-8.3,7.1,0,16.8,4.3,18.5
		c4.3,1.6,6.4-2.6,4.8-5.6c-1.6-3-2.4,1.1-4.4-0.1c-2-1.2,0.2-5.4,4.4-3.8c8.5,4.3,2,14.7-3.4,13.5c-5.3-1.2-9-3-10.5-9.8
		c-1.1,0.9-4.3,7.1-0.4,10.5c3.9,3.4-0.4,5.7-5.5,4.2c-5.1-1.4-3.3-3.9-4.5-12c-1.2-8.1-10.3-7.5-15.2-4.8c-0.6,0.3-1.2,0.5-1.8,0.4
		c7.3,11.1,11.6,24.3,12,38.4c1.1,0,2.2-0.1,3.3-0.5c0.2,4.7,8.6,9.5,14.1,4.7c5.6-4.7,6.9-9.3,2.3-15.9c-4.7-6.6,1.8-9.7,5.4-5.5
		c3.6,4.2,6.8,2.9,11.7,0.1c-4.3,9,3.7,5.5,5.8,12.4c2,6.9,14.9,11.3,20.7,0.6c6.2,3.9,20.1-5.7,16.2-17.7
		C262.6,53.4,261.7,34.9,245.8,28.8z"/>
</g>
<text transform="matrix(1 0 0 1 179.9878 135.8237)" style="fill:#6D8464; font-family:'Baskerville-Bold'; font-size:29.2185;">TENSHIN WebWorkshop</text>
<text transform="matrix(1 0 0 1 184.1328 170.1943)" style="fill:#6D8464; font-family:'Baskerville-SemiBold'; font-size:25.3227;">Fusion of  WEB and ZEN</text>
<path style="fill:#C9AB2D;" d="M89.3,173.5c-47,0-85.3-38.2-85.3-85.3C4,41.2,42.2,3,89.3,3c47,0,85.3,38.2,85.3,85.3
	C174.5,135.3,136.3,173.5,89.3,173.5z M89.3,13.5C48,13.5,14.5,47,14.5,88.3c0,41.2,33.6,74.8,74.8,74.8c41.2,0,74.8-33.6,74.8-74.8
	C164.1,47,130.5,13.5,89.3,13.5z"/>
<g>
	<path style="fill:#C9AB2D;" d="M99.6,72.5c-3.6-1.7-7-2.6-10-2.8c-0.2,0-2.6,0.5-7.2,1.5c-5,1-7.9,1.6-8.7,1.7
		c0.7-4.7,2.1-8.5,4.2-11.2c0.3-0.3,0.4-0.7,0.4-1c0.1-2.2-1.3-4.3-4.3-6.2c6.1-1.4,12.6-1.9,19.6-1.6c0.8,0,2,0.2,3.6,0.4
		c1.6,0.2,2.8,0.3,3.6,0.4c5.1,0.3,7.7-1.1,7.8-4c0.2-3.5-1.9-6.5-6.2-8.9c-3.6-2-7.4-3.1-11.4-3.3c-2.3-0.1-8.1,0.8-17.4,2.6
		C67.3,41.4,61.2,42.7,55,44c-10.2,1.9-18.5,0.2-20.1,0.1c-2.4-0.1-4.4-0.7-6.2-1.8l-0.9,0.8c0.2,1.8,1.6,4.6,4.1,8.4
		c2.5,3.7,4.6,5.9,6.3,6.3c8.3-3,17.3-1.8,22-1.8c0,0.6,0.5,1.7,1.5,3.5c0.8,1.5,1.1,3.4,1,5.8c-0.2,3.1-0.7,6.1-1.5,9
		c-11.3,2.4-17.6,3.6-18.8,3.5c-2.8-0.1-5.5-0.9-8.3-2.3l-0.9,1.4c0.5,2.3,1.8,5.2,3.8,8.7c2.3,3.9,4.4,6,6.1,6.5
		c3.1-2.1,5.5-3.5,7-4c2-0.8,4.7-1.2,8.2-1.4C51,104.5,40.4,121,19.8,133l0.8,0.6c2.2,0.4,4.3,0.6,6.3,0.7
		c18.5,1,29.7-12.8,40.4-38.2c0,0,0,0.1,0.1,0.1c0.1-0.1,0.1-0.2,0.2-0.4c0.2-0.5,0.5-1,0.8-1.5c1-2,1.8-4.1,2.9-6
		c0-0.2,0.1-0.4,0.2-0.6c0.1-0.4,0.3-0.7,0.5-1.1c0.1-0.2,0.2-0.5,0.3-0.7c0.2-0.4,0.4-0.7,0.7-1c0.3-0.3,0.7-0.6,1.2-0.7
		c0.1,0,0.3-0.1,0.4-0.1c0.4-0.1,0.8-0.2,1.3-0.2c0.1,0,0.2,0,0.3,0c2.5-0.2,5.1-0.2,7.8-0.1c1.7,0.1,4.1,0.4,7.3,0.9
		c3.2,0.5,5.7,0.8,7.3,0.9c1.9,0.1,3.6-0.4,5-1.6c1.5-1.2,2.2-2.7,2.3-4.6C106,77,103.9,74.7,99.6,72.5z"/>
	<path style="fill:#C9AB2D;" d="M160.3,124.4c0.1,1.2-0.1,2.2-0.6,3.1c-1,1.9-4.7,3.9-11,5.8c-5.2,1.6-9.8,2.6-13.6,3
		c-6.9,0.7-14.2,0.6-21.6-0.4c-8.1-1.1-14.6-2.9-19.6-5.6c-8.3-4.4-14-8.9-17.1-13.7c-2.9-4.4-5.2-8.3-6.7-11.7
		c-2.6-5.5-4-8.4-4.2-8.8c-1.9-3.4-4-6.1-6.3-8.1l0.2-1.1c1.2-0.4,2.5-0.6,3.6-0.7c2.5-0.3,5.7,0.1,9.6,1c4.4,1.1,6.7,2.4,7,4
		c0.1,0.6,0.1,1.3,0.1,2.3c0.1,1.1,0.2,1.9,0.2,2.3c0.3,2.6,1.1,5.1,2.6,7.6c0.2,0.5,1.8,2.8,4.7,6.9c3.7,5.2,9.5,9.2,17.4,11.9
		c7.9,2.7,16,3.7,24.3,2.8c7.5-0.8,10.9-4.1,10.3-10.1c-0.4-3.6-1.8-7.1-4.4-10.5l0.3-1.1c4.3,1.8,9.2,5,14.8,9.4
		C156.6,117.7,160,121.6,160.3,124.4z"/>
	<path style="fill:#C9AB2D;" d="M123.3,105.1c0.8,4.2-0.5,6.7-3.8,7.3c-2.5,0.5-4.5-0.3-6.2-2.2c-0.3-0.4-1.3-2.1-2.9-5.3
		c-1.9-3.6-4-6.8-6.4-9.7l-0.1-1.1c0.6-0.2,1.2-0.3,1.8-0.5c4.1-0.8,7.9-0.1,11.3,2.1C120.4,97.9,122.5,101,123.3,105.1z"/>
	<path style="fill:#C9AB2D;" d="M157.2,93.2c0.5,3.4-1.4,5.4-5.9,6.2c-0.9,0.1-2.7-0.4-5.2-1.6c-1.9-1-4.5-2.7-7.8-5.2
		c-3.2-2.5-5.7-4.2-7.5-5.2l-0.2-0.8c2.2-1.2,4.3-1.9,6.4-2.2c3.7-0.6,7.7-0.1,11.9,1.3C153.9,87.3,156.7,89.9,157.2,93.2z"/>
</g>
</svg>
