<?xml version="1.0" encoding="utf-8"?>
<!-- Generator: Adobe Illustrator 15.1.0, SVG Export Plug-In . SVG Version: 6.00 Build 0)  -->
<!DOCTYPE svg PUBLIC "-//W3C//DTD SVG 1.1//EN" "http://www.w3.org/Graphics/SVG/1.1/DTD/svg11.dtd" [
	<!ENTITY ns_flows "http://ns.adobe.com/Flows/1.0/">
	<!ENTITY ns_extend "http://ns.adobe.com/Extensibility/1.0/">
	<!ENTITY ns_ai "http://ns.adobe.com/AdobeIllustrator/10.0/">
	<!ENTITY ns_graphs "http://ns.adobe.com/Graphs/1.0/">
]>
<svg version="1.1" id="レイヤー_1" xmlns:x="&ns_extend;" xmlns:i="&ns_ai;" xmlns:graph="&ns_graphs;"
	 xmlns="http://www.w3.org/2000/svg" xmlns:xlink="http://www.w3.org/1999/xlink" xmlns:a="http://ns.adobe.com/AdobeSVGViewerExtensions/3.0/"
	 x="0px" y="0px" width="580.6px" height="209.2px" viewBox="0 0 580.6 209.2" style="enable-background:new 0 0 580.6 209.2;"
	 xml:space="preserve">
<g>
	<path style="fill:#819678;" d="M241.4,150.7l-3.7,0.1c-1.4,0-2,0.2-2.4,0.7c-0.2,0.4-0.4,0.7-0.4,0.9c0,0.2-0.1,0.3-0.3,0.3
		c-0.2,0-0.2-0.1-0.2-0.4c0-0.4,0.5-2.6,0.5-2.8c0.1-0.3,0.1-0.5,0.3-0.5c0.2,0,0.4,0.2,1.1,0.3c0.7,0.1,1.7,0.1,2.5,0.1h9.8
		c0.8,0,1.3-0.1,1.7-0.1c0.4-0.1,0.6-0.1,0.7-0.1c0.2,0,0.2,0.1,0.2,0.5c0,0.5-0.1,2.2-0.1,2.9c0,0.2-0.1,0.4-0.2,0.4
		c-0.2,0-0.2-0.1-0.3-0.5l0-0.3c0-0.6-0.7-1.3-2.9-1.4l-3.1-0.1v10.1c0,2.3,0,4.2,0.1,5.3c0.1,0.7,0.2,1.2,1,1.3
		c0.3,0,0.9,0.1,1.3,0.1c0.3,0,0.4,0.1,0.4,0.2c0,0.2-0.2,0.2-0.5,0.2c-1.6,0-3.2-0.1-3.9-0.1c-0.6,0-2.1,0.1-3.1,0.1
		c-0.3,0-0.5-0.1-0.5-0.2c0-0.1,0.1-0.2,0.4-0.2c0.4,0,0.7,0,0.9-0.1c0.5-0.1,0.6-0.6,0.7-1.4c0.1-1,0.1-3,0.1-5.3V150.7z"/>
	<path style="fill:#819678;" d="M255.6,156.5c0-3.8,0-4.4,0-5.2c0-0.8-0.2-1.2-1.1-1.4c-0.2-0.1-0.6-0.1-1-0.1c-0.3,0-0.4,0-0.4-0.2
		c0-0.2,0.2-0.2,0.5-0.2c0.7,0,1.4,0,2,0c0.6,0,1.2,0,1.6,0c0.8,0,5.7,0,6.2,0c0.5,0,0.9-0.1,1.1-0.1c0.1,0,0.3-0.1,0.4-0.1
		c0.1,0,0.1,0.1,0.1,0.2c0,0.2-0.1,0.5-0.2,1.6c0,0.2-0.1,1.3-0.1,1.6c0,0.1-0.1,0.3-0.2,0.3c-0.2,0-0.2-0.1-0.2-0.3
		c0-0.2,0-0.6-0.1-0.9c-0.2-0.4-0.4-0.7-1.7-0.9c-0.4,0-3-0.1-3.5-0.1c-0.1,0-0.2,0.1-0.2,0.2v6.3c0,0.2,0,0.3,0.2,0.3
		c0.5,0,3.4,0,4,0c0.6-0.1,1-0.1,1.2-0.4c0.2-0.2,0.3-0.3,0.4-0.3c0.1,0,0.2,0,0.2,0.2c0,0.1-0.1,0.5-0.2,1.8c0,0.5-0.1,1.5-0.1,1.7
		c0,0.2,0,0.5-0.2,0.5c-0.2,0-0.2-0.1-0.2-0.2c0-0.2,0-0.6-0.1-0.9c-0.1-0.5-0.5-0.9-1.4-1c-0.5,0-2.9-0.1-3.5-0.1
		c-0.1,0-0.1,0.1-0.1,0.2v2c0,0.8,0,3.1,0,3.8c0,1.7,0.4,2.1,3,2.1c0.6,0,1.7,0,2.3-0.3s0.9-0.8,1.1-1.8c0-0.3,0.1-0.4,0.3-0.4
		c0.2,0,0.2,0.2,0.2,0.4c0,0.6-0.2,2.2-0.3,2.7c-0.2,0.6-0.4,0.6-1.3,0.6c-1.9,0-3.2,0-4.3-0.1c-1.1,0-1.8-0.1-2.6-0.1
		c-0.3,0-0.8,0-1.4,0c-0.6,0-1.2,0-1.7,0c-0.3,0-0.5-0.1-0.5-0.2c0-0.1,0.1-0.2,0.4-0.2c0.4,0,0.7,0,0.9-0.1
		c0.5-0.1,0.6-0.6,0.7-1.4c0.1-1,0.1-3,0.1-5.3V156.5z"/>
	<path style="fill:#819678;" d="M272.7,164.7c0,1.9,0.4,2.6,0.9,2.7c0.4,0.1,0.9,0.2,1.3,0.2c0.3,0,0.4,0,0.4,0.2
		c0,0.2-0.2,0.2-0.6,0.2c-1.6,0-2.6-0.1-3.1-0.1c-0.2,0-1.4,0.1-2.7,0.1c-0.3,0-0.5,0-0.5-0.2c0-0.1,0.1-0.2,0.4-0.2
		c0.3,0,0.8,0,1.1-0.1c0.6-0.2,0.7-0.9,0.8-3.1l0.2-14.6c0-0.5,0.1-0.8,0.3-0.8c0.3,0,0.5,0.3,0.9,0.8c0.3,0.3,4.1,4.4,7.7,7.9
		c1.7,1.7,5,5.2,5.4,5.6h0.1l-0.2-11.1c0-1.5-0.2-2-0.8-2.2c-0.4-0.1-1-0.1-1.3-0.1c-0.3,0-0.4-0.1-0.4-0.2c0-0.2,0.3-0.2,0.6-0.2
		c1.3,0,2.5,0.1,3,0.1c0.3,0,1.2-0.1,2.4-0.1c0.3,0,0.6,0,0.6,0.2c0,0.1-0.1,0.2-0.4,0.2c-0.2,0-0.4,0-0.7,0.1
		c-0.7,0.2-0.9,0.7-0.9,2.1l-0.3,15.6c0,0.5-0.1,0.8-0.3,0.8c-0.3,0-0.6-0.3-0.8-0.5c-1.6-1.5-4.7-4.7-7.3-7.3
		c-2.7-2.7-5.4-5.8-5.9-6.2h-0.1L272.7,164.7z"/>
	<path style="fill:#819678;" d="M293.3,167.7c-0.4-0.2-0.5-0.3-0.5-0.8c0-1.4,0.1-2.8,0.1-3.2c0-0.4,0.1-0.6,0.3-0.6
		c0.2,0,0.2,0.2,0.2,0.4c0,0.3,0.1,0.8,0.2,1.3c0.5,1.8,2,2.5,3.5,2.5c2.2,0,3.3-1.5,3.3-2.8c0-1.2-0.4-2.3-2.4-4l-1.1-0.9
		c-2.7-2.1-3.7-3.9-3.7-5.9c0-2.7,2.3-4.7,5.7-4.7c1.6,0,2.6,0.2,3.3,0.4c0.2,0,0.3,0.1,0.3,0.3c0,0.3-0.1,1-0.1,3
		c0,0.5-0.1,0.7-0.3,0.7c-0.2,0-0.2-0.1-0.2-0.4c0-0.2-0.1-1-0.6-1.6c-0.4-0.5-1.1-1.2-2.7-1.2c-1.8,0-2.9,1.1-2.9,2.5
		c0,1.1,0.6,2,2.6,3.6l0.7,0.5c3,2.2,4.1,4,4.1,6.3c0,1.4-0.5,3.1-2.3,4.3c-1.2,0.8-2.6,1-3.9,1
		C295.5,168.4,294.4,168.2,293.3,167.7z"/>
	<path style="fill:#819678;" d="M321.8,157.2c0.1,0,0.1,0,0.1-0.2v-0.5c0-3.8,0-4.4-0.1-5.2c0-0.8-0.2-1.2-1.1-1.4
		c-0.2-0.1-0.6-0.1-1-0.1c-0.3,0-0.4,0-0.4-0.2c0-0.2,0.2-0.2,0.5-0.2c1.3,0,2.9,0.1,3.6,0.1c0.6,0,2.2-0.1,3.1-0.1
		c0.3,0,0.5,0,0.5,0.2c0,0.2-0.1,0.2-0.4,0.2c-0.2,0-0.4,0-0.7,0.1c-0.7,0.1-0.9,0.5-0.9,1.4c0,0.8,0,1.5,0,5.2v4.4
		c0,2.3,0,4.2,0.1,5.3c0.1,0.7,0.2,1.2,1,1.3c0.3,0,0.9,0.1,1.3,0.1c0.3,0,0.4,0.1,0.4,0.2c0,0.2-0.2,0.2-0.5,0.2
		c-1.6,0-3.2-0.1-3.9-0.1c-0.6,0-2.1,0.1-3.1,0.1c-0.3,0-0.5-0.1-0.5-0.2c0-0.1,0.1-0.2,0.4-0.2c0.4,0,0.7,0,0.9-0.1
		c0.5-0.1,0.6-0.6,0.7-1.4c0.1-1,0.1-3,0.1-5.3v-2.2c0-0.1-0.1-0.1-0.1-0.1h-9.4c-0.1,0-0.1,0-0.1,0.1v2.2c0,2.3,0,4.2,0.1,5.3
		c0.1,0.7,0.2,1.2,1,1.3c0.3,0,0.9,0.1,1.3,0.1c0.3,0,0.4,0.1,0.4,0.2c0,0.2-0.2,0.2-0.5,0.2c-1.6,0-3.2-0.1-3.9-0.1
		c-0.6,0-2.1,0.1-3.1,0.1c-0.3,0-0.5-0.1-0.5-0.2c0-0.1,0.1-0.2,0.4-0.2c0.4,0,0.7,0,0.9-0.1c0.5-0.1,0.6-0.6,0.7-1.4
		c0.1-1,0.1-3,0.1-5.3v-4.4c0-3.8,0-4.4,0-5.2c0-0.8-0.2-1.2-1.1-1.4c-0.2-0.1-0.6-0.1-1-0.1c-0.3,0-0.4,0-0.4-0.2
		c0-0.2,0.2-0.2,0.5-0.2c1.3,0,2.9,0.1,3.6,0.1c0.6,0,2.2-0.1,3.1-0.1c0.3,0,0.5,0,0.5,0.2c0,0.2-0.1,0.2-0.4,0.2
		c-0.2,0-0.4,0-0.7,0.1c-0.7,0.1-0.9,0.5-0.9,1.4c0,0.8,0,1.5,0,5.2v0.5c0,0.1,0.1,0.2,0.1,0.2H321.8z"/>
	<path style="fill:#819678;" d="M333.1,156.5c0-3.8,0-4.4,0-5.2c0-0.8-0.3-1.3-0.8-1.4c-0.3-0.1-0.6-0.1-0.9-0.1
		c-0.2,0-0.4,0-0.4-0.2c0-0.1,0.2-0.2,0.6-0.2c0.9,0,2.5,0.1,3.2,0.1c0.6,0,2.1-0.1,3-0.1c0.3,0,0.5,0,0.5,0.2
		c0,0.2-0.1,0.2-0.4,0.2s-0.4,0-0.7,0.1c-0.7,0.1-0.9,0.5-0.9,1.4c0,0.8,0,1.5,0,5.2v4.4c0,2.4,0,4.4,0.1,5.4c0.1,0.7,0.2,1.1,1,1.2
		c0.3,0,0.9,0.1,1.3,0.1c0.3,0,0.4,0.1,0.4,0.2c0,0.2-0.2,0.2-0.5,0.2c-1.6,0-3.2-0.1-3.9-0.1c-0.6,0-2.1,0.1-3.1,0.1
		c-0.3,0-0.5-0.1-0.5-0.2c0-0.1,0.1-0.2,0.4-0.2c0.4,0,0.7,0,0.9-0.1c0.5-0.1,0.6-0.5,0.7-1.2c0.1-1,0.1-3,0.1-5.4V156.5z"/>
	<path style="fill:#819678;" d="M345.7,164.7c0,1.9,0.4,2.6,0.9,2.7c0.4,0.1,0.9,0.2,1.3,0.2c0.3,0,0.4,0,0.4,0.2
		c0,0.2-0.2,0.2-0.6,0.2c-1.6,0-2.6-0.1-3.1-0.1c-0.2,0-1.4,0.1-2.7,0.1c-0.3,0-0.5,0-0.5-0.2c0-0.1,0.1-0.2,0.4-0.2
		c0.3,0,0.8,0,1.1-0.1c0.6-0.2,0.7-0.9,0.8-3.1l0.2-14.6c0-0.5,0.1-0.8,0.3-0.8c0.3,0,0.5,0.3,0.9,0.8c0.3,0.3,4.1,4.4,7.7,7.9
		c1.7,1.7,5,5.2,5.4,5.6h0.1l-0.2-11.1c0-1.5-0.2-2-0.8-2.2c-0.4-0.1-1-0.1-1.3-0.1c-0.3,0-0.4-0.1-0.4-0.2c0-0.2,0.3-0.2,0.6-0.2
		c1.3,0,2.5,0.1,3,0.1c0.3,0,1.2-0.1,2.4-0.1c0.3,0,0.6,0,0.6,0.2c0,0.1-0.1,0.2-0.4,0.2c-0.2,0-0.4,0-0.7,0.1
		c-0.7,0.2-0.9,0.7-0.9,2.1l-0.3,15.6c0,0.5-0.1,0.8-0.3,0.8c-0.3,0-0.6-0.3-0.8-0.5c-1.6-1.5-4.7-4.7-7.3-7.3
		c-2.7-2.7-5.4-5.8-5.9-6.2h-0.1L345.7,164.7z"/>
	<path style="fill:#819678;" d="M372.9,151.7c-0.3-0.9-0.6-1.5-0.9-1.8c-0.3-0.2-0.8-0.2-1-0.2c-0.2,0-0.4,0-0.4-0.2
		c0-0.2,0.2-0.2,0.5-0.2c1.3,0,2.6,0.1,2.9,0.1c0.2,0,1.3-0.1,2.7-0.1c0.3,0,0.5,0.1,0.5,0.2c0,0.2-0.2,0.2-0.4,0.2
		c-0.2,0-0.4,0-0.6,0.1c-0.2,0.1-0.3,0.3-0.3,0.5c0,0.3,0.2,1.2,0.5,2.3c0.4,1.6,2.7,9.1,3.2,10.5h0.1l4.8-12.9
		c0.2-0.7,0.4-0.9,0.6-0.9c0.3,0,0.4,0.4,0.7,1.2L391,163h0.1c0.4-1.7,2.4-8.2,3.3-11.1c0.2-0.6,0.2-1.1,0.2-1.4
		c0-0.4-0.2-0.7-1.2-0.7c-0.2,0-0.4-0.1-0.4-0.2c0-0.2,0.2-0.2,0.6-0.2c1.3,0,2.3,0.1,2.6,0.1c0.2,0,1.2-0.1,2.1-0.1
		c0.3,0,0.4,0,0.4,0.2c0,0.2-0.1,0.2-0.3,0.2c-0.2,0-0.6,0-0.9,0.1c-0.6,0.2-0.9,1.2-1.4,2.6c-1.1,3.1-3.7,11-4.9,14.7
		c-0.3,0.9-0.4,1.2-0.7,1.2c-0.2,0-0.4-0.3-0.8-1.2l-5.1-12.4h0c-0.5,1.3-3.8,10-4.8,12.3c-0.5,1-0.6,1.3-0.9,1.3
		c-0.2,0-0.3-0.3-0.6-0.9L372.9,151.7z"/>
	<path style="fill:#819678;" d="M401.4,158.2c0-3.2,0-3.8,0-4.4c0-0.7-0.2-0.9-0.9-1.1c-0.2,0-0.5-0.1-0.9-0.1
		c-0.2,0-0.4-0.1-0.4-0.2c0-0.1,0.2-0.2,0.5-0.2c1.1,0,2.5,0,3.1,0c0.7,0,5.5,0,5.9,0c0.4,0,0.7-0.1,0.9-0.1c0.1,0,0.2-0.1,0.3-0.1
		c0.1,0,0.1,0.1,0.1,0.2c0,0.1-0.1,0.4-0.2,1.4c0,0.2-0.1,1.1-0.1,1.4c0,0.1-0.1,0.3-0.2,0.3c-0.1,0-0.2-0.1-0.2-0.3
		c0-0.1,0-0.5-0.1-0.8c-0.2-0.4-0.3-0.7-1.4-0.8c-0.4,0-3-0.1-3.4-0.1c-0.1,0-0.1,0.1-0.1,0.2v5.2c0,0.1,0,0.2,0.1,0.2
		c0.5,0,3.3,0,3.8,0c0.5,0,0.8-0.1,1-0.3c0.2-0.1,0.2-0.3,0.3-0.3c0.1,0,0.2,0.1,0.2,0.2s0,0.5-0.2,1.5c0,0.4-0.1,1.3-0.1,1.4
		c0,0.2,0,0.5-0.2,0.5c-0.1,0-0.2-0.1-0.2-0.2c0-0.2,0-0.5-0.1-0.8c-0.1-0.4-0.4-0.7-1.2-0.8c-0.4,0-2.9-0.1-3.4-0.1
		c-0.1,0-0.1,0.1-0.1,0.2v1.7c0,0.7,0,2.5,0,3.1c0,1.4,0.7,1.8,2.9,1.8c0.6,0,1.5,0,2.1-0.3c0.5-0.2,0.8-0.7,0.9-1.6
		c0-0.2,0.1-0.3,0.2-0.3c0.2,0,0.2,0.3,0.2,0.5c0,0.5-0.2,1.9-0.3,2.3c-0.1,0.5-0.3,0.5-1.2,0.5c-1.6,0-2.9,0-4-0.1
		c-1.1,0-1.9,0-2.5,0c-0.2,0-0.7,0-1.2,0c-0.5,0-1.1,0-1.5,0c-0.3,0-0.4-0.1-0.4-0.2c0-0.1,0.1-0.2,0.3-0.2c0.3,0,0.6,0,0.8-0.1
		c0.4-0.1,0.6-0.5,0.6-1.1c0.1-0.9,0.1-2.5,0.1-4.5V158.2z"/>
	<path style="fill:#819678;" d="M415.7,158.2c0-3.2,0-3.8,0-4.4c0-0.7-0.2-0.9-0.9-1.1c-0.2,0-0.5-0.1-0.9-0.1
		c-0.2,0-0.4-0.1-0.4-0.2c0-0.1,0.2-0.2,0.5-0.2c1.1,0,2.5,0,2.9,0c1.1,0,2.5,0,3.3,0c3.9,0,4.6,2,4.6,3.1c0,1.6-1.2,2.9-2.4,3.7
		c1.8,0.6,4,2.1,4,4.5c0,2.2-1.8,4.6-5.8,4.6c-0.2,0-1,0-1.7-0.1c-0.7,0-1.5,0-1.9,0c-0.2,0-0.7,0-1.2,0c-0.5,0-1.1,0-1.5,0
		c-0.3,0-0.4-0.1-0.4-0.2c0-0.1,0.1-0.2,0.3-0.2c0.3,0,0.6,0,0.8-0.1c0.4-0.1,0.6-0.5,0.6-1.1c0.1-0.9,0.1-2.5,0.1-4.5V158.2z
		 M418.5,158.5c0,0.2,0.1,0.2,0.1,0.2c0.2,0,0.5,0.1,1,0.1c0.7,0,1.3-0.1,1.7-0.4c0.6-0.4,1-1.2,1-2.2c0-1.4-0.8-3.2-2.7-3.2
		c-0.3,0-0.7,0-0.9,0c-0.1,0-0.2,0.1-0.2,0.3V158.5z M418.5,164.7c0,1.4,0.1,1.8,0.8,2.1c0.6,0.2,1.1,0.2,1.6,0.2
		c1.2,0,2.7-0.6,2.7-3c0-1-0.4-2.6-2.1-3.7c-0.4-0.3-1-0.5-1.9-0.5h-0.9c-0.1,0-0.1,0-0.1,0.1V164.7z"/>
	<path style="fill:#819678;" d="M429.8,151.7c-0.3-0.9-0.6-1.5-0.9-1.8c-0.3-0.2-0.8-0.2-1-0.2c-0.2,0-0.4,0-0.4-0.2
		c0-0.2,0.2-0.2,0.5-0.2c1.3,0,2.6,0.1,2.9,0.1s1.3-0.1,2.7-0.1c0.3,0,0.5,0.1,0.5,0.2c0,0.2-0.2,0.2-0.4,0.2c-0.2,0-0.4,0-0.6,0.1
		c-0.2,0.1-0.3,0.3-0.3,0.5c0,0.3,0.2,1.2,0.5,2.3c0.4,1.6,2.7,9.1,3.2,10.5h0.1l4.8-12.9c0.2-0.7,0.4-0.9,0.6-0.9
		c0.3,0,0.4,0.4,0.7,1.2l5.1,12.4h0.1c0.4-1.7,2.4-8.2,3.3-11.1c0.2-0.6,0.2-1.1,0.2-1.4c0-0.4-0.2-0.7-1.2-0.7
		c-0.2,0-0.4-0.1-0.4-0.2c0-0.2,0.2-0.2,0.6-0.2c1.3,0,2.3,0.1,2.6,0.1c0.2,0,1.2-0.1,2.1-0.1c0.3,0,0.4,0,0.4,0.2
		c0,0.2-0.1,0.2-0.3,0.2c-0.2,0-0.6,0-0.9,0.1c-0.6,0.2-0.9,1.2-1.4,2.6c-1.1,3.1-3.7,11-4.9,14.7c-0.3,0.9-0.4,1.2-0.7,1.2
		c-0.2,0-0.4-0.3-0.8-1.2l-5.1-12.4h0c-0.5,1.3-3.8,10-4.8,12.3c-0.5,1-0.6,1.3-0.9,1.3c-0.2,0-0.3-0.3-0.6-0.9L429.8,151.7z"/>
	<path style="fill:#819678;" d="M456,160.1c0-3.6,2.5-8.2,9.1-8.2c5.5,0,8.9,3,8.9,7.9c0,4.8-3.5,8.6-9.1,8.6
		C458.5,168.3,456,163.8,456,160.1z M470.8,160.5c0-4.6-2.8-7.5-6.3-7.5c-2.4,0-5.3,1.3-5.3,6.5c0,4.3,2.5,7.7,6.6,7.7
		C467.3,167.1,470.8,166.4,470.8,160.5z"/>
	<path style="fill:#819678;" d="M478.8,158.2c0-3.2,0-3.8,0-4.4c0-0.7-0.2-0.9-0.9-1.1c-0.2,0-0.5-0.1-0.9-0.1
		c-0.2,0-0.4-0.1-0.4-0.2c0-0.1,0.2-0.2,0.5-0.2c1.1,0,2.5,0,3,0c0.7,0,2.7,0,3.4,0c1.4,0,3,0.1,4.1,0.9c0.6,0.4,1.5,1.5,1.5,2.9
		c0,1.6-0.9,2.9-3,4.6c1.9,2.4,3.5,4.3,4.8,5.6c1.2,1.2,2,1.3,2.3,1.4c0.2,0,0.3,0,0.5,0s0.3,0.1,0.3,0.2c0,0.2-0.1,0.2-0.4,0.2
		h-2.1c-1.2,0-1.8-0.1-2.4-0.4c-0.9-0.5-1.8-1.5-3-3.1c-0.9-1.1-1.8-2.5-2.1-2.9c-0.1-0.1-0.2-0.1-0.4-0.1l-2,0
		c-0.1,0-0.2,0-0.2,0.2v0.3c0,2,0,3.6,0.1,4.5c0.1,0.6,0.2,1,0.8,1.1c0.3,0,0.8,0.1,1.1,0.1c0.2,0,0.3,0.1,0.3,0.2
		c0,0.1-0.2,0.2-0.4,0.2c-1.3,0-3.1-0.1-3.4-0.1c-0.4,0-1.8,0.1-2.7,0.1c-0.3,0-0.4-0.1-0.4-0.2c0-0.1,0.1-0.2,0.3-0.2
		c0.3,0,0.6,0,0.8-0.1c0.4-0.1,0.6-0.5,0.6-1.1c0.1-0.9,0.1-2.5,0.1-4.5V158.2z M481.6,159.8c0,0.2,0,0.3,0.2,0.4
		c0.5,0.1,1.1,0.2,1.7,0.2c0.9,0,1.2-0.1,1.5-0.3c0.7-0.5,1.4-1.4,1.4-3.1c0-3-2-3.7-3.3-3.7c-0.5,0-1.1,0-1.3,0.1
		c-0.1,0-0.2,0.1-0.2,0.3V159.8z"/>
	<path style="fill:#819678;" d="M498.6,159.1L498.6,159.1c0.8-0.8,4-3.9,4.6-4.6c0.6-0.7,1.1-1.2,1.1-1.6c0-0.2-0.1-0.4-0.3-0.4
		c-0.2,0-0.3-0.1-0.3-0.2c0-0.1,0.1-0.2,0.3-0.2c0.5,0,1.7,0,2.2,0c0.7,0,1.9,0,2.5,0c0.2,0,0.4,0,0.4,0.2c0,0.1-0.1,0.2-0.3,0.2
		c-0.3,0-0.9,0.1-1.3,0.2c-0.7,0.2-1.4,0.7-2.3,1.6c-0.7,0.6-3.9,3.7-4.6,4.5c0.8,1,5,5.4,5.9,6.2c1,0.9,1.8,1.8,3,2.2
		c0.6,0.3,1.1,0.3,1.3,0.3c0.2,0,0.3,0.1,0.3,0.2c0,0.1-0.1,0.2-0.5,0.2h-1.9c-0.6,0-1,0-1.5,0c-1.2-0.1-1.9-0.5-2.8-1.4
		c-0.9-0.8-5.1-5.7-5.6-6.3l-0.2-0.3h-0.1v1.9c0,1.9,0,3.6,0,4.5c0,0.6,0.2,1,0.8,1.1c0.3,0,0.8,0.1,1.1,0.1c0.2,0,0.3,0.1,0.3,0.2
		c0,0.1-0.2,0.2-0.4,0.2c-1.2,0-2.8-0.1-3.3-0.1c-0.5,0-1.9,0.1-2.7,0.1c-0.3,0-0.4-0.1-0.4-0.2c0-0.1,0.1-0.2,0.3-0.2
		c0.3,0,0.6,0,0.8-0.1c0.4-0.1,0.6-0.5,0.6-1.1c0.1-0.9,0.1-2.5,0.1-4.5v-3.7c0-3.2,0-3.8,0-4.4c0-0.7-0.2-0.9-0.9-1.1
		c-0.2,0-0.5-0.1-0.9-0.1c-0.2,0-0.4-0.1-0.4-0.2c0-0.1,0.2-0.2,0.5-0.2c1.1,0,2.5,0,3,0c0.5,0,2.1,0,2.8,0c0.3,0,0.5,0,0.5,0.2
		c0,0.1-0.1,0.2-0.3,0.2c-0.2,0-0.3,0-0.6,0.1c-0.6,0.1-0.8,0.4-0.8,1.1c0,0.7,0,1.3,0,4.4V159.1z"/>
	<path style="fill:#819678;" d="M511.5,167.7c-0.3-0.1-0.4-0.2-0.4-0.7c0-1.1,0.1-2.4,0.1-2.8c0-0.3,0.1-0.5,0.3-0.5
		c0.2,0,0.2,0.2,0.2,0.3c0,0.3,0.1,0.7,0.2,1.1c0.5,1.6,2.1,2.1,3.5,2.1c1.9,0,3-1.2,3-2.7c0-0.9-0.2-1.8-2.2-3l-1.3-0.7
		c-2.6-1.5-3.4-2.9-3.4-4.8c0-2.6,2.5-4.2,5.5-4.2c1.4,0,2.5,0.2,3.1,0.3c0.2,0,0.3,0.1,0.3,0.3c0,0.3-0.1,0.9-0.1,2.5
		c0,0.4-0.1,0.7-0.3,0.7c-0.1,0-0.2-0.1-0.2-0.4c0-0.2-0.1-0.8-0.6-1.4c-0.3-0.4-1-1-2.4-1c-1.6,0-3,0.8-3,2.2
		c0,0.9,0.3,1.7,2.3,2.8l0.9,0.5c2.9,1.6,3.8,3.2,3.8,5.1c0,1.6-0.6,2.8-2.2,3.9c-1,0.7-2.5,0.9-3.6,0.9
		C513.8,168.3,512.4,168.2,511.5,167.7z"/>
	<path style="fill:#819678;" d="M537.3,159c0,0,0.1,0,0.1-0.1v-0.4c0-3.2,0-4,0-4.6c0-0.7-0.2-0.9-0.9-1.1c-0.2,0-0.5-0.1-0.8-0.1
		c-0.2,0-0.4-0.1-0.4-0.2c0-0.1,0.1-0.2,0.5-0.2c1.2,0,2.7,0,3.3,0c0.5,0,2,0,2.8,0c0.3,0,0.5,0,0.5,0.2c0,0.1-0.1,0.2-0.4,0.2
		c-0.2,0-0.4,0-0.6,0.1c-0.6,0.1-0.7,0.4-0.8,1.1c0,0.7,0,1.3,0,4.4v3.7c0,1.9,0,3.6,0.1,4.5c0.1,0.6,0.2,1,0.9,1.1
		c0.3,0,0.8,0.1,1.1,0.1c0.2,0,0.3,0.1,0.3,0.2c0,0.1-0.2,0.2-0.4,0.2c-1.4,0-2.8-0.1-3.4-0.1c-0.5,0-2,0.1-2.9,0.1
		c-0.3,0-0.5-0.1-0.5-0.2c0-0.1,0.1-0.2,0.3-0.2c0.3,0,0.6,0,0.8-0.1c0.4-0.1,0.6-0.5,0.6-1.1c0.1-0.9,0.1-2.5,0.1-4.4v-1.6
		c0-0.1-0.1-0.1-0.1-0.1h-8.2c-0.1,0-0.1,0-0.1,0.1v1.6c0,1.9,0,3.5,0.1,4.4c0.1,0.6,0.2,1,0.8,1.1c0.3,0,0.8,0.1,1.1,0.1
		c0.2,0,0.3,0.1,0.3,0.2c0,0.1-0.2,0.2-0.4,0.2c-1.4,0-2.9-0.1-3.5-0.1c-0.5,0-1.9,0.1-2.8,0.1c-0.3,0-0.4-0.1-0.4-0.2
		c0-0.1,0.1-0.2,0.3-0.2c0.3,0,0.6,0,0.8-0.1c0.4-0.1,0.6-0.5,0.6-1.1c0.1-0.9,0.1-2.5,0.1-4.5v-3.7c0-3.2,0-3.8,0-4.4
		c0-0.7-0.2-0.9-0.9-1.1c-0.2,0-0.5-0.1-0.9-0.1c-0.2,0-0.4-0.1-0.4-0.2c0-0.1,0.2-0.2,0.5-0.2c1.2,0,2.6,0,3.2,0c0.5,0,2,0,2.9,0
		c0.3,0,0.4,0,0.4,0.2c0,0.1-0.1,0.2-0.4,0.2c-0.2,0-0.4,0-0.6,0.1c-0.6,0.1-0.8,0.4-0.8,1.1c0,0.7,0,1.4,0,4.6v0.4
		c0,0.1,0.1,0.1,0.1,0.1H537.3z"/>
	<path style="fill:#819678;" d="M545.1,160.1c0-3.6,2.5-8.2,9.1-8.2c5.5,0,8.9,3,8.9,7.9c0,4.8-3.5,8.6-9.1,8.6
		C547.7,168.3,545.1,163.8,545.1,160.1z M559.9,160.5c0-4.6-2.8-7.5-6.3-7.5c-2.4,0-5.3,1.3-5.3,6.5c0,4.3,2.5,7.7,6.6,7.7
		C556.4,167.1,559.9,166.4,559.9,160.5z"/>
	<path style="fill:#819678;" d="M567.9,158.2c0-3.2,0-3.8,0-4.4c0-0.7-0.2-0.9-0.9-1.1c-0.2,0-0.5-0.1-0.9-0.1
		c-0.2,0-0.4-0.1-0.4-0.2c0-0.1,0.2-0.2,0.5-0.2c1.1,0,2.5,0,3.1,0c0.9,0,2.6,0,3.6,0c2.7,0,3.7,0.9,4.1,1.2
		c0.5,0.4,1.1,1.4,1.1,2.5c0,3-2.4,5.1-5.5,5.1c-0.1,0-0.5,0-0.6,0c-0.1,0-0.3-0.1-0.3-0.2c0-0.2,0.2-0.3,0.7-0.3
		c1.2,0,2.9-1.3,2.9-3.4c0-0.7-0.1-2.1-1.3-3.1c-0.8-0.7-1.7-0.8-2.2-0.8c-0.3,0-0.7,0-0.9,0.1c-0.1,0-0.2,0.2-0.2,0.4v8.3
		c0,1.9,0,3.6,0.1,4.5c0.1,0.6,0.2,1,0.8,1.1c0.3,0,0.8,0.1,1.1,0.1c0.2,0,0.3,0.1,0.3,0.2c0,0.1-0.2,0.2-0.4,0.2
		c-1.5,0-3-0.1-3.6-0.1c-0.5,0-1.9,0.1-2.7,0.1c-0.3,0-0.4-0.1-0.4-0.2c0-0.1,0.1-0.2,0.3-0.2c0.3,0,0.6,0,0.8-0.1
		c0.4-0.1,0.6-0.5,0.6-1.1c0.1-0.9,0.1-2.5,0.1-4.5V158.2z"/>
</g>
<g>
	<path style="fill:#819678;" d="M243.2,194.6c0,2,0,3.6,0.1,4.4c0.1,0.6,0.2,1.1,0.8,1.1c0.3,0,0.7,0.1,1,0.1c0.3,0,0.4,0.1,0.4,0.2
		c0,0.1-0.1,0.2-0.5,0.2c-1.3,0-2.6-0.1-3.2-0.1s-1.8,0.1-2.6,0.1c-0.3,0-0.4,0-0.4-0.2c0-0.1,0.1-0.2,0.3-0.2c0.3,0,0.6,0,0.7-0.1
		c0.4-0.1,0.5-0.5,0.6-1.1c0.1-0.9,0.1-2.4,0.1-4.4v-3.7c0-3.2,0-3.7,0-4.4c0-0.7-0.2-1-0.9-1.2c-0.2,0-0.5-0.1-0.8-0.1
		c-0.2,0-0.4,0-0.4-0.2c0-0.2,0.2-0.2,0.5-0.2c0.5,0,1.1,0,1.7,0c0.5,0,1,0,1.3,0c0.8,0,5,0,5.5,0c0.4,0,0.6,0,0.9-0.1
		c0.1,0,0.2-0.1,0.3-0.1c0.1,0,0.1,0.1,0.1,0.2c0,0.1-0.1,0.4-0.2,0.9c0,0.2-0.1,1.4-0.1,1.7c0,0.2-0.1,0.3-0.2,0.3
		c-0.1,0-0.2-0.1-0.2-0.3c0-0.2,0-0.5-0.1-0.8c-0.1-0.3-0.6-0.6-1.4-0.6l-3.2-0.1c-0.1,0-0.2,0.1-0.2,0.3v5.2c0,0.1,0,0.2,0.1,0.2
		l2.7,0c0.4,0,0.6,0,0.9,0c0.4,0,0.7-0.1,0.9-0.4c0.1-0.1,0.1-0.2,0.3-0.2c0.1,0,0.1,0.1,0.1,0.2c0,0.1-0.1,0.6-0.2,1.3
		c0,0.4-0.1,1.4-0.1,1.5c0,0.2,0,0.4-0.2,0.4c-0.1,0-0.2-0.1-0.2-0.3c0-0.1,0-0.4-0.1-0.6c-0.1-0.3-0.4-0.7-1.1-0.7
		c-0.5-0.1-2.7-0.1-3.1-0.1c-0.1,0-0.1,0-0.1,0.2V194.6z"/>
	<path style="fill:#819678;" d="M252.3,192.3c0-2.7,0-3.2,0-3.7c0-0.6-0.2-0.8-0.8-1c-0.1,0-0.5-0.1-0.7-0.1c-0.2,0-0.3-0.1-0.3-0.2
		s0.1-0.2,0.4-0.2c1,0,2.2,0,2.7,0c0.5,0,1.7,0,2.3,0c0.3,0,0.4,0,0.4,0.2s-0.1,0.2-0.3,0.2c-0.2,0-0.3,0-0.5,0.1
		c-0.5,0.1-0.6,0.3-0.7,1c0,0.6,0,1.1,0,3.7v2.5c0,2.6,0.5,3.6,1.4,4.3c0.8,0.6,1.7,0.7,2.3,0.7c0.8,0,1.7-0.2,2.4-0.9
		c1-1,1.1-2.5,1.1-4.3v-2.2c0-2.7,0-3.2,0-3.7c0-0.6-0.2-0.8-0.8-1c-0.1,0-0.5-0.1-0.7-0.1c-0.2,0-0.3-0.1-0.3-0.2s0.1-0.2,0.4-0.2
		c0.9,0,2.2,0,2.2,0c0.2,0,1.4,0,2.1,0c0.2,0,0.4,0,0.4,0.2s-0.1,0.2-0.3,0.2c-0.2,0-0.3,0-0.5,0.1c-0.5,0.1-0.6,0.3-0.7,1
		c0,0.6,0,1.1,0,3.7v1.9c0,2-0.2,4-1.7,5.3c-1.3,1.1-2.7,1.3-3.9,1.3c-1,0-2.8,0-4.2-1.2c-0.9-0.8-1.7-2.1-1.7-4.7V192.3z"/>
	<path style="fill:#819678;" d="M267.9,200.4c-0.3-0.1-0.4-0.2-0.4-0.6c0-1,0.1-2.1,0.1-2.3c0-0.3,0.1-0.5,0.2-0.5
		c0.2,0,0.2,0.2,0.2,0.3c0,0.2,0.1,0.6,0.2,0.9c0.4,1.3,1.8,1.7,2.9,1.7c1.6,0,2.5-1,2.5-2.2c0-0.8-0.2-1.5-1.8-2.5l-1.1-0.6
		c-2.2-1.3-2.9-2.5-2.9-4c0-2.2,2.1-3.6,4.6-3.6c1.2,0,2.1,0.2,2.6,0.3c0.2,0,0.2,0.1,0.2,0.2c0,0.2-0.1,0.7-0.1,2.1
		c0,0.4-0.1,0.6-0.2,0.6c-0.1,0-0.2-0.1-0.2-0.3c0-0.2-0.1-0.7-0.5-1.2c-0.3-0.3-0.9-0.8-2-0.8c-1.3,0-2.5,0.7-2.5,1.9
		c0,0.8,0.3,1.4,1.9,2.3l0.7,0.4c2.4,1.3,3.2,2.7,3.2,4.3c0,1.3-0.5,2.4-1.8,3.3c-0.9,0.6-2.1,0.7-3.1,0.7
		C269.8,200.8,268.7,200.7,267.9,200.4z"/>
	<path style="fill:#819678;" d="M280.1,192.3c0-2.7,0-3.2,0-3.7c0-0.6-0.2-0.8-0.6-0.9c-0.2-0.1-0.4-0.1-0.7-0.1
		c-0.2,0-0.3,0-0.3-0.2c0-0.1,0.1-0.1,0.4-0.1c0.7,0,1.9,0,2.5,0c0.5,0,1.6,0,2.3,0c0.2,0,0.4,0,0.4,0.1c0,0.2-0.1,0.2-0.3,0.2
		c-0.2,0-0.3,0-0.5,0.1c-0.5,0.1-0.6,0.3-0.7,1c0,0.6,0,1.1,0,3.7v3.1c0,1.7,0,3.1,0.1,3.9c0.1,0.5,0.2,0.7,0.7,0.8
		c0.2,0,0.7,0.1,0.9,0.1c0.2,0,0.3,0.1,0.3,0.2c0,0.1-0.1,0.2-0.4,0.2c-1.2,0-2.5-0.1-2.9-0.1c-0.4,0-1.7,0.1-2.4,0.1
		c-0.2,0-0.4-0.1-0.4-0.2c0-0.1,0.1-0.2,0.3-0.2c0.3,0,0.5,0,0.6-0.1c0.4-0.1,0.5-0.3,0.5-0.9c0.1-0.7,0.1-2.1,0.1-3.8V192.3z"/>
	<path style="fill:#819678;" d="M286.6,193.9c0-3,2.1-6.9,7.7-6.9c4.6,0,7.5,2.6,7.5,6.6c0,4-2.9,7.2-7.7,7.2
		C288.7,200.8,286.6,197,286.6,193.9z M299,194.2c0-3.9-2.3-6.3-5.3-6.3c-2,0-4.4,1.1-4.4,5.4c0,3.6,2.1,6.5,5.5,6.5
		C296.1,199.9,299,199.3,299,194.2z"/>
	<path style="fill:#819678;" d="M306.9,198.2c0,1.4,0.3,1.8,0.6,1.9c0.3,0.1,0.7,0.1,1,0.1c0.2,0,0.3,0.1,0.3,0.2
		c0,0.1-0.2,0.2-0.4,0.2c-1.2,0-2-0.1-2.4-0.1c-0.2,0-1,0.1-2,0.1c-0.2,0-0.4,0-0.4-0.2c0-0.1,0.1-0.2,0.3-0.2c0.3,0,0.6,0,0.8-0.1
		c0.5-0.1,0.5-0.6,0.6-2.1l0.2-10.5c0-0.4,0.1-0.6,0.3-0.6c0.2,0,0.5,0.3,0.8,0.6c0.2,0.2,3,3,5.6,5.6c1.2,1.2,3.7,3.7,3.9,4h0.1
		l-0.2-7.8c0-1.1-0.2-1.4-0.6-1.6c-0.3-0.1-0.7-0.1-1-0.1c-0.2,0-0.3-0.1-0.3-0.2c0-0.1,0.2-0.2,0.5-0.2c1,0,1.9,0,2.3,0
		c0.2,0,0.9,0,1.8,0c0.2,0,0.4,0,0.4,0.2c0,0.1-0.1,0.2-0.3,0.2c-0.2,0-0.3,0-0.6,0.1c-0.5,0.1-0.6,0.5-0.7,1.5l-0.2,11.1
		c0,0.4-0.1,0.6-0.3,0.6c-0.3,0-0.6-0.2-0.7-0.4c-1.1-1.1-3.4-3.2-5.3-5.1c-2-1.9-3.9-4-4.3-4.4h-0.1L306.9,198.2z"/>
	<path style="fill:#819678;" d="M327.5,193.9c0-3,2.1-6.9,7.7-6.9c4.6,0,7.5,2.6,7.5,6.6c0,4-2.9,7.2-7.7,7.2
		C329.6,200.8,327.5,197,327.5,193.9z M339.9,194.2c0-3.9-2.3-6.3-5.3-6.3c-2,0-4.4,1.1-4.4,5.4c0,3.6,2.1,6.5,5.5,6.5
		C337,199.9,339.9,199.3,339.9,194.2z"/>
	<path style="fill:#819678;" d="M349.1,195.5c0,1.7,0,2.9,0.1,3.7c0.1,0.5,0.2,0.9,0.7,0.9c0.2,0,0.6,0.1,0.9,0.1
		c0.2,0,0.3,0.1,0.3,0.2c0,0.1-0.1,0.2-0.4,0.2c-1.2,0-2.4-0.1-2.9-0.1c-0.5,0-1.6,0.1-2.3,0.1c-0.2,0-0.4,0-0.4-0.2
		c0-0.1,0.1-0.2,0.3-0.2c0.3,0,0.5,0,0.6-0.1c0.4-0.1,0.5-0.4,0.5-0.9c0.1-0.7,0.1-2.1,0.1-3.8v-3.1c0-2.7,0-3.2,0-3.7
		c0-0.6-0.2-0.8-0.8-1c-0.1,0-0.5-0.1-0.7-0.1c-0.2,0-0.3-0.1-0.3-0.2s0.1-0.2,0.4-0.2c0.9,0,2.1,0,2.6,0c0.7,0,4.8,0,5.2,0
		c0.3,0,0.6,0,0.7-0.1c0.1,0,0.2-0.1,0.3-0.1c0.1,0,0.1,0.1,0.1,0.2c0,0.1-0.1,0.3-0.1,0.8c0,0.2-0.1,1.2-0.1,1.4
		c0,0.1-0.1,0.4-0.2,0.4c-0.1,0-0.2-0.1-0.2-0.3c0-0.1,0-0.4-0.1-0.7c-0.1-0.2-0.5-0.5-1.2-0.5l-3-0.1c-0.1,0-0.2,0-0.2,0.2v4.3
		c0,0.1,0,0.2,0.1,0.2l2.6,0c0.3,0,0.6,0,0.8,0c0.3,0,0.6-0.1,0.8-0.3c0.1-0.1,0.1-0.2,0.2-0.2c0.1,0,0.1,0.1,0.1,0.2
		s-0.1,0.6-0.1,1.1c0,0.4-0.1,1.2-0.1,1.3c0,0.1,0,0.4-0.2,0.4c-0.1,0-0.2-0.1-0.2-0.2c0-0.1,0-0.3-0.1-0.5
		c-0.1-0.2-0.3-0.6-0.9-0.6c-0.5,0-2.6-0.1-2.9-0.1c-0.1,0-0.1,0-0.1,0.1V195.5z"/>
	<path style="fill:#819678;" d="M369.4,186.9c-0.2-0.8-0.5-1.3-0.8-1.5c-0.2-0.1-0.6-0.2-0.8-0.2c-0.2,0-0.3,0-0.3-0.2
		c0-0.1,0.2-0.2,0.5-0.2c1.1,0,2.2,0.1,2.4,0.1c0.2,0,1.1-0.1,2.3-0.1c0.3,0,0.4,0.1,0.4,0.2c0,0.2-0.2,0.2-0.4,0.2
		c-0.2,0-0.4,0-0.5,0.1c-0.2,0.1-0.2,0.2-0.2,0.5c0,0.3,0.2,1,0.5,1.9c0.4,1.4,2.3,7.7,2.7,8.8h0.1l4-10.8c0.2-0.6,0.4-0.7,0.5-0.7
		c0.2,0,0.3,0.3,0.6,1l4.3,10.4h0.1c0.4-1.4,2-6.9,2.8-9.3c0.1-0.5,0.2-0.9,0.2-1.2c0-0.3-0.2-0.6-1-0.6c-0.2,0-0.4-0.1-0.4-0.2
		c0-0.1,0.2-0.2,0.5-0.2c1.1,0,2,0.1,2.2,0.1c0.1,0,1-0.1,1.7-0.1c0.2,0,0.4,0,0.4,0.2c0,0.1-0.1,0.2-0.3,0.2c-0.2,0-0.5,0-0.7,0.1
		c-0.5,0.2-0.7,1-1.2,2.2c-1,2.6-3.1,9.2-4.2,12.3c-0.2,0.7-0.3,1-0.6,1c-0.2,0-0.3-0.2-0.6-1l-4.3-10.4h0c-0.4,1.1-3.2,8.4-4,10.3
		c-0.4,0.9-0.5,1.1-0.7,1.1c-0.2,0-0.3-0.2-0.5-0.8L369.4,186.9z"/>
	<path style="fill:#819678;" d="M393.4,192.3c0-2.7,0-3.2,0-3.7c0-0.6-0.2-0.8-0.8-1c-0.1,0-0.5-0.1-0.7-0.1c-0.2,0-0.3-0.1-0.3-0.2
		s0.1-0.2,0.4-0.2c1,0,2.1,0,2.6,0c0.6,0,4.6,0,5,0c0.3,0,0.6-0.1,0.8-0.1c0.1,0,0.2-0.1,0.3-0.1c0.1,0,0.1,0.1,0.1,0.2
		c0,0.1-0.1,0.3-0.1,1.1c0,0.2-0.1,1-0.1,1.2c0,0.1-0.1,0.3-0.2,0.3c-0.1,0-0.1-0.1-0.1-0.2c0-0.1,0-0.4-0.1-0.6
		c-0.1-0.3-0.3-0.6-1.2-0.6c-0.3,0-2.5-0.1-2.9-0.1c-0.1,0-0.1,0.1-0.1,0.2v4.4c0,0.1,0,0.2,0.1,0.2c0.4,0,2.8,0,3.2,0
		c0.4,0,0.7-0.1,0.9-0.3c0.1-0.1,0.2-0.2,0.3-0.2s0.1,0.1,0.1,0.2c0,0.1,0,0.4-0.1,1.3c0,0.4-0.1,1.1-0.1,1.2c0,0.1,0,0.4-0.2,0.4
		c-0.1,0-0.2-0.1-0.2-0.1c0-0.2,0-0.4-0.1-0.6c-0.1-0.4-0.3-0.6-1-0.7c-0.3,0-2.4-0.1-2.9-0.1c-0.1,0-0.1,0.1-0.1,0.2v1.4
		c0,0.6,0,2.1,0,2.6c0,1.2,0.6,1.5,2.5,1.5c0.5,0,1.2,0,1.7-0.2c0.5-0.2,0.7-0.6,0.8-1.3c0-0.2,0.1-0.3,0.2-0.3
		c0.1,0,0.2,0.2,0.2,0.4c0,0.4-0.1,1.6-0.2,2c-0.1,0.5-0.3,0.5-1,0.5c-1.4,0-2.5,0-3.4-0.1c-0.9,0-1.6,0-2.1,0c-0.2,0-0.6,0-1,0
		c-0.4,0-0.9,0-1.3,0c-0.2,0-0.4-0.1-0.4-0.2c0-0.1,0.1-0.2,0.3-0.2c0.3,0,0.5,0,0.6-0.1c0.4-0.1,0.5-0.4,0.5-0.9
		c0.1-0.7,0.1-2.1,0.1-3.8V192.3z"/>
	<path style="fill:#819678;" d="M405.4,192.3c0-2.7,0-3.2,0-3.7c0-0.6-0.2-0.8-0.8-1c-0.1,0-0.5-0.1-0.7-0.1c-0.2,0-0.3-0.1-0.3-0.2
		s0.1-0.2,0.4-0.2c1,0,2.1,0,2.5,0c0.9,0,2.1,0,2.7,0c3.3,0,3.9,1.7,3.9,2.6c0,1.4-1,2.4-2.1,3.1c1.5,0.5,3.4,1.7,3.4,3.8
		c0,1.9-1.5,3.8-4.9,3.8c-0.2,0-0.8,0-1.5-0.1c-0.6,0-1.3,0-1.6,0c-0.2,0-0.6,0-1,0c-0.4,0-0.9,0-1.3,0c-0.2,0-0.4-0.1-0.4-0.2
		c0-0.1,0.1-0.2,0.3-0.2c0.3,0,0.5,0,0.6-0.1c0.4-0.1,0.5-0.4,0.5-0.9c0.1-0.7,0.1-2.1,0.1-3.8V192.3z M407.7,192.6
		c0,0.1,0.1,0.2,0.1,0.2c0.2,0,0.4,0.1,0.9,0.1c0.6,0,1.1-0.1,1.4-0.3c0.5-0.4,0.8-1,0.8-1.9c0-1.2-0.7-2.7-2.3-2.7
		c-0.2,0-0.6,0-0.8,0c-0.1,0-0.2,0.1-0.2,0.3V192.6z M407.7,197.8c0,1.2,0.1,1.5,0.6,1.7c0.5,0.2,0.9,0.2,1.3,0.2
		c1,0,2.2-0.5,2.2-2.5c0-0.8-0.4-2.2-1.7-3.1c-0.4-0.3-0.9-0.5-1.6-0.5h-0.8c-0.1,0-0.1,0-0.1,0.1V197.8z"/>
	<path style="fill:#819678;" d="M425.7,196.1c-0.1,0-0.1,0-0.2,0.1l-1,2.4c-0.2,0.4-0.3,0.9-0.3,1.1c0,0.3,0.2,0.5,0.7,0.5h0.3
		c0.2,0,0.3,0.1,0.3,0.2c0,0.1-0.1,0.2-0.3,0.2c-0.6,0-1.5-0.1-2-0.1c-0.2,0-1.2,0.1-2.1,0.1c-0.2,0-0.3,0-0.3-0.2
		c0-0.1,0.1-0.2,0.2-0.2c0.2,0,0.4,0,0.5,0c0.8-0.1,1.1-0.7,1.5-1.6l4.8-11.1c0.2-0.5,0.4-0.7,0.5-0.7c0.3,0,0.4,0.2,0.5,0.6
		c0.4,1,3.5,8.2,4.7,10.9c0.7,1.6,1.2,1.8,1.6,1.9c0.3,0,0.5,0.1,0.7,0.1c0.2,0,0.2,0.1,0.2,0.2c0,0.1-0.1,0.2-0.8,0.2
		c-0.6,0-2,0-3.5,0c-0.3,0-0.5,0-0.5-0.1c0-0.1,0-0.2,0.2-0.2c0.1,0,0.2-0.2,0.2-0.4l-1.4-3.6c0-0.1-0.1-0.1-0.2-0.1H425.7z
		 M429.6,195.2c0.1,0,0.1,0,0.1-0.1l-1.7-4.5c0-0.1,0-0.2-0.1-0.2c-0.1,0-0.1,0.1-0.1,0.2L426,195c0,0.1,0,0.1,0.1,0.1H429.6z"/>
	<path style="fill:#819678;" d="M439.2,198.2c0,1.4,0.3,1.8,0.6,1.9c0.3,0.1,0.7,0.1,1,0.1c0.2,0,0.3,0.1,0.3,0.2
		c0,0.1-0.2,0.2-0.4,0.2c-1.2,0-2-0.1-2.4-0.1c-0.2,0-1,0.1-2,0.1c-0.2,0-0.4,0-0.4-0.2c0-0.1,0.1-0.2,0.3-0.2c0.2,0,0.6,0,0.8-0.1
		c0.5-0.1,0.5-0.6,0.6-2.1l0.2-10.5c0-0.4,0.1-0.6,0.3-0.6c0.2,0,0.5,0.3,0.8,0.6c0.2,0.2,3,3,5.6,5.6c1.2,1.2,3.7,3.7,3.9,4h0.1
		l-0.2-7.8c0-1.1-0.2-1.4-0.6-1.6c-0.3-0.1-0.7-0.1-1-0.1c-0.2,0-0.3-0.1-0.3-0.2c0-0.1,0.2-0.2,0.5-0.2c1,0,1.9,0,2.3,0
		c0.2,0,0.9,0,1.8,0c0.2,0,0.4,0,0.4,0.2c0,0.1-0.1,0.2-0.3,0.2c-0.2,0-0.3,0-0.6,0.1c-0.5,0.1-0.6,0.5-0.7,1.5l-0.2,11.1
		c0,0.4-0.1,0.6-0.3,0.6c-0.3,0-0.6-0.2-0.7-0.4c-1.1-1.1-3.4-3.2-5.3-5.1c-2-1.9-3.9-4-4.3-4.4h-0.1L439.2,198.2z"/>
	<path style="fill:#819678;" d="M455.5,192.3c0-2.7,0-3.2,0-3.7c0-0.6-0.2-0.8-0.8-1c-0.1,0-0.5-0.1-0.7-0.1c-0.2,0-0.3-0.1-0.3-0.2
		s0.1-0.2,0.4-0.2c1,0,2.1,0,2.6,0c0.6,0,1.9,0,3,0c2.3,0,5.4,0,7.4,2c0.9,0.9,1.7,2.4,1.7,4.5c0,2.2-1,3.9-2,4.9
		c-0.8,0.8-2.8,2.1-6.1,2.1c-0.7,0-1.5-0.1-2.2-0.1c-0.7-0.1-1.4-0.1-1.8-0.1c-0.2,0-0.6,0-1,0c-0.4,0-0.9,0-1.3,0
		c-0.2,0-0.4-0.1-0.4-0.2c0-0.1,0.1-0.2,0.3-0.2c0.3,0,0.5,0,0.6-0.1c0.4-0.1,0.5-0.4,0.5-0.9c0.1-0.7,0.1-2.1,0.1-3.8V192.3z
		 M457.9,194.3c0,1.9,0,3.2,0,3.6c0,0.4,0.1,1.1,0.2,1.2c0.2,0.3,1,0.7,2.4,0.7c1.7,0,2.9-0.3,4-1.2c1.2-1,1.6-2.6,1.6-4.4
		c0-2.2-0.9-3.7-1.7-4.4c-1.7-1.5-3.7-1.7-5.1-1.7c-0.4,0-1,0-1.1,0.1c-0.2,0.1-0.2,0.1-0.2,0.4c0,0.6,0,2.1,0,3.4V194.3z"/>
	<path style="fill:#819678;" d="M485.7,199.4c2.1,0,2.9-0.5,3.3-1.1c0.2-0.3,0.3-0.7,0.4-1c0-0.2,0.1-0.3,0.2-0.3
		c0.2,0,0.2,0.1,0.2,0.6c0,0.7-0.3,2-0.4,2.5c-0.1,0.4-0.2,0.5-0.6,0.5c-3.5,0-7-0.1-11.2-0.1c-0.2,0-0.4-0.1-0.4-0.2
		c0-0.1,0.1-0.2,0.3-0.6c2.9-4.6,6-9.3,8.8-13.6h-4.1c-1.1,0-2.3,0.1-3,0.4c-0.7,0.4-1.1,1.1-1.1,1.6c0,0.3-0.1,0.4-0.2,0.4
		c-0.1,0-0.2-0.1-0.2-0.4c0-0.5,0.3-2.4,0.4-3c0-0.3,0.1-0.4,0.2-0.4c0.2,0,0.3,0.1,0.8,0.1c2,0.1,3,0.1,3.8,0.1h6.3
		c0.2,0,0.4,0.1,0.4,0.2c0,0.1-0.1,0.2-0.2,0.4c-2.9,4.7-6,9.4-9,13.9H485.7z"/>
	<path style="fill:#819678;" d="M494.1,190.9c0-3.2,0-3.7,0-4.4c0-0.7-0.2-1-0.9-1.2c-0.2,0-0.5-0.1-0.8-0.1c-0.2,0-0.4,0-0.4-0.2
		c0-0.1,0.1-0.2,0.5-0.2c0.6,0,1.2,0,1.7,0c0.5,0,1,0,1.3,0c0.7,0,4.8,0,5.2,0c0.4,0,0.7-0.1,0.9-0.1c0.1,0,0.2-0.1,0.3-0.1
		c0.1,0,0.1,0.1,0.1,0.2c0,0.1-0.1,0.4-0.2,1.3c0,0.2-0.1,1.1-0.1,1.4c0,0.1-0.1,0.2-0.2,0.2c-0.1,0-0.2-0.1-0.2-0.3
		c0-0.1,0-0.5-0.1-0.7c-0.1-0.4-0.4-0.6-1.4-0.7c-0.4,0-2.5-0.1-3-0.1c-0.1,0-0.1,0.1-0.1,0.2v5.3c0,0.1,0,0.2,0.1,0.2
		c0.5,0,2.8,0,3.3,0c0.5,0,0.8-0.1,1-0.3c0.1-0.2,0.2-0.3,0.3-0.3c0.1,0,0.1,0,0.1,0.2c0,0.1-0.1,0.5-0.2,1.5c0,0.4-0.1,1.2-0.1,1.4
		c0,0.2,0,0.4-0.2,0.4c-0.1,0-0.2-0.1-0.2-0.2c0-0.2,0-0.5-0.1-0.7c-0.1-0.4-0.4-0.7-1.2-0.8c-0.4,0-2.5-0.1-2.9-0.1
		c-0.1,0-0.1,0.1-0.1,0.2v1.6c0,0.7,0,2.6,0,3.2c0,1.4,0.4,1.7,2.5,1.7c0.5,0,1.4,0,2-0.2c0.5-0.2,0.8-0.7,0.9-1.5
		c0-0.2,0.1-0.3,0.2-0.3c0.2,0,0.2,0.2,0.2,0.4c0,0.5-0.2,1.9-0.3,2.3c-0.1,0.5-0.3,0.5-1.1,0.5c-1.6,0-2.7,0-3.6-0.1
		c-0.9,0-1.5-0.1-2.2-0.1c-0.2,0-0.7,0-1.2,0c-0.5,0-1,0-1.4,0c-0.3,0-0.4-0.1-0.4-0.2c0-0.1,0.1-0.2,0.3-0.2c0.3,0,0.6,0,0.7-0.1
		c0.4-0.1,0.5-0.5,0.6-1.1c0.1-0.9,0.1-2.5,0.1-4.4V190.9z"/>
	<path style="fill:#819678;" d="M508.4,197.8c0,1.6,0.3,2.2,0.7,2.3c0.4,0.1,0.7,0.1,1.1,0.1c0.2,0,0.4,0,0.4,0.2
		c0,0.2-0.2,0.2-0.5,0.2c-1.3,0-2.2-0.1-2.6-0.1c-0.2,0-1.2,0.1-2.2,0.1c-0.3,0-0.5,0-0.5-0.2c0-0.1,0.1-0.2,0.3-0.2
		c0.3,0,0.6,0,0.9-0.1c0.5-0.2,0.6-0.8,0.6-2.6l0.2-12.3c0-0.4,0.1-0.7,0.3-0.7c0.2,0,0.4,0.3,0.8,0.6c0.2,0.3,3.4,3.7,6.4,6.7
		c1.4,1.4,4.2,4.4,4.6,4.7h0.1l-0.2-9.3c0-1.3-0.2-1.7-0.7-1.9c-0.3-0.1-0.8-0.1-1.1-0.1c-0.2,0-0.3-0.1-0.3-0.2
		c0-0.2,0.2-0.2,0.5-0.2c1.1,0,2.1,0.1,2.5,0.1c0.2,0,1-0.1,2-0.1c0.3,0,0.5,0,0.5,0.2c0,0.1-0.1,0.2-0.4,0.2c-0.2,0-0.4,0-0.6,0.1
		c-0.6,0.2-0.7,0.6-0.8,1.8l-0.2,13.1c0,0.5-0.1,0.6-0.3,0.6c-0.2,0-0.5-0.2-0.7-0.5c-1.3-1.2-4-4-6.1-6.1c-2.3-2.2-4.6-4.8-4.9-5.2
		h-0.1L508.4,197.8z"/>
</g>
<g>
	<path style="fill:#85A063;" d="M293.3,58.3c-14.7-14.4-27.5,5.7-22.7,11.4c-11.5,8-0.9,22.2,4.4,19.5c6.1,5.3,11.9-4.7,8.3-7.8
		c-3.6-3.2-6.4,1.7-6.4,1.7c-0.7,1.3-4.6,0.9-2.5-2.7c2.8-4.9,9.4-4.2,11.9-1.5c2.5,2.7,4.7,7.3-0.3,13.6
		c-3.8,5.5-14.4,3.9-21.5-4.8c-7.1-8.7,0.9-17.8,0.9-17.8s1.9-2.2-1.4-6.2c-3.4-3.9-12.3-4.4-12.7,0.6c0,0-5-4.9-12.3,3.4
		c-7.3,8.3,2.4,16.8,6.9,17.8c4.5,1,6-3.5,4-6.2c-2-2.7-2.3,1.4-4.4,0.5c-2.1-0.9-0.6-5.4,3.9-4.4c9,3.1,4,14.3-1.5,13.9
		c-5.5-0.4-9.4-1.7-11.9-8.3c-1,1.1-3.2,7.7,1.1,10.5c4.3,2.8,0.4,5.7-4.9,5c-5.3-0.7-3.9-3.4-6.2-11.3c-2.3-7.9-11.3-6-15.8-2.6
		c-0.6,0.4-1.1,0.6-1.7,0.7c8.8,10,15,22.5,17.5,36.5c1.1-0.1,2.2-0.4,3.2-0.9c0.8,4.6,9.9,8.2,14.8,2.7c4.9-5.5,5.6-10.3,0-16.1
		c-5.6-5.9,0.4-9.9,4.5-6.3c4.1,3.6,7.1,1.9,11.6-1.5c-3,9.6,4.5,4.9,7.5,11.5c3,6.6,16.5,9.1,20.7-2.4c6.7,3,19.2-8.5,13.6-19.9
		C313.4,80.4,309.9,62.1,293.3,58.3z"/>
</g>
<path style="fill:#D8A94C;" d="M51.1,95.4l1.2-1.1c-2.5-6.4-5-12.8-7.6-19.2c-2.4-10.9,0.3-22-1.3-33.1c-4.2-4-6.8-2.1-10-4.2
	c-3.6-2.4-5.9-8.2-9.4-10.8c-0.8,0.2-1.6,0.4-2.4,0.5c-0.8,0.4-1.6,0.9-2.4,1.3C13.6,52,24.4,73.1,48.8,95.1
	C49.5,95.2,50.3,95.3,51.1,95.4z"/>
<path style="fill:#ED703E;" d="M57.6,76c3.7-6.4,1.9-15,5.4-22.2c4.6-9.4,19.8-20.4,19.4-30.5c-1.9-3.2-4.1-4.6-6.8-7
	c0.8-5.3,1.4-9.2-1.1-15c-1.5-0.4-3.1-0.8-4.6-1.3c-1.9,1.4-3.7,2.7-5.6,4.1C60.7,9.8,57.1,15.4,53.5,21c-6,13.8-8,39.8,3.3,54.9
	C57.1,76,57.3,76,57.6,76z"/>
<path style="fill:#D8A94C;" d="M53.2,113.3l1.6-1.4c-0.2-0.8-0.5-1.6-0.7-2.4c-1.8-3.8-7.4-5.5-10.7-8.2
	c-6.3-7.5-12.5-14.9-18.8-22.4C21.4,77.3,3.6,77.6,0,80.6C-1.1,107.3,40.7,113.5,53.2,113.3z"/>
<path style="fill:#D8A94C;" d="M83.2,32.4c-3.8,8.9-12.9,15.9-11.8,25.2c0.1,0.2,0.2,0.3,0.2,0.5c0,0,0,0,0,0
	c0.4,0.5,0.8,0.9,1.2,1.2c0.2,0,0.3,0.1,0.5,0.1c0.2-0.1,0.4-0.1,0.6-0.1c0.3-0.1,0.6-0.3,0.9-0.4c0.6-0.2,1.2-0.4,1.8-0.6
	c4.2-3.1,8.4-6.1,12.6-9.2c9.5-2.4,18.9-4.8,28.4-7.2c5.1-5.1,0.5-6.9,1.9-11.6c1.9-6,8.5-6.5,5.5-13.2
	C119.4,6.7,93.5,22.7,83.2,32.4z"/>
<path style="fill:#D8A94C;" d="M70.3,128.8c-0.3-2.2-0.1-2.8-1.8-5.3c-8.2-2.3-29.7-7.9-37.4-2.4c-2.8,3.5-5.7,7-8.5,10.5
	c-1.4,6.8,8.2,10.2,12.5,11.1C47.6,145.4,59.5,141.1,70.3,128.8z"/>
<path style="fill:#C9AB2D;" d="M145,44c-45.4,0-82.1,36.8-82.1,82.1c0,45.4,36.8,82.1,82.1,82.1c45.4,0,82.1-36.8,82.1-82.1
	C227.1,80.8,190.4,44,145,44z"/>
<path style="fill:#FFFFFF;" d="M145,199.9L145,199.9c0-10.4-66.2-5.5-66.2-77.3c0-35.5,31.7-62.5,66.2-62.5
	c34.6,0,66.2,27.1,66.2,62.5C211.2,194.4,145,189.3,145,199.9z"/>
<g>
	<path style="fill:#C9AB2D;" d="M154,113.4c-3.1-1.5-6-2.3-8.6-2.4c-0.1,0-2.2,0.4-6.2,1.3c-4.3,0.9-6.8,1.4-7.5,1.5
		c0.6-4.1,1.8-7.3,3.6-9.7c0.2-0.3,0.3-0.6,0.4-0.9c0.1-1.9-1.1-3.7-3.7-5.3c5.3-1.2,10.9-1.7,16.9-1.4c0.7,0,1.7,0.1,3.1,0.3
		c1.4,0.2,2.4,0.3,3.1,0.3c4.4,0.2,6.6-0.9,6.7-3.4c0.2-3-1.6-5.6-5.3-7.7c-3.1-1.7-6.4-2.7-9.8-2.9c-2-0.1-7,0.7-15,2.3
		c-5.3,1.2-10.7,2.3-16,3.4c-8.8,1.7-15.9,0.1-17.3,0.1c-2-0.1-3.8-0.6-5.4-1.5L92.2,88c0.2,1.6,1.4,4,3.6,7.2
		c2.2,3.2,4,5.1,5.4,5.5c7.2-2.6,14.9-1.6,18.9-1.5c0,0.5,0.5,1.5,1.3,3c0.7,1.3,1,2.9,0.9,5c-0.1,2.7-0.6,5.2-1.3,7.7
		c-9.8,2.1-15.1,3.1-16.2,3c-2.4-0.1-4.8-0.8-7.2-2l-0.8,1.2c0.4,2,1.5,4.5,3.3,7.5c2,3.3,3.8,5.2,5.2,5.6c2.7-1.8,4.7-3,6-3.5
		c1.7-0.7,4.1-1,7-1.2c-6.2,15.4-15.3,29.6-33.1,39.9L86,166c1.9,0.3,3.7,0.5,5.4,0.6c16,0.8,25.6-11,34.8-32.9c0,0,0,0.1,0.1,0.1
		c0.1-0.1,0.1-0.2,0.2-0.3c0.2-0.4,0.4-0.8,0.7-1.3c0.8-1.7,1.6-3.5,2.5-5.2c0-0.2,0.1-0.3,0.2-0.5c0.1-0.3,0.3-0.6,0.4-0.9
		c0.1-0.2,0.2-0.4,0.3-0.6c0.1-0.3,0.3-0.6,0.6-0.9c0.3-0.3,0.6-0.5,1-0.6c0.1,0,0.2-0.1,0.3-0.1c0.3-0.1,0.7-0.2,1.1-0.2
		c0.1,0,0.2,0,0.3,0c2.2-0.2,4.4-0.2,6.7-0.1c1.4,0.1,3.5,0.3,6.3,0.7c2.8,0.4,4.9,0.7,6.3,0.7c1.6,0.1,3.1-0.4,4.3-1.4
		c1.3-1,1.9-2.4,2-4C159.5,117.2,157.7,115.2,154,113.4z"/>
	<path style="fill:#C9AB2D;" d="M206.3,158c0.1,1-0.1,1.9-0.5,2.7c-0.9,1.7-4,3.3-9.5,5c-4.5,1.4-8.4,2.2-11.7,2.6
		c-6,0.6-12.2,0.5-18.6-0.4c-6.9-0.9-12.6-2.5-16.9-4.9c-7.2-3.8-12.1-7.7-14.7-11.8c-2.5-3.8-4.5-7.2-5.8-10
		c-2.2-4.7-3.5-7.2-3.6-7.6c-1.6-2.9-3.4-5.3-5.5-7l0.1-0.9c1.1-0.3,2.1-0.5,3.1-0.6c2.2-0.2,4.9,0.1,8.3,0.9c3.8,0.9,5.8,2.1,6,3.5
		c0,0.5,0.1,1.2,0.1,2c0.1,1,0.2,1.6,0.2,2c0.2,2.2,1,4.4,2.2,6.5c0.2,0.5,1.5,2.4,4,5.9c3.2,4.5,8.2,7.9,15,10.2
		c6.8,2.3,13.8,3.1,20.9,2.4c6.4-0.7,9.4-3.5,8.9-8.7c-0.3-3.1-1.6-6.1-3.8-9l0.2-0.9c3.7,1.6,8,4.3,12.8,8.1
		C203.2,152.3,206.1,155.6,206.3,158z"/>
	<path style="fill:#C9AB2D;" d="M174.4,141.4c0.7,3.6-0.4,5.8-3.3,6.3c-2.1,0.4-3.9-0.2-5.3-1.9c-0.3-0.3-1.1-1.8-2.5-4.5
		c-1.6-3.1-3.5-5.9-5.5-8.4l-0.1-1c0.5-0.2,1-0.3,1.6-0.4c3.5-0.7,6.8-0.1,9.7,1.8C171.9,135.2,173.7,137.9,174.4,141.4z"/>
	<path style="fill:#C9AB2D;" d="M203.7,131.1c0.5,2.9-1.2,4.7-5,5.3c-0.8,0.1-2.3-0.3-4.5-1.4c-1.7-0.8-3.9-2.3-6.7-4.5
		c-2.8-2.2-4.9-3.7-6.4-4.5l-0.2-0.7c1.9-1,3.7-1.7,5.5-1.9c3.2-0.5,6.6-0.1,10.2,1.2C200.8,126.1,203.2,128.3,203.7,131.1z"/>
</g>
</svg>
