<?xml version="1.0" encoding="utf-8"?>
<!-- Generator: Adobe Illustrator 15.1.0, SVG Export Plug-In . SVG Version: 6.00 Build 0)  -->
<!DOCTYPE svg PUBLIC "-//W3C//DTD SVG 1.1//EN" "http://www.w3.org/Graphics/SVG/1.1/DTD/svg11.dtd" [
	<!ENTITY ns_flows "http://ns.adobe.com/Flows/1.0/">
	<!ENTITY ns_extend "http://ns.adobe.com/Extensibility/1.0/">
	<!ENTITY ns_ai "http://ns.adobe.com/AdobeIllustrator/10.0/">
	<!ENTITY ns_graphs "http://ns.adobe.com/Graphs/1.0/">
]>
<svg version="1.1" id="レイヤー_1" xmlns:x="&ns_extend;" xmlns:i="&ns_ai;" xmlns:graph="&ns_graphs;"
	 xmlns="http://www.w3.org/2000/svg" xmlns:xlink="http://www.w3.org/1999/xlink" xmlns:a="http://ns.adobe.com/AdobeSVGViewerExtensions/3.0/"
	 x="0px" y="0px" width="541.1px" height="174.3px" viewBox="0 0 541.1 174.3" style="enable-background:new 0 0 541.1 174.3;"
	 xml:space="preserve">
<g>
	<path style="fill:#D6D6D6;" d="M243.1,32.4c-13.8-15.5-28.1,3.8-23.6,9.9c-12.1,7.3-2.4,22.3,3.1,19.9c5.8,5.8,12.3-3.9,8.9-7.3
		c-3.4-3.4-6.6,1.3-6.6,1.3c-0.8,1.3-4.7,0.5-2.3-2.9c3.2-4.7,9.7-3.6,12.1-0.7c2.3,2.9,4.3,7.7-1.3,13.7
		c-4.2,5.2-14.8,2.9-21.3-6.3c-6.5-9.2,2.2-17.8,2.2-17.8s2.1-2.1-1-6.3c-3.1-4.2-12-5.3-12.8-0.3c0,0-4.7-5.3-12.6,2.6
		c-7.9,7.8,1.3,17.1,5.7,18.4c4.5,1.3,6.3-3.1,4.5-6c-1.8-2.9-2.4,1.3-4.5,0.2c-2.1-1.1-0.2-5.5,4.2-4.2c8.9,3.7,3.1,14.7-2.4,13.9
		c-5.5-0.8-9.3-2.3-11.4-9.2c-1.1,1-3.8,7.5,0.4,10.7c4.2,3.2,0,5.8-5.3,4.7c-5.2-1.1-3.7-3.7-5.5-11.8c-1.8-8.1-11-6.9-15.7-3.7
		c-0.6,0.4-1.2,0.6-1.8,0.6c8.2,10.7,13.6,23.7,15.1,38c1.1-0.1,2.2-0.3,3.3-0.7c0.5,4.7,9.4,8.9,14.7,3.7c5.3-5.2,6.3-9.9,1.1-16.3
		c-5.2-6.3,1.1-10,5-6c3.9,3.9,7.1,2.4,11.8-0.7c-3.7,9.4,4.2,5.3,6.8,12.1c2.6,6.8,16,10.3,21-1c6.5,3.4,20-7.3,15-19.1
		C261.9,56,259.6,37.4,243.1,32.4z"/>
</g>
<text transform="matrix(1 0 0 1 184.2622 129.8428)" style="fill:#6D8464; font-family:'Baskerville-Bold'; font-size:29.6551;">TENSHIN WebWorkshop</text>
<text transform="matrix(1 0 0 1 188.4692 164.7266)" style="fill:#6D8464; font-family:'Baskerville-SemiBold'; font-size:25.7011;">Fusion of  WEB and ZEN</text>
<path style="fill:#C9AB2D;" d="M87,173.1c-47.4,0-86-38.6-86-86C1,39.6,39.6,1,87,1c47.4,0,86,38.6,86,86
	C173.1,134.5,134.5,173.1,87,173.1z M87,11.6c-41.6,0-75.5,33.9-75.5,75.5c0,41.6,33.9,75.5,75.5,75.5c41.6,0,75.5-33.9,75.5-75.5
	C162.5,45.4,128.7,11.6,87,11.6z"/>
<g>
	<path style="fill:#C9AB2D;" d="M97.4,71.2c-3.7-1.7-7-2.7-10.1-2.8c-0.2,0-2.6,0.5-7.3,1.5c-5,1-7.9,1.6-8.7,1.7
		c0.7-4.8,2.1-8.5,4.2-11.3c0.3-0.3,0.4-0.7,0.4-1.1c0.1-2.2-1.3-4.3-4.4-6.2c6.2-1.4,12.8-2,19.8-1.6c0.8,0,2,0.2,3.6,0.4
		c1.6,0.2,2.8,0.3,3.6,0.4c5.1,0.3,7.7-1.1,7.9-4c0.2-3.5-1.9-6.5-6.3-9c-3.7-2-7.5-3.2-11.5-3.4c-2.3-0.1-8.2,0.8-17.6,2.7
		c-6.2,1.4-12.5,2.7-18.7,3.9c-10.3,1.9-18.7,0.2-20.3,0.1c-2.4-0.1-4.5-0.7-6.3-1.8L25,41.4c0.2,1.9,1.6,4.7,4.2,8.5
		c2.6,3.8,4.7,5.9,6.3,6.4c8.4-3.1,17.4-1.9,22.2-1.8c0,0.6,0.5,1.8,1.5,3.6c0.8,1.5,1.1,3.4,1,5.8C60,67,59.5,70,58.6,73
		c-11.4,2.4-17.7,3.6-18.9,3.6c-2.8-0.1-5.6-0.9-8.4-2.4l-0.9,1.4c0.5,2.4,1.8,5.3,3.9,8.7c2.4,3.9,4.4,6.1,6.1,6.6
		c3.2-2.2,5.5-3.5,7.1-4.1c2-0.8,4.8-1.2,8.2-1.4c-7.3,18-17.9,34.6-38.8,46.7l0.8,0.6c2.2,0.4,4.3,0.6,6.3,0.7
		c18.7,1,30-12.9,40.7-38.6c0,0,0,0.1,0.1,0.1c0.1-0.1,0.1-0.2,0.2-0.4c0.2-0.5,0.5-1,0.8-1.5c1-2,1.8-4.1,2.9-6
		c0-0.2,0.1-0.4,0.2-0.6c0.1-0.4,0.3-0.7,0.5-1.1c0.1-0.2,0.2-0.5,0.3-0.7c0.2-0.4,0.4-0.7,0.7-1c0.3-0.3,0.7-0.6,1.2-0.7
		c0.1,0,0.3-0.1,0.4-0.1c0.4-0.1,0.8-0.2,1.3-0.2c0.1,0,0.2,0,0.3,0c2.6-0.2,5.2-0.2,7.8-0.1c1.7,0.1,4.1,0.4,7.4,0.9
		c3.3,0.5,5.7,0.8,7.4,0.9c1.9,0.1,3.6-0.4,5.1-1.7c1.5-1.2,2.3-2.8,2.4-4.7C103.9,75.7,101.8,73.3,97.4,71.2z"/>
	<path style="fill:#C9AB2D;" d="M158.7,123.5c0.1,1.2-0.1,2.2-0.6,3.1c-1,1.9-4.7,3.9-11.1,5.9c-5.3,1.6-9.8,2.6-13.7,3
		c-7,0.7-14.3,0.6-21.8-0.4c-8.1-1.1-14.7-3-19.8-5.7c-8.4-4.4-14.1-9-17.2-13.8c-3-4.5-5.2-8.4-6.8-11.8c-2.6-5.5-4.1-8.5-4.3-8.9
		c-1.9-3.4-4-6.2-6.4-8.2l0.2-1.1c1.3-0.4,2.5-0.6,3.7-0.8c2.6-0.3,5.8,0.1,9.7,1c4.4,1.1,6.8,2.4,7,4c0.1,0.6,0.1,1.4,0.1,2.4
		c0.1,1.1,0.2,1.9,0.2,2.4c0.3,2.6,1.1,5.1,2.6,7.6c0.2,0.5,1.8,2.9,4.7,6.9c3.7,5.3,9.6,9.3,17.5,12c8,2.7,16.1,3.7,24.5,2.8
		c7.5-0.8,11-4.2,10.4-10.2c-0.4-3.6-1.9-7.2-4.4-10.6l0.3-1.1c4.3,1.8,9.3,5,15,9.5C155,116.7,158.4,120.7,158.7,123.5z"/>
	<path style="fill:#C9AB2D;" d="M121.4,104c0.8,4.3-0.5,6.7-3.9,7.4c-2.5,0.5-4.5-0.3-6.2-2.3c-0.3-0.4-1.3-2.2-3-5.3
		c-1.9-3.6-4.1-6.9-6.4-9.8l-0.1-1.1c0.6-0.2,1.2-0.3,1.8-0.5c4.1-0.8,7.9-0.1,11.4,2.1C118.4,96.7,120.6,99.9,121.4,104z"/>
	<path style="fill:#C9AB2D;" d="M155.6,92c0.5,3.4-1.4,5.5-5.9,6.2c-0.9,0.1-2.7-0.4-5.2-1.7c-1.9-1-4.6-2.7-7.8-5.3
		c-3.3-2.5-5.8-4.3-7.5-5.2l-0.2-0.8c2.2-1.2,4.4-1.9,6.4-2.3c3.7-0.6,7.7-0.1,12,1.3C152.3,86.1,155,88.6,155.6,92z"/>
</g>
</svg>
