<?xml version="1.0" encoding="utf-8"?>
<!-- Generator: Adobe Illustrator 15.1.0, SVG Export Plug-In . SVG Version: 6.00 Build 0)  -->
<!DOCTYPE svg PUBLIC "-//W3C//DTD SVG 1.1//EN" "http://www.w3.org/Graphics/SVG/1.1/DTD/svg11.dtd" [
	<!ENTITY ns_flows "http://ns.adobe.com/Flows/1.0/">
	<!ENTITY ns_extend "http://ns.adobe.com/Extensibility/1.0/">
	<!ENTITY ns_ai "http://ns.adobe.com/AdobeIllustrator/10.0/">
	<!ENTITY ns_graphs "http://ns.adobe.com/Graphs/1.0/">
]>
<svg version="1.1" id="レイヤー_1" xmlns:x="&ns_extend;" xmlns:i="&ns_ai;" xmlns:graph="&ns_graphs;"
	 xmlns="http://www.w3.org/2000/svg" xmlns:xlink="http://www.w3.org/1999/xlink" xmlns:a="http://ns.adobe.com/AdobeSVGViewerExtensions/3.0/"
	 x="0px" y="0px" width="574.1px" height="161.1px" viewBox="0 0 574.1 161.1" style="enable-background:new 0 0 574.1 161.1;"
	 xml:space="preserve">
<g>
	<path d="M135.8,56.9c-5.9-2.8-11.3-4.3-16.2-4.5c-0.3,0-4.2,0.8-11.7,2.5c-8.1,1.6-12.7,2.5-14,2.7c1.2-7.7,3.4-13.7,6.8-18.2
		c0.4-0.5,0.6-1.1,0.7-1.7c0.2-3.6-2.1-6.9-7-10c9.9-2.3,20.5-3.2,31.8-2.6c1.3,0.1,3.2,0.3,5.8,0.6c2.6,0.3,4.5,0.5,5.8,0.6
		c8.2,0.4,12.4-1.7,12.7-6.5c0.3-5.6-3-10.5-10-14.4c-5.9-3.3-12-5.1-18.4-5.4c-3.7-0.2-13.1,1.2-28.2,4.3c-10,2.2-20,4.3-30.1,6.3
		c-16.5,3.1-26,4.6-28.6,4.5c-3.9-0.2-7.2-1.2-10.1-2.9l-1.4,1.3c0.4,3,2.6,7.5,6.7,13.6c4.1,6.1,7.5,9.5,10.2,10.3
		C53.8,32.4,64.4,30,72,30.2c0.1,0.9,0.9,2.8,2.4,5.7c1.3,2.4,1.8,5.5,1.6,9.4c-0.3,5-1.1,9.9-2.5,14.5c-18.4,3.9-28.5,5.8-30.4,5.7
		c-4.5-0.2-9-1.5-13.5-3.8L28.1,64c0.8,3.8,2.9,8.5,6.2,14c3.8,6.3,7.1,9.8,9.9,10.6c5.1-3.5,8.9-5.6,11.3-6.5
		c3.3-1.2,7.7-2,13.2-2.2C57,108.8,34.5,133,1,152.5l1.3,1c3.6,0.6,7,1,10.2,1.1c30,1.6,53.7-18.3,70.9-59.5c0,0.1,0.1,0.1,0.1,0.2
		c0.1-0.2,0.2-0.4,0.3-0.6c0.4-0.8,0.8-1.6,1.2-2.4c1.6-3.2,2.9-6.6,4.7-9.7c0.1-0.3,0.2-0.6,0.3-0.9c0.2-0.6,0.5-1.2,0.8-1.7
		c0.1-0.4,0.3-0.8,0.6-1.1c0.3-0.6,0.6-1.2,1.1-1.7c0.5-0.5,1.2-0.9,1.9-1.2c0.2-0.1,0.4-0.1,0.6-0.2c0.6-0.2,1.3-0.4,2-0.3
		c0.2,0,0.4,0,0.5,0.1c4.1-0.3,8.3-0.4,12.6-0.1c2.7,0.1,6.7,0.6,11.9,1.4c5.2,0.8,9.2,1.3,11.9,1.4c3.1,0.2,5.8-0.7,8.2-2.7
		c2.4-1.9,3.6-4.4,3.8-7.5C146.2,64.1,142.8,60.4,135.8,56.9z"/>
	<path d="M234.2,139c0.2,1.9-0.1,3.6-0.9,5c-1.6,3.1-7.6,6.3-17.8,9.4c-8.5,2.6-15.8,4.2-22,4.8c-11.3,1.1-22.9,0.9-35-0.7
		c-13.1-1.7-23.7-4.8-31.7-9.2c-13.5-7.1-22.7-14.5-27.7-22.2c-4.8-7.2-8.4-13.5-10.9-18.9c-4.2-8.8-6.5-13.6-6.9-14.3
		c-3.1-5.5-6.5-9.9-10.3-13.2l0.2-1.7c2-0.6,4-1,5.9-1.2c4.1-0.4,9.3,0.1,15.6,1.6c7.1,1.7,10.9,3.9,11.3,6.5
		c0.1,0.9,0.1,2.2,0.2,3.8c0.2,1.8,0.3,3.1,0.4,3.8c0.4,4.1,1.8,8.2,4.2,12.3c0.4,0.9,2.9,4.6,7.6,11.1c6,8.5,15.4,14.9,28.2,19.3
		c12.8,4.4,25.9,5.9,39.4,4.6c12.1-1.2,17.6-6.7,16.7-16.4c-0.6-5.8-3-11.5-7.1-17l0.4-1.7c7,3,15,8.1,24,15.3
		C228.3,128.1,233.7,134.5,234.2,139z"/>
	<path d="M174.3,109.7c1.3,6.9-0.7,10.8-6.2,11.9c-4,0.8-7.3-0.4-10-3.6c-0.5-0.6-2.1-3.5-4.8-8.5c-3.1-5.8-6.5-11.1-10.4-15.8
		l-0.2-1.8c1-0.3,2-0.5,3-0.7c6.7-1.3,12.8-0.2,18.3,3.3C169.5,98,173,103.1,174.3,109.7z"/>
	<path d="M229.2,90.4c0.9,5.5-2.3,8.8-9.5,10c-1.5,0.2-4.3-0.6-8.4-2.7c-3.1-1.6-7.3-4.4-12.6-8.5c-5.3-4.1-9.3-6.9-12.1-8.4
		l-0.4-1.3c3.6-1.9,7-3.1,10.3-3.6c6-1,12.4-0.2,19.3,2.2C223.9,80.9,228.4,85,229.2,90.4z"/>
</g>
<g>
	<path d="M269.2,101.5h-6.3v16.3h-3v-16.3h-6.3v-2.6h15.6V101.5z"/>
	<path d="M284.7,115.1v2.6h-13V98.8h12.7v2.6h-9.8v5.4h8.4v2.5h-8.4v5.8H284.7z"/>
	<path d="M290.8,104.4v13.3h-3V98.8h2.3l10.8,13.6V98.9h3v18.9h-2.5L290.8,104.4z"/>
	<path d="M319.4,103.3c-0.2-0.2-0.4-0.4-0.8-0.6c-0.3-0.2-0.7-0.4-1.2-0.6s-1-0.4-1.5-0.5c-0.5-0.1-1.1-0.2-1.7-0.2
		c-1.3,0-2.2,0.2-2.8,0.7c-0.6,0.5-0.9,1.1-0.9,1.9c0,0.5,0.1,0.8,0.3,1.1c0.2,0.3,0.5,0.6,0.9,0.8c0.4,0.2,0.9,0.4,1.5,0.6
		s1.3,0.4,2.1,0.5c1,0.2,1.8,0.5,2.6,0.8c0.8,0.3,1.4,0.6,2,1c0.5,0.4,0.9,0.9,1.2,1.5c0.3,0.6,0.4,1.3,0.4,2.2c0,1-0.2,1.8-0.5,2.5
		c-0.4,0.7-0.9,1.3-1.5,1.7c-0.6,0.4-1.4,0.8-2.2,1s-1.7,0.3-2.7,0.3c-1.4,0-2.8-0.2-4.2-0.7c-1.3-0.4-2.6-1.1-3.6-1.9l1.4-2.6
		c0.2,0.2,0.6,0.5,1,0.8s0.9,0.5,1.5,0.8c0.6,0.2,1.2,0.4,1.9,0.6c0.7,0.2,1.4,0.3,2.1,0.3c1.2,0,2.1-0.2,2.7-0.6c0.6-0.4,1-1,1-1.8
		c0-0.5-0.1-0.9-0.4-1.2c-0.2-0.3-0.6-0.6-1-0.8c-0.4-0.2-1-0.5-1.6-0.7s-1.4-0.4-2.2-0.6c-0.9-0.2-1.8-0.5-2.5-0.8
		c-0.7-0.3-1.3-0.6-1.7-1s-0.8-0.8-1.1-1.4c-0.2-0.5-0.4-1.2-0.4-1.9c0-0.9,0.2-1.7,0.5-2.5s0.8-1.3,1.5-1.8
		c0.6-0.5,1.3-0.9,2.2-1.1s1.7-0.4,2.7-0.4c1.3,0,2.5,0.2,3.5,0.6c1.1,0.4,2,0.9,2.9,1.5L319.4,103.3z"/>
	<path d="M340.1,98.8v18.9h-3v-8.3h-9.5v8.3h-3V98.8h3v7.9h9.5v-7.9H340.1z"/>
	<path d="M344.3,117.8V98.8h3v18.9H344.3z"/>
	<path d="M354.6,104.4v13.3h-3V98.8h2.3l10.8,13.6V98.9h3v18.9h-2.5L354.6,104.4z"/>
	<path d="M385.3,98.9h2.8l2.3,6.4l2.3-6.4h2.8l-3.2,8.4l2.8,7l5.9-15.5h3.3l-7.8,18.9H394l-3.5-8.5l-3.5,8.5h-2.6l-7.8-18.9h3.3
		l5.9,15.5l2.8-7L385.3,98.9z"/>
	<path d="M412.5,118c-1.1,0-2.1-0.2-3-0.6s-1.6-0.9-2.3-1.6s-1.1-1.4-1.5-2.3c-0.3-0.9-0.5-1.8-0.5-2.8c0-1,0.2-1.9,0.5-2.8
		c0.3-0.9,0.8-1.7,1.5-2.3s1.4-1.2,2.3-1.6s1.9-0.6,3-0.6c1.1,0,2.1,0.2,2.9,0.6c0.9,0.4,1.6,0.9,2.3,1.6s1.1,1.4,1.4,2.3
		c0.3,0.9,0.5,1.8,0.5,2.7c0,0.2,0,0.4,0,0.6c0,0.2,0,0.3-0.1,0.5h-11.2c0.1,0.6,0.2,1.2,0.4,1.7c0.2,0.5,0.6,0.9,0.9,1.3
		s0.8,0.6,1.3,0.8c0.5,0.2,1,0.3,1.5,0.3c0.4,0,0.8,0,1.2-0.1s0.7-0.2,1.1-0.4c0.3-0.2,0.6-0.4,0.9-0.7s0.4-0.6,0.6-0.9l2.5,0.7
		c-0.5,1-1.3,1.9-2.4,2.6C415.3,117.7,414,118,412.5,118z M416.8,109.7c-0.1-0.6-0.2-1.1-0.4-1.6c-0.2-0.5-0.5-0.9-0.9-1.3
		s-0.8-0.6-1.3-0.8c-0.5-0.2-1-0.3-1.6-0.3s-1.1,0.1-1.6,0.3c-0.5,0.2-0.9,0.5-1.3,0.8s-0.7,0.8-0.9,1.3c-0.2,0.5-0.4,1-0.4,1.6
		H416.8z"/>
	<path d="M429.6,118c-1.1,0-2-0.3-2.9-0.8c-0.9-0.5-1.5-1.2-2-2v2.5h-2.6V98.3h2.9v8.2c0.6-0.9,1.2-1.6,2.1-2.1s1.8-0.8,2.9-0.8
		c0.9,0,1.8,0.2,2.5,0.6c0.8,0.4,1.4,0.9,2,1.6c0.5,0.7,1,1.4,1.3,2.3c0.3,0.9,0.4,1.8,0.4,2.8c0,1-0.2,1.9-0.5,2.8
		s-0.8,1.6-1.4,2.3c-0.6,0.6-1.3,1.2-2.1,1.5S430.5,118,429.6,118z M428.8,115.5c0.6,0,1.2-0.1,1.8-0.4c0.5-0.3,1-0.6,1.4-1
		c0.4-0.4,0.7-0.9,0.9-1.5s0.3-1.1,0.3-1.8s-0.1-1.2-0.3-1.8s-0.5-1.1-0.9-1.5c-0.4-0.4-0.8-0.8-1.3-1.1c-0.5-0.3-1.1-0.4-1.7-0.4
		c-0.9,0-1.7,0.3-2.4,0.9c-0.7,0.6-1.2,1.3-1.6,2.1v3.7c0.1,0.4,0.3,0.8,0.6,1.1c0.3,0.3,0.6,0.6,0.9,0.9c0.4,0.2,0.7,0.4,1.1,0.6
		C428.1,115.5,428.5,115.5,428.8,115.5z"/>
	<path d="M445.9,98.9h2.8l2.3,6.4l2.3-6.4h2.8l-3.2,8.4l2.8,7l5.9-15.5h3.3l-7.8,18.9h-2.6l-3.5-8.5l-3.5,8.5H445l-7.8-18.9h3.3
		l5.9,15.5l2.8-7L445.9,98.9z"/>
	<path d="M473.1,118c-1.1,0-2.1-0.2-3-0.6c-0.9-0.4-1.6-0.9-2.3-1.6s-1.1-1.4-1.4-2.3c-0.3-0.9-0.5-1.8-0.5-2.8s0.2-1.9,0.5-2.8
		c0.3-0.9,0.8-1.6,1.5-2.3c0.6-0.7,1.4-1.2,2.3-1.6c0.9-0.4,1.9-0.6,2.9-0.6c1.1,0,2.1,0.2,2.9,0.6c0.9,0.4,1.6,0.9,2.3,1.6
		c0.6,0.7,1.1,1.4,1.5,2.3c0.3,0.9,0.5,1.8,0.5,2.8s-0.2,1.9-0.5,2.8c-0.3,0.9-0.8,1.6-1.5,2.3c-0.6,0.7-1.4,1.2-2.3,1.6
		C475.1,117.8,474.2,118,473.1,118z M468.9,110.8c0,0.7,0.1,1.3,0.3,1.9c0.2,0.6,0.5,1.1,0.9,1.5c0.4,0.4,0.8,0.7,1.3,1
		c0.5,0.2,1.1,0.4,1.6,0.4c0.6,0,1.1-0.1,1.6-0.4c0.5-0.2,0.9-0.6,1.3-1c0.4-0.4,0.7-0.9,0.9-1.5c0.2-0.6,0.3-1.2,0.3-1.9
		c0-0.7-0.1-1.3-0.3-1.9c-0.2-0.6-0.5-1.1-0.9-1.5s-0.8-0.8-1.3-1c-0.5-0.2-1.1-0.4-1.6-0.4c-0.6,0-1.1,0.1-1.6,0.4
		c-0.5,0.2-0.9,0.6-1.3,1c-0.4,0.4-0.7,0.9-0.9,1.5C469,109.6,468.9,110.2,468.9,110.8z"/>
	<path d="M490.7,106.4c-1.1,0-2.1,0.3-3,0.8c-0.9,0.5-1.5,1.2-1.9,2.1v8.5h-2.9v-13.9h2.7v3.1c0.5-1,1.1-1.7,1.9-2.3
		c0.8-0.6,1.6-0.9,2.5-0.9c0.2,0,0.3,0,0.4,0c0.1,0,0.2,0,0.3,0V106.4z"/>
	<path d="M502.5,117.8l-4.5-6.4l-2.3,2.2v4.2h-2.9V98.3h2.9v12.3l6.4-6.8h3.2l-5.4,5.8l5.7,8.1H502.5z"/>
	<path d="M512.5,118c-1.1,0-2.2-0.2-3.3-0.5c-1.1-0.4-2.1-0.9-2.9-1.6l1.2-1.9c0.8,0.6,1.7,1.1,2.5,1.4c0.8,0.3,1.7,0.5,2.5,0.5
		c0.9,0,1.6-0.2,2.1-0.5c0.5-0.3,0.8-0.8,0.8-1.4c0-0.6-0.3-1-0.9-1.3s-1.5-0.6-2.7-0.9c-0.9-0.2-1.6-0.5-2.2-0.7
		c-0.6-0.2-1.1-0.5-1.5-0.7s-0.7-0.6-0.9-1c-0.2-0.4-0.3-0.8-0.3-1.4c0-0.7,0.1-1.3,0.4-1.9s0.7-1,1.1-1.4c0.5-0.4,1.1-0.7,1.7-0.9
		s1.4-0.3,2.1-0.3c1,0,2,0.2,2.9,0.5c0.9,0.3,1.7,0.8,2.4,1.4l-1.3,1.8c-1.3-1-2.7-1.5-4.1-1.5c-0.7,0-1.4,0.2-1.9,0.5
		c-0.5,0.3-0.8,0.8-0.8,1.5c0,0.3,0.1,0.5,0.2,0.7c0.1,0.2,0.3,0.4,0.5,0.5c0.2,0.1,0.6,0.3,0.9,0.4c0.4,0.1,0.9,0.2,1.4,0.4
		c0.9,0.2,1.8,0.5,2.4,0.7c0.7,0.2,1.2,0.5,1.7,0.8c0.4,0.3,0.8,0.7,1,1.1c0.2,0.4,0.3,0.9,0.3,1.5c0,1.3-0.5,2.4-1.5,3.2
		S514.2,118,512.5,118z"/>
	<path d="M533.1,117.8h-2.9V110c0-1.3-0.2-2.2-0.7-2.8c-0.5-0.6-1.1-0.9-2-0.9c-0.4,0-0.8,0.1-1.2,0.2c-0.4,0.2-0.8,0.4-1.2,0.7
		s-0.7,0.6-1,1s-0.5,0.8-0.6,1.3v8.3h-2.9V98.3h2.9v8.3c0.5-1,1.3-1.7,2.2-2.2s1.9-0.8,3-0.8c0.9,0,1.6,0.2,2.1,0.5s1,0.7,1.3,1.2
		c0.3,0.5,0.6,1.1,0.7,1.8c0.1,0.7,0.2,1.4,0.2,2.2V117.8z"/>
	<path d="M542.8,118c-1.1,0-2.1-0.2-3-0.6c-0.9-0.4-1.6-0.9-2.3-1.6s-1.1-1.4-1.4-2.3c-0.3-0.9-0.5-1.8-0.5-2.8s0.2-1.9,0.5-2.8
		c0.3-0.9,0.8-1.6,1.5-2.3c0.6-0.7,1.4-1.2,2.3-1.6c0.9-0.4,1.9-0.6,2.9-0.6c1.1,0,2.1,0.2,2.9,0.6c0.9,0.4,1.6,0.9,2.3,1.6
		c0.6,0.7,1.1,1.4,1.5,2.3c0.3,0.9,0.5,1.8,0.5,2.8s-0.2,1.9-0.5,2.8c-0.3,0.9-0.8,1.6-1.5,2.3c-0.6,0.7-1.4,1.2-2.3,1.6
		C544.9,117.8,543.9,118,542.8,118z M538.7,110.8c0,0.7,0.1,1.3,0.3,1.9c0.2,0.6,0.5,1.1,0.9,1.5c0.4,0.4,0.8,0.7,1.3,1
		c0.5,0.2,1.1,0.4,1.6,0.4c0.6,0,1.1-0.1,1.6-0.4c0.5-0.2,0.9-0.6,1.3-1c0.4-0.4,0.7-0.9,0.9-1.5c0.2-0.6,0.3-1.2,0.3-1.9
		c0-0.7-0.1-1.3-0.3-1.9c-0.2-0.6-0.5-1.1-0.9-1.5s-0.8-0.8-1.3-1c-0.5-0.2-1.1-0.4-1.6-0.4c-0.6,0-1.1,0.1-1.6,0.4
		c-0.5,0.2-0.9,0.6-1.3,1c-0.4,0.4-0.7,0.9-0.9,1.5C538.8,109.6,538.7,110.2,538.7,110.8z"/>
	<path d="M560.5,118c-1.1,0-2.1-0.3-3-0.8c-0.9-0.5-1.5-1.2-2-2.1v8.3h-2.9v-19.6h2.6v2.5c0.5-0.8,1.2-1.5,2.1-2
		c0.8-0.5,1.8-0.7,2.9-0.7c1,0,1.8,0.2,2.6,0.6c0.8,0.4,1.5,0.9,2.1,1.6c0.6,0.7,1,1.4,1.4,2.3c0.3,0.9,0.5,1.8,0.5,2.7
		c0,1-0.2,2-0.5,2.8c-0.3,0.9-0.7,1.6-1.3,2.3s-1.2,1.2-2,1.5S561.4,118,560.5,118z M559.6,115.5c0.6,0,1.2-0.1,1.7-0.4
		c0.5-0.3,0.9-0.6,1.3-1.1c0.4-0.4,0.6-1,0.8-1.5s0.3-1.2,0.3-1.8c0-0.6-0.1-1.2-0.3-1.8c-0.2-0.6-0.5-1.1-0.9-1.5
		c-0.4-0.4-0.8-0.8-1.4-1c-0.5-0.2-1.1-0.4-1.7-0.4c-0.4,0-0.8,0.1-1.2,0.2c-0.4,0.1-0.8,0.3-1.1,0.6c-0.4,0.2-0.7,0.5-0.9,0.9
		c-0.3,0.3-0.5,0.7-0.6,1.1v3.7c0.2,0.4,0.4,0.8,0.7,1.2s0.6,0.7,0.9,1c0.3,0.3,0.7,0.5,1.1,0.6
		C558.7,115.4,559.1,115.5,559.6,115.5z"/>
</g>
<g>
	<path d="M257.3,152.6v-16.8h11.2v2.3H260v5h7.2v2.2H260v7.2H257.3z"/>
	<path d="M274.5,152.8c-1.3,0-2.3-0.4-2.9-1.3c-0.7-0.8-1-2.1-1-3.8v-7.6h2.6v7.1c0,2.2,0.8,3.3,2.4,3.3c0.7,0,1.4-0.2,2.1-0.7
		c0.7-0.5,1.2-1.1,1.5-2v-7.7h2.6v9.3c0,0.3,0.1,0.5,0.2,0.6c0.1,0.1,0.3,0.2,0.6,0.2v2.2c-0.3,0-0.5,0.1-0.7,0.1
		c-0.2,0-0.3,0-0.5,0c-0.5,0-0.9-0.1-1.2-0.4s-0.5-0.6-0.5-1l0-1.2c-0.6,0.9-1.3,1.6-2.2,2C276.6,152.6,275.6,152.8,274.5,152.8z"/>
	<path d="M289.6,152.8c-1,0-2-0.2-3-0.5c-1-0.3-1.8-0.8-2.5-1.4l1-1.7c0.7,0.5,1.5,0.9,2.2,1.2c0.7,0.3,1.5,0.4,2.2,0.4
		c0.8,0,1.4-0.1,1.8-0.5c0.5-0.3,0.7-0.7,0.7-1.3c0-0.5-0.3-0.9-0.8-1.1c-0.5-0.2-1.3-0.5-2.4-0.8c-0.8-0.2-1.4-0.4-2-0.6
		c-0.6-0.2-1-0.4-1.4-0.7c-0.3-0.3-0.6-0.5-0.8-0.9c-0.2-0.3-0.2-0.7-0.2-1.2c0-0.6,0.1-1.2,0.4-1.7c0.2-0.5,0.6-0.9,1-1.2
		c0.4-0.3,0.9-0.6,1.5-0.8c0.6-0.2,1.2-0.3,1.9-0.3c0.9,0,1.8,0.1,2.6,0.4c0.8,0.3,1.5,0.7,2.2,1.2l-1.1,1.6
		c-1.2-0.9-2.4-1.4-3.7-1.4c-0.7,0-1.2,0.1-1.7,0.4s-0.7,0.7-0.7,1.3c0,0.3,0,0.5,0.1,0.6s0.2,0.3,0.5,0.5c0.2,0.1,0.5,0.2,0.8,0.3
		c0.3,0.1,0.8,0.2,1.3,0.3c0.8,0.2,1.6,0.4,2.2,0.6s1.1,0.4,1.5,0.7c0.4,0.3,0.7,0.6,0.9,1s0.3,0.8,0.3,1.3c0,1.2-0.4,2.1-1.3,2.8
		C292.4,152.5,291.2,152.8,289.6,152.8z"/>
	<path d="M296.9,138.2v-2.9h2.6v2.9H296.9z M296.9,152.6v-12.4h2.6v12.4H296.9z"/>
	<path d="M308.2,152.8c-1,0-1.9-0.2-2.6-0.5c-0.8-0.3-1.4-0.8-2-1.4s-1-1.3-1.3-2c-0.3-0.8-0.5-1.6-0.5-2.5c0-0.9,0.2-1.7,0.5-2.5
		s0.7-1.5,1.3-2s1.2-1,2-1.4c0.8-0.3,1.7-0.5,2.6-0.5c1,0,1.8,0.2,2.6,0.5s1.5,0.8,2,1.4c0.6,0.6,1,1.3,1.3,2
		c0.3,0.8,0.4,1.6,0.4,2.5c0,0.9-0.2,1.7-0.4,2.5c-0.3,0.8-0.7,1.5-1.3,2c-0.6,0.6-1.2,1-2,1.4C310,152.7,309.1,152.8,308.2,152.8z
		 M304.5,146.4c0,0.6,0.1,1.2,0.3,1.7c0.2,0.5,0.5,0.9,0.8,1.3c0.3,0.4,0.7,0.7,1.2,0.9s0.9,0.3,1.5,0.3c0.5,0,1-0.1,1.5-0.3
		c0.5-0.2,0.8-0.5,1.2-0.9c0.3-0.4,0.6-0.8,0.8-1.3c0.2-0.5,0.3-1.1,0.3-1.7c0-0.6-0.1-1.1-0.3-1.6c-0.2-0.5-0.4-1-0.8-1.3
		s-0.7-0.7-1.2-0.9c-0.4-0.2-0.9-0.3-1.5-0.3c-0.5,0-1,0.1-1.4,0.3c-0.5,0.2-0.8,0.5-1.2,0.9c-0.3,0.4-0.6,0.8-0.8,1.3
		C304.6,145.3,304.5,145.8,304.5,146.4z"/>
	<path d="M328,152.6h-2.6v-6.9c0-1.2-0.2-2-0.6-2.5s-0.9-0.8-1.6-0.8c-0.4,0-0.8,0.1-1.1,0.2c-0.4,0.1-0.7,0.3-1.1,0.6
		s-0.6,0.6-0.9,0.9c-0.3,0.4-0.5,0.7-0.6,1.2v7.4h-2.6v-12.4h2.4v2.5c0.5-0.8,1.2-1.5,2.1-2c0.9-0.5,1.9-0.7,3-0.7
		c0.7,0,1.3,0.1,1.8,0.4s0.8,0.6,1.1,1.1s0.5,1,0.6,1.6c0.1,0.6,0.2,1.3,0.2,1.9V152.6z"/>
	<path d="M342.4,152.8c-1,0-1.9-0.2-2.6-0.5c-0.8-0.3-1.4-0.8-2-1.4s-1-1.3-1.3-2c-0.3-0.8-0.5-1.6-0.5-2.5c0-0.9,0.2-1.7,0.5-2.5
		s0.7-1.5,1.3-2s1.2-1,2-1.4c0.8-0.3,1.7-0.5,2.6-0.5c1,0,1.8,0.2,2.6,0.5s1.5,0.8,2,1.4c0.6,0.6,1,1.3,1.3,2
		c0.3,0.8,0.4,1.6,0.4,2.5c0,0.9-0.2,1.7-0.4,2.5c-0.3,0.8-0.7,1.5-1.3,2c-0.6,0.6-1.2,1-2,1.4C344.3,152.7,343.4,152.8,342.4,152.8
		z M338.7,146.4c0,0.6,0.1,1.2,0.3,1.7c0.2,0.5,0.5,0.9,0.8,1.3c0.3,0.4,0.7,0.7,1.2,0.9s0.9,0.3,1.5,0.3c0.5,0,1-0.1,1.5-0.3
		c0.5-0.2,0.8-0.5,1.2-0.9c0.3-0.4,0.6-0.8,0.8-1.3c0.2-0.5,0.3-1.1,0.3-1.7c0-0.6-0.1-1.1-0.3-1.6c-0.2-0.5-0.4-1-0.8-1.3
		s-0.7-0.7-1.2-0.9c-0.4-0.2-0.9-0.3-1.5-0.3c-0.5,0-1,0.1-1.4,0.3c-0.5,0.2-0.8,0.5-1.2,0.9c-0.3,0.4-0.6,0.8-0.8,1.3
		C338.8,145.3,338.7,145.8,338.7,146.4z"/>
	<path d="M351.8,152.6v-10.1h-1.7v-2h1.7V140c0-1.5,0.4-2.7,1.1-3.6c0.7-0.9,1.7-1.3,2.9-1.3c0.5,0,1,0.1,1.5,0.2
		c0.5,0.1,1,0.3,1.4,0.6l-0.6,1.9c-0.2-0.1-0.5-0.3-0.8-0.4c-0.3-0.1-0.6-0.1-0.9-0.1c-0.6,0-1.1,0.2-1.4,0.7
		c-0.3,0.5-0.5,1.1-0.5,2v0.6h3.2v2h-3.2v10.1H351.8z"/>
	<path d="M377.6,135.8h2.5l2.1,5.7l2.1-5.7h2.5l-2.9,7.5l2.5,6.2l5.2-13.7h2.9l-6.9,16.8h-2.3l-3.1-7.5l-3.2,7.5h-2.3l-6.9-16.8h2.9
		l5.3,13.7l2.5-6.2L377.6,135.8z"/>
	<path d="M408,150.2v2.3h-11.5v-16.8h11.3v2.3h-8.7v4.8h7.5v2.2h-7.5v5.1H408z"/>
	<path d="M424,148.3c0,0.7-0.1,1.3-0.4,1.8s-0.6,1-1.1,1.4s-1,0.7-1.6,0.9c-0.6,0.2-1.3,0.3-2,0.3h-8v-16.8h8.7
		c0.6,0,1.1,0.1,1.6,0.4c0.5,0.3,0.9,0.6,1.2,1c0.3,0.4,0.6,0.9,0.8,1.4c0.2,0.5,0.3,1,0.3,1.6c0,0.8-0.2,1.6-0.6,2.3
		c-0.4,0.7-1,1.3-1.8,1.6c1,0.3,1.7,0.8,2.3,1.6C423.7,146.3,424,147.2,424,148.3z M413.4,138.1v5h4.9c0.3,0,0.6-0.1,0.9-0.2
		c0.3-0.1,0.5-0.3,0.7-0.5c0.2-0.2,0.4-0.5,0.5-0.8c0.1-0.3,0.2-0.6,0.2-1c0-0.7-0.2-1.3-0.6-1.8c-0.4-0.5-0.9-0.7-1.6-0.7H413.4z
		 M421.3,147.8c0-0.3-0.1-0.7-0.2-1c-0.1-0.3-0.3-0.6-0.5-0.8c-0.2-0.2-0.4-0.4-0.7-0.6c-0.3-0.1-0.6-0.2-0.9-0.2h-5.5v5.1h5.4
		c0.3,0,0.7-0.1,1-0.2c0.3-0.1,0.6-0.3,0.8-0.5c0.2-0.2,0.4-0.5,0.5-0.8C421.2,148.4,421.3,148.1,421.3,147.8z"/>
	<path d="M435.6,152.8c-0.6,0-1.2-0.1-1.7-0.3c-0.5-0.2-1-0.5-1.3-0.8c-0.4-0.3-0.7-0.8-0.9-1.2c-0.2-0.5-0.3-1-0.3-1.5
		c0-0.6,0.1-1.1,0.4-1.6s0.6-0.9,1.1-1.2c0.5-0.3,1-0.6,1.7-0.8s1.3-0.3,2.1-0.3c0.6,0,1.2,0.1,1.7,0.2c0.6,0.1,1.1,0.2,1.5,0.4
		v-0.9c0-0.9-0.3-1.6-0.8-2.1c-0.5-0.5-1.3-0.8-2.2-0.8c-0.7,0-1.3,0.1-2,0.4c-0.6,0.2-1.3,0.6-2,1.1l-0.8-1.7
		c1.6-1.1,3.3-1.6,5-1.6c1.7,0,3,0.4,4,1.3c0.9,0.9,1.4,2.1,1.4,3.7v4.5c0,0.6,0.2,0.8,0.7,0.9v2.2c-0.3,0-0.5,0.1-0.7,0.1
		s-0.4,0-0.5,0c-0.5,0-0.9-0.1-1.2-0.4c-0.3-0.3-0.4-0.6-0.5-1l-0.1-0.8c-0.6,0.7-1.2,1.3-2,1.7S436.5,152.8,435.6,152.8z
		 M436.3,150.9c0.6,0,1.2-0.1,1.8-0.3c0.6-0.2,1-0.5,1.3-1c0.3-0.3,0.5-0.6,0.5-0.9v-1.6c-0.4-0.2-0.9-0.3-1.4-0.4
		c-0.5-0.1-1-0.1-1.5-0.1c-0.9,0-1.7,0.2-2.3,0.6c-0.6,0.4-0.9,0.9-0.9,1.6c0,0.6,0.2,1.1,0.7,1.6
		C435,150.7,435.6,150.9,436.3,150.9z"/>
	<path d="M456.7,152.6h-2.6v-6.9c0-1.2-0.2-2-0.6-2.5s-0.9-0.8-1.6-0.8c-0.4,0-0.8,0.1-1.1,0.2c-0.4,0.1-0.7,0.3-1.1,0.6
		s-0.6,0.6-0.9,0.9c-0.3,0.4-0.5,0.7-0.6,1.2v7.4h-2.6v-12.4h2.4v2.5c0.5-0.8,1.2-1.5,2.1-2c0.9-0.5,1.9-0.7,3-0.7
		c0.7,0,1.3,0.1,1.8,0.4s0.8,0.6,1.1,1.1s0.5,1,0.6,1.6c0.1,0.6,0.2,1.3,0.2,1.9V152.6z"/>
	<path d="M464.8,152.8c-0.8,0-1.6-0.2-2.3-0.5c-0.7-0.3-1.3-0.8-1.8-1.4c-0.5-0.6-0.9-1.3-1.2-2c-0.3-0.8-0.4-1.6-0.4-2.5
		c0-0.9,0.1-1.7,0.4-2.5c0.3-0.8,0.7-1.4,1.2-2c0.5-0.6,1.1-1,1.8-1.4s1.4-0.5,2.2-0.5c1,0,1.9,0.2,2.6,0.7c0.8,0.5,1.4,1.1,1.8,1.8
		v-7.2h2.6v14.2c0,0.3,0.1,0.5,0.2,0.6c0.1,0.1,0.3,0.2,0.6,0.2v2.2c-0.3,0-0.5,0.1-0.7,0.1s-0.3,0-0.4,0c-0.5,0-0.9-0.1-1.3-0.4
		s-0.5-0.6-0.5-1l0-0.9c-0.5,0.8-1.1,1.4-1.9,1.8C466.7,152.6,465.8,152.8,464.8,152.8z M465.5,150.6c0.4,0,0.8-0.1,1.1-0.2
		c0.4-0.1,0.7-0.3,1-0.5c0.3-0.2,0.6-0.5,0.8-0.8c0.2-0.3,0.4-0.6,0.5-1v-3.2c-0.1-0.4-0.3-0.8-0.6-1.1c-0.3-0.3-0.6-0.6-0.9-0.9
		c-0.3-0.2-0.7-0.4-1.1-0.5c-0.4-0.1-0.7-0.2-1.1-0.2c-0.5,0-1,0.1-1.4,0.4c-0.4,0.2-0.8,0.6-1.1,0.9c-0.3,0.4-0.6,0.8-0.7,1.4
		c-0.2,0.5-0.3,1-0.3,1.6c0,0.6,0.1,1.1,0.3,1.6c0.2,0.5,0.5,0.9,0.8,1.3c0.3,0.4,0.7,0.7,1.2,0.9
		C464.5,150.5,464.9,150.6,465.5,150.6z"/>
	<path d="M479.9,150.6l10.2-12.4h-10v-2.3h13.1v2l-10,12.4h10v2.3h-13.3V150.6z"/>
	<path d="M507.5,150.2v2.3h-11.5v-16.8h11.3v2.3h-8.7v4.8h7.5v2.2h-7.5v5.1H507.5z"/>
	<path d="M512.9,140.7v11.8h-2.7v-16.8h2.1l9.6,12.1v-12.1h2.7v16.8h-2.2L512.9,140.7z"/>
</g>
</svg>
